<?xml version="1.0" encoding="UTF-8"?><svg xmlns="http://www.w3.org/2000/svg" width="2014.1" height="1901.7" viewBox="0 0 2014.1 1901.7"><defs><style>.b{isolation:isolate;}.c{mix-blend-mode:overlay;opacity:.3;stroke-width:0px;}</style></defs><g class="b"><g id="a"><path class="c" d="m1591.4,1288l33.6,48.7c-22.1,0-44.4,0-66.8,0l33.2-48.7Zm-2.5-686.1l-33.8-48.9-33.4,49.1h67.2Zm.4,98l-33.8-48.9-33.4,49.1h67.2Zm-436.5,49.9l-33.4,49.1h67.2c0-.1-33.8-49.1-33.8-49.1Zm539.6,586.9c23,0,45.5,0,67.1,0l-33.8-48.9-33.4,49Zm-204-685.6h67.2c0-.1-33.8-49.1-33.8-49.1l-33.4,49.1Zm-402.7,98.8l-31,45.6c0,1.2,0,2.3,0,3.5h64.8c0-.1-33.8-49.1-33.8-49.1Zm66.1-294.2l-33.4,49.1h67.2c0-.1-33.8-49.1-33.8-49.1Zm606.7,586.8h67.2c0-.1-33.8-49.1-33.8-49.1l-33.4,49.1Zm100.6-49.2l-33.8-48.9-33.4,49.1h67.2Zm33.8,48.9h67.2c0-.1-33.8-49.1-33.8-49.1l-33.4,49.1Zm100.6-49.2l-33.8-48.9-33.4,49.1h67.2Zm-839.8-47.3l-33.4,49.1h67.2c0-.1-33.8-49.1-33.8-49.1Zm2.6,390.3c19.4,0,41.2.1,65,.2l-32.8-47.5-32.2,47.4Zm-36.7-537.3l-33.4,49.1h67.2c0-.1-33.8-49.1-33.8-49.1ZM1375.8.4l-4.7.8c-4,.7-14,3.3-22.2,5.7-8.2,2.4-18.1,5.3-21.9,6.4-1,.3-2.1.6-3.2.9h61.6c0-.1-9.5-13.9-9.5-13.9Zm48.3,1336.2c21.9,0,44.1,0,66.4,0l-33.4-48.4-33,48.4Zm-203.4-391l-33.4,49.1h67.2c0-.1-33.8-49.1-33.8-49.1Zm-67.5-97.9l-33.4,49.1h67.2c0-.1-33.8-49.1-33.8-49.1Zm136.9,488.7c21.1,0,43.1,0,65.8,0l-33.2-48.1-32.7,48Zm703-441.4l-33.8-48.9-33.4,49.1h67.2Zm-100.9-48.8h67.2c0-.1-33.8-49.1-33.8-49.1l-33.4,49.1Zm-616.2,412.5c8.6,0,17.4,0,26.3,0l-13.2-19.2-13,19.2Zm67,0c8.8,0,17.6,0,26.6,0l-13.4-19.4-13.2,19.4Zm-256.9-410.9l-31.5,46.2c0,1,0,1.9,0,2.9h65.2c0-.1-33.8-49.1-33.8-49.1Zm32.7-245.1l-33.4,49.1h67.2c0-.1-33.8-49.1-33.8-49.1Zm370.3,244.3h67.2c0-.1-33.8-49.1-33.8-49.1l-33.4,49.1Zm-202.2-195.6l-33.4,49.1h67.2c0-.1-33.8-49.1-33.8-49.1Zm123.1,607.4c8.9,0,17.8,0,26.8,0l-13.5-19.6-13.3,19.6Zm180-363l-33.8-48.9-33.4,49.1h67.2Zm-.4-98l-33.8-48.9-33.4,49.1h67.2Zm-535.1,101.9c0,16.1,0,31.5,0,46.2h31.9c0,0-31.8-46.2-31.8-46.2Zm432.8-542.8l-33.4,49.1h67.2c0-.1-33.8-49.1-33.8-49.1Zm-462.1,393v-9.8s-6.7,9.8-6.7,9.8h6.7Zm431.5,440.2h67.2c0-.1-33.8-49.1-33.8-49.1l-33.4,49.1Zm-431.4-244.1c0-3,0-5.9,0-9l-6.1,9h6.1Zm563.3-442.2l-33.8-48.9-33.4,49.1h67.2Zm338.3,685.4l-33.8-48.9-33.4,49.1h67.2Zm-269.4-195.5l-33.8-48.9-33.4,49.1h67.2Zm-505.4-440l-33.4,49.1h67.2c0-.1-33.8-49.1-33.8-49.1Zm203.3,489.6h67.2c0-.1-33.8-49.1-33.8-49.1l-33.4,49.1Zm436.8,48.1l-33.8-48.9-33.4,49.1h67.2Zm-704.8,148.5h67.2c0-.1-33.8-49.1-33.8-49.1l-33.4,49.1Zm65.1-588.2l-33.4,49.1h67.2c0-.1-33.8-49.1-33.8-49.1Zm741,586.5h67.2c0-.1-33.8-49.1-33.8-49.1l-33.4,49.1Zm-784.4,33.1c-24.6.1-39.1.3-40.3.5-1.4.2-2.5.4-3.6.6l-10.3,15.2c0,.4,0,.9,0,1.4h66.3c0-.1-12.1-17.6-12.1-17.6Zm112-227.7l-33.4,49.1h67.2c0-.1-33.8-49.1-33.8-49.1Zm773.4,243.4l-10.2-14.8c-11.7-.1-27.5-.2-46.6-.3l-10.4,15.2h67.2Zm-705.8-145.6h67.2c0-.1-33.8-49.1-33.8-49.1l-33.4,49.1Zm672.5,194.5c25.7-.1,41-.3,42.4-.5,6.9-1.1,7.9-1.5,8.9-3.7.6-1.5,1.1-8.4,1.4-16.7l-19.3-28-33.3,49Zm-33.8-48.8l-10.6-15.3c-14,0-29.4-.1-46-.2l-10.6,15.6h67.2Zm-268.7.6l-11.4-16.6c-14.6,0-29.4,0-44.3,0l-11.4,16.8h67.2Zm67.2-.1l11.1-16.3c15.4,0,30.4,0,45,.1l11.1,16h-67.2Zm-67.2.1l11.3-16.5c15.1,0,30,0,44.7,0l11.3,16.3h-67.2Zm-370.3-244.3h-67.2c0,.1,33.4-48.9,33.4-48.9l33.8,48.9Zm33.8,48.9h-67.2c0,.1,33.4-48.9,33.4-48.9l33.8,48.9Zm470.9,195.1l10.9-16c15.8,0,31,0,45.5.1l10.8,15.7h-67.2Zm-504.3-146l33.8,48.9h-67.2c0,.1,33.4-48.9,33.4-48.9Zm369.6,48.2l33.8,48.9h-67.2c0,.1,33.4-48.9,33.4-48.9Zm134.3-.3l33.8,48.9h-67.2c0,.1,33.4-48.9,33.4-48.9Zm-336.2-97.3l33.8,48.9h-67.2c0,.1,33.4-48.9,33.4-48.9Zm134.3-.3l33.8,48.9h-67.2c0,.1,33.4-48.9,33.4-48.9Zm-66.8,98.2l33.8,48.9h-67.2c0,.1,33.4-48.9,33.4-48.9Zm-302.5-48.4h-67.2c0,.1,33.4-48.9,33.4-48.9l33.8,48.9Zm-166.6,148.5l31.4,45.6c-13.6-.1-21.3-.3-22.1-.4-3.1-.6-6.1-1.6-6.6-2.1-2.7-3.1-3.7-26.7-2.8-43Zm805.3-2.8l33.8,48.9h-67.2c0,.1,33.4-48.9,33.4-48.9Zm-672.1-96.6h-67.2c0,.1,33.4-48.9,33.4-48.9l33.8,48.9Zm67.2-.1l33.8,48.9h-67.2c0,.1,33.4-48.9,33.4-48.9Zm134.3-.3l33.8,48.9h-67.2c0,.1,33.4-48.9,33.4-48.9Zm-168.1-48.7l33.8,48.9h-67.2c0,.1,33.4-48.9,33.4-48.9Zm503.6-50.1l33.8,48.9h-67.2c0,.1,33.4-48.9,33.4-48.9Zm67.2-.1l33.4-49.1,33.8,48.9h-67.2Zm-637.6,148.3l12.9,18.7c-9,0-17.5,0-25.5,0l12.6-18.6Zm-67.2.1l12.6,18.2c-10.5,0-18.9-.1-24.9-.2l12.3-18Zm168.1,48.7l12-17.6c13.9,0,28.3,0,43.1,0l12.1,17.5h-67.2Zm-101.6-244.8h-67.2c0,.1,33.4-48.9,33.4-48.9l33.8,48.9Zm-33.1,147.1h-66.1c0-.4,0-.9,0-1.4l32.4-47.5,33.8,48.9Zm-33.8-48.9h-32.5c0-13.9,0-29.6,0-47.3l32.6,47.3Zm233.9-343.5h-67.2c0,.1,33.4-48.9,33.4-48.9l33.8,48.9Zm-132.6,490.3l12-17.6c13.6,0,28,0,43,0l12.1,17.6h-67.2Zm33.4-49.1l13.1,19c-8.9,0-17.6,0-25.9,0l12.9-18.9Zm201.2-98.4l33.8,48.9h-67.2c0,.1,33.4-48.9,33.4-48.9Zm-301.8,147.6l12-17.6c12.8,0,27.2,0,43-.1l12.1,17.6h-67.2Zm200.5-294.5h-67.2c0,.1,33.4-48.9,33.4-48.9l33.8,48.9Zm-201.2,98.4h-66c0-.4,0-1,0-1.6l32.3-47.4,33.8,48.9Zm235.3,48.5l33.8,48.9h-67.2c0,.1,33.4-48.9,33.4-48.9Zm168.5,146.7l11.6-17c14.7,0,29.4,0,44,0l11.6,16.8h-67.2Zm-202.9-391.6h-67.2c0,.1,33.4-48.9,33.4-48.9l33.8,48.9Zm605.3,194.8l33.4-49.1,33.8,48.9h-67.2Zm.4,98l33.4-49.1,33.8,48.9h-67.2Zm-739.3-96.5h-67.2c0,.1,33.4-48.9,33.4-48.9l33.8,48.9Zm135,195.7l11.9-17.5c14.2,0,28.6,0,43.3,0l12,17.3h-67.2Zm-35.2-441h-67.2c0,.1,33.4-48.9,33.4-48.9l33.8,48.9Zm-167.4,147.4h-65.7c0-.6,0-1.4,0-2.1l31.9-46.8,33.8,48.9Zm269.7,293.5l11.8-17.3c14.3,0,28.9,0,43.5,0l11.9,17.2h-67.2Zm67.2-.1l11.7-17.2c14.5,0,29.1,0,43.7,0l11.7,17h-67.2Zm164.9-833.5l33.4-49.1,33.8,48.9h-67.2Zm167.8-49.4l33.4-49.1,33.8,48.9h-67.2ZM1486.2,63l19.2-28.2c4.8.3,16.9.4,28.8.4l19.1,27.7h-67.2Zm102,342.8l33.4-49.1,33.8,48.9h-67.2Zm-67.5-97.9l33.4-49.1,33.8,48.9h-67.2Zm-33.8-48.9l33.4-49.1,33.8,48.9h-67.2Zm-401.3,490.9h-31c0-15.2,0-30.2,0-44.8l30.9,44.8Zm367.9-441.8l33.4-49.1,33.8,48.9h-67.2Zm202.2,195.6l33.4-49.1,33.8,48.9h-67.2Zm-202.2-195.6h-67.2c0,.1,33.4-48.9,33.4-48.9l33.8,48.9Zm-99.9,245.2h-67.2c0,.1,33.4-48.9,33.4-48.9l33.8,48.9Zm503.6-50.1l33.8,48.9h-67.2c0,.1,33.4-48.9,33.4-48.9Zm-470.2,1h-67.2c0,.1,33.4-48.9,33.4-48.9l33.8,48.9Zm438.9,636.2l33.8,48.9h-67.2c0,.1,33.4-48.9,33.4-48.9Zm-438.6-538.2h-67.2c0,.1,33.4-48.9,33.4-48.9l33.8,48.9Zm268.7-.6l33.4-49.1,33.8,48.9h-67.2Zm-269.4-195.5h-67.2c0,.1,33.4-48.9,33.4-48.9l33.8,48.9Zm470.6,97l33.4-49.1,33.8,48.9h-67.2Zm-302.8-146.4l33.4-49.1,33.8,48.9h-67.2ZM1721.2,13.5h-46.8c4.1-2.7,10-7,18.4-13.3,1-.7,9.5,1.2,22.7,5l5.8,8.3Zm-63.7,980.3l33.4-49.1,33.8,48.9h-67.2Zm34.1,147l33.8,48.9h-67.2c0,.1,33.4-48.9,33.4-48.9Zm-34.5-245l33.4-49.1,33.8,48.9h-67.2Zm98.1-735.3l33.8,48.9h-67.2c0,.1,33.4-48.9,33.4-48.9Zm-232.1,833.6l33.8,48.9h-67.2c0,.1,33.4-48.9,33.4-48.9ZM1721.2,13.5l3.8-5.5c.9.3,1.8.5,2.7.8,4.9,1.5,10.5,3.2,15,4.7h-21.5Zm-63.7,980.3l33.8,48.9h-67.2c0,.1,33.4-48.9,33.4-48.9Zm98.1-735.3l33.4-49.1,33.8,48.9h-67.2Zm-99.2,441.3l33.4-49.1,33.8,48.9h-67.2Zm102.3,440.9l33.8,48.9h-67.2c0,.1,33.4-48.9,33.4-48.9ZM1620.6,62.7l26.1-38.4c4.8-1,9-2.1,12.5-3.2l28.6,41.4h-67.2Zm135,195.7l33.8,48.9h-67.2c0,.1,33.4-48.9,33.4-48.9Zm-403,.8l33.4-49.1,33.8,48.9h-67.2Zm303.5,342.4l33.8,48.9h-67.2c0,.1,33.4-48.9,33.4-48.9Zm.7,196l33.8,48.9h-67.2c0,.1,33.4-48.9,33.4-48.9Zm0,0l33.4-49.1,33.8,48.9h-67.2Zm-1.4-392.1l33.4-49.1,33.8,48.9h-67.2Zm68.9,489.9l33.4-49.1,33.8,48.9h-67.2Zm-103-636.9l33.8,48.9h-67.2c0,.1,33.4-48.9,33.4-48.9Zm-234.9,49.5h-67.2c0,.1,33.4-48.9,33.4-48.9l33.8,48.9Zm472.3,587.1l33.8,48.9h-67.2c0,.1,33.4-48.9,33.4-48.9Zm0,0l33.4-49.1,33.8,48.9h-67.2Zm.7,196l33.8,48.9h-67.2c0,.1,33.4-48.9,33.4-48.9Zm-134.7-97.7l33.4-49.1,33.8,48.9h-67.2Zm-.4-98l33.8,48.9h-67.2c0,.1,33.4-48.9,33.4-48.9Zm133.3-294.3l33.4-49.1,33.8,48.9h-67.2Zm-134.7-97.7l33.4-49.1,33.8,48.9h-67.2Zm.4,98l33.4-49.1,33.8,48.9h-67.2Zm-.4-98l33.8,48.9h-67.2c0,.1,33.4-48.9,33.4-48.9Zm136.1,489.8l33.4-49.1,33.8,48.9h-67.2Zm-135.4-293.8l33.8,48.9h-67.2c0,.1,33.4-48.9,33.4-48.9Zm135.7,391.8l33.4-49.1,33.8,48.9h-67.2Zm-135.7-391.8l33.4-49.1,33.8,48.9h-67.2Zm-703.7,442.5l5.4-7.9c0,2.7,0,5.3,0,7.9h-5.4Zm704.1-344.5l33.4-49.1,33.8,48.9h-67.2Zm134-98.3l33.4-49.1,33.8,48.9h-67.2Zm-469.5,197h-67.2c0,.1,33.4-48.9,33.4-48.9l33.8,48.9Zm469.5-197l33.8,48.9h-67.2c0,.1,33.4-48.9,33.4-48.9Zm-469.2,295h-67.2c0,.1,33.4-48.9,33.4-48.9l33.8,48.9Zm-33.8-48.9h-67.2c0,.1,33.4-48.9,33.4-48.9l33.8,48.9Zm33.1-147.1h-67.2c0,.1,33.4-48.9,33.4-48.9l33.8,48.9Zm303.2,244.4l33.8,48.9h-67.2c0,.1,33.4-48.9,33.4-48.9Zm-336.9-293.3h-67.2c0,.1,33.4-48.9,33.4-48.9l33.8,48.9Zm33.4-49.1h-67.2c0,.1,33.4-48.9,33.4-48.9l33.8,48.9Zm233.5-441.5l33.4-49.1,33.8,48.9h-67.2ZM1385.3,14.2l2.8-4.1c1.6,1.5,3.2,2.9,4.8,4.1h-7.6Zm171.6,1028.8l33.8,48.9h-67.2c0,.1,33.4-48.9,33.4-48.9Zm301.4-245.7l33.4-49.1,33.8,48.9h-67.2Zm-368.6,245.8l33.8,48.9h-67.2c0,.1,33.4-48.9,33.4-48.9Zm-67.2.1l33.8,48.9h-67.2c0,.1,33.4-48.9,33.4-48.9Zm-67.2.1l33.8,48.9h-67.2c0,.1,33.4-48.9,33.4-48.9Zm234.6-147.5l33.4-49.1,33.8,48.9h-67.2Zm-33.4,49.1l33.8,48.9h-67.2c0,.1,33.4-48.9,33.4-48.9Zm404.1,293.2l13.7,19.9c-7.8,0-17,.1-27.4.2l13.7-20.1Zm-471.3-293.1l33.8,48.9h-67.2c0,.1,33.4-48.9,33.4-48.9Zm504.3,146l19.9,28.9c0,6.9,0,13.6,0,20.1h-53.3c0,.1,33.4-49,33.4-49Zm-706.9-439.6h-67.2c0,.1,33.4-48.9,33.4-48.9l33.8,48.9Zm202.6,293.6h-67.2c0,.1,33.4-48.9,33.4-48.9l33.8,48.9Zm404.1,293.2l13.9,20.1c-8.7,0-18,0-27.6,0l13.7-20.2Zm-303.5-342.4l33.8,48.9h-67.2c0,.1,33.4-48.9,33.4-48.9Zm-32.7,245.1l33.8,48.9h-67.2c0,.1,33.4-48.9,33.4-48.9Zm269,97.5l13.9,20.1c-9,0-18.2,0-27.6,0l13.7-20.2Zm-338.7-783.4l33.4-49.1,33.8,48.9h-67.2Zm-269.7-293.5h-67.2c0,.1,33.4-48.9,33.4-48.9l33.8,48.9Zm371.7,636.3l33.4-49.1,33.8,48.9h-67.2Zm-.4-98l33.8,48.9h-67.2c0,.1,33.4-48.9,33.4-48.9Zm403.7,195.2l21,30.4c0,6.2,0,12.4,0,18.6h-54.4c0,.1,33.4-49,33.4-49Zm-672.8-292.6h-67.2c0,.1,33.4-48.9,33.4-48.9l33.8,48.9Zm-68.6-391.9h-67.2c0,.1,33.4-48.9,33.4-48.9l33.8,48.9Zm306,1028.5l13.7,19.9c-9.1,0-18.1,0-27.2,0l13.5-19.9Zm-69.6-686h-67.2c0,.1,33.4-48.9,33.4-48.9l33.8,48.9Zm33.4-49.1h-67.2c0,.1,33.4-48.9,33.4-48.9l33.8,48.9Zm1.4,392.1h-67.2c0,.1,33.4-48.9,33.4-48.9l33.8,48.9Zm102,342.8l13.8,20c-9.1,0-18.2,0-27.4,0l13.6-20Zm67.2-.1l13.8,20.1c-9.1,0-18.2,0-27.5,0l13.7-20.1Zm-201.5.4l13.6,19.7c-9,0-18,0-27,0l13.4-19.7Zm-338.7-783.4h-67.2c0,.1,33.4-48.9,33.4-48.9l33.8,48.9Zm437.5,244.1l33.4-49.1,33.8,48.9h-67.2Zm-67.5-97.9h-67.2c0,.1,33.4-48.9,33.4-48.9l33.8,48.9Zm.7,196h-67.2c0,.1,33.4-48.9,33.4-48.9l33.8,48.9Zm-33.8-48.9h-67.2c0,.1,33.4-48.9,33.4-48.9l33.8,48.9Zm-236.7-440.6h-67.2c0,.1,33.4-48.9,33.4-48.9l33.8,48.9Zm-66.8,98.2h-67.2c0,.1,33.4-48.9,33.4-48.9l33.8,48.9Zm574,831.9l13.9,20.1c-9,0-18.2,0-27.6,0l13.7-20.1Zm-237-538.6h-67.2c0,.1,33.4-48.9,33.4-48.9l33.8,48.9Zm-303.5-342.4h-67.2c0,.1,33.4-48.9,33.4-48.9l33.8,48.9Zm99.9-245.2l33.4-49.1,33.8,48.9h-67.2Zm571.5,145.8l30.6-44.9c-1,16.1-1.5,31-1.6,44.9h-29Zm-638.7-145.7h-67.2c0,.1,33.4-48.9,33.4-48.9l33.8,48.9Zm638.3,47.7l31.4,45.6c0,1.1-.2,2.3-.2,3.4h-64.6c0,.1,33.4-48.9,33.4-48.9Zm-434.7,540h-67.2c0,.1,33.4-48.9,33.4-48.9l33.8,48.9Zm-.4-98h-67.2c0,.1,33.4-48.9,33.4-48.9l33.8,48.9Zm-35.2-441l33.4-49.1,33.8,48.9h-67.2Zm35.9,637h-67.2c0,.1,33.4-48.9,33.4-48.9l33.8,48.9Zm434.7-540l30.9,44.7c.1,1.4.3,2.8.4,4.2h-64.7c0,.1,33.4-48.9,33.4-48.9Zm-468.1,589.1h-67.2c0,.1,33.4-48.9,33.4-48.9l33.8,48.9Zm33.8,48.9h-67.2c0,.1,33.4-48.9,33.4-48.9l33.8,48.9Zm-136.1-489.8h-67.2c0,.1,33.4-48.9,33.4-48.9l33.8,48.9Zm136.5,587.8h-67.2c0,.1,33.4-48.9,33.4-48.9l33.8,48.9Zm232.1-833.6l33.4-49.1,33.8,48.9h-67.2Zm-335.2,196.7h-67.2c0,.1,33.4-48.9,33.4-48.9l33.8,48.9ZM1889.3,62.2l1.9-2.8c3.2,1,6.3,1.9,9.2,2.8h-11.1Zm33.8,48.9l9.6-14.2c-.4,3.8-.9,8.1-1.5,12.5,0,.6-.1,1.1-.2,1.6h-8Zm-369.3,49.8l33.4-49.1,33.8,48.9h-67.2Zm-132.6,490.3h-67.2c0,.1,33.4-48.9,33.4-48.9l33.8,48.9Zm167.4-147.4l33.4-49.1,33.8,48.9h-67.2Zm-337.3-391.4l33.4-49.1,33.8,48.9h-67.2Zm741,586.5l21.7,31.5c0,5.8,0,11.6,0,17.4h-55.2c0,.1,33.4-49,33.4-49Zm-538.1-194.9h-67.2c0,.1,33.4-48.9,33.4-48.9l33.8,48.9Zm-168.1-48.7h-67.2c0,.1,33.4-48.9,33.4-48.9l33.8,48.9Zm302.5,48.4l33.8,48.9h-67.2c0,.1,33.4-48.9,33.4-48.9Zm.4,98l33.4-49.1,33.8,48.9h-67.2Zm-269-97.5h-67.2c0,.1,33.4-48.9,33.4-48.9l33.8,48.9Zm304.6,636.5l33.8,48.9h-67.2c0,.1,33.4-48.9,33.4-48.9Zm-170.6-734.8h-67.2c0,.1,33.4-48.9,33.4-48.9l33.8,48.9Zm470.2-1l17.1-25.1c2.9,5.7,6.1,11.1,9.6,16.3,2,3,4.2,5.9,6.4,8.7h-33.1Zm-503.6,50.1h-67.2c0,.1,33.4-48.9,33.4-48.9l33.8,48.9ZM1822.1,62.3l-21.3-30.9c-4.1-1.3-11.6-3.6-20.4-6.3l-25.5,37.4h67.2Zm-334.8,294.7h-67.2c0,.1,33.4-48.9,33.4-48.9l33.8,48.9Zm33.8,48.9l33.4-49.1,33.8,48.9h-67.2Zm470.6,97l22.2,32.2c0,5.4,0,11,0,16.8h-55.6c0,.1,33.4-49,33.4-49Zm-367.5,539.8l33.8,48.9h-67.2c0,.1,33.4-48.9,33.4-48.9Zm-371-440.3h-67.2c0,.1,33.4-48.9,33.4-48.9l33.8,48.9Zm32-441.1l33.4-49.1,33.8,48.9h-67.2Zm100.6-49.2l33.4-49.1,33.8,48.9h-67.2Zm-164.9,833.5h-67.2c0,.1,33.4-48.9,33.4-48.9l33.8,48.9Zm232.1-833.6l33.4-49.1,33.8,48.9h-67.2Zm-100.9-48.8l33.4-49.1,33.8,48.9h-67.2Zm-167.8,49.4h-49c-.3-2.7-.7-5.7-1-8.7-.7-5.5-1.1-10.2-1.4-14.2l15.6-22.9c1.1-.4,2.3-.8,3.5-1.2l32.4,47Zm607,684.8l33.4-49.1,33.8,48.9h-67.2Zm-472.3-587.1l33.4-49.1,33.8,48.9h-67.2Zm606.3,488.8l33.4-49.1,33.8,48.9h-67.2Zm-135-195.7l33.4-49.1,33.8,48.9h-67.2Zm-471.3-293.1h-67.2c0,.1,33.4-48.9,33.4-48.9l33.8,48.9Zm-167.8,49.4h-8.3c0-3.9,0-7.9,0-11.9l8.2,11.9Zm503.3-148.1l33.4-49.1,33.8,48.9h-67.2Zm-134.3.3l33.4-49.1,33.8,48.9h-67.2Zm-335.5,98.7h-42c-.2-8.7-.5-16.5-.9-22.5-.3-4.2-.5-8.2-.8-12l9.8-14.5,33.8,48.9Zm402.7-98.8l33.4-49.1,33.8,48.9h-67.2Zm204,685.7l33.8,48.9h-67.2c0,.1,33.4-48.9,33.4-48.9Zm-672.8-292.6h-63.1c0-1.9,0-4,0-5.9l29.3-43,33.8,48.9Zm101.6,244.8h-67.2c0,.1,33.4-48.9,33.4-48.9l33.8,48.9Zm166-539.4l33.4-49.1,33.8,48.9h-67.2Zm201.5-.4l33.4-49.1,33.8,48.9h-67.2Zm-333.4,686.8h-67.2c0,.1,33.4-48.9,33.4-48.9l33.8,48.9Zm636.6-442.4l33.4-49.1,33.8,48.9h-67.2Zm-772.7-47.4h-5.7c.9-1.4,1.8-2.9,2.7-4.4l3.1,4.4Zm135.4,293.8h-67.2c0,.1,33.4-48.9,33.4-48.9l33.8,48.9Zm537-99.1l33.4-49.1,33.8,48.9h-67.2Zm134.3-.3l33.8,48.9h-67.2c0,.1,33.4-48.9,33.4-48.9Zm0,0l33.4-49.1,33.8,48.9h-67.2Zm-134.3.3l33.8,48.9h-67.2c0,.1,33.4-48.9,33.4-48.9Zm134-98.3l33.4-49.1,33.8,48.9h-67.2Zm-133.6,196.3l33.4-49.1,33.8,48.9h-67.2Zm32.4-343.1l33.4-49.1,33.8,48.9h-67.2Zm-134.7-97.7l33.8,48.9h-67.2c0,.1,33.4-48.9,33.4-48.9Zm168.5,146.7l33.4-49.1,33.8,48.9h-67.2Zm-34.1-146.9l33.8,48.9h-67.2c0,.1,33.4-48.9,33.4-48.9Zm-302.5-48.4l33.4-49.1,33.8,48.9h-67.2Zm134.3-.3l33.4-49.1,33.8,48.9h-67.2Zm-437.2-146.1l15.1-22.1c5.8-1.7,12.3-3.7,19.6-5.8,3.5-1,7.2-2.2,11-3.3l21.5,31.1h-67.2Zm235.6,146.5l33.4-49.1,33.8,48.9h-67.2Zm-268.3,98.6h-44.3c.2-2,.5-4,.7-5.9.6-5.7,1.1-17,1.4-30.6l8.5-12.5,33.8,48.9Zm536.7-197.1l33.4-49.1,33.8,48.9h-67.2Zm-402.3,196.9h-67.2c0,.1,33.4-48.9,33.4-48.9l33.8,48.9Zm-200.1,392.5h-64.3c0-1.3,0-2.7,0-4.1l30.5-44.8,33.8,48.9Zm-.4-98h-63.8c0-1.6,0-3.2,0-4.9l30-44,33.8,48.9Zm133.6-196.3h-67.2c0,.1,33.4-48.9,33.4-48.9l33.8,48.9Zm436.5-49.9l33.4-49.1,33.8,48.9h-67.2Zm102.7,538.9l33.4-49.1,33.8,48.9h-67.2Zm64.4-784.2l33.4-49.1,33.8,48.9h-67.2Zm-133.3,294.3l33.4-49.1,33.8,48.9h-67.2Zm-437.2-146.1h-67.2c0,.1,33.4-48.9,33.4-48.9l33.8,48.9Zm503.3-148.1l33.4-49.1,33.8,48.9h-67.2Zm67.2-.1l33.8,48.9h-67.2c0,.1,33.4-48.9,33.4-48.9Zm-838.1,442.8l7.3-10.7v10.7s-7.3,0-7.3,0Zm907.7,243.1l33.4-49.1,33.8,48.9h-67.2Zm-671.7,1.4h-67.2c0,.1,33.4-48.9,33.4-48.9l33.8,48.9Zm-168.8-244.7h-29.9c0-15.9.1-30.4.2-43l29.7,43Zm737.5-393.6l33.8,48.9h-67.2c0,.1,33.4-48.9,33.4-48.9Zm-569.7,344.2h-67.2c0,.1,33.4-48.9,33.4-48.9l33.8,48.9Zm503.6-50.1l33.4-49.1,33.8,48.9h-67.2Zm-537,99.1h-67.2c0,.1,33.4-48.9,33.4-48.9l33.8,48.9Zm438.6,538.2l33.8,48.9h-67.2c0,.1,33.4-48.9,33.4-48.9ZM1351.9,63.3h67.2c0-.1-33.4,48.9-33.4,48.9l-33.8-48.9Zm270.8,587.5h67.2c0-.1-33.4,48.9-33.4,48.9l-33.8-48.9Zm132.9-392.3h67.2c0-.1-33.4,48.9-33.4,48.9l-33.8-48.9Zm-536,393.2h-67.2c0,.1,33.4-48.9,33.4-48.9l33.8,48.9Zm436.1-147.9l33.8,48.9h-67.2c0,.1,33.4-48.9,33.4-48.9ZM1284.7,63.4l32-47c.8-.2,1.6-.5,2.4-.7l32.8,47.6h-67.2Zm470.6,97l33.4-49.1,33.8,48.9h-67.2Zm.7,196l33.4-49.1,33.8,48.9h-67.2Zm-30.6,833.2l33.8,48.9h-67.2c0,.1,33.4-48.9,33.4-48.9ZM1285.1,161.4h67.2c0-.1-33.4,48.9-33.4,48.9l-33.8-48.9Zm-63.7,980.3l-33.4,49.1-33.8-48.9h67.2Zm302.1-49.6l33.8,48.9h-67.2c0,.1,33.4-48.9,33.4-48.9Zm132.9-392.3l33.8,48.9h-67.2c0,.1,33.4-48.9,33.4-48.9Zm-236.7-440.6l33.4-49.1,33.8,48.9h-67.2Zm-67.2.1h-67.2c0,.1,33.4-48.9,33.4-48.9l33.8,48.9Zm200.8-196.4l19.8-29.1c2.2-.2,4.6-.4,6.9-.6,7.1-.6,14.5-1.3,16.4-1.5.8,0,1.6-.2,2.5-.3l21.6,31.3h-67.2Zm205.4,1077.7l-33.4,49.1-33.8-48.9h67.2Zm-473.7-979.2h-67.2c0,.1,33.4-48.9,33.4-48.9l33.8,48.9Zm372.1,734.3l33.8,48.9h-67.2c0,.1,33.4-48.9,33.4-48.9ZM1721.2,13.5l-5.8-8.3c2.9.9,6.1,1.8,9.5,2.8l-3.8,5.5Zm-97.8,833.3h67.2c0-.1-33.4,48.9-33.4,48.9l-33.8-48.9Zm64.4-784.2h-67.2c0,.1,33.8,49.1,33.8,49.1l33.4-49.1Zm36.9,931.1l33.8,48.9h-67.2c0,.1,33.4-48.9,33.4-48.9Zm200.5-294.5l33.8,48.9h-67.2c0,.1,33.4-48.9,33.4-48.9Zm-907.4-145.1h7.3s0,10.6,0,10.6l-7.3-10.6Zm1.1,294l6.4-9.4v8.4c0,.3,0,.7,0,1h-6.4Zm839.5-50.8l33.8,48.9h-67.2c0,.1,33.4-48.9,33.4-48.9Zm-839.8-47.3h6.7s0,9.7,0,9.7l-6.7-9.7Zm603.2-393.3l33.4-49.1,33.8,48.9h-67.2Zm69.3,587.9h67.2c0-.1-33.4,48.9-33.4,48.9l-33.8-48.9Zm.4,98l-33.4,49.1-33.8-48.9h67.2ZM1419.1,63.2l23.2-34c6.5.9,13.8,1.7,22.3,2.5l21.7,31.5h-67.2Zm-401.6,392.9l4.4-6.5c.4.2.6.4.8.5l2.3,1.5v4.5s-7.6,0-7.6,0Zm603.9-197.3h67.2c0-.1-33.4,48.9-33.4,48.9l-33.8-48.9Zm-601.1,981.4l4.6-6.7c0,2.6,0,4.8-.1,6.7h-4.4Zm65.1-588.2h-30.5c0-15.3,0-30,0-44l30.4,44Zm840.5,243.3l33.8,48.9h-67.2c0,.1,33.4-48.9,33.4-48.9Zm-906,246.9h5.4c0,2.6,0,5.2,0,7.7l-5.3-7.7Zm65.8-392.2l-31,45.6c0-15.5,0-30.6,0-45.5h31Zm637.6-148.3l33.8,48.9h-67.2c0,.1,33.4-48.9,33.4-48.9Zm99.5-343.3l33.4-49.1,33.8,48.9h-67.2Zm2.5,686.1h67.2c0-.1-33.4,48.9-33.4,48.9l-33.8-48.9Zm-805.7,99.7l5.8-8.5c0,2.9,0,5.7,0,8.5h-5.8Zm670-491.5h67.2c0-.1-33.4,48.9-33.4,48.9l-33.8-48.9Zm169.5,440.7l33.8,48.9h-67.2c0,.1,33.4-48.9,33.4-48.9Zm-169.9-538.7l33.4-49.1,33.8,48.9h-67.2Zm133.3-294.3h67.2c0-.1-33.4,48.9-33.4,48.9l-33.8-48.9Zm69.6,686h67.2c0-.1-33.4,48.9-33.4,48.9l-33.8-48.9Zm-100.6,49.2l33.8,48.9h-67.2c0,.1,33.4-48.9,33.4-48.9Zm-772.3,50.6h6.1c0,3,0,5.9,0,8.9l-6.1-8.9Zm704.8-148.5l33.8,48.9h-67.2c0,.1,33.4-48.9,33.4-48.9Zm-638,50.3h-31.4c0-1.1,0-2.3,0-3.5,0-14.2,0-28.2,0-42l31.4,45.5Zm604.2-99.3h67.2c0-.1-33.4,48.9-33.4,48.9l-33.8-48.9Zm-404.8-489.2l-33.4,49.1-33.8-48.9h67.2Zm.4,98h-67.2c0,.1,33.4-48.9,33.4-48.9l33.8,48.9Zm538.1,194.9h67.2c0-.1-33.4,48.9-33.4,48.9l-33.8-48.9Zm-201.9-97.6h67.2c0-.1-33.4,48.9-33.4,48.9l-33.8-48.9Zm135.7,391.8h67.2c0-.1-33.4,48.9-33.4,48.9l-33.8-48.9Zm-671,197.4h-32.3c0-14.5,0-30.1,0-46.7l32.2,46.7Zm134.3-.3h-67.2c0,.1,33.4-48.9,33.4-48.9l33.8,48.9Zm199.1-686.5h-67.2c0,.1,33.4-48.9,33.4-48.9l33.8,48.9Zm134-98.3l33.4-49.1,33.8,48.9h-67.2Zm-334.8,294.7l-33.4,49.1-33.8-48.9h67.2Zm134-98.3h-67.2c0,.1,33.4-48.9,33.4-48.9l33.8,48.9Zm573.3,635.9l33.8,48.9h-67.2c0,.1,33.4-48.9,33.4-48.9ZM1520,111.9l-33.8-48.9h67.2c0-.1-33.4,48.9-33.4,48.9Zm34.5,245h67.2c0-.1-33.4,48.9-33.4,48.9l-33.8-48.9Zm305.3,832.5l33.8,48.9h-67.2c0,.1,33.4-48.9,33.4-48.9Zm-775.1-733.5h-29c0-3,0-4.7.1-4.8.6-1.5,4.2-3.7,11.4-6.9,2.6-1.2,4.9-2.2,7-3.3l10.4,15Zm738.9-1.5l33.4-49.1,33.8,48.9h-67.2Zm-266.6,588.6l-33.4,49.1-33.8-48.9h67.2Zm-36.2-735l-33.8-48.9h67.2c0-.1-33.4,48.9-33.4,48.9Zm271.5,783.5l33.8,48.9h-67.2c0,.1,33.4-48.9,33.4-48.9Zm-705.8-145.6l-31.9,46.8c0-14.7,0-30.3,0-46.8h31.9Zm268.3-98.6h-67.2c0,.1,33.4-48.9,33.4-48.9l33.8,48.9Zm-.4-98l-33.4,49.1-33.8-48.9h67.2ZM1788.7,111.4l-33.8-48.9h67.2c0-.1-33.4,48.9-33.4,48.9Zm-433.6,834l-33.4,49.1-33.8-48.9h67.2Zm469.5-197h67.2c0-.1-33.4,48.9-33.4,48.9l-33.8-48.9Zm-402,294.9l-33.4,49.1-33.8-48.9h67.2Zm-201.9-97.6l-33.4,49.1-33.8-48.9h67.2Zm134.7,97.7h-67.2c0,.1,33.4-48.9,33.4-48.9l33.8,48.9Zm470.6,97h67.2c0-.1-33.4,48.9-33.4,48.9l-33.8-48.9Zm-472.3-587.1l-33.4,49.1-33.8-48.9h67.2Zm504,48l33.8,48.9h-67.2c0,.1,33.4-48.9,33.4-48.9Zm35.2,441h67.2c0-.1-33.4,48.9-33.4,48.9l-33.8-48.9Zm-807.8-488.4l-30,44c0-15.7,0-30.4.1-44h29.9Zm673.5,488.7h67.2c0-.1-33.4,48.9-33.4,48.9l-33.8-48.9Zm-404.4-391.2h-67.2c0,.1,33.4-48.9,33.4-48.9l33.8,48.9Zm133.6-196.3h67.2c0-.1-33.4,48.9-33.4,48.9l-33.8-48.9Zm-336.2-97.3h-19.3c1.6-6.4,3.2-14.2,4.6-21.4l14.8,21.4Zm337.6,489.4h-67.2c0,.1,33.4-48.9,33.4-48.9l33.8,48.9Zm337.3,391.4l-13.7,20.2c-12.8,0-26,0-39.6,0l-13.9-20.1h67.2Zm-539.5-587l-33.4,49.1-33.8-48.9h67.2Zm202.6,293.6l-33.4,49.1-33.8-48.9h67.2Zm-133.6,196.3l-33.4,49.1-33.8-48.9h67.2Zm-66.8,98.1l-13,19.2c-14.2,0-27.9,0-41,0l-13.1-19h67.2Zm-103.7-832.9l-33.8-48.9h67.2c0-.1-33.4,48.9-33.4,48.9Zm775.5,831.5l-13.7,20.1c-11.7,0-25,.1-39.6.2l-13.9-20.1h67.2Zm-673.1-390.7l-33.4,49.1-33.8-48.9h67.2Zm102.3,440.8l-12-17.3c7.9,0,15.8,0,23.8,0l-11.8,17.3Zm98.5-637.3h-67.2c0,.1,33.4-48.9,33.4-48.9l33.8,48.9Zm35.9,637l-11.7-17c7.8,0,15.5,0,23.3,0l-11.6,17Zm-236.3-342.6h-67.2c0,.1,33.4-48.9,33.4-48.9l33.8,48.9Zm-134,98.3l-33.4,49.1-33.8-48.9h67.2Zm334.8-294.7l-33.4,49.1-33.8-48.9h67.2Zm504.7,244l20.5,29.7c0,6.5,0,12.9,0,19.3h-53.9c0,.1,33.4-49,33.4-49Zm-236.3-342.6h67.2c0-.1-33.4,48.9-33.4,48.9l-33.8-48.9Zm202.6,293.6h54.4c0,6.2,0,12.5,0,18.7l-20.6,30.2-33.8-48.9Zm-370-146.2l33.8,48.9h-67.2c0,.1,33.4-48.9,33.4-48.9ZM1217.5,63.6h-59.9c3.5-1,7.3-2.2,11.3-3.3,12.2-3.6,21.1-6.2,38.4-11.3l10.1,14.7Zm.4,98l-33.4,49.1-33.8-48.9h67.2Zm774.8,635.5l21.4,31c0,6,0,12,0,18h-54.8c0,.1,33.4-49,33.4-49Zm-436.1,147.9h67.2c0-.1-33.4,48.9-33.4,48.9l-33.8-48.9Zm-66.5,196.2l-33.4,49.1-33.8-48.9h67.2Zm-271.9-881.6h-67.2c0,.1,33.4-48.9,33.4-48.9l33.8,48.9Zm775.8,929.5l19.2,27.8c0,8.6-.1,15.7-.2,21.2h-52.4c0,.1,33.4-49,33.4-49Zm-305.3-832.5h67.2c0-.1-33.4,48.9-33.4,48.9l-33.8-48.9Zm271.5,783.5h53.3c0,7,0,13.8,0,20.4l-19.4,28.6-33.8-48.9Zm-301.8,147.6l-11.4-16.6c7.6,0,15.2,0,22.7,0l-11.3,16.5Zm-137.2-783.8l33.8,48.9h-67.2c0,.1,33.4-48.9,33.4-48.9Zm370,146.3h67.2c0-.1-33.4,48.9-33.4,48.9l-33.8-48.9Zm-770.2,638.7l-12.1-17.5c7.2,0,15.2,0,24.1-.1l-12,17.6Zm434.7-540h67.2c0-.1-33.4,48.9-33.4,48.9l-33.8-48.9Zm-335.5,98.7h-67.2c0,.1,33.4-48.9,33.4-48.9l33.8,48.9Zm569.7-344.2l33.8,48.9h-67.2c0,.1,33.4-48.9,33.4-48.9Zm-635.5,736.4l-12.6,18.6c-16.3,0-30.4-.1-41.9-.2l-12.6-18.2h67.2Zm-1.8-490.1h-67.2c0,.1,33.4-48.9,33.4-48.9l33.8,48.9Zm335.5-98.7h67.2c0-.1-33.4,48.9-33.4,48.9l-33.8-48.9Zm33.8,48.9l33.8,48.9h-67.2c0,.1,33.4-48.9,33.4-48.9Zm-400.9,588.9l32.6,47.2c-27-.1-49-.2-64.5-.4l31.9-46.9Zm367.9-441.8h67.2c0-.1-33.4,48.9-33.4,48.9l-33.8-48.9Zm-336.9-293.3h-67.2c0,.1,33.4-48.9,33.4-48.9l33.8,48.9Zm103.4,734.9l-12.1-17.6c7.8,0,15.9,0,24.1,0l-12,17.6Zm-104.8-1126.9h-10.9c-.5-6.1-1-12.1-1.5-18l12.4,18Zm272.6,1077.6l-13.3,19.6c-13.7,0-27.2,0-40.5,0l-13.4-19.4h67.2Zm-203.3-489.6l-33.4,49.1-33.8-48.9h67.2Zm-68.9-489.9l-8.5,12.5c0-4,.1-8.2.2-12.5h8.3Zm-64,882.3l-32.4,47.5c0-13-.1-28.7-.2-47.5h32.5Zm32.7-245.1l-33.4,49.1h67.2c0-.1-33.8-49.1-33.8-49.1Zm568.7-638.3l33.4-49.1,33.8,48.9h-67.2Zm3.5,980.1l-13.7,20.1c-13.1,0-26.4,0-39.7,0l-13.8-20h67.2Zm-204-685.7l-33.4,49.1-33.8-48.9h67.2Zm-469.9,99l7-10.3v10.2s-7,0-7,0Zm539.5,587l-13.5,19.9c-13.4,0-26.7,0-40,0l-13.6-19.7h67.2Zm-405.9-783.3l-33.4,49.1-33.8-48.9h67.2Zm-64.4,784.2h-32c-.3-9.1-.6-23.7-.7-47.4l32.7,47.4Zm435.4-343.9l33.8,48.9h-67.2c0,.1,33.4-48.9,33.4-48.9Zm-267.3,392.6l33,47.8c-23,0-45,0-65.5-.1l32.5-47.7Zm500.8-834.2h67.2c0-.1-33.4,48.9-33.4,48.9l-33.8-48.9Zm-268.7.6h-67.2c0,.1,33.4-48.9,33.4-48.9l33.8,48.9Zm-66.8,98.2h-67.2c0,.1,33.4-48.9,33.4-48.9l33.8,48.9Zm469.2-295h29c0,16.3.6,31.1,1.9,44.7l-30.9-44.7Zm-567.6,932.3l33.8,48.9h-67.2c0,.1,33.4-48.9,33.4-48.9Zm604.9,96.8l33.7,48.8c-13.5,0-29.8.1-48.5.2h-18.6s33.4-49,33.4-49Zm-506.1-636l-33.4,49.1-33.8-48.9h67.2Zm65.4-490.2l33.4-49.1,33.8,48.9h-67.2Zm436.4-49.9l6.7,9.7c-1.7,13.7-3.3,26.8-4.6,39.3h-35.5c0,0,33.4-49,33.4-49Zm-466.3,1079.1l33.8,48.9h-67.2c0,.1,33.4-48.9,33.4-48.9Zm433.6-834l31.3-46c2,17.2,5.3,32.3,9.7,45.9h-41Zm-538.1-194.9l33.4-49.1,33.8,48.9h-67.2Zm68.2,293.9l-33.4,49.1-33.8-48.9h67.2Zm537.4-1.1l19.5-28.7c6.3,5.3,13.6,10.5,22.1,16.1,8.2,5.4,13.1,9.3,13.7,10.9,0,0,0,.6.1,1.6h-55.4Zm-367.5,539.8l33.8,48.9h-67.2c0,.1,33.4-48.9,33.4-48.9Zm-168.8-244.7h-67.2c0,.1,33.4-48.9,33.4-48.9l33.8,48.9Zm-233.5,441.5l33.8,48.9h-67.2c0,.1,33.4-48.9,33.4-48.9Zm399.5-981l-33.8-48.9h67.2c0-.1-33.4,48.9-33.4,48.9Zm-268,196.6l-33.8-48.9h67.2c0-.1-33.4,48.9-33.4,48.9Zm136.5,587.8l33.8,48.9h-67.2c0,.1,33.4-48.9,33.4-48.9ZM1148.2,66.9l-15.6,22.9c-.8-10-.6-15.4.7-16.4,1.9-1.5,7.2-3.8,14.9-6.5Zm472.7,93.9l33.4-49.1,33.8,48.9h-67.2Zm205.7,1175.7h-57.9c-3.1.1-6.2.1-9.3.1l33.4-49.1,33.8,48.9Zm-3.5-980.1h67.2c0-.1-33.4,48.9-33.4,48.9l-33.8-48.9Zm-1.1-294l13.6-20c9.6,2.9,18,5.5,20.9,6.4,2.5.7,8.1,2.5,12.5,3.8,4.5,1.4,10.7,3.3,17.2,5.3l3,4.4h-67.2Zm-231.1,1127.6l33.8,48.9h-67.2c0,.1,33.4-48.9,33.4-48.9Zm166.4-441.4h67.2c0-.1-33.8-49.1-33.8-49.1l-33.4,49.1ZM1721.2,13.5l-33.4,49.1h67.2c0-.1-33.8-49.1-33.8-49.1Zm-467.8,687.1l-33.4,49.1h67.2c0-.1-33.8-49.1-33.8-49.1ZM1923,111.1l9.6-14.2c.7-7.1,1.1-12.8.9-15.5l-.4-7.1-7.6-3.5c-4.2-1.9-8.5-3.7-9.6-4-.9-.2-7.4-2.2-15.5-4.7h-11.1s33.8,49,33.8,49Zm-297.8,1225.6c22.7,0,45.1,0,67,0l-33.7-48.8-33.3,48.9Zm-236.8-440.4l-33.4,49.1h67.2c0-.1-33.8-49.1-33.8-49.1Zm98.1-735.3h-67.2c0,.1,33.8,49.1,33.8,49.1l33.4-49.1Zm-131.9,686.4l33.8,48.9,33.4-49.1h-67.2Zm-102-342.8l-33.4,49.1h67.2c0-.1-33.8-49.1-33.8-49.1Zm304.6,636.5l33.8,48.9,33.4-49.1h-67.2Zm-204.7-881.7l33.8,48.9,33.4-49.1h-67.2Zm585,1012.7c-6.6,0-13.6,0-20.9-.1l10.6,15.3,10.4-15.2Zm-46.6-719.8h67.2c0-.1-33.8-49.1-33.8-49.1l-33.4,49.1Zm-302.1,49.6l33.8,48.9h-67.2c0,.1,33.4-48.9,33.4-48.9Zm0,0l33.4-49.1h-67.2c0,.1,33.8,49.1,33.8,49.1Zm-101.6-244.8h-67.2c0,.1,33.8,49.1,33.8,49.1l33.4-49.1Zm-130.2,979.5c21.5,0,43.6,0,66.1,0l-33.3-48.3-32.8,48.2Zm635.6-539.5l21.4-31.4c0-5.9,0-11.8,0-17.6h-55.2c0,.1,33.8,49.1,33.8,49.1Zm-907.4-145.1l33.8,48.9,33.4-49.1h-67.2Zm35.2,441l-33.4,49.1h67.2c0-.1-33.8-49.1-33.8-49.1Zm100.6-49.2l33.8,48.9,33.4-49.1h-67.2Zm-135.1-195.7l33.8,48.9,33.4-49.1h-67.2Zm717.8,423.6c-7.2,0-14.5,0-21.9,0l11.1,16,10.9-16Zm-584.8-815.9l33.8,48.9,33.4-49.1h-67.2Zm136.8,685.8h67.2c0-.1-33.8-49.1-33.8-49.1l-33.4,49.1Zm636.2-540.4l21.9-32.2c0-5.8,0-11.4,0-16.9h-55.6c0,.1,33.8,49.1,33.8,49.1Zm-33.4,49.1h55.5c0-5.9,0-11.6,0-17.2l-22-31.9-33.4,49.1Zm-203.3-489.6h-67.2c0,.1,33.8,49.1,33.8,49.1l33.4-49.1Zm-200.8,196.4l-33.8-48.9-33.4,49.1h67.2Zm-63.3,979.8c22.1,0,44.4,0,66.6,0l-33.5-48.6-33.1,48.6Zm-305.9-930l-33.4,49.1h67.2c0-.1-33.8-49.1-33.8-49.1Zm436.8,48.1l-33.8-48.9-33.4,49.1h67.2Zm-400.6,686.9h67.2c0-.1-33.8-49.1-33.8-49.1l-33.4,49.1Zm703-638.6l33.4-49.1h-67.2c0,.1,33.8,49.1,33.8,49.1ZM1251.3,112.5l-33.8-48.9h67.2c0-.1-33.4,48.9-33.4,48.9ZM400.1,1288.4l11.8-17.4c14.3,0,28.8,0,43.4,0l11.9,17.2h-67.2Zm0,0l-12-17.4c-14.7,0-29.1,0-43.2,0l-11.9,17.5h67.2ZM162,457.3l-33.4,49h67.2c0-.1-33.8-49-33.8-49Zm571.9,243.4l-33.8-48.8-33.4,49h67.2Zm-335.5,98.5l-33.4,49h67.2c0-.1-33.8-49-33.8-49Zm-.7-195.7l-33.4,49h67.2c0-.1-33.8-49-33.8-49Zm34.1,146.7l-33.4,49h67.2c0-.1-33.8-49-33.8-49Zm337.6,488.5h67.2c0-.1-33.8-49-33.8-49l-33.4,49Zm201.9,97.4h9.4c23.7-.2,34.3-.4,35.8-.7l6.5-1.2,1.1-5.5c.5-2.2.8-6.6,1-12l-20.5-29.6-33.4,49Zm-336.2-97.1h67.2c0-.1-33.8-49-33.8-49l-33.4,49Zm-203.6-586.6l-33.4,49h67.2c0-.1-33.8-49-33.8-49ZM119.3,1271.4c-24.5.1-39,.3-40.1.5-1.4.3-2.7.5-3.8.7l-8.9,13c0,1.1-.1,2.3-.2,3.5h65c0-.1-12.1-17.6-12.1-17.6Zm614.2-668.6l-33.8-48.8-33.4,49h67.2ZM198.6,1288.8l-12.2-17.6c-15.8,0-30.2,0-43,.1l-12,17.6h67.2Zm232.5-734.2l-33.4,49h67.2c0-.1-33.8-49-33.8-49Zm234.9-49.4l-33.8-48.8-33.4,49h67.2Zm-503.6,50l-33.4,49h67.2c0-.1-33.8-49-33.8-49Zm369.3-49.7l-33.8-48.8-33.4,49h67.2Zm-100.9-48.7l-33.4,49h67.2c0-.1-33.8-49-33.8-49Zm168.1,48.6l-33.8-48.8-33.4,49h67.2Zm-333.1,783.4l-12.1-17.6c-15.1,0-29.4,0-43,0l-12,17.6h67.2Zm67.2-.1l-12.1-17.5c-14.8,0-29.2,0-43.1,0l-12,17.6h67.2Zm671.7-1.4l-10.2-14.8c-11.8-.1-27.5-.2-46.5-.3l-10.4,15.3h67.2Zm-572.6-439.1l-33.4,49h67.2c0-.1-33.8-49-33.8-49Zm302.8,146.1l-33.8-48.9-33.4,49h67.2ZM228.1,163.7l-33.4,49h67.2c0-.1-33.8-49-33.8-49Zm406.2,879.7h67.2c0-.1-33.8-49-33.8-49l-33.4,49Zm100.2-147l-33.8-48.8-33.4,49h67.2ZM261.9,212.5l-33.4,49h67.2c0-.1-33.8-49-33.8-49Zm472.3,586l-33.8-48.8-33.4,49h67.2ZM194.4,114.8l-33.4,49h67.2c0-.1-33.8-49-33.8-49Zm34.1,146.7l-33.4,49h67.2c0-.1-33.8-49-33.8-49Zm405.1,586.2h67.2c0-.1-33.8-49-33.8-49l-33.4,49Zm303.9,439.6l-10.6-15.4c-14,0-29.4-.1-45.9-.2l-10.7,15.7h67.2Zm-67.2.1l-10.9-15.7c-14.5,0-29.6,0-45.4-.1l-10.9,16h67.2Zm-67.2.1l-11.1-16.1c-14.6,0-29.6,0-44.9,0l-11.1,16.3h67.2Zm-201.5.4l-11.6-16.8c-14.6,0-29.3,0-43.9,0l-11.6,17h67.2Zm366.8-734.5h56.6c0-.1,0-15.4,0-15.4l-23.2-33.5-33.4,49Zm.7,195.7h56c0-.1,0-16.3,0-16.3l-22.6-32.7-33.4,49Zm-300.3,538.7l-11.5-16.6c-14.6,0-29.4,0-44.2,0l-11.5,16.8h67.2ZM228.8,359.3l-33.4,49h67.2c0-.1-33.8-49-33.8-49Zm271.1,684.3h67.2c0-.1-33.8-49-33.8-49l-33.4,49Zm-67.5-97.7l-33.4,49h67.2c0-.1-33.8-49-33.8-49Zm303.5,341.8l-11.3-16.4c-14.6,0-29.5,0-44.6,0l-11.3,16.6h67.2ZM195.1,310.5l-33.4,49h67.2c0-.1-33.8-49-33.8-49Zm32.7-244.7l-33.4,49h67.2c0-.1-33.8-49-33.8-49Zm405.1,586.2h67.2c0-.1-33.8-49-33.8-49l-33.4,49Zm-98.5,636.1l-11.8-17c-14.6,0-29.2,0-43.7,0l-11.7,17.2h67.2Zm-370-146l-33.4,49h67.2c0-.1-33.8-49-33.8-49Zm434.7-539l-33.8-48.8-33.4,49h67.2ZM428,114.3c-5.3-8.2-10-17-14.1-26.4l-18,26.4h32.1Zm-132.7,49.2l-33.4,49h67.2c0-.1-33.8-49-33.8-49Zm33.4-49l-33.8-48.8-33.4,49h67.2Zm169.9,537.7h67.2c0-.1-33.8-49-33.8-49l-33.4,49Zm200.1-391.8l-33.4,49h67.2c0-.1-33.8-49-33.8-49Zm-200.1,391.8l-33.4,49h67.2c0-.1-33.8-49-33.8-49Zm-.4-97.8l-33.4,49h67.2c0-.1-33.8-49-33.8-49Zm2.5,684.8h67.2c0-.1-33.8-49-33.8-49l-33.4,49Zm436.4-49.8l-33.8-48.8-33.4,49h67.2Zm-773.4-243l-33.4,49h67.2c0-.1-33.8-49-33.8-49Zm300.7-440.9l-33.4,49h67.2c0-.1-33.8-49-33.8-49Zm-301.1,343l-33.4,49h67.2c0-.1-33.8-49-33.8-49Zm726.6,409.9c9.6,0,18.8,0,27.6,0l-13.9-20-13.7,20.1Zm-289.8-361.9l-33.8-48.8-33.4,49h67.2Zm-.4-97.8l-33.8-48.8-33.4,49h67.2Zm-.4-97.8l-33.8-48.8-33.4,49h67.2Zm68.2,293.4l-33.8-48.9-33.4,49h67.2Zm-168.5-146.4h67.2c0-.1-33.8-49-33.8-49l-33.4,49Zm-335.2,196.4l-33.4,49h67.2c0-.1-33.8-49-33.8-49ZM362.1,65.5h43.7c-3.4-11.8-6-24.3-7.8-37.5-.4-3.1-1-6.8-1.7-10.3l-.8-1.2-33.4,49Zm3.5,978.3h67.2c0-.1-33.8-49-33.8-49l-33.4,49Zm-36.2-733.7l-33.4,49h67.2c0-.1-33.8-49-33.8-49Zm-199.1,685.3l-33.4,49h67.2c0-.1-33.8-49-33.8-49Zm672.1,96.4l-33.8-48.8-33.4,49h67.2Zm154.8,166.4c10.4,0,19.5-.1,27.4-.2l-13.7-19.9-13.7,20Zm-859.6-18.2h67.2c0-.1-33.8-49-33.8-49l-33.4,49Zm569.4-441.4l-33.8-48.8-33.4,49h67.2Zm-100.9-48.7h67.2c0-.1-33.8-49-33.8-49l-33.4,49Zm404.4,390.5h54.7c0-5.9,0-11.9,0-18.2l-21.3-30.8-33.4,49Zm-505.4-439.2l-33.4,49h67.2c0-.1-33.8-49-33.8-49Zm-164.9,635.2c20.9,0,42.9,0,65.8,0l-33.1-48-32.7,47.9Zm367.1-439.9l-33.8-48.8-33.4,49h67.2Zm302.5,48.3h55.4c0-5.7,0-11.4,0-17.1l-22-31.9-33.4,49Zm-404.4-390.5h67.2c0-.1-33.8-49-33.8-49l-33.4,49Zm100.9,48.7l-33.8-48.8-33.4,49h67.2Zm.4,97.8l-33.8-48.8-33.4,49h67.2Zm-500.4,635.3c19.2,0,41,0,65.1.1l-32.8-47.5-32.3,47.4Zm400.5-390.5h67.2c0-.1-33.8-49-33.8-49l-33.4,49Zm-437.9-341.5l-33.4,49h67.2c0-.1-33.8-49-33.8-49Zm33.8,48.8l-33.4,49h67.2c0-.1-33.8-49-33.8-49Zm69.3,586.9h67.2c0-.1-33.8-49-33.8-49l-33.4,49Zm267.3-391.9l-33.4,49h67.2c0-.1-33.8-49-33.8-49Zm-33.4,49l-33.4,49h67.2c0-.1-33.8-49-33.8-49Zm67.5,97.7h67.2c0-.1-33.8-49-33.8-49l-33.4,49Zm-403.7-194.8l-33.4,49h67.2c0-.1-33.8-49-33.8-49Zm369.3-49.7l-33.4,49h67.2c0-.1-33.8-49-33.8-49Zm237,537.6l-33.3,48.9c20.9,0,40.5,0,59,0h8.1s-33.8-48.9-33.8-48.9Zm-369.6-48.1h67.2c0-.1-33.8-49-33.8-49l-33.4,49Zm68,97c21.6,0,43.7,0,66.3,0l-33.4-48.3-32.9,48.3Zm134.1,0c23.4,0,45.6,0,66.8,0l-33.6-48.6-33.2,48.6ZM163.1,750.8l-33.4,49h67.2c0-.1-33.8-49-33.8-49Zm303.2,244h67.2c0-.1-33.8-49-33.8-49l-33.4,49Zm-36.2-733.7l-33.8-48.8-33.4,49h67.2Zm437.9,341.5l-33.8-48.8-33.4,49h67.2Zm-.4-97.8l-33.8-48.8-33.4,49h67.2Zm-33.8-48.8l-33.8-48.8-33.4,49h67.2Zm102.7,537.9l-33.8-48.9-33.4,49h67.2Zm-100.9-48.7h67.2c0-.1-33.8-49-33.8-49l-33.4,49Zm-35.5-538l-33.8-48.8-33.4,49h67.2Zm-32.7,244.7h67.2c0-.1-33.8-49-33.8-49l-33.4,49Zm100.9,48.7l-33.8-48.8-33.4,49h67.2Zm-236.3-341.9l-33.8-48.8-33.4,49h67.2Zm204.3,782.3h67.2c0-.1-33.8-49-33.8-49l-33.4,49Zm-70-782.5l-33.8-48.8-33.4,49h67.2Zm-143-206.8s0,0,0,0c-6.8,4.5-13.4,8.3-20.3,11.4h28.3c0,0-7.9-11.5-7.9-11.5Zm317.6-38.1c.8-4.9,1.5-9.8,2.1-14.3l-9.8,14.3h7.6Zm-343.1,98.5l-26.6-38.5c-7.4,1.7-11.3,2.5-16.4,3.1l-24.2,35.5h67.2Zm339,879.8l-33.8-48.8-33.4,49h67.2Zm-168.8-244.2h67.2c0-.1-33.8-49-33.8-49l-33.4,49Zm98.5-636.1h62.7c.1-2.2.2-4.2.3-6.2l-29.6-42.8-33.4,49Zm68.9,489l-33.8-48.8-33.4,49h67.2Zm-367.9,441h67.2c0-.1-33.8-49-33.8-49l-33.4,49Zm134.3-.3h67.2c0-.1-33.8-49-33.8-49l-33.4,49Zm-268.7.6h67.2c0-.1-33.8-49-33.8-49l-33.4,49Zm435.4-343.3l-33.8-48.8-33.4,49h67.2Zm59.4-538.2c0-13.7.3-28.9.9-41.9l-28.6,42h27.8Zm-629.2,881.8h67.2c0-.1-33.8-49-33.8-49l-33.4,49Zm637.3-245.9l-33.8-48.8-33.4,49h67.2Zm-67.2.1l-33.8-48.8-33.4,49h67.2Zm66.8-98l-33.8-48.8-33.4,49h67.2Zm-438.2-439.3l-33.8-48.8-33.4,49h67.2Zm372.1,733l-33.8-48.8-33.4,49h67.2Zm-.4-97.8l-33.8-48.9-33.4,49h67.2Zm-100.6,49.1h67.2c0-.1-33.8-49-33.8-49l-33.4,49ZM295.7,261.3l-33.4,49h67.2c0-.1-33.8-49-33.8-49ZM918.7,64.4c-4.3-1.4-9.5-3-15.8-4.9l-3.4,5h19.2ZM230.2,750.7l-33.4,49h67.2c0-.1-33.8-49-33.8-49Zm303.9,439.6h67.2c0-.1-33.8-49-33.8-49l-33.4,49ZM229.9,652.8l-33.4,49h67.2c0-.1-33.8-49-33.8-49ZM832.3,64.6l-23.6-34.1c-2.1-.7-4.1-1.3-6-1.8-3.5-1.1-7.2-2.2-10.7-3.3l-26.9,39.4h67.2ZM230.6,848.5l-33.4,49h67.2c0-.1-33.8-49-33.8-49Zm-34.1-146.7l-33.4,49h67.2c0-.1-33.8-49-33.8-49Zm270.4,488.6h67.2c0-.1-33.8-49-33.8-49l-33.4,49Zm-67.2.1h67.2c0-.1-33.8-49-33.8-49l-33.4,49Zm-168.5-146.4l-33.4,49h67.2c0-.1-33.8-49-33.8-49Zm-33.1,146.8h67.2c0-.1-33.8-49-33.8-49l-33.4,49Zm-.4-97.8l-33.4,49h67.2c0-.1-33.8-49-33.8-49ZM662.4,110.7c-.7,1.1-1.4,2.1-2.1,3.1h4.3s-2.2-3.1-2.2-3.1Zm-329.8,1080h67.2c0-.1-33.8-49-33.8-49l-33.4,49Zm-101.6-244.4l-33.4,49h67.2c0-.1-33.8-49-33.8-49Zm-33.8-48.8l-33.4,49h67.2c0-.1-33.8-49-33.8-49Zm68.2,293.4h67.2c0-.1-33.8-49-33.8-49l-33.4,49Zm33.1-146.8l-33.4,49h67.2c0-.1-33.8-49-33.8-49Zm370,146h67.2c0-.1-33.8-49-33.8-49l-33.4,49Zm67.2-.1h67.2c0-.1-33.8-49-33.8-49l-33.4,49Zm67.2-.1h67.2c0-.1-33.8-49-33.8-49l-33.4,49ZM296,359.2l-33.4,49h67.2c0-.1-33.8-49-33.8-49Zm100.6-49.1l-33.8-48.8-33.4,49h67.2Zm-167,244.9l-33.4,49h67.2c0-.1-33.8-49-33.8-49ZM761.2,15.8c-4.8-1.4-13.6-4.1-22.4-6.8-.7-.2-1.5-.4-2.2-.7l-5.2,7.6h29.8ZM195.8,506.1l-33.4,49h67.2c0-.1-33.8-49-33.8-49ZM723.6,4.6c-5.6-1.5-10-2.5-11.7-2.7-3.2-.3-6.7-.8-7.9-1.1-1.9-.4-2.5.6-5.2,8.3-.7,2-1.4,4.4-2.1,6.9h34.8c0,0-7.8-11.3-7.8-11.3Zm-122.3,1185.6h67.2c0-.1-33.8-49-33.8-49l-33.4,49ZM262.6,408.2l-33.4,49h67.2c0-.1-33.8-49-33.8-49ZM688.4,51c-1.3,4.7-2.7,9.3-4.2,13.8h13.8s-9.5-13.8-9.5-13.8ZM229.2,457.2l-33.4,49h67.2c0-.1-33.8-49-33.8-49Zm435.7-245.5l-33.4,49h67.2c0-.1-33.8-49-33.8-49Zm-66.8,98l-33.8-48.8-33.4,49h67.2Zm-265.9,783.2h67.2c0-.1-33.8-49-33.8-49l-33.4,49Zm333.1-783.4l-33.8-48.8-33.4,49h67.2Zm-265.9,783.2h67.2c0-.1-33.8-49-33.8-49l-33.4,49Zm-34.5-244.5l-33.4,49h67.2c0-.1-33.8-49-33.8-49Zm-33.4,49l-33.4,49h67.2c0-.1-33.8-49-33.8-49Zm33.8,48.8l-33.4,49h67.2c0-.1-33.8-49-33.8-49Zm165.7-636.3l-33.8-48.8-33.4,49h67.2Zm271.2,684.3l-33.8-48.9-33.4,49h67.2Zm-68.9-489l-33.8-48.8-33.4,49h67.2Zm-32,440.3h67.2c0-.1-33.8-49-33.8-49l-33.4,49Zm-234.6,147.2h67.2c0-.1-33.8-49-33.8-49l-33.4,49Zm67.2-.1h67.2c0-.1-33.8-49-33.8-49l-33.4,49Zm67.2-.1h67.2c0-.1-33.8-49-33.8-49l-33.4,49Zm67.2-.1h67.2c0-.1-33.8-49-33.8-49l-33.4,49Zm30.2-929.5l-33.4,49h67.2c0-.1-33.8-49-33.8-49Zm-333.8,587.7l-33.4,49h67.2c0-.1-33.8-49-33.8-49Zm31.7-538.2l-33.8-48.8-33.4,49h67.2Zm.7,195.7l-33.4,49h67.2c0-.1-33.8-49-33.8-49Zm-33.4,49l-33.4,49h67.2c0-.1-33.8-49-33.8-49Zm201.5-.4l-33.8-48.8-33.4,49h67.2Zm134.3-.3l-33.8-48.8-33.4,49h67.2ZM362.5,163.4l-33.8-48.8-33.4,49h67.2Zm118.6-.2c-10.5-5.3-20.3-12-28.6-19.7-1.9-1.8-3.8-3.6-5.6-5.5l-17.2,25.3h51.4Zm-116.8,489.4l-33.4,49h67.2c0-.1-33.8-49-33.8-49Zm99.5-342.6l-33.8-48.8-33.4,49h67.2Zm-132.9,391.6l-33.4,49h67.2c0-.1-33.8-49-33.8-49Zm506.1,634.9h67.2c0-.1-33.8-49-33.8-49l-33.4,49ZM530.6,211.9l-27.6-39.9c-3.3-1-6.6-2.2-9.9-3.5l-29.7,43.5h67.2Zm-200.5,293.9l-33.4,49h67.2c0-.1-33.8-49-33.8-49Zm33.8,48.8l-33.4,49h67.2c0-.1-33.8-49-33.8-49Zm368.9-147.5l-33.8-48.8-33.4,49h67.2Zm134.3-.3l-33.8-48.8-33.4,49h67.2Zm-570.4,147.9l-33.4,49h67.2c0-.1-33.8-49-33.8-49Zm234.6-147.2l-33.8-48.8-33.4,49h67.2Zm-268,196.2l-33.4,49h67.2c0-.1-33.8-49-33.8-49Zm200.8-196.1l-33.8-48.8-33.4,49h67.2Zm337.6,488.5l-33.8-48.8-33.4,49h67.2ZM363.2,359l-33.4,49h67.2c0-.1-33.8-49-33.8-49Zm-66.1,293.6l-33.4,49h67.2c0-.1-33.8-49-33.8-49Zm1.1,293.5l-33.4,49h67.2c0-.1-33.8-49-33.8-49Zm536-392.4h67.2c0-.1-33.8-49-33.8-49l-33.4,49Zm100.6-49.1l-33.8-48.8-33.4,49h67.2Zm.4,97.8l-33.8-48.8-33.4,49h67.2Zm-637.6,148.1l-33.4,49h67.2c0-.1-33.8-49-33.8-49Zm-33.4,49l-33.4,49h67.2c0-.1-33.8-49-33.8-49Zm33.8,48.8l-33.4,49h67.2c0-.1-33.8-49-33.8-49Zm-1.4-391.3l-33.4,49h67.2c0-.1-33.8-49-33.8-49Zm666.6-50.3c-4.9-6.8-9.3-14.3-13.2-22.6l-15.5,22.7h28.7Zm-162,293.8l-33.8-48.8-33.4,49h67.2Zm-.4-97.8l-33.8-48.8-33.4,49h67.2Zm-100.2,147h67.2c0-.1-33.8-49-33.8-49l-33.4,49Zm31.3-636l-33.4,49h67.2c0-.1-33.8-49-33.8-49Zm-32,440.3h67.2c0-.1-33.8-49-33.8-49l-33.4,49Zm101.6,244.4l-33.8-48.8-33.4,49h67.2Zm-202.9-390.9l-33.8-48.8-33.4,49h67.2Zm133.6-195.9h67.2c0-.1-33.8-49-33.8-49l-33.4,49Zm.4,97.8h67.2c0-.1-33.8-49-33.8-49l-33.4,49Zm-66.8,98l-33.8-48.8-33.4,49h67.2Zm201.2-98.2h63.4c-.2-2.3-.5-4.4-.7-6.6l-29.3-42.4-33.4,49ZM264.7,995.2l-33.4,49h67.2c0-.1-33.8-49-33.8-49Zm535.6-490.3l-33.8-48.8-33.4,49h67.2Zm32.7-244.7l-33.8-48.8-33.4,49h67.2Zm1.8,489.2h67.2c0-.1-33.8-49-33.8-49l-33.4,49ZM96.9,1044.4l-30.9,45.3c0,1.2,0,2.4,0,3.6h64.7c0-.1-33.8-49-33.8-49Zm-.4-97.8l-30.8,45.1c0,1.3,0,2.6,0,3.9h64.5c0-.1-33.8-49-33.8-49ZM395.5,16.6l-10.4-15h-1.1c-5.9.5-14.5,2.5-31.9,7.7-5.9,1.7-14.3,4.3-23.6,7l-.3.4h67.2Zm.4,97.8l-33.8-48.8-33.4,49h67.2ZM96.2,848.8l-30.5,44.7c0,1.4,0,2.8,0,4.3h64.3c0-.1-33.8-49-33.8-49Zm-.4-97.8l-30.2,44.2c0,1.6,0,3.2,0,4.8h63.9c0-.1-33.8-49-33.8-49Zm-30.1,151c0,15,0,29.9,0,44.7h30.8c0,0-30.8-44.7-30.8-44.7Zm757.1,356.7c9.4,0,18.7,0,27.6,0l-13.9-20.1-13.7,20.1Zm179-754.2l-33.8-48.8-33.4,49h67.2ZM97.3,1142.3l-30.9,45.3c0,1.2,0,2.4,0,3.6h64.7c0-.1-33.8-49-33.8-49ZM463.4,212.1l-33.8-48.8-33.4,49h67.2ZM66,1097c0,16,0,31.2.1,45.3h31.1c0,0-31.3-45.3-31.3-45.3Zm-.3-389.7c0,14.3,0,28.9,0,43.6h30.2c0,0-30.1-43.6-30.1-43.6Zm29.1-249.9l-28.5,41.8c0,2.3,0,4.7,0,7.2h62.3c0-.1-33.8-49-33.8-49Zm-28.6,56c0,12.4-.1,26.5-.2,41.9h29.1c0,0-29-41.9-29-41.9Zm95.8-56.1l-31.7-45.9c-5.4,8.3-11.4,15.1-17.8,20.2l-17.6,25.8h67.2Zm840.9,340.7l-33.8-48.8-33.4,49h67.2ZM161.7,359.5l-18.5,27.2c-3.3,8-7,15.3-10.9,21.8h63.2c0-.1-33.8-49-33.8-49Zm840.9,340.7l-33.8-48.8-33.4,49h67.2Zm-246.9,558.7c9.3,0,18.5,0,27.6,0l-13.9-20.1-13.7,20.1Zm145.9-607.4h67.2c0-.1-33.8-49-33.8-49l-33.4,49Zm-806.4-96.2l-29.2,42.9c0,2,0,4.1,0,6.1h63c0-.1-33.8-49-33.8-49Zm907,47l-33.8-48.8-33.4,49h67.2Zm-906.7,50.8l-29.8,43.6c0,1.8,0,3.6,0,5.4h63.5c0-.1-33.8-49-33.8-49Zm-10,604.8c6,0,14.3.2,24.6.2l-12.5-18-12.2,17.8ZM396.1,16.6c0-.2,0-.4-.1-.7l-.5.7h.6Zm158.2,1242.4c9.1,0,18.1,0,27.2,0l-13.7-19.8-13.5,19.8Zm-134.1,0c8.9,0,17.8,0,26.7,0l-13.5-19.5-13.3,19.5Zm67.1,0c9,0,18,0,27,0l-13.6-19.6-13.4,19.6ZM799.3,211.4h67.2c0-.1-33.8-49-33.8-49l-33.4,49Zm-101.3-146.5l-33.4,49h67.2c0-.1-33.8-49-33.8-49Zm134.7,97.6h67.2c0-.1-33.8-49-33.8-49l-33.4,49Zm100.6-49.1l-33.8-48.8-33.4,49h67.2Zm-67.2.1l-33.8-48.8-33.4,49h67.2Zm-67.2.1l-33.8-48.8-33.4,49h67.2Zm-177.5,1145.4c9.2,0,18.3,0,27.3,0l-13.8-19.9-13.6,19.9Zm9.7-1096.1l-33.4,49h67.2c0-.1-33.8-49-33.8-49Zm303.2,244l-33.8-48.8-33.4,49h67.2ZM152.3,1258.4c7.9,0,16.4,0,25.3,0l-12.8-18.5-12.5,18.4ZM968.1,455.6l-33.8-48.8-33.4,49h67.2ZM163.3,264.5c-.1,16.3-.9,31.7-2.4,46h34.2c0,0-31.8-46-31.8-46Zm401-3.7l-33.8-48.8-33.4,49h67.2Zm124.2,998.1c9.2,0,18.4,0,27.5,0l-13.8-20-13.7,20Zm111.1-949.6h67.2c0-.1-33.8-49-33.8-49l-33.4,49Zm-446.4,949.6c8.7,0,17.6,0,26.5,0l-13.3-19.3-13.1,19.3Zm-134-.2c8.3,0,16.9,0,25.8,0l-13-18.8-12.8,18.8ZM900.6,357.9l-33.8-48.8-33.4,49h67.2Zm-614.4,900.8c8.6,0,17.3,0,26.2,0l-13.2-19.1-13,19ZM161,163.8l-3.5,5.2c1.8,14.9,3.2,29.5,4.2,43.8h33.1c0,0-33.8-48.9-33.8-48.9Zm-94.2,1161.7c1.3,9,.6,8.3,10,10.1h0c.4,0,7.4.2,19.9.2l-30.3-43.8c-.4,12.3-.3,27.9.5,33.5Zm835.6-478.4h67.2c0-.1-33.8-49-33.8-49l-33.4,49Zm1.4,391.3h67.2c0-.1-33.8-49-33.8-49l-33.4,49ZM328.2,16.4c-.3,0-.6.2-1,.3h1.2s-.2-.3-.2-.3Zm-33.2,49.3l-22.6-32.7c-10,3-18.1,5.4-21.2,6.3-2.2.7-4.4,1.3-6.6,2l-16.8,24.6h67.2Zm709.4,1123.6l-33.8-48.8-33.4,49h67.2ZM160.9,66.4c-.3,0-.6.2-.8.3l-15.3,22.5c.8,5.8,2.2,13.7,4,23.8.1.7.2,1.3.4,2h45.2c0,0-33.4-48.5-33.4-48.5Zm742.1,976.3h67.2c0-.1-33.8-49-33.8-49l-33.4,49Zm100.6-49.1l-33.8-48.9-33.4,49h67.2Zm.4,97.8l-33.8-48.8-33.4,49h67.2Zm-.7-195.7l-33.8-48.8-33.4,49h67.2ZM329.1,212.4l-33.4,49h67.2c0-.1-33.8-49-33.8-49Zm134.3-.3l29.7-43.5c-4.1-1.6-8.1-3.4-12-5.4h-51.4c0,.1,33.8,49,33.8,49Zm201.2-98.3l-33.4,49h67.2c0-.1-33.8-49-33.8-49Zm-268.7.6l18-26.4c-3.1-7.2-5.8-14.7-8.1-22.5h-43.7c0,0,33.8,48.9,33.8,48.9Zm371,439.5h67.2c0-.1-33.8-49-33.8-49l-33.4,49ZM231.6,1142h67.2c0-.1-33.8-49-33.8-49l-33.4,49Zm64.4-782.8l33.8,48.8,33.4-49h-67.2Zm436.1-147.7l-33.4,49h67.2c0-.1-33.8-49-33.8-49Zm103.7,831.4h67.2c0-.1-33.8-49-33.8-49l-33.4,49Zm189.1-587.4v-4s-2.3-1.5-2.3-1.5c-1.3-.8-7.8-4.1-14.6-7.2-9.7-4.5-16.3-8.2-22.4-12.8l-17.5,25.7h56.9Zm-492.6,245.6l33.4-49h-67.2c0,.1,33.8,49,33.8,49Zm270.1,390.8l33.4-49h-67.2c0,.1,33.8,49,33.8,49ZM497.9,456.6l-33.8-48.8-33.4,49h67.2Zm-167.4,147.1l-33.4,49h67.2c0-.1-33.8-49-33.8-49Zm469.9-98.8l33.4-49h-67.2c0,.1,33.8,49,33.8,49ZM154.6,349.3c-.8,3.5-1.6,6.9-2.5,10.2h9.5s-7-10.2-7-10.2Zm479.3,596.2h67.2c0-.1-33.8-49-33.8-49l-33.4,49ZM261.5,114.7l-33.4,49h67.2c0-.1-33.8-49-33.8-49Zm405.9,781.8l33.4-49h-67.2c0,.1,33.8,49,33.8,49ZM94.8,457.4l33.8,48.8,33.4-49h-67.2Zm638-50.2l33.4-49h-67.2c0,.1,33.8,49,33.8,49ZM164.8,1240h67.2c0-.1-33.8-49-33.8-49l-33.4,49Zm737.2-490.7h67.2c0-.1-33.8-49-33.8-49l-33.4,49Zm-605.3-194.4l33.8,48.8,33.4-49h-67.2ZM899.9,162.3h34c1.7-13.4,3.6-27,5.6-40l-6.2-8.9-33.4,49Zm-399.2,1077l13.6,19.6c13.3,0,26.7,0,40.1,0l13.5-19.8h-67.2ZM866.5,211.2l33.4-49h-67.2c0,.1,33.8,49,33.8,49ZM85.6,444.1c-2.1.5-4.4,1-7,1.6l-10.6,2.3-1.2,7.6c0,.2,0,.9-.1,1.9h28c0,0-9.2-13.4-9.2-13.4Zm345.1,12.6h-67.2c0,.1,33.8,49,33.8,49l33.4-49Zm102.3,440l33.4-49h-67.2c0,.1,33.8,49,33.8,49Zm370.7,341.6l13.9,20c14.6,0,27.9-.1,39.7-.2l13.7-20h-67.2ZM295.7,261.3h-67.2c0,.1,33.8,49,33.8,49l33.4-49Zm472.7,683.9h67.2c0-.1-33.8-49-33.8-49l-33.4,49Zm33.4-49l33.4-49h-67.2c0,.1,33.8,49,33.8,49Zm-704.8,148.2l33.8,48.8,33.4-49h-67.2Zm-30.9-489.1c0,13.3,0,27.6-.1,42.8l29.2-42.9h-29.1Zm770.5,683.2h67.2c0-.1-33.8-49-33.8-49l-33.4,49Zm-1.4-391.3h67.2c0-.1-33.8-49-33.8-49l-33.4,49Zm135.7,391.1h53.8c0-4.8.2-11,.2-19.1l-20.6-29.8-33.4,49Zm-169.9-537.7l33.4-49h-67.2c0,.1,33.8,49,33.8,49Zm-301.4,245.2h67.2c0-.1-33.8-49-33.8-49l-33.4,49Zm268-196.2h67.2c0-.1-33.8-49-33.8-49l-33.4,49Zm-200.5,293.9h67.2c0-.1-33.8-49-33.8-49l-33.4,49Zm-436.5,49.8l-33.4,49h67.2c0-.1-33.8-49-33.8-49Zm368.2-343.2h67.2c0-.1-33.8-49-33.8-49l-33.4,49Zm370.3,243.8l33.4-49h-67.2c0,.1,33.8,49,33.8,49Zm-189.2,277.3c-7.5,0-15.1,0-22.8,0l11.5,16.6,11.3-16.6Zm-134-.2c-7.8,0-15.6,0-23.4,0l11.8,17,11.6-17Zm87.2-521.3h67.2c0-.1-33.8-49-33.8-49l-33.4,49Zm-470.2,1l33.8,48.8,33.4-49h-67.2Zm33.8,48.8l-33.4,49h67.2c0-.1-33.8-49-33.8-49Zm469.9-98.8l33.4-49h-67.2c0,.1,33.8,49,33.8,49Zm270.1,390.8l33.4-49h-67.2c0,.1,33.8,49,33.8,49Zm-524.8,179.4c-8,0-16,0-23.8,0l12,17.4,11.8-17.4ZM899.5,64.4l-5.3-7.7c-10.6-3.2-31-9.5-46.7-14.4l-15.1,22.2h67.2Zm-162.9-56.1c-4.5-1.4-9-2.6-13-3.7l7.8,11.3,5.2-7.6Zm-169.1,1133l33.8,48.8,33.4-49h-67.2ZM196.1,604l-33.4,49h67.2c0-.1-33.8-49-33.8-49Zm469.9-98.8l33.4-49h-67.2c0,.1,33.8,49,33.8,49ZM933.3,113.3l9.8-14.3c1-7.6,1.7-14,1.7-16.7v-7.7s-7.1-3.3-7.1-3.3c-4-1.8-9.3-3.8-19-6.9h-19.2s33.8,48.9,33.8,48.9Zm-365.4,1125.9h67.2c0-.1-33.8-49-33.8-49l-33.4,49Zm-290.1,32c-8.2,0-16.3,0-24.1,0l12.1,17.6,12-17.6Zm670.1.9c-6.6,0-13.6,0-21-.1l10.6,15.4,10.4-15.3ZM197.5,995.3l-33.4,49h67.2c0-.1-33.8-49-33.8-49Zm572.2,341.2h67.2c0-.1-33.8-49-33.8-49l-33.4,49Zm-336.6-195l33.8,48.8,33.4-49h-67.2Zm-134.3.3l33.8,48.8,33.4-49h-67.2Zm605.3,194.4h67.2c0-.1-33.8-49-33.8-49l-33.4,49Zm-739.6-194.1l33.8,48.8,33.4-49h-67.2ZM295,65.7h-67.2c0,.1,33.8,49,33.8,49l33.4-49Zm407.3,1173.2h67.2c0-.1-33.8-49-33.8-49l-33.4,49Zm111.9,32.7c-7.2,0-14.6,0-22,0l11.1,16.1,10.9-16ZM396.6,310.1l33.4-49h-67.2c0,.1,33.8,49,33.8,49Zm506.8,830.5h67.2c0-.1-33.8-49-33.8-49l-33.4,49Zm-270.8-586.4h67.2c0-.1-33.8-49-33.8-49l-33.4,49Zm-468.8,392.3l33.8,48.9,33.4-49h-67.2Zm-2.8-782.7l33.8,48.8,33.4-49h-67.2Zm474.1,1075.2l13.8,19.9c13.4,0,26.7,0,39.8,0l13.7-20h-67.2ZM155.8,156.3c.3,2.5.7,5,1,7.5h4.2s-5.2-7.5-5.2-7.5Zm479.7,1180.2c23.6,0,45.9,0,66.9,0l-33.7-48.7-33.3,48.8Zm234.4-147l33.4-49h-67.2c0,.1,33.8,49,33.8,49ZM430.4,358.9l-33.8-48.8-33.4,49h67.2ZM698,64.8h-13.8c-5.8,17.1-13.1,32.5-21.8,45.8l2.2,3.1,33.4-49Zm-196.6,1271.7c14.6,0,29.3,0,44.2,0,7.6,0,15,0,22.3,0l-33.5-48.5-33,48.5Zm-202.2-96.9h67.2c0-.1-33.8-49-33.8-49l-33.4,49Zm399.9-881.3l-33.8-48.8-33.4,49h67.2Zm-370-146l33.4-49h-67.2c0,.1,33.8,49,33.8,49ZM731.4,15.9l-33.4,49h67.2c0-.1-33.8-49-33.8-49ZM149.5,70.9c-4.9,2.4-5.5,3.1-5.8,6.2-.2,2,.2,5.9,1.1,12l15.3-22.5c-4.9,1.7-8.4,3.1-10.6,4.2Zm45.2,141.7l-31.4,46c0,1,0,2,0,3h65.2c0-.1-33.8-49-33.8-49Zm370,146l-33.8-48.8-33.4,49h67.2Zm371.4,537.3l33.4-49h-67.2c0,.1,33.8,49,33.8,49ZM631.2,162.8h-28.3c-9.2,4.3-19,7.5-30.4,10.2-.5.1-.9.2-1.3.3l26.6,38.5,33.4-49Zm201.2-98.2h-67.2c0,.1,33.8,49,33.8,49l33.4-49ZM233.3,1336.3c20.3,0,42.2,0,65.5,0l-33-47.7-32.5,47.6Zm63.1-879.3h-67.2c0,.1,33.8,49,33.8,49l33.4-49Zm335.9-.7l-33.8-48.8-33.4,49h67.2Zm-469.9,98.8l33.8,48.8,33.4-49h-67.2Zm-18.9,716.2c-8.8,0-16.9,0-24.1.1l12.1,17.5,12-17.6Zm-44,64.6c15,0,37,.2,64.7.2l-32.6-47.2-32,47ZM262.2,310.3l-33.4,49h67.2c0-.1-33.8-49-33.8-49Zm439.6,830.7l33.8,48.8,33.4-49h-67.2Zm-334.6,195.5c21.3,0,43.4,0,66.1,0l-33.3-48.1-32.8,48.1ZM216.5,49.5c-6.5,1.9-12.9,3.8-19.2,5.6-15.3,4.5-26.9,8-35,10.8h65.5c0-.1-11.3-16.4-11.3-16.4Zm217,1189.9h67.2c0-.1-33.8-49-33.8-49l-33.4,49Zm469.2-294.5h67.2c0-.1-33.8-49-33.8-49l-33.4,49ZM128.6,506.3l-33.4,49h67.2c0-.1-33.8-49-33.8-49Zm235.6,146.3l33.8,48.8,33.4-49h-67.2Zm-298.1,489.8c0,16.7.1,31.9.2,45.3l30.9-45.3h-31.1Zm500.3-294.5h67.2c0-.1-33.8-49-33.8-49l-33.4,49Zm167.1-244.9l33.4-49h-67.2c0,.1,33.8,49,33.8,49Zm33.1-146.8l-33.8-48.8-33.4,49h67.2Zm-637.3,245.9l-33.4,49h67.2c0-.1-33.8-49-33.8-49Zm202.6,293.1l-33.4,49h67.2c0-.1-33.8-49-33.8-49Zm-33.8-48.9l33.8,48.9,33.4-49h-67.2Zm706.2,243.1l20.9-30.6c0-5.8,0-11.9,0-18.3h-54.7c0,.1,33.8,49,33.8,49Zm-304.2-537.5h67.2c0-.1-33.8-49-33.8-49l-33.4,49Zm132.6-489.4l-33.8-48.8-33.4,49h67.2Zm-232.8,636.4l33.4-49h-67.2c0,.1,33.8,49,33.8,49ZM195.4,408.3l-33.4,49h67.2c0-.1-33.8-49-33.8-49Zm99.5-342.6h67.2c0-.1-33.8-49-33.8-49l-33.4,49Zm336.9,292.8h-67.2c0,.1,33.8,49,33.8,49l33.4-49ZM328.7,16.3c-.2,0-.3,0-.5.1l.2.3.3-.4Zm168.9,342.5h-67.2c0,.1,33.8,49,33.8,49l33.4-49Zm-65.1,587.1l33.8,48.9,33.4-49h-67.2Zm336.9,292.8l13.9,20.1c13.6,0,26.8,0,39.6,0l13.7-20.1h-67.2Zm-168.8-244.2l33.4-49h-67.2c0,.1,33.8,49,33.8,49ZM429.7,163.2l-33.8-48.8-33.4,49h67.2Zm510.2,194.6c-4-13.3-7-28-9.1-44.2l-30.2,44.3h39.3Zm-375.5-97.1h-67.2c0,.1,33.8,49,33.8,49l33.4-49Zm235.3,48.4l33.4-49h-67.2c0,.1,33.8,49,33.8,49ZM65.8,999.4c0,15.4,0,30.5,0,45.1h31c0,0-31.1-45.1-31.1-45.1Zm332.1-298.1l-33.4,49h67.2c0-.1-33.8-49-33.8-49Zm99.2-440.5l-33.8-48.8-33.4,49h67.2Zm204.3,782.2h67.2c0-.1-33.8-49-33.8-49l-33.4,49Zm33.4-49l33.4-49h-67.2c0,.1,33.8,49,33.8,49Zm-502.9,245.6l13,18.8c13.2,0,27,0,41.2,0l13-19h-67.2Zm333.1-783.4h-67.2c0,.1,33.8,49,33.8,49l33.4-49Zm66.5-195.8l-33.8-48.8-33.4,49h67.2Zm2.8,782.7l33.8,48.8,33.4-49h-67.2Zm-134.3.3l33.8,48.8,33.4-49h-67.2Zm-402.3,196.5l12.5,18c11.6,0,25.8.2,42.2.2l12.5-18.4h-67.2ZM397.3,505.7l-33.4,49h67.2c0-.1-33.8-49-33.8-49Zm301.4-245.2h-67.2c0,.1,33.8,49,33.8,49l33.4-49Zm168.5,146.4l33.4-49h-67.2c0,.1,33.8,49,33.8,49Zm135.8,391.1l22.3-32.7v-16.3s-56,.1-56,.1l33.8,48.8ZM66.4,1194.9c.1,20.5.3,36.1.4,45.2h30.8c0,0-31.2-45.2-31.2-45.2Zm937.2-201.3l21.7-31.8c0-5.6,0-11.3,0-17.2h-55.4c0,.1,33.8,49,33.8,49Zm-437.9-341.5h67.2c0-.1-33.8-49-33.8-49l-33.4,49Zm-470.2,1l33.8,48.8,33.4-49h-67.2Zm874.7,389.5h55.1c0-5.8,0-11.6,0-17.6l-21.7-31.4-33.4,49Zm-35.5-538l33.4-49h-67.2c0,.1,33.8,49,33.8,49Zm-200.5,293.9l33.4-49h-67.2c0,.1,33.8,49,33.8,49Zm31.3-636h-67.2c0,.1,33.8,49,33.8,49l33.4-49Zm-399.9,881.3l33.8,48.8,33.4-49h-67.2Zm603.9-196.9h55.7c0-.1,0-16.7,0-16.7l-22.3-32.3-33.4,49Zm-370.3-243.8l33.4-49h-67.2c0,.1,33.8,49,33.8,49Zm101.6,244.4h67.2c0-.1-33.8-49-33.8-49l-33.4,49Zm199.4-587.4l-33.8-48.8-33.4,49h67.2Zm-468.5,490.1l33.8,48.8,33.4-49h-67.2Zm-335.5,98.5l33.8,48.8,33.4-49h-67.2Zm135.1,195.4l33.8,48.8,33.4-49h-67.2Zm234.2-245.1l-33.4,49h67.2c0-.1-33.8-49-33.8-49Zm368.9-147.5h67.2c0-.1-33.8-49-33.8-49l-33.4,49Zm-468.1,588l13.3,19.3c13.3,0,26.9,0,40.6,0l13.3-19.5h-67.2Zm32.4-342.5l-33.4,49h67.2c0-.1-33.8-49-33.8-49Zm603.5-294.8l22.8-33.5v-15.5s-56.6.1-56.6.1l33.8,48.8Zm-737.9,295l-33.4,49h67.2c0-.1-33.8-49-33.8-49Zm-33.8-48.8l33.8,48.8,33.4-49h-67.2Zm-164.9-43.9c0,14.7,0,29.4,0,44.2h30.5c0,0-30.5-44.2-30.5-44.2Zm300.3,337.1h67.2c0-.1-33.8-49-33.8-49l-33.4,49Zm501.9-539.1l33.4-49h-67.2c0,.1,33.8,49,33.8,49ZM65.7,751c0,14.6,0,29.3,0,44.2l30.2-44.2h-30.2Zm499.7-196.7l-33.8-48.8-33.4,49h67.2Zm69.3,586.9h67.2c0-.1-33.8-49-33.8-49l-33.4,49Zm-203.6-586.6l33.8,48.8,33.4-49h-67.2Zm-269.4-195.1l33.8,48.8,33.4-49h-67.2Zm-95.7,250.8c0,13.7,0,28.1,0,42.9h29.7c0,0-29.6-42.9-29.6-42.9Zm366.9,433.5h67.2c0-.1-33.8-49-33.8-49l-33.4,49Zm435.7-245.5l33.4-49h-67.2c0,.1,33.8,49,33.8,49Zm-403.7-194.8l-33.4,49h67.2c0-.1-33.8-49-33.8-49Zm304.2,537.5h67.2c0-.1-33.8-49-33.8-49l-33.4,49Zm-471.6-390.4l33.8,48.8,33.4-49h-67.2Zm202.9,390.9h67.2c0-.1-33.8-49-33.8-49l-33.4,49Zm435-441.2l33.4-49h-67.2c0,.1,33.8,49,33.8,49Zm-805.4,197.3l-33.4,49h67.2c0-.1-33.8-49-33.8-49Zm133.6-195.9l-33.4,49h67.2c0-.1-33.8-49-33.8-49Zm665.8-399.2c-.3-2.8-.5-5.6-.8-8.5-.6-7.1-.8-19.8-.7-33.9h-27.8c0,0,29.3,42.4,29.3,42.4Zm-28.6,153.3l-33.8-48.8-33.4,49h67.2Zm67.9,195.5h56.3c0-.1,0-15.9,0-15.9l-22.9-33.1-33.4,49ZM65.8,946.7c0,15.2,0,30.3,0,45l30.8-45.1h-30.8Zm835.5-393.1h67.2c0-.1-33.8-49-33.8-49l-33.4,49Zm-638.3-47.6l-33.4,49h67.2c0-.1-33.8-49-33.8-49Zm-33.1,146.8l33.8,48.8,33.4-49h-67.2Zm101.3,146.5l-33.4,49h67.2c0-.1-33.8-49-33.8-49Zm33.8,48.8l33.8,48.8,33.4-49h-67.2Zm-35.2-440.2l-33.4,49h67.2c0-.1-33.8-49-33.8-49Zm503.6-50l-33.8-48.8-33.4,49h67.2Z"/></g></g></svg>