<?xml version="1.0" encoding="UTF-8"?><svg xmlns="http://www.w3.org/2000/svg" width="1600" height="1600" xmlns:xlink="http://www.w3.org/1999/xlink" viewBox="0 0 1600 1600"><defs><style>.bz{fill:url(#ao);}.bz,.ca,.cb,.cc,.cd,.ce,.cf,.cg,.ch,.ci,.cj,.ck,.cl,.cm,.cn,.co,.cp,.cq,.cr,.cs,.ct,.cu,.cv,.cw,.cx,.cy,.cz,.da,.db,.dc,.dd,.de,.df,.dg,.dh,.di,.dj,.dk,.dl,.dm,.dn,.do,.dp,.dq,.dr,.ds,.dt,.du,.dv,.dw,.dx,.dy,.dz,.ea,.eb,.ec,.ed,.ee,.ef,.eg,.eh,.ei,.ej,.ek,.el,.em,.en,.eo,.ep,.eq,.er,.es,.et,.eu,.ev,.ew,.ex,.ey,.ez{stroke-width:0px;}.ca{fill:url(#bh);}.cb{fill:url(#bb);}.cc{fill:url(#v);}.cd{fill:url(#w);}.ce{fill:url(#c);}.cf{fill:url(#by);}.cg{fill:url(#bo);}.ch{fill:url(#s);}.ci{fill:#061f89;}.cj{fill:url(#ag);}.ck{fill:url(#br);}.cl{fill:url(#y);}.cm{fill:url(#bk);}.cn{fill:url(#bi);}.co{fill:url(#ad);}.cp{fill:url(#e);}.cq{fill:url(#bn);}.cr{fill:url(#an);}.cs{fill:url(#g);}.ct{fill:url(#ar);}.cu{fill:url(#i);}.cv{fill:url(#bu);}.fa{isolation:isolate;}.cw{fill:url(#ah);}.cx{fill:url(#au);}.cy{fill:url(#l);}.cz{fill:url(#b);}.da{fill:url(#at);}.db{fill:url(#q);}.dc{fill:url(#t);}.dd{fill:url(#ay);}.de{fill:url(#av);}.df{fill:url(#bj);}.dg{fill:url(#u);}.dh{fill:url(#as);}.di{fill:url(#az);}.dj{fill:url(#n);}.dk{fill:url(#bv);}.dl{fill:url(#bl);}.dm{fill:url(#bt);}.dn{fill:url(#z);}.do{fill:#fff;mix-blend-mode:overlay;opacity:.2;}.dp{fill:url(#bf);}.dq{fill:url(#h);}.dr{fill:url(#bp);}.ds{fill:url(#bx);}.dt{fill:url(#j);}.du{fill:url(#bm);}.dv{fill:url(#bc);}.dw{fill:url(#bw);}.dx{fill:url(#al);}.dy{fill:url(#aw);}.dz{fill:url(#d);}.ea{fill:url(#af);}.eb{fill:url(#aq);}.ec{fill:url(#aj);}.ed{fill:url(#am);}.ee{fill:url(#ap);}.ef{fill:url(#bd);}.eg{fill:url(#f);}.eh{fill:url(#ba);}.ei{fill:url(#ax);}.ej{fill:url(#bq);}.ek{fill:url(#m);}.el{fill:url(#ab);}.em{fill:url(#ai);}.en{fill:url(#r);}.eo{fill:url(#ak);}.ep{fill:url(#ae);}.eq{fill:url(#aa);}.er{fill:url(#bg);}.es{fill:url(#bs);}.et{fill:url(#be);}.eu{fill:url(#k);}.ev{fill:url(#p);}.ew{fill:url(#ac);}.ex{mix-blend-mode:multiply;opacity:.2;}.ey{fill:url(#x);}.ez{fill:url(#o);}</style><linearGradient id="b" x1="17.3" y1="1314.7" x2="589.1" y2="1314.7" gradientUnits="userSpaceOnUse"><stop offset="0" stop-color="#232a53"/><stop offset=".9" stop-color="#2a57b4"/></linearGradient><linearGradient id="c" x1="778" y1="1330.7" x2="1413.1" y2="1330.7" xlink:href="#b"/><linearGradient id="d" x1="515.4" y1="-274.3" x2="515.4" y2="1274.6" xlink:href="#b"/><linearGradient id="e" x1="284.6" y1="-274.3" x2="284.6" y2="1274.6" xlink:href="#b"/><linearGradient id="f" x1="392.6" y1="-274.3" x2="392.6" y2="1274.6" xlink:href="#b"/><linearGradient id="g" x1="706.8" y1="-274.3" x2="706.8" y2="1274.6" xlink:href="#b"/><linearGradient id="h" x1="619" y1="-274.3" x2="619" y2="1274.6" xlink:href="#b"/><linearGradient id="i" x1="394.2" y1="-274.3" x2="394.2" y2="1274.6" xlink:href="#b"/><linearGradient id="j" x1="131.2" y1="-274.3" x2="131.2" y2="1274.6" xlink:href="#b"/><linearGradient id="k" x1="626.7" y1="-274.3" x2="626.7" y2="1274.6" xlink:href="#b"/><linearGradient id="l" x1="550.3" y1="-274.3" x2="550.3" y2="1274.6" xlink:href="#b"/><linearGradient id="m" x1="653.7" y1="-274.3" x2="653.7" y2="1274.6" xlink:href="#b"/><linearGradient id="n" x1="274.4" y1="-274.3" x2="274.4" y2="1274.6" xlink:href="#b"/><linearGradient id="o" x1="222.5" y1="-274.3" x2="222.5" y2="1274.6" xlink:href="#b"/><linearGradient id="p" x1="420.1" y1="-274.3" x2="420.1" y2="1274.6" xlink:href="#b"/><linearGradient id="q" x1="511.3" y1="-274.3" x2="511.3" y2="1274.6" xlink:href="#b"/><linearGradient id="r" x1="249.1" y1="-274.3" x2="249.1" y2="1274.6" xlink:href="#b"/><linearGradient id="s" x1="295.6" y1="-274.3" x2="295.6" y2="1274.6" xlink:href="#b"/><linearGradient id="t" x1="480.6" y1="-274.3" x2="480.6" y2="1274.6" xlink:href="#b"/><linearGradient id="u" x1="505.8" y1="-274.3" x2="505.8" y2="1274.6" xlink:href="#b"/><linearGradient id="v" x1="759.3" y1="-274.3" x2="759.3" y2="1274.6" xlink:href="#b"/><linearGradient id="w" x1="138.9" y1="-274.3" x2="138.9" y2="1274.6" xlink:href="#b"/><linearGradient id="x" x1="719.4" y1="-274.3" x2="719.4" y2="1274.6" xlink:href="#b"/><linearGradient id="y" x1="660.1" y1="-274.3" x2="660.1" y2="1274.6" xlink:href="#b"/><linearGradient id="z" x1="505.8" y1="-274.3" x2="505.8" y2="1274.6" xlink:href="#b"/><linearGradient id="aa" x1="426.5" y1="-274.3" x2="426.5" y2="1274.6" xlink:href="#b"/><linearGradient id="ab" x1="505.8" y1="-274.3" x2="505.8" y2="1274.6" xlink:href="#b"/><linearGradient id="ac" x1="279.7" y1="-274.3" x2="279.7" y2="1274.6" xlink:href="#b"/><linearGradient id="ad" x1="575.2" y1="-274.3" x2="575.2" y2="1274.6" xlink:href="#b"/><linearGradient id="ae" x1="301.5" y1="-274.3" x2="301.5" y2="1274.6" xlink:href="#b"/><linearGradient id="af" x1="197.3" y1="-274.3" x2="197.3" y2="1274.6" xlink:href="#b"/><linearGradient id="ag" x1="509.8" y1="-274.3" x2="509.8" y2="1274.6" xlink:href="#b"/><linearGradient id="ah" x1="561.3" y1="-274.3" x2="561.3" y2="1274.6" gradientTransform="translate(861.8 -111.8) rotate(46.4)" xlink:href="#b"/><linearGradient id="ai" x1="386.7" y1="-274.3" x2="386.7" y2="1274.6" gradientTransform="translate(634.5 -53.9) rotate(42.4)" xlink:href="#b"/><linearGradient id="aj" x1="391.7" y1="-274.3" x2="391.7" y2="1274.6" xlink:href="#b"/><linearGradient id="ak" x1="558.4" y1="-274.3" x2="558.4" y2="1274.6" xlink:href="#b"/><linearGradient id="al" x1="422.1" y1="-274.3" x2="422.1" y2="1274.6" xlink:href="#b"/><linearGradient id="am" x1="1107.2" y1="-233.3" x2="1107.2" y2="1315.6" xlink:href="#b"/><linearGradient id="an" x1="1385.2" y1="-233.3" x2="1385.2" y2="1315.6" xlink:href="#b"/><linearGradient id="ao" x1="1578.9" y1="-233.3" x2="1578.9" y2="1315.6" xlink:href="#b"/><linearGradient id="ap" x1="1408.4" y1="-233.3" x2="1408.4" y2="1315.6" xlink:href="#b"/><linearGradient id="aq" x1="1172.1" y1="-233.3" x2="1172.1" y2="1315.6" xlink:href="#b"/><linearGradient id="ar" x1="930.9" y1="-233.3" x2="930.9" y2="1315.6" xlink:href="#b"/><linearGradient id="as" x1="1365.5" y1="-233.3" x2="1365.5" y2="1315.6" xlink:href="#b"/><linearGradient id="at" x1="1318.2" y1="-233.3" x2="1318.2" y2="1315.5" xlink:href="#b"/><linearGradient id="au" x1="1496.3" y1="-233.3" x2="1496.3" y2="1315.6" xlink:href="#b"/><linearGradient id="av" x1="1241.1" y1="-233.3" x2="1241.1" y2="1315.6" xlink:href="#b"/><linearGradient id="aw" x1="947.7" y1="-233.3" x2="947.7" y2="1315.6" xlink:href="#b"/><linearGradient id="ax" x1="1002.9" y1="-233.3" x2="1002.9" y2="1315.6" xlink:href="#b"/><linearGradient id="ay" x1="1085.7" y1="-233.3" x2="1085.7" y2="1315.6" xlink:href="#b"/><linearGradient id="az" x1="1222.7" y1="-233.3" x2="1222.7" y2="1315.6" xlink:href="#b"/><linearGradient id="ba" x1="863.4" y1="-233.3" x2="863.4" y2="1315.6" xlink:href="#b"/><linearGradient id="bb" x1="1459.7" y1="-233.3" x2="1459.7" y2="1315.6" xlink:href="#b"/><linearGradient id="bc" x1="1121.4" y1="-233.3" x2="1121.4" y2="1315.6" xlink:href="#b"/><linearGradient id="bd" x1="1322.2" y1="-233.3" x2="1322.2" y2="1315.6" xlink:href="#b"/><linearGradient id="be" x1="1051.8" y1="-233.3" x2="1051.8" y2="1315.6" xlink:href="#b"/><linearGradient id="bf" x1="1486.2" y1="-233.3" x2="1486.2" y2="1315.6" xlink:href="#b"/><linearGradient id="bg" x1="1548.7" y1="-233.3" x2="1548.7" y2="1315.6" xlink:href="#b"/><linearGradient id="bh" x1="1443.4" y1="-233.3" x2="1443.4" y2="1315.6" xlink:href="#b"/><linearGradient id="bi" x1="1308.4" y1="-233.3" x2="1308.4" y2="1315.6" xlink:href="#b"/><linearGradient id="bj" x1="1229.2" y1="-233.3" x2="1229.2" y2="1315.6" xlink:href="#b"/><linearGradient id="bk" x1="1308.4" y1="-233.3" x2="1308.4" y2="1315.6" xlink:href="#b"/><linearGradient id="bl" x1="1221.3" y1="-233.3" x2="1221.3" y2="1315.6" xlink:href="#b"/><linearGradient id="bm" x1="1377.9" y1="-233.3" x2="1377.9" y2="1315.6" xlink:href="#b"/><linearGradient id="bn" x1="1082.4" y1="-233.3" x2="1082.4" y2="1315.6" xlink:href="#b"/><linearGradient id="bo" x1="929" y1="-233.3" x2="929" y2="1315.6" xlink:href="#b"/><linearGradient id="bp" x1="1308.4" y1="-233.3" x2="1308.4" y2="1315.6" xlink:href="#b"/><linearGradient id="bq" x1="1270" y1="-233.3" x2="1270" y2="1315.6" xlink:href="#b"/><linearGradient id="br" x1="1359.4" y1="-233.3" x2="1359.4" y2="1315.6" xlink:href="#b"/><linearGradient id="bs" x1="1194.3" y1="-233.3" x2="1194.3" y2="1315.6" xlink:href="#b"/><linearGradient id="bt" x1="1224.9" y1="-233.3" x2="1224.9" y2="1315.6" xlink:href="#b"/><linearGradient id="bu" x1="1104.3" y1="-233.3" x2="1104.3" y2="1315.6" xlink:href="#b"/><linearGradient id="bv" x1="1000" y1="-233.3" x2="1000" y2="1315.6" xlink:href="#b"/><linearGradient id="bw" x1="1364" y1="-233.3" x2="1364" y2="1315.6" gradientTransform="translate(1183.5 -685.4) rotate(47.9)" xlink:href="#b"/><linearGradient id="bx" x1="1189.4" y1="-233.3" x2="1189.4" y2="1315.6" gradientTransform="translate(872.2 -584.6) rotate(42.4)" xlink:href="#b"/><linearGradient id="by" x1="1311.9" y1="-233.3" x2="1311.9" y2="1315.6" xlink:href="#b"/></defs><g class="fa"><g id="a"><path class="cz" d="m583.4,1297.2c-2.7-1-5.3-2.2-8-3-4.9-1.4-9.8-2.5-14.7-3.7-9.4-2.4-18.4-5.9-27.5-9.3-6.6-2.5-13-5.5-19.1-9.1-9.5-5.5-18.7-11.6-27.6-18.2-6.2-4.6-12.4-9.2-18.1-14.4-8.2-7.4-16.7-14.5-25.2-21.4-2.7-2.2-5.5-4.4-8.1-6.8-9.3-8.6-19.7-15.6-30.3-22.4-9.9-6.3-20.5-11.1-31-16.3-5.1-2.5-10.4-4.9-15.9-6.5-9.9-2.8-19.6-6.5-30-7.6-7-.7-13.9-2.2-20.9-2.2-8.5,0-17.2-.9-25.6,1.2-5.1-.5-10.2.6-15,1.8-9.8,2.5-19.6,4.9-29.1,8.6-14.4,5.6-28.8,10.9-42.2,18.8-8,4.7-15.8,9.7-23.3,15-11.9,8.4-23.3,17.5-34.7,26.5-12.4,9.9-25.3,19.2-38.4,28.2-6.2,4.3-12.7,7.9-19.2,11.6-12.9,7.4-26.2,13.8-39.5,20.1-5.8,2.7-11.5,5.5-17.2,8.4-2,1-3.8,2.2-5.3,4.2-.3,6.3-.2,12.7,1.1,19.1,1.9,9.1,3.1,18.3,4.8,27.5,1,5.5,2.6,10.8,3.1,16.3.7,7.1,2.8,13.9,3.6,21,.6,5.9,2.5,11.7,3,17.6.4,4.6,1.6,8.7,3,12.9,1.2,3.8,1.4,3.8,5.2,6.6-1.2.7-2.7.4-4,2.2.1,6.9-.9,14.4,1.1,21.8.8,2.7,1.3,5.6,1.6,8.5.5,4.4,1.7,8.7,3.5,12.8,1,2.3,2.5,4.3,5.3,4.5,5.5.5,10.8,1.5,16.4,1.5,162.9-.1,325.9,0,488.8,0s2.6,0,4,0c4.6-.1,6-.9,7-5.4,1-4.8,3-9.2,3.3-14.2.2-3,.4-6.3,1.2-9.2,1.5-5.5.9-11.1,1.1-16.6,0-3.1-.9-5.2-4.5-5.9,2.8-1,4-2.7,4.9-5.2,1.7-5.1,2.7-10.3,3.6-15.5.7-4.4,1.2-8.8,1.9-13.1,1.9-11.4,4.3-22.6,5.9-34,1.3-9.2,3.4-18.3,4.7-27.5,1-6.8,2.3-13.5,2.2-20.5-.1-7.7-.8-6.9-5.8-8.7Z"/><path class="ce" d="m1411.5,1314.6c-4.4-2.6-8.7-5.2-13.3-7.5-4.7-2.4-9.6-4.3-14.4-6.7-10.4-5.2-20.9-10.4-31.2-15.8-6.6-3.5-13.2-7.1-19.6-11-10.7-6.6-21-13.8-31.1-21.3-5.5-4-11.1-8-16.5-12.2-5.6-4.3-11.1-8.6-16.5-13.2-5.9-5-12.3-9.4-18.4-14-12.4-9.3-25.1-18-38.7-25.4-17.5-9.6-35.8-17-54.8-23-14.5-4.6-29.3-7.7-44.5-8.3-1.3,0-2.6-.5-3.9-.7-7-.9-14.1-1.1-21.1,0-5,.8-10,1.2-15,1.9-9.2,1.2-18.1,3.3-27,5.8-6.1,1.7-12.2,3.8-18.1,6.2-8.2,3.3-16.4,6.4-24.2,10.5-13.1,6.9-25.8,14.4-37.6,23.4-7,5.3-14.2,10.4-20.8,16.3-3.4,3.1-7,6.1-10.4,9.2-4.5,3.9-9.5,7.3-13.6,11.5-6.1,6.2-13.1,11.2-19.8,16.6-11.6,9.4-24,17.9-37.1,25.3-11.6,6.6-23.6,11.9-36,16.5-11.4,4.2-23.3,6.4-34.9,9.9-5,1.5-10.1,3-14.2,6.2-1.8,8.1-.2,15.9,1.2,23.4,2.1,11.3,3.1,22.8,5.9,34,.7,2.9,1.1,6.1,1.5,9.2,1,7.2,2.1,14.5,3.2,21.7,1.1,7.2,2.5,14.4,3.5,21.6,1.1,7.2,2.5,14.4,5.3,21.2.7,1.9,1.8,2.9,3.8,3.1.9.1,2.1-.4,2.7.9-2,.9-4.4.8-6,2.8-.5,2.2-1.1,4.6-1.5,7-.4,2.4-.4,4.9,0,7.3,1.3,7.4,2.5,14.8,3.5,22.3.8,5.6,2.4,10.7,4.8,15.2,9.1,2.4,17.9,2.1,26.7,2.1,176.6,0,353.2,0,529.9,0,6,0,11.8-.2,18-2.2,1-2.1,2.4-4.4,3.4-6.8.8-2.1,1.4-4.2,1.8-6.4,1.5-7.6,3.2-15.2,4.2-22.9.7-5.2.7-10.6-.3-15.8-2.2-.9-4.2-1.8-6.4-2.7.7-.3,1.1-.7,1.5-.7,3.5.2,4.9-1.6,6-4.8,2.2-6.3,3.9-12.8,4.6-19.4,1.1-10,3.7-19.6,5-29.5.7-5.9,2.1-11.8,3.1-17.7,1.7-9.8,3.3-19.6,4.9-29.5,1.1-7,3-13.9,3.2-21,0-3.8-.3-7.5,1-11-.7-.8-1-1.4-1.6-1.7Z"/><path class="ci" d="m253.3,1547.8c-3.1,0-6.2-.2-9.3,0-12.6,1.3-12.4,1-13.6,13.7-.4,4.2.1,8.5-.1,12.7-.3,4.5,1.1,8.8,1.6,13.2.2,1.7,1.4,2.8,3.1,3,5.2.5,10.4,1.6,15.7,1.6,219,0,448,0,667,0,4.6,0,9.2-.2,13.8-1.1,3.5-.7,5.1-2,5.3-5.5.1-1.5.9-3,1-4.5,0-7.8.3-15.6,0-23.4-.3-6.6-2.9-8.9-9.5-9.4-3.3-.3-6.6-.2-9.9-.2-109.4,0-228.8,0-338.2,0-108.9,0-217.9,0-326.8,0Z"/><path class="dz" d="m407.1,1090.4c16,0,32.1,0,48.1,0l50.5-46.1,50.5,46.1c22.4,0,44.9,0,67.3,0l-107.8-99.3-108.7,99.3Z"/><path class="cp" d="m420.8,903.6l-78.5-72.4L60.4,1088.8c.3,0,.6.1.9.2,5,1,9.9,1.5,15,1.5,46.5,0,93,0,139.6,0l292.9-267.1-88,80.2Z"/><path class="eg" d="m247.6,744.1l-23.7-21.8,87.5-80,24,21.6,107-97.7,91.4-83.5h0s196.2-179.2,196.2-179.2c0-7.8,0-15.6,0-23.4-.1-7.2,1.3-14.3,1.6-21.5l-312.9,285.9-200.6-183.4,91.4-83.5,55.6,51.5,56.1-51.3-56-51.2,4.3-3.9c-6.5-4.6-12.3-9.8-18-15.4-8.3-8.2-14.6-17.8-19.9-28-.8-1.5-1.5-3-2.3-4.6l-202.9,188.4c-1.2,7.2-2.6,14.4-4.5,21.4-4.1,15.3-10.3,29.8-19.5,42.8-9,12.7-20.9,20.8-36.4,22.8-2.2.3-4.3.9-6.4,1.4-2.3.6-4,2.2-4.1,4.7-.2,5.6-1.6,10.9-1.5,16.6,0,12.8,0,25.6,0,38.3l60.9-55.6,56,51.1,103.3-94.3,53.6,49-103.6,94-170.2,155.4c0,70.1,0,140.3,0,210.4l213.7-195.3-19.9,18.2Z"/><path class="cs" d="m803.1,728.7l3.6,3.3c0-2.2,0-4.4,0-6.5l-199.9,182.6,197.6,177.7c.4-.7.7-1.4.8-2.3.8-4.8,1.6-9.6,1.6-14.5,0-56.7,0-113.3,0-170l-95-86.8,91.4-83.5Z"/><path class="dq" d="m583.1,527.6l124.9,114.1-91.5,83.4-174.1-159,95.1,86.8-106.2,97.1,79.6,71.6,296-269.9c0-25.7,0-51.4,0-77.1,0-6.7-.5-13.3-2.1-20.1-1.6-.8-3.3-1.8-5-2.7-5.5-2.8-11-5.6-16.6-8.3-3.4-1.7-6.6-3.8-9.6-6.1l-144.6,132.1-45.8-41.8Z"/><path class="cu" d="m439.1,1097.6c-8.4,0-16.8,0-25.1,0h-14.7l-58.4,53.3c1.3,0,2.7,0,4,0,14.7,0,29.4,0,44.1,0l58.4-53.3c-2.8,0-5.5,0-8.3,0Z"/><path class="dt" d="m192.2,1097.6c-1.8,0-3.6-.1-5.3.3-6.3,1.5-12.6,1.5-18.9,0-1.7-.4-3.5-.2-5.3-.2-25.4,0-50.7,0-76.1,0s-3.6-.3-5.3.2c-3.7,1.1-7.4,1.1-11.1,1-4.2,0-8.3.4-12.2,2.1-2.9,4.7-3.9,9.7-3.6,15.3.3,6,.2,12,0,18.1,0,3.4.5,6.6,1.2,9.9.6,2.9,2.2,4.3,4.6,5,4.2,1.2,8.5,1.9,13,1.9,25.4,0,50.9,0,76.3,0l58.4-53.3c-5.3,0-10.6,0-15.8,0Z"/><path class="eu" d="m631.3,1097.6c-8,0-16.1,0-24.1,0-2.9,0-5.7.3-8.5.8-5.6.9-11.4,1-17.1,0-2.4-.5-4.8-.7-7.2-.7h-10.4l58.4,53.3c22.3,0,44.5,0,66.8,0l-57.9-53.4Z"/><path class="cy" d="m451.8,305.9l-28.6-26.1,52,47.5-56.7,51.5.2.2,263.4-240.6c-10.7-3.3-21.3-6.8-32-10.1-1.2-.4-2.4-.7-3.6-1.1v1l-194.7,177.8Z"/><path class="ek" d="m583.1,527.6l45.8,41.8,144.6-132.1c-2.1-1.6-4.1-3.3-6-5-9.2-8.5-15.7-19.2-20.9-30.5-3.5-7.7-6.4-15.6-8.5-23.8-2.5-9.5-4.3-19-5.5-28.7-.6-4.8-.7-9.8-1.5-14.5-1-5.8-1-11.5-1-17.3,0-4.7,0-9.4,0-14l-196.2,179.2,49.2,45Z"/><path class="do" d="m583.1,527.6l45.8,41.8,144.6-132.1c-2.1-1.6-4.1-3.3-6-5-9.2-8.5-15.7-19.2-20.9-30.5-3.5-7.7-6.4-15.6-8.5-23.8-2.5-9.5-4.3-19-5.5-28.7-.6-4.8-.7-9.8-1.5-14.5-1-5.8-1-11.5-1-17.3,0-4.7,0-9.4,0-14l-196.2,179.2,49.2,45Z"/><path class="dj" d="m388.8,1097.6c-8.4,0-16.8,0-25.1,0-8.3-.1-16.6.2-24.9.1-32.9-.3-65.7-.1-98.6-.1-3.3,0-6.5,0-9.8.9-3.4.8-6.8-1.1-10.4-1-4,.1-8,.1-12,.1l-58.4,53.3c40.1,0,80.1,0,120.2,0,2.9,0,5.7.3,8.5-.7.6-.2,1.3-.3,1.9,0,4.1,1.3,8.3.7,12.5.7,16.1,0,32.2,0,48.3,0l58.4-53.3h-10.5Z"/><path class="do" d="m388.8,1097.6c-8.4,0-16.8,0-25.1,0-8.3-.1-16.6.2-24.9.1-32.9-.3-65.7-.1-98.6-.1-3.3,0-6.5,0-9.8.9-3.4.8-6.8-1.1-10.4-1-4,.1-8,.1-12,.1l-58.4,53.3c40.1,0,80.1,0,120.2,0,2.9,0,5.7.3,8.5-.7.6-.2,1.3-.3,1.9,0,4.1,1.3,8.3.7,12.5.7,16.1,0,32.2,0,48.3,0l58.4-53.3h-10.5Z"/><path class="ez" d="m318.6,144.3c-2.2-7.9-3.4-16.1-4-24.2-.5-6.5-2.5-12.5-4.8-18.7-1.5-.1-2.8-.5-4.1-.3-6.3.9-12.7,1.4-18.7,3.8-1.6.7-3.3,1.1-5,1.6-12.7,3.7-25.3,7.4-37.9,11.3-10.7,3.3-21.5,6.5-32.2,9.6-15.7,4.5-31.2,9.4-46.8,13.8-9.3,2.6-18.6,5.2-27.9,8.1-7.1,2.2-14.5,3.8-21.1,9.1,0,4.1-.4,8.2,0,12.1.7,5.7,1.9,11.4,3.1,17,2.6,12.8,4.3,25.8,6.2,38.7.7,4.4.7,8.9,1.4,13.2,1.4,8.8,2.6,17.5,2.4,26.5,0,1.1-.1,2.3.2,3.3,1.3,3.7,1,7.5,1,11.2,0,6.9,0,13.8,0,20.7,0,16.9,0,33.7-2.5,50.5-.6,3.7-1.1,7.5-1.8,11.2l202.9-188.4c-4.6-9.7-7.7-20-10.6-30.3Z"/><path class="do" d="m318.6,144.3c-2.2-7.9-3.4-16.1-4-24.2-.5-6.5-2.5-12.5-4.8-18.7-1.5-.1-2.8-.5-4.1-.3-6.3.9-12.7,1.4-18.7,3.8-1.6.7-3.3,1.1-5,1.6-12.7,3.7-25.3,7.4-37.9,11.3-10.7,3.3-21.5,6.5-32.2,9.6-15.7,4.5-31.2,9.4-46.8,13.8-9.3,2.6-18.6,5.2-27.9,8.1-7.1,2.2-14.5,3.8-21.1,9.1,0,4.1-.4,8.2,0,12.1.7,5.7,1.9,11.4,3.1,17,2.6,12.8,4.3,25.8,6.2,38.7.7,4.4.7,8.9,1.4,13.2,1.4,8.8,2.6,17.5,2.4,26.5,0,1.1-.1,2.3.2,3.3,1.3,3.7,1,7.5,1,11.2,0,6.9,0,13.8,0,20.7,0,16.9,0,33.7-2.5,50.5-.6,3.7-1.1,7.5-1.8,11.2l202.9-188.4c-4.6-9.7-7.7-20-10.6-30.3Z"/><polygon class="ev" points="475.2 327.3 423.2 279.8 421 277.8 364.9 329.1 418.4 378.8 475.2 327.3"/><polygon class="do" points="475.2 327.3 423.2 279.8 421 277.8 364.9 329.1 418.4 378.8 475.2 327.3"/><path class="db" d="m515.8,991.2l91-83.1h0s199.9-182.6,199.9-182.6c0-57.9,0-115.8,0-173.7l-296,269.9h0l-2,1.8-292.9,267.1c63.8,0,127.5,0,191.3,0l108.7-99.3h0Z"/><path class="do" d="m515.8,991.2l91-83.1h0s199.9-182.6,199.9-182.6c0-57.9,0-115.8,0-173.7l-296,269.9h0l-2,1.8-292.9,267.1c63.8,0,127.5,0,191.3,0l108.7-99.3h0Z"/><polygon class="en" points="327.6 461.3 273.9 412.2 170.7 506.6 224 555.3 327.6 461.3"/><polygon class="do" points="327.6 461.3 273.9 412.2 170.7 506.6 224 555.3 327.6 461.3"/><path class="ch" d="m342.3,831.3l88.9-81.2h0s106.2-97.1,106.2-97.1l-95.1-86.8-107,97.7h0s-67.9,62-67.9,62l-213.7,195.3c0,47.3,0,94.6,0,141.9,0,6.4.2,12.9,1.3,19.2.7,4,1.9,5.7,5.3,6.5l281.9-257.5h0Z"/><path class="do" d="m342.3,831.3l88.9-81.2h0s106.2-97.1,106.2-97.1l-95.1-86.8-107,97.7h0s-67.9,62-67.9,62l-213.7,195.3c0,47.3,0,94.6,0,141.9,0,6.4.2,12.9,1.3,19.2.7,4,1.9,5.7,5.3,6.5l281.9-257.5h0Z"/><path class="dc" d="m418.4,378.8l-53.5-49.7h0s-55.6-51.5-55.6-51.5l-91.4,83.5,200.6,183.4,312.9-285.9c0-1.7,0-3.4,0-5.1,0-.4,0-.9.2-1.3,1.8-6.2,1-12.8,2.1-19.1.6-3.4,1.3-7,1.5-10.5.6-8,1.5-15.9,3.3-23.7.2-.9.5-1.7.6-2.6.1-7.2,2.3-14,3.4-21,.8-5.3.8-10.5.3-15.7-3-2.4-6.4-3.7-9.5-5.2-1.8-.9-3.7-1.5-5.6-2.1-12.4-3.8-24.9-7.4-37.3-11.2-2.8-.9-5.6-1.7-8.4-2.6l-263.4,240.6-.2-.2Z"/><path class="ex" d="m418.4,378.8l-53.5-49.7h0s-55.6-51.5-55.6-51.5l-91.4,83.5,200.6,183.4,312.9-285.9c0-1.7,0-3.4,0-5.1,0-.4,0-.9.2-1.3,1.8-6.2,1-12.8,2.1-19.1.6-3.4,1.3-7,1.5-10.5.6-8,1.5-15.9,3.3-23.7.2-.9.5-1.7.6-2.6.1-7.2,2.3-14,3.4-21,.8-5.3.8-10.5.3-15.7-3-2.4-6.4-3.7-9.5-5.2-1.8-.9-3.7-1.5-5.6-2.1-12.4-3.8-24.9-7.4-37.3-11.2-2.8-.9-5.6-1.7-8.4-2.6l-263.4,240.6-.2-.2Z"/><path class="dg" d="m421,277.8h0s2.2,2,2.2,2l28.6,26.1,194.7-177.8v-1c-12.7-3.9-25.4-7.7-38-11.6-12.2-3.8-24.3-7.7-36.6-11.4-4.4-1.3-9-2.2-13.5-3-4.7-.8-6.9.4-7.9,4.9-1,4.5-3.9,8.6-3.3,13.5-2.9,12.3-5.3,24.7-10.1,36.5-5.8,14.3-12,28.2-21.9,40.1-7.5,9.1-15.4,17.7-25.5,24-2.1,1.3-4.2,2.5-6.2,3.8-9.7,6-20.3,9.6-31.2,12.2-6,1.4-12.1,2.2-18.1,3.2-5.7,1-11.5,1-17.1.4-6.3-.7-12.6-1.9-18.7-3.8-9.9-3.1-19.6-6.7-28.2-12.7-.2-.1-.4-.3-.6-.5l-4.3,3.9,56,51.2Z"/><path class="ex" d="m421,277.8h0s2.2,2,2.2,2l28.6,26.1,194.7-177.8v-1c-12.7-3.9-25.4-7.7-38-11.6-12.2-3.8-24.3-7.7-36.6-11.4-4.4-1.3-9-2.2-13.5-3-4.7-.8-6.9.4-7.9,4.9-1,4.5-3.9,8.6-3.3,13.5-2.9,12.3-5.3,24.7-10.1,36.5-5.8,14.3-12,28.2-21.9,40.1-7.5,9.1-15.4,17.7-25.5,24-2.1,1.3-4.2,2.5-6.2,3.8-9.7,6-20.3,9.6-31.2,12.2-6,1.4-12.1,2.2-18.1,3.2-5.7,1-11.5,1-17.1.4-6.3-.7-12.6-1.9-18.7-3.8-9.9-3.1-19.6-6.7-28.2-12.7-.2-.1-.4-.3-.6-.5l-4.3,3.9,56,51.2Z"/><path class="cc" d="m806.7,732l-3.6-3.3-91.4,83.5,95,86.8c0-55.7,0-111.3,0-167Z"/><path class="ex" d="m806.7,732l-3.6-3.3-91.4,83.5,95,86.8c0-55.7,0-111.3,0-167Z"/><path class="cd" d="m170.7,506.6h0s-56-51.2-56-51.2l-60.9,55.6c0,66.5,0,133.1,0,199.6l170.2-155.4-53.3-48.7Z"/><path class="ex" d="m170.7,506.6h0s-56-51.2-56-51.2l-60.9,55.6c0,66.5,0,133.1,0,199.6l170.2-155.4-53.3-48.7Z"/><path class="ey" d="m782.9,1151c5.8,0,11.4-.9,17-1.5,2.9-.3,4.9-1.9,5.8-4.8.9-3,1.8-5.9,1.7-9.1-.1-5.8-.3-11.6,0-17.4.2-5-.8-9.7-1.5-14.5-.3-2-1.5-3.1-3.4-3.6-5.3-1.4-10.6-2.7-16.2-2.5-6.4.2-12.8,0-19.2,0h-38.4c-6.4,0-12.8,0-19.2,0s-13.2,0-19.8,0h-19.2c-6.4,0-12.8-.3-19.2,0-6.4.4-12.7-.1-19-.1-.3,0-.7,0-1,0l57.9,53.4c31.2,0,62.4,0,93.6,0Z"/><path class="ex" d="m782.9,1151c5.8,0,11.4-.9,17-1.5,2.9-.3,4.9-1.9,5.8-4.8.9-3,1.8-5.9,1.7-9.1-.1-5.8-.3-11.6,0-17.4.2-5-.8-9.7-1.5-14.5-.3-2-1.5-3.1-3.4-3.6-5.3-1.4-10.6-2.7-16.2-2.5-6.4.2-12.8,0-19.2,0h-38.4c-6.4,0-12.8,0-19.2,0s-13.2,0-19.8,0h-19.2c-6.4,0-12.8-.3-19.2,0-6.4.4-12.7-.1-19-.1-.3,0-.7,0-1,0l57.9,53.4c31.2,0,62.4,0,93.6,0Z"/><path class="cl" d="m515.8,991.2l107.8,99.3c50,0,100.1,0,150.1,0s8.8-.1,13.2,0c4.7.1,9.1-1.3,13.6-2.2,1.8-.3,3.1-1.2,3.9-2.6l-197.6-177.7-91,83.1Z"/><path class="ex" d="m515.8,991.2l107.8,99.3c50,0,100.1,0,150.1,0s8.8-.1,13.2,0c4.7.1,9.1-1.3,13.6-2.2,1.8-.3,3.1-1.2,3.9-2.6l-197.6-177.7-91,83.1Z"/><path class="dn" d="m499,1097.6c-2.4,0-4.8.3-7.2.7-5.4,1-11,1.1-16.4.2-3.7-.6-7.4-.9-11.1-.9-5.6,0-11.2,0-16.8,0l-58.4,53.3c77.8,0,155.6,0,233.4,0l-58.4-53.3h-65.1Z"/><path class="ex" d="m499,1097.6c-2.4,0-4.8.3-7.2.7-5.4,1-11,1.1-16.4.2-3.7-.6-7.4-.9-11.1-.9-5.6,0-11.2,0-16.8,0l-58.4,53.3c77.8,0,155.6,0,233.4,0l-58.4-53.3h-65.1Z"/><polygon class="eq" points="342.3 831.3 420.8 903.6 508.8 823.4 510.8 821.6 431.2 750 342.3 831.3"/><polygon class="ex" points="342.3 831.3 420.8 903.6 508.8 823.4 510.8 821.6 431.2 750 342.3 831.3"/><path class="el" d="m455.3,1090.4c33.7,0,67.3,0,101,0l-50.5-46.1-50.5,46.1Z"/><path class="ex" d="m455.3,1090.4c33.7,0,67.3,0,101,0l-50.5-46.1-50.5,46.1Z"/><polygon class="ew" points="224 722.2 247.6 744.1 267.5 725.9 335.4 663.8 311.5 642.3 224 722.2"/><polygon class="ex" points="224 722.2 247.6 744.1 267.5 725.9 335.4 663.8 311.5 642.3 224 722.2"/><polygon class="co" points="708 641.8 583.1 527.6 533.8 482.6 533.8 482.6 533.8 482.6 442.4 566.1 616.5 725.2 708 641.8"/><polygon class="ex" points="708 641.8 583.1 527.6 533.8 482.6 533.8 482.6 533.8 482.6 442.4 566.1 616.5 725.2 708 641.8"/><polygon class="ep" points="335.4 663.8 335.4 663.8 267.5 725.9 335.4 663.8"/><polygon class="do" points="335.4 663.8 335.4 663.8 267.5 725.9 335.4 663.8"/><polygon class="ex" points="335.4 663.8 335.4 663.8 267.5 725.9 335.4 663.8"/><polygon class="ea" points="224 555.3 170.7 506.6 170.7 506.6 224 555.3"/><polygon class="do" points="224 555.3 170.7 506.6 170.7 506.6 224 555.3"/><polygon class="ex" points="224 555.3 170.7 506.6 170.7 506.6 224 555.3"/><polygon class="cj" points="510.8 821.6 510.8 821.6 508.8 823.4 510.8 821.6"/><polygon class="do" points="510.8 821.6 510.8 821.6 508.8 823.4 510.8 821.6"/><polygon class="ex" points="510.8 821.6 510.8 821.6 508.8 823.4 510.8 821.6"/><rect class="cw" x="499.7" y="949.6" width="123.3" height="0" transform="translate(-513.4 701.2) rotate(-46.4)"/><rect class="do" x="499.7" y="949.6" width="123.3" height="0" transform="translate(-513.4 701.2) rotate(-46.4)"/><rect class="ex" x="499.7" y="949.6" width="123.3" height="0" transform="translate(-513.4 701.2) rotate(-46.4)"/><rect class="em" x="326.5" y="790.6" width="120.5" height="0" transform="translate(-432 467.8) rotate(-42.4)"/><rect class="do" x="326.5" y="790.6" width="120.5" height="0" transform="translate(-432 467.8) rotate(-42.4)"/><rect class="ex" x="326.5" y="790.6" width="120.5" height="0" transform="translate(-432 467.8) rotate(-42.4)"/><polygon class="ec" points="418.4 378.8 364.9 329.1 364.9 329.1 418.4 378.8"/><polygon class="do" points="418.4 378.8 364.9 329.1 364.9 329.1 418.4 378.8"/><polygon class="ex" points="418.4 378.8 364.9 329.1 364.9 329.1 418.4 378.8"/><polygon class="eo" points="583.1 527.6 533.8 482.6 533.8 482.6 583.1 527.6"/><polygon class="do" points="583.1 527.6 533.8 482.6 533.8 482.6 583.1 527.6"/><polygon class="ex" points="583.1 527.6 533.8 482.6 533.8 482.6 583.1 527.6"/><polygon class="dx" points="421 277.8 421 277.8 423.2 279.8 421 277.8"/><polygon class="do" points="421 277.8 421 277.8 423.2 279.8 421 277.8"/><polygon class="ex" points="421 277.8 421 277.8 423.2 279.8 421 277.8"/><path class="ed" d="m1223.5,944.6l-78.5-72.4-241,220.1c52.5,0,104.9,0,157.4,0l249-227.1-86.9,79.3Z"/><path class="cr" d="m1390.8,1098.8h-67.6l57.1,52.1c22.4,0,44.8,0,67.2,0l-56.6-52.2Z"/><path class="bz" d="m1578.6,1101.2l.6.5c-.2-.2-.4-.4-.6-.5Z"/><path class="ee" d="m1382.4,565.6l128.2,117.2-91.5,83.4-174.1-159,95.1,86.8-106.2,97.1,79.6,71.6,269.6-245.8c0-48.2,0-96.5,0-144.7l-151.5,138.4-49.1-44.9Z"/><path class="eb" d="m1050.3,785.1l-23.7-21.8,87.5-80,24,21.6,107-97.7,91.4-83.5h0s176.5-161.2,176.5-161.2c-1-5.3-1.9-10.6-2.6-15.9-1-7.9-1.9-15.8-1.7-23.7l-287.5,262.6-200.6-183.4,91.4-83.5,55.6,51.5,56.1-51.3-56-51.2,177.9-162.5c-2-.6-4.1-1.1-6.1-1.6-7.7-1.9-7.7-2-13.9,2.5-1.1.8-2,1.8-3,2.6-4.1,3.3-8.3,6.7-13.3,8.7-5.1,2-10.4,3.6-15.9,4.4-6.3,1-12.5,2.2-18.8,3.2-5.2.8-10.4,1.8-15.7,1.9-6.9,0-13.5,2.2-20.4,1.6-4.4,1.4-8.9,1.3-13.3,1.2l-4,3.6-4-3.6c-11.6,0-23.2,0-34.8,0-7-.1-14-1.7-21-1.5-.4,0-.9-.1-1.3-.3-2.5-1-5.2-.8-7.8-.9-1.8,0-3.6.2-5.3-.2-7.5-1.6-15.2-2.1-22.8-3.4-3.4-.6-6.7-1.4-10-2.4l60.2,55-343.3,318.7c0,26.8,0,53.5,0,80.3l86-78.6,56,51.1,103.3-94.3,53.6,49-103.6,94-195.3,178.4c0,70.2,0,140.3,0,210.5l239.3-218.6-20.2,18.5Z"/><path class="ct" d="m969.6,135c-4.3,1.2-8.6,2.4-12.9,3.7-5.9,1.8-11.7,3.9-17.6,5.7-11.8,3.5-23.7,6.8-35.5,10.4-4,1.2-7.5,3.4-11.4,5.5,0,3.2,0,6.4,0,9.6l19.6,17.9,57.8-52.8Z"/><path class="dh" d="m1254.5,347l-28.4-25.9,51.8,47.3-56.7,51.5.2.2,288.5-263.6c-2.3-1-4.6-2-7-2.7-8.5-2.4-16.9-5.1-25.3-7.7-9.5-2.9-19-5.9-28.4-8.8v31.9l-194.7,177.8Z"/><path class="da" d="m1252.5,1092.4c16,0,32.1,0,48.1,0l7.8-7.1,7.8,7.1c22.6,0,45.1,0,67.7,0l-65.4-60.3-65.9,60.2Z"/><path class="cx" d="m1583,790.5h0s-173.5,158.5-173.5,158.5l158.8,142.9c2.8-.4,5.7-1,8.5-1.2,1.5-.1,2.9-1,4.3-1.5,1-5.1,2-9.7,2-14.7,0-52.9,0-105.7,0-158.6l-68.6-62.7,68.6-62.7Z"/><path class="de" d="m1245.6,1098.8l-57.1,52.1c16,0,32.1,0,48.1,0l57.1-52.1h-48.1Z"/><path class="dy" d="m897,1098.8l-55.9,51.1c3.3.5,6.6,1.1,10,1.1,48.7,0,97.4,0,146.1,0l57.2-52.2h-157.4Z"/><path class="ei" d="m1114.4,121.1c-5.2-1.5-10.2-3.3-15.2-5.2-2.1-.8-3.8-2.2-5.4-3.8-2.9-3-5.8-6-8.6-8.9-2.9-.2-5.6-.5-8.1.3-3.6,1.1-7.3,1.8-10.8,2.8-9.3,2.6-18.5,5.6-27.8,8.4-6.1,1.9-12.2,3.8-18.3,5.6-9.3,2.7-18.6,5.4-27.9,8.1-6.3,1.8-12.7,3.7-19,5.6-1.2.3-2.4.7-3.6,1l-57.8,52.8-19.6-17.9c0,3.5.1,6.9.9,10.4,1,4.3,1.5,8.8,1.6,13.2.2,7.3,2.1,14.5,1.6,21.9,0,.7.2,1.3.3,2,1,7.2,2,14.5,2.2,21.8,0,3.8-.1,7.6.5,11.3.5,2.9.8,5.7.8,8.6,0,13.1.2,26.3,0,39.4-.1,13.1.7,26.2-1.2,39.3-.7,5-.5,10.1-1.3,15.2-1.9,11.8-3.8,23.6-6.9,35.2-2.6,9.7-6.2,19-10.8,27.9-4.1,7.9-9.5,14.9-16,21.1-5.5,5.3-11.7,9.4-18.8,12.1-4.1,1.6-8,3.6-11.9,5.8-2.9,6.8-2.1,13.3-2.1,19.8,0,6.6,0,13.3,0,19.9l343.3-318.7-60.2-55Z"/><path class="do" d="m1114.4,121.1c-5.2-1.5-10.2-3.3-15.2-5.2-2.1-.8-3.8-2.2-5.4-3.8-2.9-3-5.8-6-8.6-8.9-2.9-.2-5.6-.5-8.1.3-3.6,1.1-7.3,1.8-10.8,2.8-9.3,2.6-18.5,5.6-27.8,8.4-6.1,1.9-12.2,3.8-18.3,5.6-9.3,2.7-18.6,5.4-27.9,8.1-6.3,1.8-12.7,3.7-19,5.6-1.2.3-2.4.7-3.6,1l-57.8,52.8-19.6-17.9c0,3.5.1,6.9.9,10.4,1,4.3,1.5,8.8,1.6,13.2.2,7.3,2.1,14.5,1.6,21.9,0,.7.2,1.3.3,2,1,7.2,2,14.5,2.2,21.8,0,3.8-.1,7.6.5,11.3.5,2.9.8,5.7.8,8.6,0,13.1.2,26.3,0,39.4-.1,13.1.7,26.2-1.2,39.3-.7,5-.5,10.1-1.3,15.2-1.9,11.8-3.8,23.6-6.9,35.2-2.6,9.7-6.2,19-10.8,27.9-4.1,7.9-9.5,14.9-16,21.1-5.5,5.3-11.7,9.4-18.8,12.1-4.1,1.6-8,3.6-11.9,5.8-2.9,6.8-2.1,13.3-2.1,19.8,0,6.6,0,13.3,0,19.9l343.3-318.7-60.2-55Z"/><path class="dd" d="m1144.9,872.3l88.9-81.2h0s106.2-97.1,106.2-97.1l-95.1-86.8-107,97.7h0s-67.6,61.7-67.6,61.7l-239.3,218.6c0,28.2,0,56.4,0,84.6,0,6.5.7,12.8,2.1,19.3,5.7,2.5,11.7,3.3,17.9,3.3,17.6,0,35.1,0,52.7,0l241-220.1h0Z"/><path class="do" d="m1144.9,872.3l88.9-81.2h0s106.2-97.1,106.2-97.1l-95.1-86.8-107,97.7h0s-67.6,61.7-67.6,61.7l-239.3,218.6c0,28.2,0,56.4,0,84.6,0,6.5.7,12.8,2.1,19.3,5.7,2.5,11.7,3.3,17.9,3.3,17.6,0,35.1,0,52.7,0l241-220.1h0Z"/><polygon class="di" points="1277.9 368.4 1226.1 321.1 1223.7 318.9 1167.6 370.2 1221.1 419.8 1277.9 368.4"/><polygon class="do" points="1277.9 368.4 1226.1 321.1 1223.7 318.9 1167.6 370.2 1221.1 419.8 1277.9 368.4"/><path class="eh" d="m849.4,1098.8c-1.5,0-3.1,0-4.6,0-13.7.8-14.3,1.3-14.9,15-.3,6.9,0,13.8,0,20.7,0,3.2.7,6.2,1.2,9.2.5,3.6,2.8,5.2,5.7,5.5,1.5.2,2.9.4,4.4.6l55.9-51.1h-47.6Z"/><path class="do" d="m849.4,1098.8c-1.5,0-3.1,0-4.6,0-13.7.8-14.3,1.3-14.9,15-.3,6.9,0,13.8,0,20.7,0,3.2.7,6.2,1.2,9.2.5,3.6,2.8,5.2,5.7,5.5,1.5.2,2.9.4,4.4.6l55.9-51.1h-47.6Z"/><path class="cb" d="m1382.4,565.6l49.1,44.9,151.5-138.4c0-1.5,0-3.1,0-4.6,0-12.6.9-8.6-8.9-16.6-10.3-5.3-18.7-13.2-27.6-20.5-.9-.7-1.7-1.5-2.3-2.4-3.5-5.1-7.7-9.7-11.3-14.8-4-5.7-7-11.9-10.1-17.9-3.1-6-4.8-12.8-6.7-19.4-1.3-4.4-2.3-8.9-3.2-13.5l-176.5,161.2,45.9,42Z"/><path class="do" d="m1382.4,565.6l49.1,44.9,151.5-138.4c0-1.5,0-3.1,0-4.6,0-12.6.9-8.6-8.9-16.6-10.3-5.3-18.7-13.2-27.6-20.5-.9-.7-1.7-1.5-2.3-2.4-3.5-5.1-7.7-9.7-11.3-14.8-4-5.7-7-11.9-10.1-17.9-3.1-6-4.8-12.8-6.7-19.4-1.3-4.4-2.3-8.9-3.2-13.5l-176.5,161.2,45.9,42Z"/><path class="dv" d="m1054.4,1098.8l-57.2,52.2c63.8,0,127.5,0,191.3,0l57.1-52.1h-191.2Z"/><path class="do" d="m1054.4,1098.8l-57.2,52.2c63.8,0,127.5,0,191.3,0l57.1-52.1h-191.2Z"/><path class="ef" d="m1318.5,1032.2l91-83.1h0s173.5-158.5,173.5-158.5c0-57.9,0-115.8,0-173.7l-269.6,245.8h0l-3,2.7-249,227.1c63.7,0,127.4,0,191.2,0l65.9-60.2h0Z"/><path class="do" d="m1318.5,1032.2l91-83.1h0s173.5-158.5,173.5-158.5c0-57.9,0-115.8,0-173.7l-269.6,245.8h0l-3,2.7-249,227.1c63.7,0,127.4,0,191.2,0l65.9-60.2h0Z"/><polygon class="et" points="1130.2 502.3 1076.6 453.3 973.3 547.6 1026.6 596.3 1130.2 502.3"/><polygon class="do" points="1130.2 502.3 1076.6 453.3 973.3 547.6 1026.6 596.3 1130.2 502.3"/><path class="dp" d="m1560.1,1150.9c6.7,0,13-1.6,19.3-3.2,1.2-3.7,2.2-7,2.2-10.6-.1-8.7,0-17.4,0-26.1,0-2.5-.5-4.8-1.2-7.2-.3-.9-.6-1.6-1.1-2.1l-.6-.5c-.6-.5-1.4-.8-2.3-1.1-4.5-1.4-9.1-1.3-13.7-1.3h-171.7l56.6,52.2c37.6,0,75.2,0,112.8,0Z"/><path class="ex" d="m1560.1,1150.9c6.7,0,13-1.6,19.3-3.2,1.2-3.7,2.2-7,2.2-10.6-.1-8.7,0-17.4,0-26.1,0-2.5-.5-4.8-1.2-7.2-.3-.9-.6-1.6-1.1-2.1l-.6-.5c-.6-.5-1.4-.8-2.3-1.1-4.5-1.4-9.1-1.3-13.7-1.3h-171.7l56.6,52.2c37.6,0,75.2,0,112.8,0Z"/><path class="er" d="m1514.4,853.2l68.6,62.7c0-41.8,0-83.6,0-125.3l-68.6,62.7Z"/><path class="ex" d="m1514.4,853.2l68.6,62.7c0-41.8,0-83.6,0-125.3l-68.6,62.7Z"/><path class="ca" d="m1318.5,1032.2l65.4,60.3c59.3,0,118.6,0,177.9,0,2.2,0,4.4-.3,6.5-.6l-158.8-142.9-91,83.1Z"/><path class="ex" d="m1318.5,1032.2l65.4,60.3c59.3,0,118.6,0,177.9,0,2.2,0,4.4-.3,6.5-.6l-158.8-142.9-91,83.1Z"/><path class="cn" d="m1293.7,1098.8l-57.1,52.1c47.9,0,95.7,0,143.6,0l-57.1-52.1h-29.4Z"/><path class="ex" d="m1293.7,1098.8l-57.1,52.1c47.9,0,95.7,0,143.6,0l-57.1-52.1h-29.4Z"/><polygon class="df" points="1144.9 872.3 1223.5 944.6 1310.4 865.4 1313.4 862.6 1233.9 791 1144.9 872.3"/><polygon class="ex" points="1144.9 872.3 1223.5 944.6 1310.4 865.4 1313.4 862.6 1233.9 791 1144.9 872.3"/><path class="cm" d="m1300.7,1092.4c5.2,0,10.4,0,15.5,0l-7.8-7.1-7.8,7.1Z"/><path class="ex" d="m1300.7,1092.4c5.2,0,10.4,0,15.5,0l-7.8-7.1-7.8,7.1Z"/><path class="dl" d="m1225.3,129.8c-1,0-2,0-3.1,0-1.6,0-3.2,0-4.9,0l4,3.6,4-3.6Z"/><path class="ex" d="m1225.3,129.8c-1,0-2,0-3.1,0-1.6,0-3.2,0-4.9,0l4,3.6,4-3.6Z"/><polygon class="du" points="1510.7 682.8 1382.4 565.6 1336.5 523.7 1336.5 523.7 1336.5 523.7 1245.1 607.2 1419.2 766.2 1510.7 682.8"/><polygon class="ex" points="1510.7 682.8 1382.4 565.6 1336.5 523.7 1336.5 523.7 1336.5 523.7 1245.1 607.2 1419.2 766.2 1510.7 682.8"/><polygon class="cq" points="1026.6 763.3 1050.3 785.1 1070.5 766.6 1138.1 704.9 1114.1 683.3 1026.6 763.3"/><polygon class="ex" points="1026.6 763.3 1050.3 785.1 1070.5 766.6 1138.1 704.9 1114.1 683.3 1026.6 763.3"/><path class="cg" d="m973.3,547.6h0s-56-51.2-56-51.2l-86,78.6c0,66.6,0,133.1,0,199.7l195.3-178.4-53.3-48.7Z"/><path class="ex" d="m973.3,547.6h0s-56-51.2-56-51.2l-86,78.6c0,66.6,0,133.1,0,199.7l195.3-178.4-53.3-48.7Z"/><path class="dr" d="m1223.7,318.9h0s2.4,2.2,2.4,2.2l28.4,25.9,194.7-177.8v-31.9c-2.9-.9-5.9-1.8-8.8-2.7-3.6-1.1-7.1-2.5-10.7-3.4-5.6-1.4-11-3.1-16.4-4.9-10-3.3-20.1-6.5-30.2-9.7-7.6-2.4-15.2-4.5-22.7-6.9-4.9-1.6-9.8-3.1-14.8-4.5l-177.9,162.5,56,51.2Z"/><path class="ex" d="m1223.7,318.9h0s2.4,2.2,2.4,2.2l28.4,25.9,194.7-177.8v-31.9c-2.9-.9-5.9-1.8-8.8-2.7-3.6-1.1-7.1-2.5-10.7-3.4-5.6-1.4-11-3.1-16.4-4.9-10-3.3-20.1-6.5-30.2-9.7-7.6-2.4-15.2-4.5-22.7-6.9-4.9-1.6-9.8-3.1-14.8-4.5l-177.9,162.5,56,51.2Z"/><path class="ej" d="m1221.1,419.8l-53.5-49.7h0s-55.6-51.5-55.6-51.5l-91.4,83.5,200.6,183.4,287.5-262.6c0-.7,0-1.5,0-2.2.2-2.9,0-5.7-.8-8.6-.9-3.5-.9-7.2-.1-10.6,1-4.4,1.1-8.9.9-13.3-.6-10.7,1.5-21.3,1.5-32,0-.7,0-1.4.2-2,1.8-7.1,1-14.6,2.3-21.8,1-5.6.7-11.5,1.9-17.2,1.1-5.7,1.1-11.5,2-17.2.7-4.6,1.1-9.3,2-13.8,1.4-7.1.6-14.2.8-21.3,0-1.7-.9-3-2.5-3.6-2.4-.9-4.7-1.9-7.1-3l-288.5,263.6-.2-.2Z"/><path class="ex" d="m1221.1,419.8l-53.5-49.7h0s-55.6-51.5-55.6-51.5l-91.4,83.5,200.6,183.4,287.5-262.6c0-.7,0-1.5,0-2.2.2-2.9,0-5.7-.8-8.6-.9-3.5-.9-7.2-.1-10.6,1-4.4,1.1-8.9.9-13.3-.6-10.7,1.5-21.3,1.5-32,0-.7,0-1.4.2-2,1.8-7.1,1-14.6,2.3-21.8,1-5.6.7-11.5,1.9-17.2,1.1-5.7,1.1-11.5,2-17.2.7-4.6,1.1-9.3,2-13.8,1.4-7.1.6-14.2.8-21.3,0-1.7-.9-3-2.5-3.6-2.4-.9-4.7-1.9-7.1-3l-288.5,263.6-.2-.2Z"/><polygon class="ck" points="1382.4 565.6 1336.5 523.7 1336.5 523.7 1382.4 565.6"/><polygon class="do" points="1382.4 565.6 1336.5 523.7 1336.5 523.7 1382.4 565.6"/><polygon class="ex" points="1382.4 565.6 1336.5 523.7 1336.5 523.7 1382.4 565.6"/><polygon class="es" points="1221.1 419.8 1167.6 370.2 1167.6 370.2 1221.1 419.8"/><polygon class="do" points="1221.1 419.8 1167.6 370.2 1167.6 370.2 1221.1 419.8"/><polygon class="ex" points="1221.1 419.8 1167.6 370.2 1167.6 370.2 1221.1 419.8"/><polygon class="dm" points="1223.7 318.9 1223.7 318.9 1226.1 321.1 1223.7 318.9"/><polygon class="do" points="1223.7 318.9 1223.7 318.9 1226.1 321.1 1223.7 318.9"/><polygon class="ex" points="1223.7 318.9 1223.7 318.9 1226.1 321.1 1223.7 318.9"/><polygon class="cv" points="1138.1 704.9 1138.1 704.9 1070.5 766.6 1138.1 704.9"/><polygon class="do" points="1138.1 704.9 1138.1 704.9 1070.5 766.6 1138.1 704.9"/><polygon class="ex" points="1138.1 704.9 1138.1 704.9 1070.5 766.6 1138.1 704.9"/><polygon class="dk" points="1026.6 596.3 973.3 547.6 973.3 547.6 1026.6 596.3"/><polygon class="do" points="1026.6 596.3 973.3 547.6 973.3 547.6 1026.6 596.3"/><polygon class="ex" points="1026.6 596.3 973.3 547.6 973.3 547.6 1026.6 596.3"/><rect class="dw" x="1302.4" y="990.6" width="123.3" height="0" transform="translate(-285.7 1337.5) rotate(-47.9)"/><rect class="do" x="1302.4" y="990.6" width="123.3" height="0" transform="translate(-285.7 1337.5) rotate(-47.9)"/><rect class="ex" x="1302.4" y="990.6" width="123.3" height="0" transform="translate(-285.7 1337.5) rotate(-47.9)"/><rect class="ds" x="1129.2" y="831.7" width="120.5" height="0" transform="translate(-249.7 1019.9) rotate(-42.4)"/><rect class="do" x="1129.2" y="831.7" width="120.5" height="0" transform="translate(-249.7 1019.9) rotate(-42.4)"/><rect class="ex" x="1129.2" y="831.7" width="120.5" height="0" transform="translate(-249.7 1019.9) rotate(-42.4)"/><polygon class="cf" points="1313.4 862.6 1313.4 862.6 1310.4 865.4 1313.4 862.6"/><polygon class="do" points="1313.4 862.6 1313.4 862.6 1310.4 865.4 1313.4 862.6"/><polygon class="ex" points="1313.4 862.6 1313.4 862.6 1310.4 865.4 1313.4 862.6"/></g></g></svg>