<?xml version="1.0" encoding="UTF-8"?><svg id="a" xmlns="http://www.w3.org/2000/svg" width="2002.2" height="1902.9" viewBox="0 0 2002.2 1902.9"><defs><style>.b{stroke-width:7px;}.b,.c{stroke:#ffb236;stroke-miterlimit:10;}.c{stroke-width:9px;}</style></defs><path class="b" d="m1926.8,1258.3V381.8c9.9,19.1,23.4,35.4,41.1,48.5,5.4,4,10.9,7.8,16.4,11.6,3,2.1,6.1,4.1,9,6.3q4.5,3.4,4.5,9.1c0,34.5.2,69,.4,103.6,0,2.5.3,5.1.5,7.6v438.4c-.2,2.5-.5,5.1-.5,7.6,0,10.1,0,20.1,0,30.2,0,34.9,0,69.7-.2,104.6,0,32.6-.2,65.2-.2,97.9s-.2,6-1.5,8.8c-3.4,1.3-6.9,1.5-10.4,1.6-12.8.2-25.6.5-38.3.5-6.9.1-13.8.2-20.7.2Zm-180,.3c15.9,0,31.8,0,47.7,0,9.5,0,19.1,0,28.6,0V43.6c-17.8-5.5-35.6-11-53.4-16.5-6.9-2.1-13.8-4.2-20.8-6.4h-2.1v1237.9h0ZM1638,23.8c-10.4,2.5-21,4.3-31.6,5.7-9.2,1.2-18.4,2.3-27.6,3.3-4,.4-8,.8-12,1.2v1225c25.4,0,50.9,0,76.3,0V22.3c-1.7.6-3.4,1-5.1,1.5Zm-183.1,8.9c-9.9-.9-19.7-1.9-29.5-3.2-10.5-1.3-20.8-3.5-30.9-6.6-2-.6-3.9-1.3-5.8-2.1h-1.9v1238h76.3V33.4c-2.7-.3-5.5-.5-8.2-.7Zm-353.6,369.3c-2.7,4.5-5.5,9-8.7,13.2-7.5,10.2-16.9,18.3-28.3,23.9-4.4,2.2-8.9,4.3-13.4,6.5-2.4,1.2-4.8,2.5-7.2,3.9-1.5.8-2.2,2.2-2.2,3.9,0,2.9,0,5.8,0,8.6-.3,73.7-.6,147.4-.8,221.1-.2,66.4,0,132.7-.2,199.1,0,78.8,0,157.7,0,236.5s.2,68.1.4,102.2c0,8.8.5,17.6.9,26.4,0,2.1.5,4.1.8,6.2.2,1.6,1.1,2.7,2.7,3,2.5.5,5,1.2,7.5,1.3,8.1.3,16.3.4,24.4.5,12.2,0,24.4,0,36.6,0V372.9c-2.9,10.2-6.9,19.9-12.3,29.1Zm105.5-356.4v1213c25.4,0,50.9,0,76.3,0V23c-25.4,7.5-50.8,15.1-76.3,22.6Z"/><path class="b" d="m52.2,531.5v592.9c0-4.6,0-9.3,0-13.9-.2-76.3-.2-152.7-.2-229v-190.1c0-52,0-104,.3-156-.1-1.3-.1-2.6,0-3.9Zm67-124.8c-3.9,6.6-8.4,12.9-13.8,18.4-8.2,8.5-17.8,14.5-29.2,17.6-3.4.9-6.8,1.7-10.2,2.5-3.9.9-7.8,1.8-11.6,2.6-1.1,4-1.5,7.8-1.6,11.6-.2,24-.6,48-.7,72v592.9c.2,39.8.5,79.7.8,119.5,0,4,.4,8,1.5,12.2,3.4,1.4,6.7,1.5,10.1,1.6,21.3.2,42.6.6,64,.6h0V388.1c-2.7,6.4-5.8,12.6-9.3,18.6ZM222.2,50.7l-.8,1207.9c25.4,0,50.9,0,79.8,6.8V26.9c-26.1,8.1-53.5,16.2-79,23.8Zm212.5,88.7c-11.9-11.8-21.6-25.3-29.2-40.2-1.4-2.7-2.8-5.5-4-8.3v1168h76.3V167.7c-16-6.4-30.5-15.7-43.1-28.3Zm211.4-25.2c-11.1,16.2-24.7,29.7-41.5,40.1-7.5,4.6-15.2,8.4-23.2,11.5v1093h76.3V94.6c-3.4,6.7-7.3,13.2-11.6,19.6Zm115.3,1144.4c15.1,0,30.2,0,45.3,0,10.3,0,20.7,0,31,0V51c-25.9-9.2-49.3-15.6-73.8-23.1l-1.2,84.9-1.3,1145.8Zm202.3-.4c11.8,0,23.7-.3,35.5-.5,3.3,0,6.7-.3,10.1-1.7.4-2.7,1-5.3,1.2-8,.3-4.3.5-8.6.5-12.9.2-38.4.4-76.8.4-115.2v-239.6c0-62.4,0-124.8,0-187.2v-175.2c0-20.5,0-41,0-61.4,0-1.7.3-3.5-.4-5.5-2.1-1.2-4.3-2.5-6.6-3.6-4.7-2.3-9.5-4.6-14.3-6.8-18-8.4-32.2-21.2-43.2-37.7-1.8-2.7-3.6-5.5-5.2-8.4v863.9c7.4-.1,14.8-.2,22.2-.2Z"/><rect class="c" x="340.7" y="1350.2" width="35.7" height="395.2"/><rect class="c" x="1379.7" y="1350.2" width="41.8" height="443.6"/></svg>