<?xml version="1.0" encoding="UTF-8" standalone="no"?>
<svg
   viewBox="0 0 159891.28 208909.44"
   version="1.1"
   id="svg1"
   width="159891.28"
   height="208909.44"
   xmlns="http://www.w3.org/2000/svg"
   xmlns:svg="http://www.w3.org/2000/svg">
  <defs
     id="defs1" />
  <path
     d="m 750.2843,581.18416 c -133,0 -266,0 -399,0 0,-133.33333 0,-266.66667 0,-400 133,0 266,0 399,0 0,133.33333 0,266.66667 0,400 z m -266.7,-0.6 c 4.31464,-1.45007 9.58043,-3.21897 13.3,-6.3 -2.54484,2.06923 -12.81082,3.02782 -10.3,1.2 -3.63052,-2.7832 -13.06477,1.1174 -18.6,0.7 -6.7474,2.78905 -15.71773,0.88102 -21.4,4.6 6.01274,0.12783 11.85252,10e-4 17.8,-1 0.93847,3.31329 11.62506,0.0679 16.6126,1.3 0.56422,0.58273 2.33501,-0.45191 2.5874,-0.5 z m 262.1,-356.8 c -39.48708,1.46733 -79.31493,3.09701 -118.3,10.2 -4.39061,1.3793 14.37737,-0.52248 19.0424,0.085 32.63937,-2.65147 64.96072,1.50068 97.4576,-2.98496 6.57465,3.51343 10.15874,-9.8157 1.7,-7.8 z m 1.4,0 c 4.49011,0.35994 3.82317,-0.66942 0,0 z m 1.3,-20.4 c -5.0523,0.16208 -12.50482,-0.68288 -18.7,-1.2 6.74688,1.29471 13.56021,1.92937 20.1,3.8 1.49846,-2.31999 -2.16704,-2.78311 -1.4,-2.6 z m -33,98.3 c 2.81082,1.73357 7.13485,2.22636 8,-0.1 -0.23012,-3.20299 -6.74808,-2.13681 -7.8,-0.4 -0.93767,-0.83749 -0.91352,0.9604 -0.2,0.5 z m -1.6,-3.3 c 1.74884,0.25436 1.30162,-0.94474 0,0 z m 35.1,1.5 c 2.02745,2.41002 1.5472,-1.79395 0,0 z m -0.9,1.1 c -5.25748,-0.27221 -11.16741,-1.15508 -16.2,-0.6 -5.51615,3.04688 3.13501,0.21672 6.4,2.4 0.9156,0.0822 -4.66662,3.22711 3.5,1.9 5.32564,1.03245 4.93368,-0.32476 4.9,-1.1 -0.49845,5.17379 9.43488,-3.63899 1.4,-2.6 z m -18.9,-0.3 c 1.51546,-0.7597 -1.36788,-0.95361 0,0 z m -20,-1.8 c 3.89837,0.0394 -2.53424,-1.13826 0,0 z m 16.1,2.4 c 1.38303,0.79261 -0.33159,-0.80534 0,0 z m 0,-1.3 c -0.81641,-0.42054 -0.48727,0.68763 0,0 z m 22.8,-0.1 c -0.92077,-0.65655 -0.36843,0.0597 0,0 z m -16.2,3.8 c 0.8107,0.17761 -0.0749,-0.69849 0,0 z m -26.6,-4.8 c 5.41593,0.41806 -2.11554,-3.28593 -0.9875,0.075 z m 42.1,133.6 c -5.06812,-0.30051 -14.13894,-0.6552 -20.1,-1 -6.64157,-0.48263 -18.20159,0.8639 -27,-0.2 -2.72822,0.13972 -12.7684,-1.43576 -10.6,0.1 7.11689,0.86745 10.84869,3.87884 17.9,4 14.0775,2.4547 28.4188,4.07014 42.8,5.8 -0.85384,-2.77431 2.33872,-12.66059 -3,-8.7 z m -281.1,-25.5 c 25.14638,-0.0836 49.98316,3.99945 74.9,-0.3 8.92211,-0.85921 25.55663,-0.71937 29.2,-3 -24.68292,0.0348 -49.75685,-4.28954 -73.9,-3.1 -0.95678,-0.26589 -13.02514,-0.28213 -18.8,-0.1 -8.61003,-0.0171 -16.79195,0.89941 -25.8,1.2 -6.2626,-0.0818 -14.8661,2.28355 -23.1,2.6 -2.96878,0.1876 -21.1912,0.20136 -16.7,0.9 6.56196,-0.36203 10.81118,3.13509 16.7,2.2 12.84452,0.98736 25.46579,1.70642 38.5,1.6 l -0.58857,-1.17714 z m 282.9,-136 c 6.0142,7.24135 -6.2412,5.96372 -11.4,5 -18.15389,-2.86943 -36.97167,1.67019 -54.975,-0.6 4.76954,-1.0308 8.78617,-2.22231 12.275,-2.7 3.94846,-0.0103 5.79821,-0.69381 10.8,-0.8 14.33575,-1.96719 29.22639,-0.28894 43.3,-0.9 z m -69.9,304.1 c -3.98711,-0.32107 -8.86582,1.551 -12.3,-1 11.12503,-0.24847 -0.76131,-0.98356 -5.4,-0.8 7.50406,2.79412 -1.96606,0.74087 -5.8,-0.2 5.00264,0.95618 -0.18796,2.6823 -3.1,1.2 -8.51975,-0.0383 0.77918,1.29533 4.7,1.1 13.41199,0.21184 3.30943,0.4015 5.9,2.5 2.11842,0.53034 9.1516,-2.35943 7.9,-0.5 3.63807,5.32126 5.32038,-3.20836 8.1,-2.3 z m -130.8,-114.7 c 7.78348,-1.20318 -3.02245,-0.32624 -5.7,-0.4 -2.3843,1.19145 -7.43463,-0.31559 -12.6,1.6 -2.98974,2.78246 7.3178,-0.48809 10.11609,0.1 2.75099,0.31575 5.48934,-1.75206 8.18391,-1.3 z m 184.4,-37.6 c 6.36145,1.55273 11.72976,0.11805 16.2,0.7 -3.54028,-3.77955 -11.6468,-0.71924 -10.6,-2.7 -7.21349,-1.7739 0.21043,-0.0605 -5.6,2 z m 17,33.9 c 4.12856,7.22802 -5.92923,4.92169 -9.1,4.6 -29.32726,-0.21158 -58.88301,-1.68474 -87.4,-0.7 -1.65323,-0.0435 -9.34555,0.4419 -13.71609,0.9 0.88207,-1.68286 -5.84424,1.8038 -6.28391,-0.4 4.42134,-1.20862 9.44288,-1.11815 12.7,-1.7 -6.31027,-1.21722 -14.61543,0.71614 -21.3,1.2 -6.3715,0.87243 -5.30098,-0.12055 0.9,-0.7 12.71473,-0.95501 23.11144,-3.19996 36.0375,-3.8125 22.80376,-1.13108 45.86371,-1.30126 68.7625,-0.3875 4.08145,0.44189 13.271,0.85021 14.7,1.1 -2.02561,-0.89434 4.39351,0.93777 4.7,-0.1 z m -4.8,1.8 c -11.93785,-1.51715 2.46503,0.0298 0,0 z m -137.8,122.6 c -7.42087,-0.40477 -14.79762,-0.16618 -22.4,0 7.58662,-0.071 18.0119,0.13915 23.9,-0.1 0.2845,1.92728 -1.24494,-0.52467 -1.5,0.1 z m -10.7,-329 c -3.14992,2.2907 5.04977,1.75067 7.2,-0.6 -2.27398,1.147 -5.04769,-0.32443 -7.2,0.6 z m 112.4,171.7 c 3.79249,-0.15788 -6.04693,2.85193 6.1,1.8 6.42147,-1.04037 28.45896,-1.63058 11.4,-1.8 8.42099,-0.72747 1.09288,-2.66266 -2.8,-1.8 -5.65013,-1.2469 -12.58361,0.48705 -17.8,1.9 0.20039,0.16378 3.66457,-0.1511 3.1,-0.1 z m 41.5,153 c -13.61697,-0.48279 -27.88251,-1.93184 -40.61609,-1.5 -7.92868,0.32792 -0.20824,0.10586 -8.68391,1.9 -4.03341,-1.60381 -2.07221,-1.27989 -6.5,-0.3 -1.37203,-1.46753 -0.96557,-1.66234 -9.34826,-1.7 -1.63738,0.71351 -11.14728,1.81858 -3.07674,3.125 -2.4752,-2.99274 5.52276,3.32149 8.125,0.975 4.31874,-0.29959 8.21915,1.41029 12,1.3 3.91878,0.58909 7.42938,0.42232 12.3,0.5 5.74808,-2.71409 39.64448,5.74786 35.8,-4.3 z m -267.7,-76.7 c -10.72787,0.85426 -5.36257,2.1854 0,0 z m 257.9,-30.4 c 9.5859,2.37006 1.47676,-2.15933 0,0 z m -194.5,61.2 c -16.39184,1.80952 -9.26572,5.5104 0,0 z m 46.7,-222.1 c 15.98444,0.60999 32.64464,-1.57011 48.96434,-0.1 3.54292,-0.33425 20.57598,0.94626 14.81957,-0.3 9.27177,-1.64049 -5.34103,-1.84295 -9.71608,-1.9 -18.5379,0.85474 -37.76551,-0.22798 -55.96783,2.7 0.57904,0.39036 1.39725,-0.057 1.9,-0.4 z m -41.8,58.2 c 8.01483,-1.39619 16.45617,-2.76327 25.4,-4.3 5.72357,-0.81261 12.64895,-2.47776 17.7,-2.7 1.79422,1.952 0.46893,-0.94766 4.8,-1 14.24696,-0.99014 26.3872,-4.48466 40.6,-3.6 8.32729,-0.16652 16.66605,-0.0803 25,-0.1 0.96893,-1.25458 11.92874,-0.49142 16.7,-0.7 17.1902,0.29488 34.87237,2.01483 51.575,3.65 -32.25581,0.83832 -65.23929,0.18493 -97.675,3.45 -24.84476,1.75044 -49.06012,5.09151 -73.2,8.8 -7.13933,0.16565 -16.09084,2.20244 -24.3,2.6 -6.07578,0.28719 -12.18015,2.26944 -18.1,2.8 2.61469,-2.76819 0.056,0.36008 7.2,-1.7 6.47265,-0.91755 7.05164,-2.96629 -2.1,-0.7 -0.7215,-0.78874 16.62939,-3.03362 8.1,-2.7 -2.62262,0.22844 -11.57676,2.03382 -10,1.3 4.89178,-2.14678 9.48848,-4.09167 16.4,-4 6.02989,-0.62393 7.4192,-2.40635 13.4,-3.2 l -0.76496,1.07094 z m 6.8,-0.1 c 2.85775,2.5947 -2.14409,-1.99839 0,0 z m 191.8,-77.2 c -47.84234,-4.88957 -96.8264,-4.86967 -144.8,-0.5 -12.9818,1.98956 -26.35344,2.11781 -38.8875,4.7 9.39063,-0.0667 21.24373,-2.12779 30.7875,-1.5 8.9476,-0.139 18.38586,-0.24261 28,0.1 6.44009,-0.18487 8.05787,0.21263 16,0.7 8.13731,0.8165 15.50046,-2.50997 23.2,-0.2 27.99187,-4.67959 57.69681,-3.73257 86.5,-3.6 1.00551,-1.55594 -1.90642,-0.7127 -0.8,0.3 z m -302.8,9.7 c 9.62677,-5.325 21.77304,-8.2846 31.6,-12.8 1.60131,0.0249 10.82341,-4.82716 14,-8 6.05982,-2.4285 10.28119,-6.18863 1.8,-1.5 -4.17866,4.27104 -6.11352,-0.67355 -10,3.9 -1.20455,2.81602 -3.70282,3.49959 -5.2,2.5 -5.06185,0.0171 8.13895,-4.65982 0.9,-3.8 4.28641,-3.59201 5.65862,-6.53836 -0.2,-2.6 -10.57798,3.90925 -19.69854,11.14014 -31,14.3 -3.28182,0.9383 -19.14207,7.27322 -7.2,4.6 0.97697,2.18192 -8.40654,4.32904 -11.6,4.6 6.87574,-0.14494 10.84007,1.27517 16.9,-1.2 z m 102.1,162.5 c 2.25972,0.23245 13.9442,-0.96596 7.3,-1.2 -1.20287,0.39826 -9.65033,0.20275 -7.3,1.2 z m -58.1,8.2 c -3.22373,-1.76716 -6.41693,0.0174 -8.3,2.2 1.75037,1.48872 8.54067,1.90675 7.6,-1.2 0.29286,-0.006 2.03012,-0.82022 0.7,-1 z m -7.2,-191 c 3.98011,-4.43171 -2.92374,0.0558 0,0 z m 146.1,183.1 c 4.80054,0.53557 -1.87662,-3.19977 0,0 z m 106.9,6.9 c 1.16406,1.28467 6.04329,-0.31211 0,0 z m -155.9,-244.3 c 7.02185,-0.21997 -1.5875,-2.11992 0,0 z m 149.8,197 c 8.30296,0.36501 -5.92206,-1.70912 0,0 z m -144.5,-197.9 c 3.94881,0.27071 17.78311,-2.99197 6.5,-1.4 -0.52965,0.45786 -9.16505,0.546 -6.5,1.4 z m 164.3,92.2 c 2.98116,9.53908 -4.05671,7.38429 -9.9,6.8 -8.55695,-1.82761 -15.79381,-1.58893 -20.9,-3.3 -5.00972,-0.71363 -15.02333,-1.11474 -17.3,-1.8 7.96934,-0.13385 17.33364,1.75689 24.2,0.7 -15.41474,-3.16022 -31.49971,-3.85179 -47.5,-5 -4.30412,0.4051 -12.04491,-1.2149 -14.3,0.1 4.65875,0.7184 -15.94274,0.63 -21.04826,0.7 -11.93654,-1.04356 -24.50954,-0.32294 -35.95174,-1.7 -1.84703,-0.4097 -18.98457,0.36258 -9.28391,-1 31.7846,-1.04527 63.97642,0.36807 95.68391,2 5.71359,-0.39735 15.90133,1.90506 18.9,0.6 -8.34431,0.083 -4.24405,-1.054 4.3,-0.1 10.88989,0.89413 19.18201,0.81657 30.1,2.5 -0.7883,-1.38583 4.74373,-0.76981 3,-0.5 z m -27.3,0.8 0.3,-0.2 z m -94.7,-66.7 c 13.74773,2.5746 29.17336,0.69905 42.7,2.1 7.11921,1.11833 16.3114,0.36002 24.7,1.8 16.62086,-1.68593 34.44575,2.67188 50.3,0.4 -4.38715,-1.66708 -11.18342,-1.12735 -14,-1.9 -12.10607,-0.34223 -24.01429,-2.61842 -36.4,-2.1 -9.40955,-2.02011 -20.19487,-1.0456 -29.3,-2.3 -9.34178,0.0225 -16.01876,1.02253 -25.4,0.7 -3.60709,0.29043 -17.59725,0.0974 -12.6,1.3 z m 120.4,288.1 c 4.20909,2.31116 1.91507,11.50586 -4.8,8.4 -9.47607,-0.30714 -10.60969,-1.09475 -0.36783,-0.6 10.56868,-0.37929 -3.78324,-1.38339 -7.63217,-1.3 -7.11954,-1.02379 -11.63585,1.54365 -18,1.7 -26.9441,0.0989 -54.00661,1.12601 -81,3.4 -2.50123,2.06998 -12.1314,0.3888 -17.3,2.2 -23.43971,3.69033 -47.07187,-3.38598 -70.4,-0.2 -3.55583,0.15186 -21.71875,0.52333 -13.7,-0.6 17.81833,-4.58699 35.93967,-7.0329 54.4,-6.4 7.75016,0.10828 13.34893,-0.59882 21.7,-1 14.62927,-1.21655 29.03496,-2.37301 43.6,-3.7 9.92218,-3.29699 14.91691,0.20231 15,-0.7 25.12911,-2.84354 51.34251,-0.89726 76.6,-1 0.51373,0.0381 4.79513,1.22558 1.9,-0.2 z m -66.5,-0.5 c 22.43333,-42.63333 44.86667,-85.26667 67.3,-127.9 -33.54658,-3.21046 -67.36143,-0.93846 -100.3,4.5 -5.81294,0.72087 -12.13668,1.85963 -14.4,2 -16.99789,2.75484 -35.74534,4.64818 -51.9,7.4 2.10624,1.55459 -10.92911,1.78895 -14.8,2.9 -5.28295,0.19588 -11.91115,1.76202 -16.8,1.1 18.2349,-2.00027 6.65191,-1.57788 -3.6,0 -5.4013,-0.32799 -9.7492,2.67438 -12.6,1.3 -4.85794,1.56796 -13.45532,1.05385 -20.075,2.925 -4.08158,4.0928 -11.78818,1.58902 -16.325,3.975 -8.8549,1.21009 -9.35239,2.39378 3.1,0.3 6.9446,-0.48317 -4.83552,1.805 -7.4,1.9 -2.51117,0.40855 -10.86773,1.64526 -8.88391,2.5 17.34326,-3.19392 36.48081,-5.27659 54.38391,-6.3 9.67514,-0.96469 20.16124,-1.11951 29.9,-2.4 4.66894,-2.48917 12.77478,1.70487 17.2,-1.5 12.44178,-2.0591 27.08249,-2.04869 40.3,-4.5 33.38103,-3.5226 66.48782,-11.37638 100.4,-10.5 7.65822,-0.4065 15.33555,-0.31493 23,-0.5 1.15049,-13.5394 -5.67115,4.48218 -8.15689,8.17483 -20.11437,38.20839 -40.22874,76.41678 -60.34311,114.62517 z m -102.9,163.6 c -5.36816,-1.39523 -2.56572,1.2154 0,0 z m -86.6,-112.5 c 3.50845,-0.65783 -2.19792,-2.01488 0,0 z m 25.9,15.8 c 6.25903,-0.52449 5.66646,-2.2068 0.5,-0.3 -3.0885,-0.40625 -3.82386,2.46893 -0.5,0.3 z m -52.2,-213.3 c -7.48896,0.67582 1.43501,1.2757 0,0 z m 58.5,-10.2 c -1.09973,-2.38438 -2.59554,1.58237 0,0 z m 110.7,171 c 3.55975,0.29289 0.49854,1.46015 0.1,-0.1 z m -91,-94.3 c 13.01604,0.35413 -7.60147,0.99312 4.8,2.5 8.86462,-0.6182 9.01233,-0.70087 18.3,-0.2 15.4362,-0.9218 31.3293,1.78096 47.8,1.5 14.75117,0.17095 31.0963,2.77808 46.5,3.1 -5.36119,-1.24487 -15.16844,-2.20264 -22.21609,-2.9 -23.50992,-1.48325 -47.08529,-4.08032 -70.58391,-3.2 -3.33627,-1.03347 -11.1215,-0.25592 -16.2,-0.3 -2.72758,-0.84737 -13.00779,1.57366 -8.4,-0.5 z m 31.9,244.5 c -4.98699,-0.61706 4.15942,1.66516 0,0 z m 14.3,-477.2 c -5.77703,-0.1238 1.42525,1.50642 0,0 z m 91.5,350.5 c 4.9136,0.98927 -0.97774,-1.93898 0,0 z m -82.2,-354.1 c 4.14638,-0.89099 0.32353,0.0631 0,0 z m 2.9,43.7 c -8.57334,1.02657 -17.41655,1.68596 -24.7,4.2 -9.63469,-1.331 -18.60829,3.7584 -28.2,5.5 2.57561,1.05199 1.77808,0.82977 -4.5,2.4 -7.6838,2.55107 3.43567,-3.11838 -3.3,-1.3 -13.47616,2.85358 -25.86544,8.01698 -39.25,11.8125 -7.08808,4.31617 -5.63525,1.86404 -10.75,4.9875 -4.86064,1.8759 -8.0325,3.69462 -0.6,0.9 12.03934,-4.92256 23.64564,-9.14049 36.1,-12.2 -6.05755,5.17882 11.09693,-4.03857 10.6,-2.4 8.26209,0.1951 18.90713,-4.22196 28.1,-5.6 13.92012,-2.08576 27.11429,-4.87373 40.9,-5.6 -5.44461,0.60741 -10.78734,2.20791 -1.8,2 1.43721,-0.45101 0.8496,-1.67522 8.6,-1.1 10.06061,0.0233 18.62333,-1.83075 27.55,-2.3 9.80477,-1.88765 13.29492,-4.08167 22.86609,-4.2 11.44918,-1.73664 24.30122,-1.76325 34.58391,-4.3 -21.30078,-0.57586 -43.25141,-1.16974 -64,1.8 -6.29071,-0.0332 -16.55263,1.04191 -24.5,1.6 -2.72478,1.07302 -9.59772,-1.36141 -7.7,3.8 z m -9.5,-11.1 c 2.33556,1.49647 1.65317,-2.108 0,0 z m -76.6,201.5 c 0.13812,-1.03906 8.419,-2.13282 12.1,-3.1 26.5385,-5.06861 54.20518,-7.86648 80.8,-8.9 -4.21825,-0.39457 11.45695,-0.48709 15.3,-0.7 25.48658,-0.21999 50.89776,2.56579 75.7,6.4 -20.3976,-1.1393 -41.19425,-5.61484 -61.4,-2.9 -3.64956,0.84118 -12.51005,0.88247 -15,2.2 -5.78972,0.17112 -13.43553,1.97615 -19.6,2 -24.57474,5.71026 -50.5332,1.43524 -75.8,5.4 -2.97462,-1.66579 -10.83711,2.34786 -12.1,-0.4 z m -165.2,-224.6 c -5.12501,-11.19734 8.36136,-7.09847 15.7,-7.5 35.3607,-0.36325 70.72438,3.55983 105.2,9 -25.16004,-2.27414 -50.51577,-5.45585 -76.1,-5.4 -8.35213,1.63231 -16.33316,1.41269 -25.4,2 -2.73089,1.15804 -16.96029,1.28458 -19.4,1.9 z m 239.4,233.7 c -1.66182,-0.68182 -4.70172,1.22927 0,0 z m 0,-243.6 c 4.93719,-0.69654 -1.62797,-0.55829 0,0 z m -124.8,252.4 c 10.92898,-2.53996 -5.39774,-1.08254 0,0 z m -28.3,-172.5 c 0.65456,1.90128 2.67864,-1.59239 0,0 z m 299.6,123.6 c -7.76859,0.42602 -16.032,0.45717 -22.3,1.2 -6.57435,0.70322 9.80233,-0.45945 14.4,-0.5 1.89317,-0.37675 9.14776,-0.23703 7.9,-0.7 z m -191.6,138.9 c 3.10192,0.39991 0.88796,-2.46351 0,0 z m 17.8,-61.4 c -0.92861,1.49307 3.92948,-0.89973 0,0 z m 138.1,73.3 c 3.51597,0.48813 -0.0639,-1.26986 0,0 z m 38.3,-111.8 c 3.91908,0.68885 -0.90399,-1.81493 0,0 z m -157,13.7 c -4.72643,-0.40615 -4.59682,2.54228 0,0 z m -102.4,-2.1 c 3.12484,0.17895 0.70915,-1.56107 0,0 z m 113.1,-222.6 c -1.79638,1.04751 1.61633,0.0935 0,0 z m -79.8,181 c -2.26718,0.35639 1.58814,1.07488 0,0 z m 33.2,27.9 c -2.14986,-0.55922 -0.6921,1.43064 0,0 z m 151.5,6.6 c 2.04638,1.0989 4.19426,-0.78861 0,0 z m 23.7,-6 c 5.30429,0.92226 16.9396,0.39524 5.5,-0.1 -0.68794,-0.12156 -7.51614,-0.68655 -5.5,0.1 z m -22.2,-38.1 c -3.39942,-0.51192 -1.32061,1.08037 0,0 z m -122.1,-199 c 5.54479,-2.42761 -4.6308,-0.10582 0,0 z m 59.1,-8.3 c 0.85325,1.00526 1.88888,-0.8267 0,0 z m -156.1,252.3 c -3.88946,1.05338 0.85285,0.28784 0,0 z m 104.9,-243.2 c 2.64388,0.71711 0.75683,-1.41123 0,0 z m -51.6,239.3 c 3.75126,-1.52403 6.45096,-1.72202 9.6,-1.3 -1.51462,-0.21893 -1.90139,-2.55092 -6.4,-0.5 -4.38828,-0.80753 -8.17264,1.96927 -13.3,2.2 -9.91755,0.79818 2.25379,-3.96595 -2.6,-2.3 -9.91912,-1.45659 -1.75202,1.85587 -12.6,2.2 -5.23517,0.6498 -11.54776,1.34099 -13.9,4 1.88124,-0.42471 16.43996,-1.95536 6.7,0.1 2.65887,3.78923 7.77769,-1.48174 11.9,-0.6 -2.95075,-3.58773 1.28865,1.52244 5.5375,-1.075 1.66343,-3.62316 7.27695,0.49545 11.3625,-1.825 -0.17943,-0.79683 5.21107,-1.16058 3.7,-0.9 z m -49.9,-189.6 c 0.98924,1.19594 1.54157,-1.36565 0,0 z m 120.2,-23.8 c 1.31546,0.74028 1.31546,-0.74028 0,0 z m 145,3.1 c -7.5926,-0.91596 1.69396,1.51821 0,0 z m -180.2,-28.7 c 4.53071,1.20036 11.20573,-4.39958 0,0 z m 64.2,220.5 c -1.74344,0.63582 1.09843,0.18789 0,0 z m 103,16.5 c -0.14465,-2.12821 -4.24617,0.95242 0,0 z m -241,4.8 c -1.47501,-0.676 -0.63629,1.1842 0,0 z m -19.6,2.4 c -4.21797,0.93293 2.76413,0.72412 0,0 z m -20.3,-140.5 c 10.22121,-1.644 19.05568,-0.85453 28.1,-3.2 6.07075,-0.59913 9.13347,-1.56206 15.6,-3.3 8.87039,-5.1983 20.79455,-6.4175 29.025,-13.8 -3.54882,-0.63419 -9.48933,0.0699 -6.125,-1.7 -11.51936,3.80757 -23.19266,4.50774 -35,8.8 -2.85068,1.4034 11.79063,-1.27391 0.1,1.8 -9.8633,-1.89123 -5.46388,2.81412 -11.9,1.3 -0.23035,2.70409 -1.94441,-0.89861 -7.4,1.5 -3.83954,1.09122 -7.78041,1.52999 -12.4,2.9 -3.9769,1.21671 -8.61837,1.35505 -12,3.7 7.17414,-1.61291 13.51923,-3.36163 3.7,2 3.35222,-2.03974 2.47956,5.53318 8.3,0 z m 290.5,140.5 c 5.80725,1.79732 -1.11924,-1.89744 0,0 z m -261.8,4 c 2.46136,-0.41662 -0.64464,-0.73272 0,0 z m 190.2,45.3 c -14.43265,-0.67291 -30.16762,0.36605 -43,1.6 -22.32317,2.31815 -44.98258,6.32382 -66.1,13.2 4.48333,0.12687 12.2358,-1.65286 12.8,-2 24.19729,-4.53311 48.32118,-7.6013 72.8,-8.9 13.17458,-1.92328 27.77729,-1.24242 40.2,-4 -5.15122,-0.31508 -12.45064,-1.96971 -16.7,0.1 z m -121.9,-196.7 c 6.71705,-2.24406 13.90143,-4.38783 20,-7.5 -4.24594,-0.2109 -12.07105,2.80532 -12.3,3.2 -18.5532,4.82698 -36.95764,10.83267 -55.8,13.2 -17.04967,3.55686 -34.54223,5.13047 -51.1,9.8 -8.07445,1.71167 11.93077,0.50186 14.9,0.3 13.69626,-0.45863 27.83886,-3.01694 39.7,-4.9 14.79767,-2.73787 29.62788,-6.27721 44,-11.2 0.2,-0.96667 0.4,-1.93333 0.6,-2.9 z m 101.3,250.8 c 1.79865,-0.95065 -1.76349,-0.23931 0,0 z m 3.6,3.2 c -3.03593,-0.1318 0.98093,1.10514 0,0 z m -81.7,-323.2 c 0.95783,1.01203 0.69496,-1.02454 0,0 z m -112,222.6 c -8.12909,-2.78229 -1.07343,3.78362 0,0 z m 283.9,86.4 c -11.074,-1.15603 -22.35462,-0.2563 -32.2,-1.4 -14.72448,0.88256 -6.06232,1.79717 5,2.6 9.82417,1.37259 19.63004,1.51475 29.5,2.2 -0.0624,-2.04652 0.73732,-4.97877 -2.3,-3.4 z m -143.4,-341.9 c 4.30264,0.0296 0.1824,-0.87178 0,0 z m -123.3,61.3 c 0.78863,0.84993 1.20936,-1.02914 0,0 z m 249.8,186.4 c -2.63948,-0.87379 -12.51127,-0.24246 -5.4,0.1 2.19735,-0.16794 12.52019,1.34384 8.6,0.3 l -2.9,-0.2 h -0.2 z m -122.6,-248.5 c -0.88707,-1.01877 -1.15671,1.0226 0,0 z m 43,356.7 c -4.06476,-0.0539 2.69516,1.28909 0,0 z m -59.8,-110.4 c 9.67186,0.84463 5.37171,-2.36538 -1.5,0.2 -4.8895,0.62239 2.50245,0.74713 1.5,-0.2 z m 92.8,108.2 c 12.82883,1.23469 6.2107,-0.90173 -1.375,-0.4875 -1.48157,0.7134 2.62105,0.46941 1.375,0.4875 z m -60.9,-357 c 1.79486,-0.43503 18.05433,-2.77738 11.8,-2.6 -3.42691,0.76766 -10.43101,0.73968 -11.8,2.6 z m -92.6,302.1 c 15.29958,-1.30609 31.07625,1.95594 45.9,-2.9 10.7589,-3.01799 21.61246,-11.18936 34,-12.2 20.18869,-3.63348 41.05901,-3.78908 60.6,-9.4 9.62546,-0.73923 -6.17687,-0.66261 -9.4,-0.8 -19.23251,-0.15586 -38.2481,1.12132 -57.2,2.6 3.0092,1.45967 -9.32834,1.06682 -12.1,1.7 -8.29437,1.64373 -18.63782,1.37788 -26.7,3.6 5.24898,-0.21632 11.30633,-1.87899 15.9,-1.3 -9.89807,0.47659 -19.28661,3.61998 -28.9,5.2 -3.31627,-0.99713 -17.66325,2.05229 -14.1,0.2 8.40418,-2.204 -1.94298,-0.92878 -5.2,0.4 -9.36353,1.94055 -19.12435,5.0051 -28.2,7.2 -7.98905,2.07581 -17.07108,5.40781 -24.1,9.6 16.58595,0.81235 32.92994,-4.93543 49.7,-5.2 z m 0.3,-260.4 c 2.79427,-0.45384 -1.33652,-0.44269 0,0 z m 37,-31.1 c 1.76697,0.26179 -0.53624,-0.97115 0,0 z m 180.2,159 c -51.05696,-2.78372 -102.34058,2.19626 -152.6,10.8 -8.20584,1.16563 0.21672,2.17177 -6.7,2.1 -2.17819,2.00336 -9.89223,1.45707 -11.3,3.2 14.65525,-3.06936 29.39896,-5.88643 44.6,-5 7.76488,-1.50353 14.61432,-3.32412 21.6,-2.9 21.43302,-1.38847 42.66707,-1.17533 64.11609,-2.7 14.23774,-0.41145 28.43054,-1.67463 42.68391,-1.5 0.0538,-2.04414 0.69059,-9.05721 -2.4,-4 z m -101.3,189.7 c -2.92802,-0.55297 1.48772,0.56433 0,0 z m -85.4,-74.4 c 1.21795,0.7976 1.06309,-0.85899 0,0 z m 182.4,-44.3 c 0.99594,1.34395 1.18359,-0.99965 0,0 z m -251.7,11.6 c -1.28063,-1.00227 0.28218,1.17817 0,0 z m 207.4,105.4 c 1.91653,0.0888 -1.18544,-0.5671 0,0 z m -76.5,-128.1 c -1.36212,0.23978 1.08639,0.58691 0,0 z m -97.8,16.2 c 5.74861,-1.13533 -3.50789,-3.039 0,0 z m 115,-247.3 c 1.52098,0.61066 0.93853,-0.41264 0,0 z m -77.4,346.4 c 1.27198,-0.90785 -3.06976,0.0496 0,0 z m 29.9,-97.9 c 7.21466,-0.9639 -3.35387,-1.23054 0,0 z m -5.1,-210 c -0.66107,-0.49288 -0.59422,0.93157 0,0 z m -64.8,6.3 c -0.41443,-0.88028 -1.03577,0.84449 0,0 z m 17.9,-3.4 c -15.06216,1.64145 6.42642,0.61899 -6.9,1.9 -12.13464,1.63467 -4.37104,1.82564 -4.8,2.5 -7.05539,0.87337 -7.47586,2.17895 0.1,0.2 5.1382,-2.63558 4.00687,0.21709 9.6,0.8 9.466,-1.4589 18.22603,-2.92662 28.6,-4.1 3.55339,-1.81382 11.41953,-1.13303 17.7,-3.2 1.04296,-0.97885 7.37038,-3.12924 1.2,-2.4 -4.86234,0.95251 -7.90884,0.34731 -11.81609,1.6 -2.7318,-1.14904 -7.17924,0.26962 -9.78391,0.3 -7.80256,1.47442 -16.60218,1.39213 -23.9,2.4 z m 138.2,204.8 c 0.85918,0.31866 1.86315,-0.21986 0,0 z m -2,112 c 6.21541,0.71954 1.99697,-1.73557 0,-0.2 z m -32.6,-129.4 c 1.09516,0.42308 0.74787,-0.69354 0,0 z m 56.8,-20.7 c 0.86004,-0.26462 -1.4178,-0.5467 0,0 z m -123.3,-200.7 c 1.58175,-0.65582 -1.57783,-0.17345 0,0 z m 8.5,244.5 c 2.95615,-1.5953 -4.73863,0.11202 0,0 z m -13.5,2.2 c 0.41443,0.88028 1.03577,-0.84449 0,0 z m -115,7.5 c -1.32952,0.38283 0.82393,0.29233 0,0 z m 252.4,84.2 c 0.80613,-0.73472 -0.63023,-0.13259 0,0 z m -132.6,-92.8 c 9.40942,-0.76557 6.5901,-2.02181 0.1,-0.2 z m 125,-198.1 h 0.1 m -178.4,184.7 c -0.82054,-1.86435 -1.15317,0.95943 0,0 z m 177.8,13.2 c -0.66889,-0.73656 -0.21503,-0.28831 0,0 z m -115.9,-246.7 c 3.77115,-1.35067 -2.23214,-0.72868 0,0 z m -104.8,251.2 c -0.27522,1.43554 1.31201,-0.18461 0,0 z m 218,-156.2 c -0.85035,-0.12238 -0.19061,0.65886 0,0 z m -2.7,258 c 0.33746,-0.87749 -1.98674,0.28423 0,0 z m -106.6,-320.6 c -2.10497,0.99351 3.42462,-0.12927 0,0 z m 58.8,319.4 c 11.21666,0.007 -5.00943,-0.99548 0,0 z m -124.8,-32.2 c -10.24416,-0.63619 -9.67253,2.1442 0,0 z m -5,5.1 c -4.46108,0.61063 -15.55111,-2.37291 -8.3,-4 9.36017,-1.72705 -13.32555,-1.72274 -17.9,-0.1 -7.98693,-0.64408 -14.96346,2.27364 -23,2.3 -18.56942,3.12765 -37.16519,4.05187 -55.8875,6.2125 9.42302,3.62742 13.52312,1.15173 -0.85,3.375 -3.60945,0.51592 -29.60441,2.6297 -19.4625,3.2125 17.48901,-0.82546 35.51706,0.75254 52.25,-0.8 4.1569,-0.90276 14.13806,-2.59001 21.075,-2.4125 9.13103,-1.63794 19.13376,-3.40092 27.575,-3.5875 5.54035,0.0102 13.8771,-2.95666 19.5,-2.7375 0.0562,-1.36773 4.50305,0.19165 5,-1.4625 z m 2.7,0 c -3.16843,-1.41596 1.90896,2.23216 0,0 z m 2.1,-285.1 c -1.20907,-0.12396 0.0129,0.88699 0,0 z m 56.7,-35.2 c 1.68241,1.44108 2.58198,-1.23949 0,0 z m -46.6,337.9 c 0.85035,0.12238 0.19061,-0.65886 0,0 z m 204.1,-192.6 c 7.82322,-3.64332 18.83175,5.21986 6.2,4.7 -19.15619,-0.0282 -38.62682,1.04068 -57.2,0.7 -6.40467,-0.22171 -13.53,1.50994 -18.8,0.2 23.24639,-3.32494 46.69655,-4.37281 70.2,-5.1 z m -57.1,4.8 c -0.18209,-0.21332 -0.18209,-0.21332 0,0 z m 57.8,137.9 c -11.37929,1.02225 -23.40156,0.14432 -34.275,1.5875 15.00289,0.83583 30.17199,1.42197 45.175,1.7125 2.81395,-8.10842 -8.24625,-2.86195 -10.9,-3.3 z m -192,16.9 c 0.85035,0.12238 0.19061,-0.65886 0,0 z m 38.9,-66 c -0.88932,-0.18456 0.41702,0.68098 0,0 z m -23.5,-5.1 c -0.5113,-0.85386 -0.47136,0.28928 0,0 z m 81.1,102.5 c 12.89219,-0.58818 6.48514,-4.47076 -2.7,-3.8 -5.14881,-0.42541 -13.20917,-0.85699 -16.2,1 -2.47352,0.26409 -7.70931,-0.71112 -11.2,0.7 -11.88313,0.8605 -25.27677,0.53176 -35.9,1.4 1.91732,1.76303 -3.49791,-1.65565 -5.5,-0.2 -5.8279,0.73194 -5.90645,0.41043 -7.23217,1 -3.32068,0.69076 -16.8529,-1.85272 -13.46783,0.6 1.04927,3.42715 -9.73348,1.10696 -13.1,1.5 -4.24998,0.82311 11.02767,0.70671 14.04826,1 30.71991,1.16569 61.56171,1.46211 91.85174,-3.2 z m 95.1,-99.2 c 0.41702,-0.68098 -0.88932,0.18456 0,0 z m 5.8,0.5 c -0.85035,-0.12238 -0.19061,0.65886 0,0 z m -220.9,2.9 c -1.74857,0.48079 1.7387,0.72382 0,0 z m 225.3,-2.6 c -14.65907,-1.96802 7.5642,1.85875 0,0 z m -396.8,-109.9 c 18.93412,5.14046 39.63252,3.08304 59.2,5.4 11.67048,0.78818 21.47874,0.481 33.1,0.3 -0.62608,-0.16248 17.30517,1.01092 5.4,-1.7 5.58311,-0.80646 15.15364,-0.13036 22.3,-0.4 6.15786,0.77377 10.76382,-3.10935 16.5,-1.2 0.13297,-2.70312 10.92147,-3.14158 2.1,-2.4 -7.61411,0.3451 3.87233,-1.19125 6.4,-2.3 10.58798,-3.24546 21.2452,-6.71076 31.7,-10.2 5.12791,-1.08082 5.77615,-4.72585 11,-5.3 3.14205,-2.99005 15.57599,-4.25477 4.7,-3.4 -13.51595,3.6327 -27.19188,7.21067 -41.6,8.3 -2.03003,2.52585 -7.71436,2.35201 -13.2,2.5 -3.23878,3.93735 -4.74683,-0.57483 -10,1.7 4.36646,1.66692 -11.26574,2.68952 -6.9,1.4 9.47325,-1.49949 -1.20544,-0.0185 -4.9,0 -9.91897,2.82748 -19.90235,1.86599 -29.3,2.5 -6.17601,0.80819 -12.44706,0.72698 -18.2,2 -10.91756,-0.35849 -22.45324,-1.17483 -32.6375,0.3625 -10.14698,3.99726 -22.25555,0.2176 -33.2625,0.3375 -3.06948,0.28612 -6.2705,-1.61088 -2.4,2.1 z m 311.4,110.9 c 1.5331,-0.44871 -2.3322,-0.6763 0,0 z m -172.4,3.4 c 0.85035,0.12238 0.19061,-0.65886 0,0 z m 213.1,93.4 c 0.3725,-0.31296 -0.0884,-0.0878 0,0 z m -172.5,2.6 c -3.17825,-2.87266 -1.16147,-1.17033 0,0 z m 142.7,9.6 c 0.4784,-1.31486 -1.62904,0.16625 0,0 z m -14.5,3.4 c -3.24491,0.88175 2.15141,-0.1093 0,0 z m -146.1,-114.1 c -0.69632,-0.24466 -0.88053,0.14211 0,0 z m 177.4,-1.8 c 4.44468,-0.73383 -4.49948,-0.0196 -7.2,-0.1 0.91393,0.94317 5.47036,0.64728 7.2,0.1 z m -192.5,8.8 c -0.0749,0.69849 0.8107,-0.17761 0,0 z m -22.6,5.7 c 10.77666,-1.94544 -8.70963,0.78662 -1.4,-1.1 6.61374,-0.31807 4.06701,-3.27193 6.1,-4.2 -3.27894,-1.0116 -11.50975,2.2968 -11.2,2.8 -0.63735,0.50799 -3.97875,1.44878 -3.7,3.7 3.84892,-3.51283 4.38446,1.1598 10.2,-1.3 z m 197.7,1 c -0.62847,-0.81477 -0.98826,1.01147 0,0 z m -50.2,5.4 c -0.79463,0 -0.79463,0 0,0 z m 124.1,-9.3 c 8.75748,6.59363 -7.81252,3.73541 -11.9,4.6 -7.59176,-0.76308 -14.14213,-1.23787 -21.4,-2.8 -13.4796,1.90257 -27.74445,-1.89643 -41.4,1.2 -5.14182,0.0897 -17.07585,1.6044 -14.7,0.8 -4.5734,1.45434 -9.14397,0.61701 -14.5,0.2 -2.71772,2.36774 -8.37792,-1.23601 -12.4,2.1 -4.13633,1.63236 -6.71349,2.69545 -12.6,2.4 -5.66359,0.99234 -13.70388,1.07481 -17.1,1.2 -2.60976,0.71209 11.68159,-4.4968 2,-1.6 -8.70234,1.39883 2.67371,-3.24951 5.5,-4.8 5.62487,-1.62985 11.83702,-3.17937 17,-5 14.29958,-2.31932 28.72996,-6.243 43.5,-7.1 -5.10156,1.24219 -11.13106,1.22773 -15.3,3.5 -4.94453,1.16903 -3.09972,1.75765 3.11609,1 10.52106,-0.97529 19.37238,-2.10639 29.98391,-2.4 2.84634,1.45064 10.72494,0.0315 8.1,2.7 5.11719,0.42487 11.2171,1.45172 16.4,1.7 0.61109,-3.38983 9.42637,0.53517 13.3,-0.2 5.27643,1.01771 9.53343,1.6698 15.9,2.2 -2.65074,-4.13411 6.13452,6.00817 6.5,0.3 z m -138.3,6.8 -0.8,0.2 z m -257.3,-274.2 c -3.08236,-5.06211 8.02891,-1.30669 11.4,-2.3 5.83731,1.21635 6.79522,-0.45685 11.8,0.3 4.80571,1.02147 8.3684,-0.0468 12.9,0.9 2.76299,-0.66812 -3.97086,-3.4521 3.8,0.1 10.76926,-0.78563 -6.54029,-1.56139 3.8,-1.7 0.298,3.34396 16.26013,1.36862 7.98392,1.2 -8.44483,-1.20331 6.46211,-2.3296 10.31608,-0.9 14.03972,-0.65518 28.65697,0.22145 42.5,3 -6.79855,0.71122 8.96742,1.45312 10.6,1 17.05676,-0.87976 33.13412,1.45506 50.3,0 15.89495,0.44525 32.83542,-0.94045 48,-2 1.45757,0.22808 7.85677,-1.0089 11.5,-0.2 7.62375,-1.02634 13.80978,0.58548 21.3,-1.8 4.75994,-1.52706 8.27435,-2.15546 14.7,-2.2 6.84718,-0.37129 16.02644,-1.36086 19.9,-1 5.76295,-1.15608 -13.29184,3.00607 -3,1.3 10.71396,-1.78745 -0.97111,2.05116 -5.3,3.3 -14.87747,3.12446 -29.41857,5.91416 -44.8,6.8 -8.36524,1.1933 -18.28331,1.71703 -25.6,2.2 5.92091,-0.69367 12.02242,-1.12192 17.3,-2.8 4.99231,-0.84636 4.74024,-1.54414 -2.1,-0.7 -15.77704,0.60374 -31.92466,2.77809 -47.2,1.4 3.83327,-1.88686 -7.63136,-0.44973 -9.8,-1.1 -5.928,-1.11922 -8.02568,0.92931 -13,0.3 -9.86882,0.42969 -22.42284,-1.84666 -29,-0.9 -10.39567,-1.6926 -25.22331,-0.89455 -37.2,-1.5 1.09274,2.8169 1.68316,2.21132 12.6,3 1.92676,0.67152 -9.97861,-0.49355 -14.4,-0.3 -6.80114,0.17868 13.56539,1.88051 2.5,1.3 3.81437,1.47644 9.60719,0.68303 13.9,1.6 -15.11491,-0.81199 -28.05142,-1.35454 -43.4,-2.8 -17.85302,-1.28622 -35.49141,-2.79373 -53.2,-5 z m 275.3,-3.4 0.9,-0.1 z m -117.8,232.1 c -0.96535,0.0568 0.53247,0.39464 0,0 z m 86.3,-210.1 c -0.81239,-0.33036 -0.74474,0.0843 0,0 z m -16.5,-2 c -1.79712,-0.3409 0.74682,0.59181 0,0 z m 1.9,-0.2 c -0.7207,0.0971 0.49938,0.3512 0,0 z m 128.7,204.1 c 0.35556,0 -0.35556,0 0,0 z m -189,-162.5 c 0.35556,0 -0.35556,0 0,0 z m 229.2,159.3 c 0.35286,-0.70564 -0.59569,0.0406 0,0 z m -2.9,1.1 c -7.63936,-0.78786 -9.47612,0.94538 -2.5,0.4 -1.81092,0.13592 10.97446,-0.55802 2.5,-0.4 z m -288.6,52.9 h 0.7 z m 176.6,-260.2 h 0.2 z m 61.8,207.2 h -0.1 z m -207.7,74.7 c -7.97843,-0.17765 -2.98371,2.5063 0,0 z m 180.6,-21.3 h -0.2 z m -136.6,87.4 h 0.1 z m 11.1,-103.4 c -2.69787,1.48081 4.56504,0.16103 0,0 z m -70.8,9.6 c -2.82928,-4.09171 -5.92789,3.52716 0,0 z m -87,-167.4 c -3.53282,-1.41614 -9.70874,-0.56277 -11.4,-2.4 -2.32102,-0.003 -17.3631,-0.86571 -7.6,1 5.24315,-0.61381 13.93711,2.88734 19,1.4 z m -33.7,1.3 c 3.14165,-3.73804 6.9859,1.40093 11.6,-0.3 3.13371,-0.12503 6.38168,-3.9e-4 10.4,-0.3 1.35459,0.73333 4.23206,1.59394 2.2,0.1 -1.44533,-2.65946 -6.97891,1.13006 -9.6,-2.1 -4.1627,3.13945 -10.60111,-0.97795 -12,-1.3 10.57622,0.0623 -8.22927,-3.6351 -2.9,-1 -3.2401,-0.95316 -2.12944,5.41688 0.3,4.9 z m 9.6,-4 c -4.89105,-1.75633 -0.33351,2.82545 0,0.2 z m -5.4,3.9 c 1.26203,1.26659 1.64041,-0.21618 0,0 z m 218.3,164.5 c 0.8184,-0.0899 -0.22707,0.15017 0,0 z m 0.4,-0.2 c 1.29728,0.14327 1.6304,-0.61408 0,0 z m -10.9,-10 h -0.1 z m 19.2,6.2 c 0.51508,0 -0.33785,0 0,0 z m -25.1,37.1 c 0.44444,0 0.0889,0 0,0 z m 68.2,-40.6 c 1.04705,-0.60677 -1.27813,-0.0169 0,0 z m 11.4,-0.8 c -0.55446,-0.71014 -0.55446,0.71014 0,0 z m -93.1,101.1 h 0.1 z m 93,-347.8 c 1.8615,0.31488 0.0258,-1.39603 0,0 z m 83.2,37.6 -0.4,0.2 z m -74.4,322.3 c -7.86956,-0.0183 4.18994,1.24251 0,0 z m 54.9,-126.2 v -0.2 z m -61.6,-233.9 c 6.92948,-1.72803 11.1998,-0.38083 18.3,-0.4 7.298,0.92505 -1.88033,-3.0503 4.2,-2 2.41019,-0.64556 9.68652,-2.27871 4.8,0.4 7.99195,-0.97969 18.60575,-1.13926 25,-2.7 -12.41243,0.14491 8.67628,-1.37979 12.7,-1.4 10.86381,0.0327 3.98626,-1.27888 -3.1,-0.5 -19.26411,0.56522 -38.38257,1.46192 -56.5,4.4 -0.65881,0.76166 -9.15421,1.11731 -5.4,2.2 z m -63.6,254.7 h 0.1 z m 49.9,-6.4 c 0.9964,0.27972 -0.0389,-0.79453 0,0 z m -126.8,-108.9 c 5.57493,-0.008 11.70165,-1.93282 17.5,-3.5 -4.74914,4.47229 -5.22142,4.31693 2.9,2.1 9.17493,-3.76172 -1.34825,1.83111 -5.1,2.9 -1.74377,1.44797 6.06398,-2.16341 8.7,-3.1 4.41708,-1.24653 10.16348,-0.71875 14.5,-4.3 3.63566,-1.5304 8.00817,-3.4919 10.8,-6.4 -2.19493,2.00885 -13.28007,4.53332 -9.8,1.8 -10.86055,-0.70938 -22.26243,5.58256 -33.5,7.5 -2.05724,0.51578 -5.47978,0.95779 -6,3 z m -47.4,-172.7 h -0.3 z m -1,0 c -0.21844,0 -3.78156,0 0,0 z m -1.9,0 h -0.4 z m -1.2,0 h -0.3 z m 6.4,0.2 c 1.97107,-0.47274 -2.72704,-0.26533 0,0 z m 8,0 c -9.7863,2.51899 3.96079,1.38023 7.1,0.2 -2.044,-0.27701 -5.66369,0.46328 -7.1,-0.2 z m 8,0 c -3.62271,1.35799 -14.88686,3.86473 -6.7,2.5 6.28829,-1.67903 11.02084,-2.30025 17.3,-2.2 -1.1014,-0.74343 -7.60101,-0.36707 -10.6,-0.3 z m -23.7,0 c 2.51036,-0.84386 -3.25263,0.38326 0,0 z m 50.1,255.9 h 0.2 z m -59.6,-179.4 c 8.48796,0.67843 39.96066,-0.78643 28.3,-2.9 9.85796,-0.6425 11.1239,1.99601 16.7,-1.8 4.82503,4.40783 30.10567,-2.44953 7.2,0.1 14.62209,-3.65353 29.71372,-2.19387 44.3,-5.6 13.1261,-1.56622 -2.79488,-2.35552 -8.1,-0.7 -13.28498,2.28094 -27.2371,1.25547 -39.8,3.9 -13.87019,-1.38398 -27.70695,3.15151 -41.8,2.7 -16.03789,1.7038 -32.92866,2.04048 -49.3,4 -12.59385,-0.53015 -13.06289,4.27081 -0.5,3.2 13.77356,-0.63746 28.52616,-0.41884 42.7,-2.1 z m 66.7,-5.9 c -2.14056,0.49536 1.24708,0.92017 0,0 z m 3,0.7 c -3.71207,-0.95991 -2.39293,0.92575 0,0 z m -88,0.7 c 20.9968,-1.77982 42.58669,-2.98984 63.2,-5.9 -21.02387,1.67334 -42.78639,4.168 -63.7,6 -0.6427,0.61021 1.29084,1.25503 0.5,-0.1 z m 75.6,-6.4 c 12.60553,-0.74205 -6.0828,-1.00951 -0.1,0.2 z m 6.9,-0.5 c 12.28889,-0.2548 11.79579,-2.79985 0,-0.3 h -0.3 z m -16,1.1 c 6.85491,1.31365 1.31321,-2.37612 0,0 z m 20.4,3.7 c -2.72212,0.0282 -0.0743,1.16607 0,0 z m -1.4,1.6 c -0.77255,-0.25537 0.0874,0.38973 0,0 z m 66.5,-25 v -0.2 z m 13.1,-1.4 c 1.75632,-1.63008 -4.15747,0.95368 0,0 z m 164.4,243.1 c 0.72295,2.64791 2.49319,-0.88301 0,0 z m -173.9,-242.2 c 5.38369,1.03903 6.27607,-2.76156 0,0 z m -222.3,214.3 c 21.81813,2.7964 43.57103,7.76228 65.7,6.1 10.18509,0.42131 20.35175,0.48443 30.5,0.9 -4.48211,-2.72482 -13.09603,-2.25424 -19.2,-3.8 -18.36705,-2.81755 -36.73494,-7.79845 -54.8,-8.8 -0.30128,-0.15158 -10.91177,-1.00972 -15.9,-1.4 -7.58754,-4.31372 -10.679,5.77917 -6,8.7 l -0.22871,-1.29606 z m -1.4,-165.4 c 12.09381,0.075 24.92456,-0.20925 36.2,1.5 4.28091,-1.04929 24.17126,1.04801 14.9,-0.7 -2.22837,-1.98549 -8.21327,-3.71114 -15.3,-3.7 -4.41031,3.249 -7.20973,-0.77813 -9.3,-1.1 -1.40514,1.01691 -9.69104,0.25866 -14.7,-0.1 -5.12324,1.22027 -14.91189,-4.13299 -12.2,4.9 l 0.3,-0.3 z m -0.3,185.8 c 11.72534,1.42865 25.15152,1.08667 37.8,1.4 -4.94111,-1.82818 -4.46895,-1.43473 -10.1,-2.5 -0.91906,-0.84039 -8.83668,-1.17173 -12.2,-2 -4.90732,0.63925 -19.52558,-5.67199 -15.5,3.1 z m 26.6,119 c -8.25359,-2.59467 -17.53989,-3.25487 -26.4,-4.2 -0.99258,9.03968 13.74781,2.34638 19.74128,4.4 0.73811,-0.18232 9.81772,0.3266 6.65872,-0.2 z m -22.5,-290.8 c -0.53746,-2.47152 -9.81371,1.53752 0,0 z m -2.7,33.6 c 12.67707,3.053 26.37546,4.04509 39.5,2.9 9.13979,-0.32953 18.32524,-0.28366 27.5,-0.9 -7.12236,-0.84145 -15.50682,-3.8473 -21.7,-3.7 5.2912,1.06424 12.66182,4.03279 3.1,1.9 -13.55373,-1.4577 -26.30579,-6.42938 -39.9,-5.6 -8.62564,-3.5523 -11.84085,1.73287 -8.5,5.4 z m 4.6,222.7 c 8.95081,-0.26418 19.10663,0.65056 27.7,-0.8 -5.52442,-0.47671 11.13331,-1.99822 14.5,-2.1 1.73071,-0.52159 -6.50509,-1.08708 -9.8,-0.9 -2.83479,-0.42409 -20.79662,0.17671 -11.26783,-1.6 5.07433,0.16243 17.50712,0.0937 5.66783,-0.7 -5.76354,-0.0748 -7.08985,-0.64187 -11.6,-1.6 -7.22442,0.46836 -14.36088,0.0828 -21.1,-0.2 -0.23393,5.42675 -1.15114,11.23512 5.9,7.9 z m -3.7,-131 c 9.41348,0.0937 18.7444,0.20676 27.8,-2.1 -9.9226,-1.43192 -20.02754,-1.6698 -30,-2.9 0.27869,1.98263 -1.16041,8.91738 2.2,5 z m -0.3,-160 c 0.38335,-2.63945 -5.09878,1.16382 0,0 z m -0.3,311.1 c 12.76972,0.0394 26.59005,1.36628 38.9,1.2 -13.4084,-2.42077 -27.1519,-3.64891 -40.6,-4.8 0.33581,1.4844 -1.06295,4.97385 1.7,3.6 z m 9.5,-173.7 c 3.50988,0.56126 26.4822,-0.51544 21.7,-2.1 -10.97875,-1.10739 -22.04444,-2.17001 -33,-3 -2.85003,9.20271 6.95699,4.57344 11.3,5.1 z m -9.5,-16.3 c 24.89099,1.70979 50.09663,-0.60388 75,1.3 -10.7171,-2.37277 -24.43231,-2.90632 -36.3,-4.2 -13.37999,-1.42807 -26.82101,-1.9901 -40.3,-1.4 -0.50193,1.63248 0.18658,7.31307 1.6,4.3 z m -1,141.2 c -2.64206,-9.55079 19.84173,-3.09765 25.95,-7.5375 28.9809,-1.17402 57.72548,-2.79749 86.55,-5.8625 10.71839,-0.60235 21.86953,-3.67448 32,-3.1125 12.60713,-0.44229 26.3118,-4.6649 37,-3.9875 -45.05663,11.70592 -91.59354,15.03287 -138.14201,19.56831 -14.28899,1.31097 -29.82479,-0.4223 -43.35799,0.93169 z m 163.5,-16.9 c 0.35036,0.25269 0.35036,0.25269 0,0 z m -161.7,-35.8 c 6.6102,1.30739 6.97382,0.0625 0.2,-0.3 -2.02258,-1.12101 -4.52135,0.6105 -0.2,0.3 z m -2.1,12.9 c 3.69072,2.24811 2.77013,3.11222 11.6875,5.475 10.64555,2.15887 21.29471,2.23646 31.6125,3.225 7.25838,1.6499 4.70912,-3.4673 0,-3 5.69565,-2.42776 7.27815,3.43822 12.4,3 -4.90479,0.25877 -2.8596,-5.77534 1,0 6.36131,3.06176 -3.64539,-4.20919 5.5,-1.8 2.37894,0.9868 6.513,0.87453 9.4,1.4 2.95477,1.92508 6.10284,-0.40492 10.9,1.1 4.66543,2.59478 10.22407,-1.13844 13.5,1.9 2.32889,-1.17536 14.72521,3.20651 11,1 -8.73744,-1.47614 -15.30024,-6.75526 -24.31608,-7.9 -17.92938,-4.65546 -36.39385,-9.28073 -54.98392,-12.9 -4.2939,-0.62633 -12.77504,-2.25148 -18.4,-2.5 3.47489,0.92845 10.72071,0.97711 11.7,2.8 -8.92683,-1.04582 9.31306,3.05941 1.9,2.4 -3.46748,-0.30499 -14.38083,-2.24335 -11.2,-1.3 9.15043,0.99555 11.27537,2.50864 8.88392,5.6 -5.98232,-0.12574 -23.03513,-4.44063 -20.58392,1.5 z m 1.6,-53.2 c 6.30765,-1.64348 7.7205,0.51299 16.85,0.1125 9.61726,-0.76468 18.85097,0.75649 28.35,0.0875 -8.13488,-4.29395 7.6484,-1.00756 12.3,-0.7 13.51459,0.9839 -9.05403,-1.70552 -12.2,-2.2 -5.30567,-1.62227 -4.05559,1.5901 -7.3,1.7 -5.03457,0.72775 -9.35185,-1.56149 -13.8,-1.7 -7.3174,-0.18713 -14.96716,-0.20352 -21.8,-0.3 4.7417,1.82993 13.57778,-0.65477 8.6,2.3 -4.52001,0.0486 -10.94907,-3.51049 -12.7,-1.1 9.6376,0.32582 -2.54406,1.12745 1.7,1.8 z m -1.4,46.2 c 7.82172,2.04234 10.84712,-0.82022 -0.6,-1.5 -1.46165,-0.41577 0.70786,2.34674 0.6,1.5 z m 230.8,-289.8 c -3.06708,2.41506 -5.27531,0.98063 -7.91609,2.1 -2.1107,-2.07721 -7.39137,1.33571 -8.68391,-1.4 -5.29872,2.05703 -11.57497,-0.25015 -18,1.5 -4.95799,0.71367 -11.02177,1.84597 -16.5,2 -2.4105,1.12092 -13.63636,0.92233 -6.5,1.8 6.25889,-1.66933 9.31739,2.15225 14.8,1 24.17221,0.74398 48.94377,-3.30048 73.7,-1.8 11.60497,0.0469 25.31798,2.27856 35.7,-0.8 -22.16491,-2.75124 -44.49066,-5.21744 -67,-4 z m 123.1,-0.1 c -0.87816,-0.30693 -0.15133,0.34316 0,0 z m 2.6,0.1 c 1.38291,-0.30332 -1.71746,0.107 0,0 z m -6.2,-0.1 h -0.1 z m 12.7,0.4 c 6.05251,0.29357 10.88183,1.11425 16.6,1.4 5.31504,0.75781 12.74273,0.67109 19.3,1.4 -1.01124,-7.07456 -14.81597,-1.35561 -21.05737,-3.2 -4.80242,0.25642 -10.71218,-0.51831 -14.84263,0.4 z m -3.5,0 c 5.73974,1.53174 -0.93164,-2.33684 0,0 z m -1.6,-0.4 h -0.4 z m -356.4,3.5 c 19.56989,1.65848 40.6771,5.49819 61,5.7 -2.65668,-1.60442 -9.47831,-1.90691 -13.5,-3.4 -4.61904,-0.85763 -11.11703,-2.66022 -13,-3.2 -11.41899,-3.86957 -24.46755,-1.41372 -36.6,-2.1 -0.13904,1.77326 -0.38233,5.29302 2.1,3 z"
     fill="#ff8500"
     id="path1" />
</svg>
