<?xml version="1.0" encoding="UTF-8"?><svg id="a" xmlns="http://www.w3.org/2000/svg" width="1267.9" height="1267.3" viewBox="0 0 1267.9 1267.3"><defs><style>.b{stroke-width:0px;}</style></defs><path class="b" d="m15.9,554.1c-27.5,9.4-9.8-54.2-14.6-63.9,9.5-.1,17.8,1.3,20.6,2.7,28.1-.9,82,32,121.8,34.9-1.7-5.8,2-16.6-2.1-22.6-4.9-11.6-2.3-15.6-10.6-26.5-9.3-24.3-4.7-28.9-15.3-56.1-2.6-9.6,1.4-11.8-4.3-24.2-16.1-29.5,18.1,1.9,31.2,25.7,9.5,23.9,16.6,14,33.4,38.3,8.7,12.6,11.5,23.5,21.2,32.7,41.8,43.4,52,16.7,79.2,90.5.8,1.4,4.2,4.2,3,4.5-13.7,1.1-13.5.8-15.7,3.3,3.6,2.1,20.6.7,19.8,5.1-2.9.7-15.3-1.7-20.2-1.1,2.2,5.3,34.4,6.7,36.9,11.1-2.9,18.8-74.6-15.8-90.4-27.4-14.6-19.2-39.7-22.2-70.7-29.8-32.5-12-94.9,18.6-123.3,2.7Zm1086.8,163.7c-17.9-17.7-16.2-48.7-29.9-67.6-3-6.6-25.4-20.4-28.8-24.6-7.6-6.3-5.2-17.7-18.9-25.4-9.6-12.3-85.9-54.1-44-24.5,13.6,12.7,24.1,19.7,34.1,28.2,6.6.7,8.3,8.7,12.1,14.7,4.7,10.9,5.4,24.5,15.4,34.8-1.3,10.6,18.7,18.2,20.4,28.4,8,18.8,30.5,31.1,40.3,53.9.4,11.8.2,12.4,7.3,14.9,6.8-2.5-3.7-32.8-7.9-32.8Zm-401.7-147.7c-35.1-20.2-89.6-51.8-152.8-60.5-4.2-25.5-40.4-52.4-68.7-34.5-19.9,7.5-65.6,8.1-95,6.3-21.4-12.7-77-32.2-77.9-19,21.3,24.5,45.2,11.3,59.5,37.8,13.8,19.4,84.1,15.9,100.9,33.9,26.9,28.2,35.3-.9,49.2,23.5,13.2,21.2,32.9,10.2,61.5,10.1,12.1,2.9,49.6,17.9,61,13.8,4.3-1.4,15.5-5.5,19.3-2.4,5.2,5.8,25.4,1.2,47.3-.6,9.4,0-3.9-6.3-4.1-8.4Zm226.4-152.3c13,3-32-55.4-35.9-60.2-5.4-14.3-30.1-29-23.4-40.1,5.3-7.5-5.5-16.5-12.5-18.7-4-1.2-3.7-5.7-6.8-12.8-4.6-10.7-9.6-4.5-12.4-14.4-2.9-5.6-8.7-55.6-26.1-53.5-7,31.5,12.7,50.2,1.7,67.5-13.4,36.9,23.6,53.6,47.7,66.2,29,25,26.9,22.2,67.6,66.1Zm18.8-238.4c-12.1-27.3,10.7-28.8-16.1-43.2-22.5-12-9.2-18.7-36.2-57.5-6.6-9.2-5.2,6.2,1.1,19.2,9.5,22.9,19.3,51.6,23.5,55.5,6.2,5.9,15.5,21.2,25.2,29.9,8.6,12.9,7.8,14.2,2.5-4ZM336.1,504c0-2.5-11.2-3-8.2-5.2,7.4,1.1,2.1.3,1.7-1,1.7-1.8,8.4,4.1-7.3-7.3-5.1-3.7-9.6-7.9-12.8-13.3-2-3.5-2.2-2.2-3.5-4-3.2-2.3,7.3,9.7,8.4,13-.7.1-14.5-14.5-14.3-16-8-8.3-16.6-8.3-28.3-17.2-27.4-43-55.5-17.8-26.9.5,17.1,11.3,42.6,20.4,57,32.5,3.4,6.6,22.2,26.3,29.2,21.4,3.2-1.2-1.2-2.7-1-3.8.6-1.9,5.4,1.4,6,.3Zm274.6-204.6c6.8-17.6-7.6-34.1-21.8-19.9-11,5-21.8,5.6-24,23.8,3.3,21.6,15.6,24.9,18,45.8,1,2.8,5.4,7.8,6.7,5.4,4.7,10.3,14.2,30.5,15.8,30.5,4.3,6.4,7.1-11.3-3.8-25.6-.3-1.7-1-2.7-.7-5.4.4-8.2-3.8-6,3.5-12.6,2-8.8.1-15.2.5-22.3-.4-11.4,4.4-1.3,5.8-19.5Zm300.6,777.4c-16.6,12.9-31,32.4-12.5,22.2,5.7-4.2,2.2,4.3,15-12.9,1.4-.9,2.2-1.9,4.8-2.6,7.8-2.5,4.3-5.6,13-1.2,9-1.2,14.3-5.2,21.1-7.4,10.6-4.4,2.7,3.6,20.3-1.4,11.2,0,26.7-10,19.1-19.6-26.9-33.7-41-28-65.4,4.7-19.2,9.3-8.9,11.8-15.4,18.2ZM1261,12.4c-27.1,6.5-23.8,20.7-13,42.1-.3.7,1,14.9,5.3,12.6,3.2,9.7,11.1,33.8,11.7,17.9-.9-4.9,3.4,0-3.5-13.6-.7-2.9.6-6.2-.3-9.5,4.3-1.7,5.1-10,5.2-13.7-2.3-1.5,5.6-45.8-5.3-35.7ZM1.6,43c2.1-5.1,15.2-30.4.1-31.9-1-2.1-.4,51.4-.1,31.9Zm668.6,188.1c1.2,50.6,41.8,60,34.1,79.5,3.4,42,1.1,44.3,26.2,78.5-2.6,3.3,56.7,64.6,70.6,61,1.7-3.1,13.2,4.2,19.6,9.5,19.8,4.9,56.7,24.1,72.2,15.8-40.1-21.2-31.8-23-56.8-38.7-3.4,3.5-26.2-26.7-27.4-26.3-13.5-14.7-6.9-24.8-34.6-56.5-26.9-26-17.3-54.5-43.9-67.5-18.6-23.6-38.1-39.7-41.4-77.2-.4-29.1,6.9-17.2-.6-44.7,2.7.6,2-2,1.4-3.4-8.5-11-1.7-49.6-4.4-56.1-7.6,51-10.3,74.2-15.1,126.1Zm406.7-25.9c4.2,20.8-1.4,42.1,7.5,58.9,3.7,6.3,7.7,2.3,8.3,7,2.1,17.6,5.5,13.5,8.3,20.6,16,44.3,3.3,61.8,13,89.7,3.5-25.3-4-58.7-1.8-85.1-5.8-12.3,2.7-28.4-1.8-38.3-4.2-12.1-10.4-26.8-17.2-35.8-1.1,1.2-3.7-10.2-7.1-6.3,4.9-15.8-44.7-76.1-9.2-10.9Zm-212.1,243.6c6.7,8.5,21.2,17.4,34.6,15.7,5.1-.5,6.9,1.3,12.2,2.5,3.7-.2.8-7.7-4.2-7-4.3.6-16.5-4.9-8.7-7.7-8.8-3.7-13.9-4-22.2-7.5-20.3-5.2-14.2-.4-21.1-15.5,0-2.9-33.4-40.6-35.8-39.6-.6,6.5,8,8,34,44,7.4,10.2,8.6,9.4,11.3,15.1Zm-55-242.9c1-5.6-6.6-12.4-6.6-18.3.2-4.8-12.3-16.1-16.3-21.9-7.1-9.3-4.7-31.3-20.5-28.2-6.8,12.5,23.2,62.5,32.5,77.9,6.4,13.3,7.5-5.3,10.9-9.6Zm-684.8-.6c6.7.4-4.5,2.4,30.5-.1,4.4-5.4,12-12.7,17.7-19.7-9.6,1.6-74.4,17-48.2,19.8Zm-40,103.1c25.1-8.2,51.5-28.8,72.2-39.5,13.2-1.2,29.7-7.4,42.8-8.3,53.3-17.7,67.8-29.8,113.3-82.5,6.6-6.5,18.6-19.7,31-19.4,22.1-3,38.9,22.6,53.3,6.5,25.5-22.2,20.6-32.4,41.1-54.1,4.8-2.8,5.6-5,7.7-8.4,2.9-8.5,31.8-32.1,29.9-29.4,55-52.5-72.6,21.9-83.4,39.3-14.9,17.3-65.6,7.8-90.3,24.8-49.8,36.9-103.5,15.9-112.2,59.1,7.6-2.3,6.6-.7,16.1-4.2,16.3-6.1,35-7,36.8-6.9,7.2.5,33.9-7.9,28.9-3.9-11.3,13.8-65.9,38.1-95.6,41.4-16.7,52.4-58.1,44.9-91.5,85.6Zm736.9,219.2c20.2,10.1,4.9-1.1-.1-8.9.9-4.1-15.2-8-13.5-10.3.2-10.1-8.7-14.1-13.9-23.7-1.8-2.5,1.3-2.8,12.7,4.8,32.6,8.8,14,29.4,39.6,38-7.8-8.3-7.2-18.4-13.4-28.8-8.9-5.4-6.9-11.9-19.3-14.1-17.8-9.4-21.7-8.1-26.8-15-5.6-3.5-2.1,2.3-5.4,1.2-2.9-7.4-15.8-11.5-19-16.7-5.3-3.1-10.9-9.9-17.8-14.3-8.5-12-11.3-10.9-1,1.1,26,25.6,44.7,81.6,77.7,86.5Zm-312.6-137.2c42.8.7,51.4,59.8,75.3,80.6,9.4,10.6-8.1,4,19.9,27.6,3.6,1.7,7.2,6.4,7.2,13-15.6,1.5-30.3-26.6-46.3-30.8-21.5-6.8-35.8-47.8-59.1-42.2-54.4-15.6-158.5,23.7-38.7-39.2-2.7,0-3.9.2,1.1-3,15.2-9.4,12.2-6.4,40.6-6.1Zm94.4,109.4c-.3.5-.3.5,0,0h0Zm545.4-223.9c2.6,30.3,4.2,72.4,4.2,71-.1,3.3,1.8,0,2.3-1.7,1.2-6.5,6.4,4.3,2.3-28.7.1-6.9-2.6-13.4-2.4-20.3.2-8.7.6-41.7-2.5-53-3.1-30.2-.6-52.7-13-76.7-11.9-14.4-26.1-45.1-42.3-54.1-2.9,23.2,22.9,38.5,33.6,57.5,20.3,32.4,18.1,73.9,17.9,106.1Zm-979,66.1c10.6,1.1,16.7-4.3,22-9,5.3,1.2,14.6-10.6,24.5-9,16.2.3,0-1.7,12.1-5.6,3.8-1.2,15.4-6.1,15.7-6.7,6.3-1.5,2.5-.3,8.4.6,12.2,1.5,26.4-11.6,40.2-8.5,7.4.8,23.5-4,27.8-6.6-12.6-1.4-20,2.8-29.1,1.6-31.1,3.3-42.6,10.5-68.6,13.2-4.4.3.9-3.5-2.8-3.9-17.2-3.5-34.3,6.9-51.6,14-31.6,10.2-33.7,6.8-56.2,17.4-.6,3-33,12-13.2,11.7,16.6-3.3,25.2,1.3,39.9-6.7,19.6-4.6,12.8-5.2,30.9-2.5Zm386.5-116.6c-18.8,22.8-7.4,26.9-27.8,42.6-17,13-31.5,51.3-25.5,43.3,9.5-7.9,22-13.7,31.3-17,19.2-17.3,23.7-9.4,38.5-23.3,12.4-6.8,21.7-17.4,34-24.1,4.7-5.7,16.1-4.9,21.2-8.2,7.9,38.9-9,100.2-.5,126.6.2,49.8,52.2,77.7,89.7,115.6,17,15.2,23.1,23.6,43,34.3-19.1-36.3-44.2-83.7-63.8-120-18.2-36.6,2.7-34.1-14.8-75.1-10.6-32.3-36.6-70.5-30.9-107.9-.3-27.8.4-35.6,10.8-51.8,7-18.7,20.7-96.2,1.8-94.4-16.5,27.7-8.5,26.3-35.6,46.1-42.6,29.8-22.2,75.5-71.4,113.3Zm-310.3-78.9c32.4-15.7,46.1-15.9,73.7-23.2,16-1.3,18.5-16.4,24.2-14.8,2.1,1.5,13.2-.4,15.8-1.1,13.1-2.4,14,4.3,22.9-4,2.8-4.6,3.8-7.5,9.2-7.8,3.3,1.6,29.8-6,26.7-8.3-6.6,2.4-12.8,4.8-13.1,3.3,8.9-3.2,33.4-20.2,15.7-11.6-11,6.1-22.5,10.8-35.8,10.1-16.4,10.8-10.7,6.3-34.4,7.9-2.3-.6-.2-2.5,1.7-2.2,5.9-4.7-6.2-4.8-8.7-1.9-35.3,13.3-46,22.1-74.7,34.8,7-2.8,14.5-3.5,7.5,0,0-3.6-87.8,41.6-30.9,18.7Zm803.5,333c-14.4-3.1-62.8-31.4-19.6-.6,16.4,34.5,43.3,36.3,66.8,53.1-7.7-16.5-41.4-19.3-33.9-39.6-.3-.4-14.2-.7-16.2-6.6,1.1-.7,4.1-5.3,2.8-6.4Zm-186,78c24.9,7.4,32,32.2,68.8,43,28.6,7.2-.4-5.2-.8-8.3-16.4-7.9-19.1-17-40.7-28.1-3.1-4.9-51.3-19.9-27.3-6.7Zm-467-151.2c-16,9.9-21.1,18.5-39,23.7-24,7.7-31.3,2.9-41.6,16.3,18.6.8,39.6-.4,63,13.8,15.5,4.3,20.5-4.5,35.9-2.2,4.3,1.4,2.9-2.5,11.4-4.2,13.1-.7,28.5-.4-2.5-6-18-3.3-70.6,4.2-43.2-11.1,12.8-6.4,22.4-6.2,27.2-13.6,0-5.5,0-2.1.7-3.8,11.1-1,13.5-9.8,24.3-15.3,14.2-5.4,21.9-14.9,32.4-21.4-13.9,3-48.5,19-68.7,23.5Zm668.5-116.7c15.2,41.6,24.5,40.9,20.3,98.2-6,4.4,15.3,80.6,11.7,43.9.1-5.6-1.8-13.6-1.8-17.3,2.7-17.8,10.4-44.9,4.9-58.6-2.2-16.4-15.4-65.3-23.7-84.5-11-13.4-19.7-24-24.3-44.1-8-25.9-18.9-91.8-45.1-92.5-39-3.3-44.5-10.6-63-35.9-20.8-27.2-53.7-69-87.2-76.5-15.6-8.4-20-11.9-34.8-16.6,50.4,30.3,71.9,33.4,107.9,105.3,8.6,17.6,35.5,45,44.6,82.6,1.6,17.2,45.2,41.4,49.7,50.4,2.2,12.5,36.5,38,40.7,45.7Zm-537,58.9c3.4-11.5-20.6,2.9-20.6,8.2-.6,3.1-16.2,6.6-6.8,9.2,4.7,6.6,14.8.9,11.2-3.9,12.3,21.4,14.2,5.3,24.1,22.7,3.7,12.6,14.1-5.9,8.4-8.6-15.6-8.2-27.5-5.3-16.3-27.6Zm601.7-242.4c-3.2-6-19-33.7-20.8-39.3-6.8.9,21.4,43.2,20.8,39.3Zm-141.5,370.5c.5,1.9,4.6,3.2,4.9.7-.3-2.6,5.5,4.3,7.5.7-6.6-6.8-30-10.2-12.4-1.4Zm124.9,15.4c11.4,30.2,17,27.9,12.6,6-10.4-52.5-21.7-69.6-12.6-6ZM767.6,127.7c-2.4-3.9-.9-10-3.6-12.4-1.4.2-1.3-.4-3.6-4-2.4,9.1,10.3,22,7.2,16.4Zm-280.7,184c16.6-9.4,26.8-42.2,36.9-57.1,13.6-22.8,30.3-29.8,43.2-50.6,3-10.7,8.1-14.7,13.2-20,8.8-10.7,9.5-31.2-2.3-25.3-.3,7.2-22.9,31.7-14.2,33.4-11.1,24.1-21.8,36.5-41,55.2-31.4,27.9-4.7,36.5-44.8,68.3-2.7,2.3-9.8,8.9-11,12.2,9.5-6.2-2.1,1.5,20-16.1Zm-7.9,276.1c-7.4-3.7-42.9-8.4-31.3-8.1,1-.2,4.2,1.1,3.9-.6-2.8-1.6-9-.9-8.9-2.3.2-2.4,42.7,6.1,43.4,6,0-1.2,0-1.4-4.9-2.7-18.9-5.1,3.8-.3,9,.3,11,1.2,7.3-1.1,11.8,1.1,1.3-.2.3-2-1.8-1.4.1-1.5,2-2.9,3.6-2.1-17.4-8.4-16-9.7-28.5-14.4-47-14-87.6-48.1-141.5-41.2-6,2.3-11.1-9.7-16.9-10.8-18-17.3-62.6-29.1-81.6-49.9-8.1-8.5-19.1-38.7-34.4-49-8.9-6-18.9-17.3-14.3-15.1,19.9,5.9,32.5,10.5,53.4,13.6,8.8-2.1,41.3,25.3,56.3,20,21.9-6,22.7-10.8,34.7-14.4,25.1,6,22.1,1.4,43.5-3.2,29.9-42.5,106.2-22.3,133.4-83-28.3,14.9-62.1,38.7-100.8,35.7-39.3,13.4-70.6-21-121.3,9.6-41.1-18.8-103.6-21.4-123.5-21.5-41,17.7-1,48.4,24.2,65.2,15.9,13.7,22.9,47.9,54.1,61.1-16.1,8.8,36.5,36,30.7,34.5,39.2,25,5.9,41.7,39.4,42.3,2.1,4.9,4.7,2.8,7.9,7.1,49.7,26.6,29.1-12,87,6.3,20.5,4.7,41.3,12.7,61.3,16.9,4.2,1.2,14.6,3.9,12.1,0Zm477.2-388c-4.8-2.7,12.9,21.5,9.5,13.6-4.6-7.2-5.7-10.1-9.5-13.6Zm-719.7-56.8c1.9-.4,3.4-1.5,5.1-2.2,52-22.5-4-.8-5.1,2.2Zm383.6-53.5c1.6,0,10.2-7.6,9.8-11.6-.3.2-13.7,12-9.8,11.6Zm491.1,327c0-2.2,3.7-14,0-14.6-1.7,2-1.8,16.3,0,14.6Zm-207.2-92.4c-8.4-9.7-2.3,5.7,0,9.3,1.5,1.3-.8-7.4,0-9.3ZM269.6,127.6c0,0-.1,0-.2,0,0,0,.1,0,.2,0Zm632.2,209.7c1,4.9,19.1,21.9,18.8,22.8,7,17.4,8.1,26.3,18.6,39.5,3.9,16.5,1.6,31,20.2,38.5-11.1-10.9-2.8-11.6-7.2-20.3-7.8-9.1-4.8-9.4-5.2-21.9.5-5.9,4-5.2,0-7.6,0-.7-7.3-19.8-9.4-20.7-4.9-2.3-6.2-3.5-8.3-8.6-.4-.8-35.8-34.2-27.5-21.8Zm-9,261.4c-.4-.2-6.5-3.8-12.7-7.4,3.9,2.9,23.1,15.4,12.7,7.4Zm-327.7-207.2c68.7,91.1,41.7,122.7,167.7,154.9-7.1-20.9,16.5-15.9,1.5-26.1-31.9-20.6-63.3-51.2-92-71.9-14.2-20.4-36.1-30.1-60.1-53.9-23.2-28-17.7-23.2-33.3-49.5-5.8-11.5-5.4,21.1,16.3,46.5Zm173.3-311.7c-2.9-1.8-24.7-52.6-17.6-23.6,8.2,21.5,56.1,73.6,17.6,23.6Zm51.2,33.5c7.6,40.2,64.7,72,64,109.2-2.2,64.8,58.4,68.1,85.2,112.2,4.6-3.6,28,62.1,28.7,71.8,5.9,23.6,30.9,60,21.4,36-12.4-44-15.1-88.9-29-131.6-1.7-18.6-17.6-25.2-22.7-40.3.5-7.6-7.7-16.5-10.2-21-9.4-15.2-20.4-21.8-29.9-49.7-1.2-3.8-6.4-7.5-10.3-8.9-32.3-14.7-63-64-86.8-91.5-6.5-5.3-32.7-35.5-43.4-48.3-6.8-3.3-2.7-2.4-6.6-3.8-23.9-7.3,3.9,23,6.3,24.4-.6.7.7,1.2.8,1.9h.2c13.8,13.8-2.2-.6,19.9,24.5,12.4,14.1,12.1,13.9,12.5,15Zm-522.5,15.9c.6-.4,1.2-.8,1.8-1.2-.7.3-1.4.5-1.8,1.2Zm2.3-1.6c-.2.1-.3.2-.5.3,0,0,.6-.3.5-.3Zm724.2,233.5c-.8,18.8,29.9,29.9,26,51.4,1,12.5,16.1,19.1,21.1,27.4,8.2,13.5,60.8,68.5,67.5,62.3-22.3-18.1-36.1-35.7-50.9-57.2-3.6-5.6-6.6-12.7-8.6-19.4-4.9-8-11.9,6.3-12.7-5.6-.4-8.7-4.1-18.1-7.7-28.5-3.8-15.6,16.2-17.6,6.6-33-4.8-2.1-3.6-4.7-6.5-4.6-31.1.5-32.3-48.8-52.3-56.9-.2,17.3,21.4,49.5,17.5,64ZM553.3,96.8c2.8-.4,5.5-5.9.2-1.3-.6.5-.6.8-.2,1.3Zm-241.4,353s.2.3.4.3c1.2-.2.6-1.9-.4-.3ZM779.3,57.2c.7-.3.3-1.1-.2-.9-.7.2-.4.9.2.9Zm-351.6,185.6c14.6,4.1,10.6-18.9,19.9-29.3,7.8-6.3,27.4-7.6,31-10.4,31.1-12.5,4.9-22.4,7-26.5,9.8-8.5,40.4-40.4,47-53.6,61.3-66.6-52.9,32.1-68.3,52-15,7.6-45.7,58.8-36.5,67.8Zm832.4-31.6c11.4,10,4.3-24.2,6.2-26.6-2.9,12.3-14.1,16.6-6.2,26.6ZM3.9,208.3c13.2-43.5,21.4-22.6,49.6-46.1,8.8-8.2,6.2-10.4-1.1-15.1,2.7-7,40.1-38,42.5-48.5,53.1-63.4-76.5,50.1-80.4,62-3.2,3.8-8.9,14.9-13.1,23.9,1.5-.5-3.1,36.7,2.6,23.7Zm41,233.5c16.3-3.4,59.3-45.3,52.6-56.3-13.1-7.7-15.1,15.5-26.7,23.2-16.3,4-63-2.3-48.5,19.9,2.5,1.3,3.8,4.1,2.3,6.1-7.4,5.5-8.8,4.2-23.4,13.3,0,0,0,18.1,0,18.1,19.7-9.3,39.7-19.4,43.6-24.4Zm1193.4,26c-9.4,8.1-59,42.4-14.4,17.8,2.1-5.5,50.8-9.7,42.4-37.6-12.9,7.7-27.6,17.5-28,19.7ZM385.1,253.6c0,.3,0,.2.2.1h-.2ZM770.1,45.8s-.1,0-.1,0c0,0-.1.3.1,0Zm0,0h0c.1,0,.1,0,0,0Zm-39.2,221.5c17.3,20,19.4,30.7,34.5,51.5,3.1,3.6,1.2,10.5,11.3,18.2,2.5-2.2-.8-.6-5.9-14.4-6.1-20-12.2-19.1-21-37.3-3.3-7.7-9-13.8-13.3-21.5,1.2-4.9-5.1-5.8-6.5-9.6-8.9-16.1-18.7-16-26.7-37.9-5.6,3.6,14.4,49.8,27.6,51Zm330.7,261.6c-44.3-36.8-150.6-50.6-214.4-42.8-26.5,3.5,96.1,38.5,107.5,52.4,22.6,12.8,91.2,12.2,100,32.2,1,14.9,71.4,67.4,80.6,64.8-11.9-33.4-64.1-74.5-73.7-106.6Zm-119.7,215.7c-.8-11.8-8.7-12.1-19.1-18.1-14-9.4-10-30.5-34.8-58.5,4.9,45.9,37.6,95.1,60.1,116.1-3.4-7.6-12.8-30-6.2-39.5Zm84.5,374.2c-29.6.9-71.2-8-99.2-9.6-13.7,2.3-30.7,6.1-41.7,11.6-1.5.6-1.1,1.6-9.6,3.8.2,1,1.9,1.3,1.8,2.3-10.8-5.8-37.6,8.9-48.8,15.1,10.6,3.8,8.1-2.3,33.3-7.2,23.9-2.3,47.8,7.9,68.1,1.2,7.5-2.7,3.6-7.3,8.9-7.1,19.7.6,15.6-3.4,23.9-5.1,42.2-7.3,154.7,9.9,63.4-4.9Zm-294.2-584.9c-5.1,37.1,44.2,28.8,68.1,40.9,8.5,3.8,11.5.2,29,16.1,29.3,17.1,74.5,42.5,111.4,60.8,30.9,17.7,26.8,8.9,62.4,42-19-32.6-45.7-48.8-83.5-65.9-9.1-4.8-21.4-25.1-20.3-17.6-1.2-12.5-22.4-18.3-30.6-27.7-6.3-22.6-16.1-9.6-24.9-39.6-12.9-25.2-92.7-29.7-111.5-9Zm415.2-84c4.4-8.5,8.2,8.8,14.8-39,2.9-9.6,1.3-19.8,4.3-29.4,15.7-41.6,19.7-101.5,30.8-144.4,3.7-32.6-5.7-49.1-14.9-73.6-6.9-15.1-18.3-56.5-31.6-63.7-13.7,31.4,20,63.8,28.6,94.7,25.4,69.5-32.1,208.4-36.2,256.8-1.5,4.8,2.8.6,4.1-1.4Zm41.6,74.3c-18.1,11.3-63.9,36.3-82.5,55.4,40.1-8.6,92.5-19.8,132.9-28.8,26.5-4.5,18.5-2.2,26.8.6,8.5-89.5-16.6-62.2-77.2-27.2Zm-119.4,580.7c-7.2-2.7-6.2-5.6-10.4-10.8-3-2.4,2.9-6.7.9-9.2-.3-.4-14.2-.7-16.2-6.6,1.1-.7,4.1-5.3,2.8-6.4-22.3-4.7-60.5-34.1-16.4,3.9,11.7,29.2,45.7,34.4,63.5,48.7-2.3-7.9-18.7-15.4-24.3-19.6Zm-316.1,6.2c-13.8,10.5-90.9,53.8-48.8,13.3,28.6-16.2,55.9-28.6,72.9-63.1,6.3,8,9.3,5,15.2,6,9.2-21.5-.8-34.4,18.1-12.4,14,.5,24.4-16.3,28.7-27.8,2.1-5.3,28.2-33.4,30.3-36.7,1.7,11.5,16.6-9.9,25.1-18.1,30.1-20.6-41.5,71.3-49.9,64.5-14.6,4.9-6.4,5.3-7.6,12.7-19.8,20.1-39.9,47.6-63.9,46.6-1.5,4-10.5,8-19.9,14.9Zm54.9-34.9c.2,0,.3,0,.5,0-.2,0-.5,0-.5,0Zm-15-8.6c.5.3,1,.9,1.7,1.8-1.1-1.5.4-.8-1.7-1.8Zm301.8-76.3c4.5-11.2,5.5-35.6,2.4-43-4.4-33.9-20.8-84.4-43.8-114.5-6.3-24.9-21.6-83-33.5-98.7-12.7-10.7-14.8-8-24.9-9.9-39.2-2.6-33.7-13-53.5-34.2-14.7-19.7-45.2-56.4-66.4-69.1-20.4-3.6-36.2-19.4-55.4-24.1,70.9,33.8,79.1,58.9,130.4,138.7,9.2,6.1,17.2,55.3,34.7,67.9,26.8,19.7,36.5,32.1,53.5,55.8,38.1,29.8,46.6,65.2,44,120.1-5.5,2.3,12.5,74.3,12.1,48.4-1.1-12.3-3.7-26.9.3-37.4Zm-132.1-185.5c-4.6-7.2-5.7-10.1-9.5-13.6-1.3-1.2-1.9-.4,1.2,3.6,0,2.4,11.2,16.3,8.2,10Zm65,95.1c25.9,8.7-60.2-55.5-65.5-71-30.8-54.4-63.3-99.9-97.4-150.6-2.2-5.6,5.9-3.9,1.8-8.3-1.2-8.2-10.1-19-14.2-23.2-26.5-40.3-68.3-52-108.8-60-4.1.7-25.3-29.7-43.9-33-8.3,2.2,38,70.4,38.7,66.2-.9-2.4-1.1-1-2.1-1.8,2.2-2,4.3,3.4,5.9,1.5,1.8-2.9,4.2-1.1,3-4.3,1.3-2.7-1.1-1.6-1.2-2.2.9-1,2.9-.6,4-1.6.2-1.6,1.8-1.6,2.7-2.4,1.7-2.6,2.5-3.6,3.7-1.3-1.5,3.4,1.7,2.4-1.2,6.4,3.1,1.8.3,4.6,1.4,6.7,2.6,4.1-1.6,3.4,4.7,7.5,4.3.2,4.5,2.7,7,5.3,2,.6,1.5,1,1.2,3.2,2.1-.1,4.1,2.3,3.6,3.4-.6,1.3-5.7-2.9,2,5.6,4.7,2.3,5.5-3.3,9.4,4.4,1.7,1.2,4.8,8.5,7.5,10,0,2.6,1,4.1,3.6,3.5,5.5-.3,1.3,4.5,2.9,6.8,1.2,1.2,1.2-1.2,2.2-1.4,2.5-.2-2.4,3.4,1.2,4.2,2.6,7.1,39,41,50,45,20.4,9.8,35.1,27.6,39.6,37.7,53.9,46.3,48.8,99,138.3,143.7Zm-174.4,199.6c0-4.4,43.2-36.3,45.5-43.7,1.8-12.3,3.7-16.1,14.4-25.4,15.4-13.3,1.7-16.5,18.2-38.7,5.2-8.6,33.6-60.2,13.3-38.7-12.9,8.6-36,56.9-41.2,60.8-37.4,31.5-58.6,42.6-82.8,76.9-35.6,23.7-74.5,31.9-78.9,79.1,15.6-23.8,19.1-24.3,33.5-26.9,15.8-4.4,21.9-33.6,41-32.1,3.5,1.9,2.4-1.5,19.8-8,13.1-4.9,13.1,1.9,17.1-3.4ZM58.2,156.2c-4.9,9.4-21,14-33.3,27.1-4.6,12,47.5-23.3,45.7-23,1.8-5.5,37.5-36.2,15-22.7-17.6,10.8-19.9-7.4-27.4,18.6Zm-51-25.4h0c0,0,0,0,0,0Zm28.9-26.9c12.2-9.1,50.7-18.7,76.5-26.7,6.7-3.1,27,.7,35.5-6.8,15.8-12.1,24.1-15.7,40.2-21.6,25.6-16.7,38.5-16.7,69.3-4.3-.3,3.7,39.5,6.2,26.6,1.6-6.2-2.1-9.2-.9-14.5-4.6-7.7-5.3-15.9-11.5-24.5-11.8-19.4-3.5-46.5-2.7-66.2,5.2-14-.8-45.9-2.3-56.3,1.9-15.1,10.7-15,31.5-29.1,33.7-13.5,4.5-67.2,28.7-57.5,33.2ZM3.1,290c1.1-2.2,2.3-4.5,2.8-7.1,1.7-1,2.2-3.8,4.1-3.2-.2-1.6,1.3-3.2,2-2.9.9.4-1.6,4.5,3.4-1.9-.1-5.2.6-7.4,6.5-11,1.8-1.1.1-2.6,1.7-2.7,3.9.5.5-6.5,3.7-5.3,4.8.7,1-1.4,1.8-2.5,2.8,1.9,1.6-1.9,4.8-2.2,2.6-2.7,36.8-54.3,21.2-42-.3.3-15.7,14.2-17.3,7.4.4-4.3,4.6-12.9,9.5-13.9,24.3-15.2,37.6-30,52.2-49.9,14.4-13.9,33-25.4,50.4-57.1-37.6,28.2-68.8,57-101.6,92-7.5,8.7-12,10.1-18.2,15.4-3.4-.5-1.6-4.2-4.8-.6-11.9,5.8-15.5,15.7-24.1,25.7,1,.4-2.1,64.2,1.8,61.8Zm180.3-152.9c17.7-10.6,33.9-16.1,54.1-31.6,4.3-7.4,51.2-11.4,55.8-21.6-26.1-1.5-53.7-.9-78.6,5-3.8-.2-8.8,5.2-12.1,8.5-4.5,2.4-9.4-.6-13.7,3.3-6.4,2.5-4,1.7-9.5,5.2-6.2,7-27.5,9.3-36.5,20.2-9.4,20.2-43.4,35.8-60.2,50.7-10.1,5-26.6,20.9-40.4,29.5-2.8,4.7-1.8,1.7-3.1,4.5-7.2,16.6,14.1.7,15.8-1.6,1.8,0,4.7-3.9,5.4-3.9,2.7-2-.8,2.1,13.2-8.4,10.1-7.5,9.9-7.3,10.6-7.5,25.8-.6,51.2-39.3,74.5-34.1,14.1,5.9,30.5-3.3,42.5-14.4-5.5,5.8-38.5,15-18-3.7Zm922,958c-21.4-17.1-33.4-33.3-48.4-53.3-2.8-6.4-6.6-8.8-8.6-16.4,0-7.3-7-12.4-11.2-7.5-6.1-1.2-5.6-24.7-11.6-33.6-3.8-15.6,16.2-17.6,6.6-33-4.8-2.1-3.6-4.7-6.5-4.6-31.2.4-32.2-48.9-52.2-56.9-1.2,8.7,10.5,34,13.6,41.2,6.5,29.7,3.8,38.1,27.7,58.1,2.4,28.9,6.5,25.4,23.1,43.7,8.2,13.5,60.7,68.6,67.5,62.4Zm-859.5,157.7c-10.2-6.2-22.7,2.6-36-1.2-229.4,31.6-62.7-54.7-205.1-114.8-8.2-14.3-1.4,49.7-3.5,48.7,7.2,1.2,11.5-5.1,15.6-7.8,7.4-2.2,35.1,7.4,38.2,23.3,12.8,38.1,16.1,37.2,7.1,32.4-17.9-9.3-37.8-9.8-60.9-18.8,0,0,0,51.5,0,51.5,31.1-1.6,225.6,6.7,244.5-13.3Zm199.7-18.8c-23.9,11.2-63,22.8-98.4,32.1h-59.5c11.7-6.5,13.6-9.7,17.3-8.8,17.4-18.6,47.4-37.7,51.9-74,5.3-36.6,30.3-48.1,53.9-71.5,2.4-2.1,5.5,2.1.3,5.5-.9,2.9,4.9-.9,5.1-2.3,21.2-18.6,16.2-9.5,41.4-45.2,28.3-33,53.5-23.1,76.2-59.3,15.5-4.6,25.9-21.6,35.2-30.1,7.6-6.8,11.4-25.3,7.9-33-3.9-12.9,3.6-30,19.4-31,3.7-1.1,8.9-6.2,13.2-2.9-5.3,6.8,9.1.2,10.8-1.1,1.9-1.1.2,2.7,1.8,1.5,1.7-1.1,3.7,0,5.3-2.6.4-.8,1.7-.5,2.1-1.1-2.4-3.6,6.7-5,11.1-7.8,19.3-11.4,9.2-5.1,13.4-8.5,10-5,24-4.6,37.3-4.9,24.4-3.9,63.9-17.3,86.6-18.4,21.2-3,36.8-6,58.2-13,1.6,21.7-53.4,34.8-109.1,63.2-4.9,2.4-4.5,1-7,2.3-7.1,1.6-6.7-3.4-12.4,1-16.8-2.5-40.1,10.2-68.7,27.5-3,7.1-11.7,6.9-18,15.9-20.7,14.9-19.7,13.8-19.9,15.3-2.3,1.4-.9,2.9-4.9,3.4-6.2-.2-3.3,1.5-4.8,1.9-.9,3.4-10.2.5-13.3,1.4-2.9.8.3-2-6.7,3.4-13.5,15.4-12.4,14.1-13.5,16.3-42,66.3-75.5,63.1-103.5,136.7-46.1,57.2-80.8,69.1-115.9,105,24.5-11.2,43.7-23.1,70.1-33.7,19.9-11.6,38.4-9.7,41.5-35.1,8.1-12.1,20.3-8.3,31.1-13.2,12.6-4.8,3.3-15.5,11.4-21,5.9-17.5,28-23.9,45.3-22,25.9-8.9,18.8-12.4,29-22,16.1-20.4,29.4-20.2,41.1-17.8,10.6-1.9,25.2,14.2,29.3,11.7,11-4.5,31-25,44.4-31,32.7-25.4,81.8-28.3,116.2-45.5,44.9,13.7-128.2,45.4-149.8,105.4-14.3,11.8-65.3,14.3-79.2,13.8-49.2,10.3-57.2-8.8-61.7,26.2-8.8,41-2.6,37.7-61.4,67.8Zm-93.9-31.7c.5,0,1.1,0,1.5-.3-.4.2-1,.3-1.5.3Zm-88-608.8c25.5,3.4,23.5,6.2-.3,4.1,64.3,14.1,97.8,53.4,173,61.6,4.5,20.2,24.8,42,52,39.9,29.2-6.4,32.9-15.4,74.3-11.2,15.4,2,22.5-5.8,37.5-.5,21.4,12.7,76.9,32.1,77.9,19-21.3-24.5-45.2-11.3-59.5-37.8-13.8-19.4-84.1-15.9-100.9-33.9-18.7-18.1-29.9-13.4-38.2-13.1-30.8-29.2-20.4-24.4-72.4-20.5-13.5-2.8-51.2-19.8-63.6-12.6-3.5.9-14.4,3.9-16.7,1.3-1.5-5.4-52.8-.9-63,3.8Zm-87.4,344.9c-17.4-67.3,6.4-41.8-4.9-85.9-8.1-20.3-33.1-25.7-47.1-36-28.1-21.1-30.7-31.2-70.9-67.2,13.4,32.7,43.6,67,62.5,92.2,6.9,9.2-11.1,19.2,12.9,28.3,4,1.2,3.7,5.7,6.8,12.8,4.6,10.7,9.6,4.5,12.4,14.4.2.7,9.6,39.6,14,45.2,6,12.7,19.2,9.1,14.4-4Zm-110.2,76.9c-6.5-5.3-28.5-38.6-32.1-38.3,3.4,7.6,12.9,30,6.2,39.5,1.6,11.6,3.7,8.2,14.2,16.1,25.7,17,3.9,6.5,32.6,52.2,24.4,31.5-21.4-75.1-21-69.4Zm603.8-331.7c-1.4-5.1,14.9,14,14.5,14.9,8,8.3,16.6,8.2,28.3,17.2,3.2,7.8,24.9,28.9,35.8,23.4,4.9-7.2,1.8-19.2-6.8-23.4-30.8-14.6-54.7-28.6-79-52.4-6-4.3-7.5-4.9-7.3-3.6-1.6,2.9-5.3,1.1-1,5.2-.6,1.9-5.4-1.4-6-.3-.6.9,2.6,1.9,3.5,2.1,3.6,1.5,6.3,1.6,4.7,3.2-7.4-1.1-2.1-.3-1.7,1-1.7,1.8-8.4-4.1,7.3,7.3,8.9,6.9,26.7,29.4,7.7,5.5Zm-296.1,185.6c-6.8,17.6,7.6,34.1,21.8,19.9,11-5,21.8-5.6,24-23.8-3.3-21.6-15.6-24.9-18-45.8-1-2.8-5.4-7.8-6.7-5.4-4.6-10.3-14.2-30.5-15.8-30.5-4.3-6.4-7.1,11.3,3.8,25.6.3,1.7,1,2.7.7,5.4-.4,8.2,3.8,6-3.5,12.6-2,8.8-.1,15.2-.5,22.3.4,11.4-4.4,1.3-5.8,19.5ZM3.2,689c6.1,2.3,13.4,1.6,20.2,6.4,16.6,7.2,25.8-4.6,42.4,1.2,7.1,4.7,18.8-7.6,25.8-3.6,40.2,21.2,31.8,22.9,56.8,38.6,3.6-3.4,26,26.6,27.4,26.3,13.5,14.7,6.9,24.8,34.6,56.5,26.9,26,17.3,54.5,43.9,67.5,18.6,23.6,38.1,39.7,41.4,77.2.4,29.1-6.9,17.1.6,44.7-2.7-.6-2,2-1.4,3.4,8.6,11.2,1.6,49.5,4.4,56.1,5.6-19.6,4.7-39.8,6.6-53.7,13.1-51,10.8-116.6-27.6-142.6,0-3.7,2.1-3.6,2-9.3-2.8-32.7-1-47.7-23.1-73.1-19.6-22.7,1.5-12.8-37.3-43.4-26.2-26.2-43.3-17.3-60.2-37.4-18.8-27.2-57.6-72.5-71.1-79.7-45.3-30.5-95.3-27.2-32.3.9,9.7,4.5,44.6,32.2,48.2,35.8,7.2,6.7,2.2,4.1,17.2,20.7.6.7,29,29,12.6,17.8-47.7-32.5-91.3-30.6-133-59.7,1.9.6-3.3,52.9,1.9,49.3Zm74.1,19.5c18.9,2.1,5.4,8.8,11.8,8.9,9.4,3.3,28.4,8,33,9.7,4.7,7.2,32.6,47.9,43,51.7.3-3.6-41.6-57-60.4-71.4-4.6-2.6-49.7-9.9-27.4,1.1Zm130.9,286.1c-4.6-18.5-16.1-25.9-22.5-41.6-6.4-13.3-7.5,5.3-10.9,9.6-1,5.6,6.6,12.4,6.6,18.3,3.1,9.5,20.1,22.8,22.4,35.8,6.7,27.9,27,15.1,4.4-22Zm651.4-31.5c-21.9-8.9-125,28.3-147.1,23.9,68.3-51.8,144.9-30.5,187.1-127-25.1,8.3-51.6,28.8-72.2,39.6-13.2,1.1-29.7,7.4-42.8,8.3-53.3,17.6-67.8,29.8-113.3,82.5-6.6,6.4-18.6,19.7-31,19.4-22.1,3-38.9-22.6-53.3-6.5-25.5,22.2-20.6,32.4-41.1,54.1-4.8,2.8-5.6,5-7.7,8.4-2.9,8.5-31.7,32.1-29.9,29.4-55.2,53.1,72.7-22.2,83.4-39.3,15-17.5,65.5-7.7,90.3-24.8,70.4-38.1,115-35.7,185.3-66.4,2.4-1.7-1.5-1.2-7.8-1.6Zm383.8-579.1c-22.6,2.4-30.6-11.8-41.1,6.4-13.5,22.3-11.2,25.1-16.7,42.8-2.9,14.9-25.1,61-32.9,67.5-8.2,11.5-21.8,48.8,23.2-6.1,15-16.4,39.2-33.9,45.8-55,13.5-21.6,20.5-14.2,44.6-25.8-3.5-38.4,12.9-40.6-22.9-29.7Zm-1207,6.3c51.9-50.3,76.4-52.4,128.5-98.6,1.4-4,18.1-8.8,30.6-17.3,1.9-2.3-1.8-.7-7.9.7-12.2-6.8-91.3,48.9-107.8,52.5-50.2,29.2-16.7-2.6,9.5-27.9,61-32.4,87.2-57.4,104.8-121.8,14.9-38-47.1,39.2-55.2,45.2-12.3,4.9-26.4,15.5-38.7,20-51,30-60.9,65.7-95.4,125.8-5.5,3.7-2.9,38.9-3.5,44.8,10-4.4,32.8-20.2,35.1-23.4Zm-18.2,718.1c3.7,7.1,31.9,17.9,44.5,24.5,9.2,4.8,21.2,24.8,20.3,17.5-.4,10.3,18.5,16.1,30.7,27.7.9,8.1,10.5,18.4,13.6,17.9,3.6,1.9,4.5,3.8,4.7,6.9-.7,2.2,7.3,11.8,6.6,14.8,9.2,14.3,20.9,17.5,47.7,19.8,18.1,3.4,52.9,3,63.9-11,4.7-29.8-24.3-27.8-46.4-34.5-23.6-9.2-24.7-.7-50.8-22.3-27.8-15.4-64-37.4-100.6-54.9-20.1-10.3-32.9-16.6-51.1-27.7-1.2,14.1,4.5,8.9,16.9,21.3Zm953.7-156.5c-3.7-13.3-12.1-32.1-22.3-48.2-3.6-6.4-2.9-19.9-5.4-17.4,3.9-4.3-5.1-16.3-7.7-26.8,4.2-12-5.7-13.5-.2-28.4-1.9-20.7-38.4-56.3-60.7-61.8-16,15.9,17.8,35.6,24.5,51.5,16.3,27.7,33.2,70,53.1,103.3,10.9,22.1,12.1,17.1,20.8,48.9.5-9.1-.5-12.2-2.2-21Zm-746-240.7c-4.5-10.3-36.1-56.1-42.5-59.7-.1-13.2-34.4-33.3-38.6-28.8,8.4,13.3,11.3,23.1,23.9,32.6,7.5,2.8,6.7,1.4,7.5,4.6-.2,10.1,8.7,14.1,13.9,23.7,1.8,2.4-1.3,2.8-12.7-4.8-12.6-8.4-13.2-4-17.5-8.3-6.2-6.3-6.8-29.3-22.1-29.7,1.5,1.6,2.4,3.5,3.5,5.4,2.3,4.7,5.7,8.1,6.1,15.8,3.8,19.7,42.7,26.8,49.8,36.7,5.9,4.3,2.1-7.8,9.7,4.5,4.2,5.4,13,6.2,15.1,11.4,5.2,2.8,10.4,9.7,17.3,13.9,21,25.5-10.2-17.5-13.5-17.1ZM1265.1,148.2c.1,8.5-15.4,31.9-.5,9,2.9-2,1.9-19.7.5-9ZM11.1,132.4c19.7-15.3,40.9-57.8,50.9-79.5.4-1.4,2.8-31.3-.6-23.1-2.5,4.3-5.8,7.1-8.2,10.5-6.3,4.6-5.8,10.7-10.2,16.2-4.1.7-1.8,17.1-4.6,16.3-9.5,3.6-9.9,13.3-16.9,21.6-1.6,2.5-3.1-.2-.2-13.5,3.2-14.8-1.2-13.8,1.3-19.3,3.9-2.2,32.3-37.3,15.7-26.3-3.5,3.9-5.4,8.3-12.4,11.5-6.7,6.1-13.3,19.2-11.6,29.4-2.2,20,.4,23.2-4,30.4-1.2,6.5,2.9,1.1,3.1,4.6-5.9,5.2-4.6,18.1-8.4,23.3-.6,2.3,0,6.3-3.7,9.6,0,0,0,9.9,0,9.9,6.9-9.3,5.8-14.3,9.8-21.6Zm369,537.6c37.2,40.1,20.8,37.6,54.8,77,6.7,7.4,5.2,30.7,40.4,31.1,28.4.4,25.4,3.3,40.6-6.1,5-3.2,3.8-2.9,1.1-2.9,5.8.3,5.9-2.7,2.6-5.2,121.4-51.7,7.2-21.3-41.3-34.1-13.1.9-22.1-5.1-34.8-21.1-5.7-7.3-15.2-19.6-24.3-21.1-9.2-3.2-66-56-39-17.8Zm339.1,174c-29.5,2.1-91.9,12-115.7,33-1.5,2.3-16.9,4-19.1,5.5-9.4,6.4-24.1-5.2-30,4.9-11,29.4-23.1,47.7-45.6,65.8-5.3,7.2-29.2,15.5-33,17-9.7.4-5.5,36.9-19.1,48.2-103.8,83.7-99.7,121.7-155.9,197.9-3.3,1.3,12.1-17,10.9-16.8,1.9-4.7,7.1-21.8,10.4-27.6-.6-8.5,14.3-38.8,22.3-55.2,1.7-5.6.4-9.4,2.9-6.4,0-1.7,1.4-3.3,3.5-3.5-10.8,5-8.6-7-2.5-13.1-1,8,2-.5,4.2-1.5-8.2,23,15.2-16.6,24.3-21,1.9-8.6,10.9-11.1,13.5-18.2,16-25.9,47.5-60.9,50.6-85.6-10.1-26.7,48.4-36.6,47.2-65.2,9.4-30.1,23.8-70,65-63.2,6.6-4.1,21.8-10.9,32.8-10.2,52.4-1.9,111.6,2.9,174.5,2.8-5.1,3.6-31.7,3.7-30.6,7,2.6.4,5.1-.4,7.8-.4,2.5,2.8-10.5.8-12.8,2.6-3.7,1.2,7.3.6,9.4.7-.7,1.2-.8,1.5-15.1,2.7Zm-371.8,266.7c0-.1-.1-.3-.1-.4,0,.2,0,.3.1.4Zm.3.5c.2.5.3.8.1,1.1.2-.4,0-.8-.1-1.1Zm528.7-285.3c5.3-1.9,4.1-1.2,12.4-4.6,11.9-8.7-21.6-.5-25.5-2.3-12.5.8-13.6,3.7-25.6,7.2-17,5.5-30.6-6.4-42.6,7.5-5.7,5.3-4.5-2.6-13.5,7.8-2.9,1.3-9.3,3.1-13.6,3.1-16.2-.3,0,1.7-12.1,5.6-3.8,1.2-15.4,6.1-15.7,6.7-6.3,1.5-2.5.3-8.4-.6-7.9-2.8-16.4,6.7-25,6.6-12.6,3.3-33.1,1.5-43,8.5,12.6,1.4,20-2.8,29.1-1.6,24.7-.2,20.3-6.5,35.5-7.3,10.4,2,33.5-12.6,35.9-2,17.2,3.5,34.3-6.9,51.6-14,32.8-11.2,37.4-6,60.4-20.6Zm-555.4,276.7c8.8-8.7,10.2-26.2,15.7-29.3,11-12.3,28.1-18.9,36.9-32.1,18-26,8.3-28.5,13.9-40.2,7-14.6,13.8-23.4,14.8-28.5,6.2-11.9,15.9-17.5,25.7-29.3,18.8-22.8,7.4-27,27.8-42.6,17-13,31.5-51.3,25.5-43.3-9.5,8-21.9,13.7-31.3,17-19.1,17.3-23.7,9.4-38.5,23.3-12.4,6.9-21.7,17.3-34,24.1-4.7,5.6-16.1,5-21.2,8.2,1.3-20.7-7.1-46-1.3-63.8,7.6-27.9,6.2-54.5.7-62.6,9-27.7-32.3-65.1-55.7-85.8-15.8-14.3-52.3-51.7-75.7-64.4,19.1,36.3,44.2,83.7,63.8,120.1,18.2,36.6-2.7,34,14.8,75.1,10.5,32.3,36.6,70.5,30.9,107.9.3,27.9-.4,35.5-10.8,51.8-7,18.8-20.7,96.2-1.8,94.4Zm417.3-80.4c-34.2,16.9-49.9,15.8-79.3,25.2-5-.6-13.4,7.9-15.2,12.5-3.2,1.5-14.4-1.2-19.3,1.5-10.2,2.6-9-2.5-14.3.2-9.9-1.1-9,11.4-17.8,11.6-3.3-1.6-29.8,5.9-26.8,8.3,6.6-2.4,12.8-4.8,13.1-3.3-8.9,3.2-33.4,20.2-15.7,11.6,11-6.1,22.5-10.8,35.8-10.1,16.4-10.8,10.7-6.3,34.4-7.9,2.3.6.2,2.5-1.7,2.2-6.5,7.6,13,2.1,14.5-.9,21.5-9.7,30.7-9.8,38.7-17.5,8.5-5.1,20.3-10,30.2-14.5-7,2.8-14.5,3.5-7.5,0,10.6-1.8,8.2-4.5,30.6-13.1,16.4-5.8,33.4-21.7.3-5.6ZM120.7,611.1c-24.9-7.4-32-32.2-68.8-43-28.6-7.2.4,5.2.8,8.3,16.4,7.9,19.1,17,40.7,28.1,3.1,4.9,51.3,19.9,27.3,6.7Zm439.7,109.6c24.4,2.9,78.5-3.6,34.8,14.4-15.1,7.5-10.3-.2-15.4,7.5-5.6,2.3-2.3,4.8-4.2,6.6-11.1,1-13.5,9.8-24.3,15.3-43,24.5-33.7,25.6,10.1,5.2,21.2-.8,41-18.5,57.4-28.6,19.3-7,35-6.3,46.8-15.2,9.6-9-20.7-1.2-38.7-6.6-7.3-3.3-11.4-8.2-21.7-10.8-15.5-4.3-20.5,4.5-35.9,2.1-4.3-1.4-2.9,2.5-11.4,4.2-13.1.7-28.5.4,2.5,5.9Zm-157.5,371c-15.6,5.1-33.5,30.3-40.5,46.2-1,1.2-1.4.3-2.2-.6-2.2,10.3-6.9,2.5-7.6,12.8,1.9,4.8-3.5,5.8-4.3,9.2-.5,2.8-1.2.3-4.2,2.6-5.1,14.4-21.3,38.8-31.5,53.7-11.1,25.2-9.2,22.4-16.6,25.9-13.3,6.4-17.2,11.7-10,7.8,31-9.6,41.7-49.2,63.2-77.8,7.1-8.1,8.7-12.8,13.1-17.4.6-1.4-3.3-.5-2.1-3.6,10.1-15.9,20.3-32.3,31-42.7.4-.3,22.2-16.9,11.8-16.1ZM1.9,618c-1.4,1.1-.2-14.4-.6-14.4,5.2,4.3,24.6,6.9,24.8,16.7,6.3-1.2,58.3,36.1,28.5,25.3-9.9-8.1-30.4-20.8-45.5-19.9,2.3-4.7.3-5.4-.6-8.4-1.7.8-4.5,1-6.7.7Zm7.3-10.2c0,.1,0,.2,0,.2,0,0,0-.2,0-.2Zm-.6,9.1c0-.3.2-.7.5-1.2-.4.8-.5,0-.5,1.2Zm18.3,436.2c20.4,26.4,51.3,67.4,79.8,85.9,20.4,3.6,36.2,19.3,55.4,24-50.3-30.1-72-33.5-107.9-105.3-4.4-8.9-3.8-8.5-22.7-33.2-7.4-5.2-18.1-48.7-30.2-64.4,0,0,0,77.7,0,77.7,15.7,2.2,15,3.5,25.5,15.4Zm429.3-233.1c-3.4,11.5,20.6-2.9,20.6-8.2.6-3.1,16.2-6.6,6.8-9.2-4.7-6.6-14.8-.9-11.1,3.9-12.3-21.4-14.2-5.3-24.1-22.7-2.1-5.2-5.9-6.7-6.8-1.3-1.8,2-6.2,6.6-1.6,9.8,15.6,8.2,27.5,5.3,16.3,27.6Zm437.5,112.9c3.5,14.4-23.1,22.1-13.6,29.3,4.1,1.5,9.3,10.7,13.7,2.3,9.2-25.6,2-43.5,36-24.2,2-25-14-25.8-21.6-42-7.7-17.7-12.4,18-4.1,17.4,1.3,0,1.7-2.6,3.6-1.7,1.2,8.7-10.3-.6-13.9,18.8Zm-602.8,228.9c-13,40.3,21.1,47.4,18.1,0-6.4-44.3-10.2-30.2-21.5-64.2-9.3-37.3-9.5-72.4-9.7-109.4-4.6-28.7-42-64.5-55.9-85.5-12.8-17-2-39.5-26.7-62.3-21.7-38.8-60.6-63.9-86.6-90.4-17.5-17.9-30.8-25.2,3.7,12.8,15.4,22.9,40.1,56.3,50.6,66.9,16.5,23,21.8,16.8,27.6,50.1,6.5,7.9,1.3,14.2.9,25.8-1.4,20.3,7.3,34.7,14,54.4-7.9,21.5,30,47.3,28.4,69.4,7.3,43.1,48.1,80,57.2,132.3ZM2.5,696.5c-1.8-3.3-1-.4-1.2,1,1,0,1.4-.6,1.2-1Zm214.4,344.3c2.4,3.9.9,10,3.6,12.4,1.4-.2,1.3.4,3.6,4,2.5-9-10.3-22-7.2-16.4Zm218.2-89c12.3-20.3,43.8-41.8,48.2-66.3.9-9.6-2.9-10.4,23.2-32.6,2.7-2.3,9.8-8.9,11-12.2-9.5,6.2,2.1-1.5-20,16.1-19.1,11.3-28.9,49.7-42.4,65.2-13.1,17.6-26.8,24.8-37.7,42.5-4.3,14.4-18.3,23.3-19.9,34.5,1.8,25.1,12.8,5.4,17.6-6.5.2,1,10.8-13.9,7.6-15.4-5.9-1.5,2-4.3.9-8.5,8-10,10.6-15,11.6-16.8Zm218.3-200.1c-19.6-3.7-19.4-4.6-35.4,1.4-4.6.2-12.3,2.1-12.6,7.2-31.7,35.4-92.3,18-124.7,69.6-20.7,27.8,46.4-34.5,96.6-27.7,39.4-13.4,70.5,21,121.3-9.6,46.4,18.2,105.5,25.6,130.6,18.5,29.1-24.8-9.2-44.5-31.3-62.2-15.9-13.7-23-47.9-54.1-61.1,16-9.1-36.7-36-30.7-34.5-39.2-25-5.9-41.7-39.4-42.3-2.1-4.9-4.7-2.8-7.9-7.1-48.5-27.4-27.1,14.3-96-8.7-17.8-4.4-35.2-11-52.3-14.5-5.8-1.9-1.3.1-13.8-2.7-1.5-.8-3.5.6-3.6,2.1,2.1-.6,3.1,1.2,1.8,1.4-4.4-2.2-.8.1-11.8-1.1-5.2-.6-27.9-5.4-9-.3,21.9,7.7-40.9-6.9-38.5-3.3-.1,1.4,6.1.7,8.9,2.3.2,1.6-2.9.3-3.9.6-13.8.3,32,3.9,31.3,9.9,34.8,20.6,64.5,25,99.4,44.8,12.9,8,53.5,15,72.3,11.9,5.8-2.4,11.2,9.8,16.9,10.8,72.5,45.9,61.5,20.6,116,98.9,17.5,14.4,19.5,16.6,3.7,12.7-28.8-13.7-34.6-3.1-68.8-21.8-21.2-20.2-49.7-2-65,5ZM24,959.2c-12.9-15,1.5,7.8,4.3,9.5,3.2,2.5-3.7-7.8-4.3-9.5Zm724,66.3c-1.9.4-3.4,1.5-5.1,2.2-52.1,22.5,4,.8,5.1-2.2Zm-392.8,62.1c-4.3,9.1,10.2-8.2,10.2-8.1-2.6-2.4-6.8,5.1-10.2,8.1Zm-272.1-245.8c-.6-1.6-1.5-8.1-3.6-6.2,1.5,2.9.7,5.7.9,8.8,6.4,6.4,4.6,2.3,2.7-2.6Zm-20.6,161.4c14.2,20.6,43.5,56.4,54.5,80.1-12.7,12.6,49.3,73.6,66.2,74.7,20.9,8.8,37.3,8.4,55,14.9,4-.8,25.4,29.7,43.9,32.9,8.4.2-33.2-64.5-38.7-66.1.9,2.4,1.1,1,2.1,1.8-2.2,2-4.3-3.4-5.9-1.5q-1.6,1.9-3.5,2.2c.9,8.5,4.4,1-4.9,8.3-1.7,2.5-2.7,3.7-3.7,1.3,1.5-3.4-1.7-2.4,1.2-6.4-1.4-1.3-2.2-3.1-1.2-5.1.6-2-2.9-3.5-.6-5.7-2.7-1.9-5.5-4-8.9-5.1-1.7-3.9-4.7-3.7-3.7-6.8-2.1.1-4.1-2.3-3.6-3.4.6-1.3,5.7,2.9-2-5.6-4.7-2.3-5.5,3.3-9.4-4.4-1.8-1.2-4.8-8.5-7.5-10,0-2.6-1-4.1-3.6-3.5-6.3,1.3.6-11-5.2-5.4-2.5.2,2.5-3.4-1.2-4.2-10.3-19.2-54.8-49.6-75.1-60.3-21.5-36.2-26.6-31.6-47.1-57.4-15-22-26.8-49.4-58.4-77.2-2.5,18.2,4.4,24.9,18,39.7,20.6,23.3,24.7,52.7,43.3,72.2Zm652.4,37.6c0,0,.1,0,.2,0,0,0-.1,0-.2,0ZM83.4,834.5c2.6-5.6-19.6-24.4-19.5-26.2-8-15.4-5-24.8-16.7-35.7-7.6-16.3-.7-32.2-20.4-41.8-1.9-1.6-2.5.5-.1,1.4,8.6,11.3,4,6.5,4.2,13.5-.8,6.2,10.5,12.2,6.6,18.7-1.4.9.2,1,0,8-.2,5.2-3,4.3-1.5,6.4,1.5.4,8.2,20,10.8,21.9,4.9,2.3,6.2,3.5,8.3,8.6,6.7,6.7,20.4,18.4,28.2,25.1Zm8.3-264.7c70.5,42.9,139.6,51,200.3,109,48.7,48.4,112.4,80.3,143.7,144.7,21.9,5.8-38.9-75.2-45.7-88.6-12-37.5-22.1-37.5-29.3-48.4-18.9-52.7-128.7-68-169.6-82.1-26.7.3-72.4-24.2-99.5-36-4.7-3.2-4.7-.9,0,1.3Zm172.1,542.5c-10.7-22-16.5-25.2-31.4-45-6.7-11.4,2.5,10.7,13.8,21.4,2.9,1.8,24.7,52.6,17.6,23.6ZM6.7,767.8c3.7,39.1,10.1,93.9,38.1,122.4,8.1,34.6,28.4,38.2,42.7,78.2,53.4,34.9,85.8,90.1,132.9,139.5,2.7,7,14,15,22.2,14.2,8.4-4.1-13.8-25.1-14.2-25.5.5-.6-.6-1.6-1-1.9-8.6-9.2-22.4-28.3-32.4-39.5-7.6-40.2-64.7-72-64-109.2,2.2-64.9-58.4-68.1-85.2-112.2-17.6-14.1-27.6-85.3-44.4-106.3-1.3,9.4,2.6,35.3,5.4,40.5Zm710.7,271.4c-.6.4-1.2.8-1.8,1.2.7-.3,1.4-.5,1.8-1.2Zm-2.3,1.6c.2-.1.3-.2.5-.3,0,0-.6.3-.5.3ZM8.4,871.3c.7-5.2-3.2-16.3-7.1-26,.3,7-2.6,23.5,7.1,26Zm422.7,200.4c-2.8.4-5.5,5.9-.2,1.3.6-.5.7-.8.2-1.3Zm241.4-353s-.2-.3-.4-.3c-1.2.2-.6,1.9.4.3Zm-467.4,392.6c-.7.3-.3,1.1.2.9.6-.2.4-.9-.2-.9Zm351.6-185.6c-14.6-4.2-10.6,18.9-19.9,29.3-7.8,6.3-27.4,7.6-31,10.4-31.1,12.5-4.9,22.4-7,26.5-9.8,8.5-40.4,40.4-47,53.6-61.8,67.2,53.2-32.4,68.3-52,15-7.6,45.7-58.8,36.5-67.8Zm42.6-10.7c0-.3,0-.2-.2-.1h.2Zm-385,207.8c0,0,0,0,.1,0,0,0,.1-.3-.1,0Zm0,0h0c-.1,0-.1,0,0,0Zm11-255.5c10.8,19.1,20.9,34.5,31.5,52.2,11,10.7,17.7,16.4,24.3,32.7,3.4-5.6-.8-9.1-9.7-33.1-6.6-18-14.5-12-17.9-17.9-14.9-20.5-14.7-15.5-25-38.3-2.9-6.8-7.1-7.7-9.5-13.1-3.1-3.6-1.2-10.5-11.4-18.2-.5,2,12.3,32.9,17.6,35.7ZM38.8,6.6c39.3,9.9,114.8,4,155.8-5.6,2.6,2.7-290.2-6.2-155.8,5.6Zm234,1.6c-27.8,25.5,36.4.3,74.3-7.3-13.1.5-64.5-3.3-74.3,7.3Zm978.6,249.7c-8.7,30.9,3,31.9-18.7,62-26.9,44.6,28.3-9.5,33-17.1-3.2,3.5.5-1.6-.4-2.9q-1.2-1.1-1.6-2.5c-1.3.6-2.7.2-2.6,1.6-.7-2.3-3-5.1-4.4-6.2,0-.5-.1-1.6.6-1.4,1.3,1.4,2.4-2,3.4.5,1.2.4,2-2.5,3.8-1.2,4.9,1.4.2-61.3,1.8-62.5-7.3,9.3-14,19.6-14.9,29.8Zm-31.1,826.7c-7-8.2-16.9-16.7-25.4-39.6-7.8-16.8-34-31.2-43.1-45.4-27-45.1-19-32.8-28.8-75-16-56.8.5-36.1-4.9-102.2-1.5-16-4-4.9-4.5,2.6,0,0-4.7,56-4.7,51.2-17.9,109.9,65.8,126.4,77.6,204.6-45.1-3.9,23.4,104.8,79.9,104.6,0,0,0-51.4,0-51.4-24.2-19.3-33.9-38.9-46-49.3Zm-27.5,105.8c-.3-13.7-68.6-65.6-80.7-64.7,13.5,33.7,63.7,76.7,75.7,108,.7,4.1,52.7,30.3,78.6,32.3,0,0,0-51.5,0-51.5-16.4-7.9-73.5-7.7-73.6-24Zm.8-580.1c-.3-.7-16.7-5.1-36.7-6.6-35.4-4.9-24.1,12.2-18.2,13.2,23.1,11,50.1,14.7,64.7,41.5,2.4,2.4,8,5.9,11,6.5,3.5,2.6.2,2.9,7.8,3.1,3.1,5,1.3-.7,7.6,4.3,3-.1,2.5,3.2,5.7,2.7,2.1,0-.1,2.3,3.3,3.3,15.5,3.6,15.3,4.5,27.6,10.7-1.8-55.9,14-56.4-72.8-78.8Zm-58,176.7c-3.5,25.3,4,58.7,1.8,85.1,5.8,12.3-2.7,28.4,1.8,38.3,4.2,12.1,10.4,26.8,17.2,35.8,1.1-1.2,3.7,10.2,7.1,6.3-4.3,10.4,14.2,32.6,21.7,41.6,3.8-5.5-13.5-24.8-15-40.4,2.8-23.4,2.4-44.9-13.3-56.3-2.1-17.6-5.5-13.5-8.3-20.7-16-44.3-3.3-61.8-13-89.7Zm108.6,280.3c7.5,13.5,12.4,18,22.2,28.6,2.2-12.8-11.4-16.5-22.2-28.6Zm-177.9-310.5c-13.7-40.2-19.5-70.6-53.6-93.5-4.5-4.4-39.3-36.9-32.4-18.4,9.6,20.6,30.2,26.5,45.4,41.7,37,34.3,50.8,136,64.5,166.4.7,3.3,1.7-.5,1.8-2.2-.4-6.6,7.3,2.6-4.7-28.4-1.6-6.7-5.8-12.4-7.3-19.1-1.3-5.8-9-38.3-13.6-46.5Zm128.5,410.6c15.6,9.8,2.5,17,19.6,20.2,6.4-3.6-36-41-37.5-38.9-2.4.8,15.2,16.6,17.9,18.7Zm-17.7-511.2c7.2,2.7,6.2,5.6,10.4,10.8,3,2.4-2.9,6.7-.9,9.2.3.4,14.2.7,16.2,6.6-1.1.7-4.1,5.3-2.8,6.4,14.3,4.7,19.5,5.9,33.8,14.8,7.4,7,3.5-5.7-14.2-14.2-4.8-7.6-17.7-26.5-21.7-28.2-10.7-8.2-38.9-18-45.1-24.9,2.3,7.9,18.7,15.3,24.3,19.6Zm76-53.6c-11.2-8.4-29.4-14.2-48.3-15.4-6.6,3.6,17.6,6.5,17.9,10-6.6,2.1,20.1,6.7,22,7.3,9.2-1.7,25.8,4.4,15.7,14.7,8.3,3.9,5.8-11.4,6.1-15.5-1.6-.3-11.4-5.8-13.4-1Zm8.8,354c8.1-2.3,3.4,78.3,4.6,81.1-3.8-.5-8.6-1.1-14.7-1.9-31.1,3.7-37.3-40.9-49.1-70-2.7-24.1-13.5-51.8-29.7-68.4-8.1-18.8-21.9-68.8-23.7-84.5-5.5-13.8,2.2-40.8,4.9-58.6.6-7.2-5.1-22.9-2.6-30,24.7,36,1.3,100.1,20.5,124.4,10.9,23,8.8,34.7,36.2,52.2,17.1,23.8,26.8,35.9,53.6,55.7Zm-112.4-144.3c0,.1-.1.3-.2.5,0-.2,0-.3.2-.5Zm-10.3,286.7c-.9,1.8-.5,2.4,1.3,2.7,3.8,4,1.4.4,0-4.5-4.2-15-20.2-35.1-20.8-34.8,1.2,4.8,18.8,30.3,19.4,36.6Zm119-409c-1.3-.4-1.4-.3-2,1.2.3,2.6-5.5-4.3-7.5-.7,10,8.7,28.5,8.7,9.4-.5Zm-135.2-29.8c3.1,22.2,9.9,52,13.1,58.1,5.4,8.2,4.4-21.9.2-41.8-4-19-19.9-30.8-13.3-16.3Zm15.5,106.6c1.7-2,1.8-16.3,0-14.6,0,2.2-3.7,14,0,14.6Zm80.4,93.5c-21.4-3.3,43.7,40.9,47.6,49.6,5.3-26-25-38.8-47.6-49.6Zm39.9-141.2c2.5,10.9,5.5,16.8,7.7,26.8,0,0,0-18.4,0-18.4-4.7-7.5-8.4-11.7-7.7-8.4Zm-2.7,88.3c.8-18.8-29.9-29.9-26-51.4-1-12.5-16.1-19.1-21.1-27.4-8.2-13.5-60.8-68.5-67.5-62.3,22.3,18.1,36.1,35.7,50.9,57.2,3.6,5.5,6.6,12.7,8.6,19.4,4.9,8,11.9-6.3,12.7,5.6.4,8.7,4.1,18.1,7.7,28.5,3.8,15.6-16.2,17.6-6.6,33,4.8,2.1,3.6,4.7,6.5,4.6,27.9-1.2,30.7,38.8,45.1,50.8,4-17.8-13.2-44.8-10.4-57.9ZM1266.3,1h-1.3c.4,0,1.3.6,1.3,0Zm-300.8,21.8c27.2,11.5,52,50.8,63.8,61,6.9,8,17,16.8,25.4,39.6,38.9,43.4,66.3,63.4,72,120.4,17.2,53.4-4.1,49.1,6.7,110.3,4.7-1.9,5.5-61.2,7.5-61.9,17.9-106-62-124.5-78.2-204.2,17.6-7.3,24.4.7,8.3-32.7,0-.8-12.9-30.1-43.7-54.4h-96.5c9.3,10,21.5,18.3,34.9,21.8Zm160.9,15.2c27.6,24.6-4.1-26.5-16.8-37,0,0-34.6,0-34.6,0,17.9,15.9,47.6,35.3,51.3,37ZM466.6,110.9c-20.4,6-32.2,50-60,68.4-3.1.8-12.3-2-13.3,1.3-1.4.4,1.4,2.1-4.8,1.9-3.9.3-2.7,2.2-4.9,3.4-.2,1.5.7.4-19.9,15.3-6.4,9-14.9,8.6-18,15.9-36.5,22.6-54.4,29.8-81.1,28.5-24.5,9.3-52.5,23.7-70.5,30.7-29,13.4-32.4,14.6-50,34.7,21.8-3.1,40.5-11.3,62.6-12.9,20.4-2.2,59.2-10.8,81.6-18.6,10.7-.4,29.3,1.5,37.4-3.4.6,1.5,20-11.4,30-15.5,2.3-.9-2.5-1.9.1-2.5,2.3-1.7,4.2-2.8,6.6-3.3,1.7-1.2-.1,2.6,1.8,1.5,22.3-12.2,2.2,7.3,21.1-3,37.9-7.8,14.1-32.8,24.8-57.3,8.3-10.3,16-24.4,31.5-32.6,6.5-4.1,13.7-8.6,17.9-16.3,35.2-34.4,54.4-20.6,89.2-77.6,7.7-5,17.1-15.4,24.2-19.3-7.9,16.1,10.8-1.5,14.6-6.7,76.1-61.9,3.8-38.4-39.3-42.6-36.4,33.1-30.9,78.2-81.6,109.9Zm5.8-89.2c-22.2,9-102.9.6-135.5,20.5-6.7,18.1-26.8,31.5-42.3,41.4-35.7,24.9-78.9,33.5-111.3,53.4-22,23.4,20.5,3.5,26.7-.2,5.5-1.3,34.4-5.2,44.1-9.9,30.4-10.8,69-38.1,93.3-55.7,20.9,8.5,45.6,27.1,70.3-6.2,18.7-36.2,58.9-8.1,74.3-44,7.6-5.2-.1-15,9.4-20.1-25.4,1.3-20.5-7.9-29,20.7Zm155.2,1228.6c8.4,29-68.6,10.9-79.4,15.7,21.2-22.7,40.1-32.8,51.6-42.4,26.1-23.3,30.9-27.8,46.3-40.6-23.7,10.6-44.3,23.6-70.1,33.7-20.3,11.9-38.2,9.5-41.5,35.1-4.8,2.6-8,11.8-18.8,10.3-13.2,2.2-25,5.2-37.9,3.8,8.6-40.9,2.8-36,61-66.4,55.5-24.6,259.8-80.6,140.6-23.3-16.7,17.8-47.9,38.2-51.9,74Zm3.7-18.8c.4-.2,1-.3,1.5-.3-.5,0-1.1,0-1.5.3ZM932.1,53.5c3.4,1.2,11.8,6,10.9,5.7,30.9,17.6,26.8,8.8,62.4,41.9-19-32.6-45.7-48.7-83.6-65.7-9.1-4.8-21.4-25.1-20.3-17.5.7-22.9-52.9-16.1-67.1-16.9,29.7,14.2,61,35.8,97.7,52.5Zm140.7-33.7c.2-2.8-17.5-22.1-24.5-18.8,9.2,6.9,25.6,21.1,24.5,18.8ZM630.2,3c-8.2,11.5-1.7,5.2-8,11.4-.5,1.4,3.3.6,2.1,3.6-4.4,8.4-19.8,28.7-20.7,32.2-2.9,5.3-32.1,24.6-22.1,26.6,15.6-5.1,33.5-30.3,40.5-46.2,1-1.2,1.4-.3,2.2.6,4.4-11.1,7.5-3.4,8.5-18.6,1.6-.9,3.4-1.1,3.5-3.5,1.7-2.6,6.3-2.1,7.2-8.2-2.5.7-12-1.7-13.2,2Zm37.2,1222.9c8.3-14,15.2-36.3,21-33.9,13.3-6.4,17.2-11.7,10-7.8-31.1,9.7-41.7,49.1-63.2,77.8-1.8,3.3-2.4,3.6-3.1,4,18.1,4.6,20.4-30.7,35.2-40.1Zm18.7-1181.7c28.4,45.7,9.6,109.5,28.7,155.7,3,15.3,42.8,55.1,47.8,65.6,12.8,16.9,2,39.5,26.8,62.3,21.7,38.8,60.6,63.9,86.6,90.4,17.5,17.9,30.8,25.2-3.7-12.8-11.4-15.3-9.9-15.1-16.9-24.5-22.1-29.9-29.3-36.3-43.4-55.9-11.2-7.2-11.8-9.1-15.5-27.8-.7-5.7-.6-7.2-2.4-8.7-6.5-7.9-1.3-14.2-.9-25.8,1.4-20.3-7.3-34.7-14-54.4,8.7-16.4-23.9-44.2-26.5-59-7.3-47.5-34.1-72.6-56-126.1-6.9-22.5,4.3-23.6-21.5-22.2.4,21.8,8,40.2,10.9,43.3Zm49.7-19.5c3,6.9,8.2,4.8,3,2.2,2.2-2,4.3,3.4,5.9,1.5q1.6-1.9,3.5-2.2c-.6-2,.3-4.3-1.7-4.3,3.8-.1,9.6-9.4,10.3-5.3-1.5,3.4,1.7,2.4-1.2,6.4,1.4,1.2,2.3,3.2,1.2,5.1-.6,1.9,2.9,3.5.6,5.7,4.1,3.4,8.7,4,11.4,8.7,2,.6,1.4,1,1.1,3.2,2.1-.1,4.1,2.3,3.6,3.4-.6,1.3-5.7-2.9,2,5.6,4.7,2.3,5.5-3.3,9.4,4.4,1.7,1.2,4.8,8.5,7.5,10-.3,4.5,4,3.3,6.8,4.2-.3,2.9-1.8,9.1,2,4.7,5.3,20.8,55.2,52.7,76.3,64.5,13.3,20.2,12.4,19.2,14.7,22.3,53.6,44.5,53.2,109.3,145.6,145-7.8-11.4-23.1-24.9-34.3-31.9-57.2-51.4-87-128.9-134.8-188.9-5.1-6.5,4.3-6,.5-10.4-3.2-13.7-14.2-22.7-22.3-32.1-18.3-26.2-55.9-45.8-85.9-45.6-25.2,3.4-51.3-12.8-25.3,23.8Zm134.2,1229.2c-1.5-14.4-14.4-14.8-17.3-21.5-6.3-17.6-7.6-25.2-29.8-32.6-16.3-6.2-74.8-11.7-88.7,6.9-5,37.3,44.2,28.6,68.2,40.8,7.1,2.2,17.1,4.1,31.9,18.4,10.1-4.6,75,11.4,35.7-12Zm-176.6-11.1c-9.6-12.3-16.6,0-18.3,23,0,0,19.4,0,19.4,0,2.8-14.6,4.3-18-1.1-23Zm58.2,19.4c-13.5-.4-24.8-28.2-49.5-34.7-5.5,5.7,8.5,22.6,19.5,38.4.8-1.8,61.9,4.1,29.9-3.7Zm9.4,3.7h5.9c-1.6.2-5.6-1.5-5.9,0ZM1180.3,29.3c-5.3,57.1,43.8,78.3,47.9,135.1,14.6,18.3-39.7,127.6-35.4,134.6,14.3-24.1,27.7-47.9,38.7-70.8,25.4-52.8,25.5-113.7,5.4-166.1-6.3-12.2-13.8-39.7-28-61.2-44.1,3.4-37.6-13.6-28.6,28.3Zm-116.6,1171.9c-30.7-28.4-112.6-43.1-164-44.2-24.2-9.1-218.2,29-137.7,24.2,27.2-.1,132-13.4,143.9,6.3,10.2,20.2.2,58.8,24.6,78.5,0,0,96.5,0,96.5,0-16.4-11-21.5-19.8-46.8-17.8-5.8-.3-9.2,5.9-12.7,7.7-3.6,0-21.9-.6-30.3-11.5-3.9-3.5-6.2-6.7-7.9-11.8-12.8-38.1-16.1-37.2-7.1-32.4,17.2,9.1,30.3,8.1,53.4,16.3,17.8,10.4,78.6,8.5,81,26.5,2.8,21.7,32,25.7,52.8,23-29.2-32.3-33.7-39.3-45.9-64.7Zm-18.2,51.5c-16.6-22.8-9.7,14.8,9.2,13.3-6-4.7-11.4-12-9.2-13.3Zm148.2,4.5c-40.3-41.3-75.1-74.4-134.9-94.4-29.1-14.4-44.2,2.2-2.5,10.8,1.7.5,39.3,17.4,46.1,23.4,20.1,25.3,49.6,44.5,67.7,69,0,0,38.9,0,38.9,0-4.7-3.4-13.6-8.2-15.3-8.8ZM639.2,22.5c4.7-3.9,9-25.8,22.3-21.5-2.3,17.3-13.5,31.3-21.3,50.9-1.8,5.7-.4,9.3-2.9,6.4,0,1.7-1.4,3.3-3.5,3.5,10.8-5,8.6,7,2.5,13.1.9-8-2,.5-4.2,1.5,8.4-23.3-15.3,16.8-24.3,21-1.9,8.6-10.9,11.1-13.5,18.2-16,25.8-47.5,60.9-50.6,85.6,8.6,19.8-25.3,31.5-38.8,46.1-7,5.8-6.7,15.2-8.9,20.3-4,6.3-4.8,13.7-5.3,19.4-2.5,4.6-18.5,32.8-22.5,33.6-5.1,7.2-27.5,10.3-39.4,9.7-53.3,24.1-107.9,2-175.1,7.3-22.8,2.3-40.1-2.1-1.1-5.4,6.8-2.6-3.1-2.3-5.8-1.7-2.5-2.8,10.5-.8,12.8-2.6-31.7-1.8,71.3-9,88.5-18.8,28.8-10.1,28.5-19.8,52-23,9.4-6.4,24.1,5.2,30-4.9,13.7-38.8,41-71.7,78.6-82.8,9.7-.4,5.5-36.9,19.1-48.2,70-62,93.9-88.9,111.4-127.6Zm-2.4,34.8c-.2-.5-.3-.8-.1-1.1-.2.4,0,.8.1,1.1Zm.4.7c0,0,0-.1-.1-.2,0,.1.1.3.1.4v-.2Zm32.8,1183.1c1.5-3.5,2.3-5.8,3.9-9.3-.5-.1,13.1-15.8,9.7-14.6-6.5,2.8-20.6,28.6-31.8,48.8h9.6c.8-4.4,7.9-20.9,8.6-24.9Z"/></svg>