<?xml version="1.0" encoding="UTF-8"?><svg id="a" xmlns="http://www.w3.org/2000/svg" width="1266.6" height="1267.9" viewBox="0 0 1266.6 1267.9"><defs><style>.b{fill:#ba9e6e;stroke-width:0px;}</style></defs><path class="b" d="m1253.9,1250.8c9.7.9,13.5,5.9,11.8,15.3,0,0-66.6,0-66.6,0,13.6-14.6,35.9-15.8,54.8-15.3Zm-1091.1,2.1c-27-6.9-54.4-10.3-74.7,13.2h113.4c-12.7-4.8-25-11.4-38.7-13.2Zm-162.1,2.7c.1,11.1-2.4,10.9,9.7,10.4-2.6-4-5.7-7.7-9.7-10.4Zm721.5,9.2c-15.3-18.4-39.4-17.5-60.9-14.2-16.3,1.3-37.5-.4-46.3,15.5h108.5c-.3-.5-.7-1-1.3-1.3Zm-262.5-10.4c-31.2-32.5-86.2-23.3-112,11.7,0-5.9,151.1,13.9,112-11.7ZM1190.7,8.2c-29.7,33.3-28.9,82-28.7,124-.7,9.2,4.3,16.7,9.7,23.6,2.3,9.9,6.4,18.2,10,27.4,89.5,80.6,86.2-20.6,84-86.2-42.3,74.8-9.8,81-60.5,63.4-25.9-8.1-21.3-36.2-20.1-57.8-1.4-39.8,42.6-88.1,80.5-56.6V1.1c-8.3,1.5-71.8-5-75,7.2Zm73.1,881.6c4.7-5.8.7,41.3,1.9,40.9-5.9,3.5-11.9,6.7-18.3,9.1-11.1,8.4-37.1-4.9-41.1,6.3-4.9,23.7-30.3,49.6-12.9,73.5,29,18.1,50.8,45.1,72.3,71.3,0,0,0,32.3,0,32.3-15.7-19.1-30.4-42.7-46.4-61.9-17.2-18.4-40.8-28.3-50.4-53.1-19.2-32.9,3.2-61.9,14.4-92,5.2-40,54.9-11.6,80.4-26.3Zm-86,96.7c0-.1-.2-.4-.4-.6,0,.3,0,.6,0,.9.1-.1.3-.2.3-.4Zm1.5-9.7c.3-.5.6-.9,0-2.1,0,2-.5,5.3,0,2.1Zm6.9-13.7c-.6-1.2-1.3-.2-2.1,1.1,1.1-.6,1.6-.8,2.1-1.1Zm3.3-4.3c-.5-.7-.8-1-1.3-.1.5.6.9.7,1.3.1Zm64.2-686.4c-69.1-15.9-83.3,56-77.6,108.5,7.8,40,37,69.8,72.1,87.6,5.6,3.7,11.4,7.1,17.5,9.9-1-10.1,4.9-33.7-9.6-36.5-34.3-20.5-63.2-53.4-53.2-95.4-7-43.1,41.1-22,62.7-10.6-3.2-8.7,9.6-70-12-63.5Zm-32.3,219.2c-39.5-1-86.8,31.4-90.9,71.8-1.4,18.3,22.2,19.3,25.3,35.7,5.8,45.9-9.1,93.6,13.8,137.6,24.6,55.2-10.3,107.7,13.2,119.2,6.1,3.9,14.7-4.4,17.4,4.3,15.1,21.5,54.1,11.6,65.4-9.6,0,0,0-45.1,0-45.1-13.2,18.6-35.6,23.9-56.5,28.7-8.1,3.7-3.1-10.2-3.4-14.5,8.9-51.1-23.4-96.3-24.2-146.1,6.8-40.4,6-81.2-21.4-111.2,28.9-45.4,70.3-45.1,105.6-7,0-42.5,9.8-61.7-44.2-63.7Zm-487.9,315.5c-7.2,15.5-4.3,33.4-9.8,49-15.5,25.5-46.5,35.1-73,24-29.1-3.3-50.1,29.8-80.3,31.2-25.6,3.6-73,19.9-84.5-12.7,3.1-14.3-14.8-17.6-17.1-30.6-10.6-31.4,26.8-44.1,37.8-68.3,14.6-28,11.5-66.9,39.3-87.3,30.7-20.3,69.2-25.3,104.2-34.5,25.1,2.1,58.4-8.5,74.5,14.8,9.3,47.8,35.1,60,8.9,114.4Zm-186.7,85.4h-.3c.2.3.3.3.3,0Zm163.3-124.4c-3.8-40.3-35.1-19.3-62.3-17.4-46.5,4.9-51.6.7-87.4,36.5-28,22.3-9.1,67.9-39.9,90.3,1.5,6.7,14.9.3,20.6-.6,12.8-3.3,27.4-.4,39.1-7.2,35.5-36.9,60.9-29.1,105.6-25.6,9.3-5.1,7-17.3,10-26.1,3.3-16.9,12.4-33,14.4-49.8Zm484.5,441.9c-20.4,13.6-47.3,11.2-67.3,26.2-25.9,11.4-55.4-11.7-59.8-36.9-2.7-7.8-8.3-12.6-16.2-14.8-20.2-8.2-38.4-19.9-52.8-36.3-15.5-15.1-41.7-45.3-14.7-61.5.8-12.5,6.2-25.8,19.2-30.1,18-5.7,34.9,7,53.1,3.7,20.9-2,39-15.2,60.5-15.7,45-1.4,104,66.4,120.7,105.5-3.2,6.8-1.8,16.3-10.5,19.3-11.5,11.8-16.5,31.5-32.1,40.7Zm-184.7-77.9h-.2c0,0,0,.2.2,0Zm177.2,38.4c-14.9-23-39-38.3-52.3-62.6-18.5-11.5-41.9-15.8-63-18-15.2,5.8-28.6,16.2-45.2,18.3-6.3,3.3-25-7.4-17.5,4.5,43.8,56.1,67.4,19.9,93.9,84,3.3,17.1,18.3,10.3,29.3,4.9,20.4-7.5,46-7.9,54.8-31.1ZM87.9,1.2c66.3-.3,176.1-16.5,183.7,79.1.7,48.4,57.6,102.5,3.3,141.6-16.5,16.4-36.9,6.7-55.5,1.5-36.1,2.1-59,40.9-94.5,48.8-54.2,26-118.4,8.2-103.6-62.6,1.2-27.9,24.1-48.6,27.5-75.8C61.3,90,56.6,37.1,87.9,1.2Zm1.1,112.1c-4.4,22.6-6.8,45.8-17.5,66.7-7.2,16.5-23.2,39.5-11.4,56.5,48,8.3,97-18.5,139.9-41.2,23.1-12.3,50.8,6.4,71.9-7.4,10.6-10.9-31.1-46.2-33.6-70.4-22.8-56.4-17.1-64.3-82.1-77.4-19.1-10.9-36.4-.4-54,7.7-8.8,19.4-6.3,44.5-13.1,65.5Zm59,559.5c-1.4-33.7,24.4-24.7,44.2-42.9,16-15.8,78.9-95.9,100.8-90.2,50.7-8,99.1,10.6,123.7,56.8,16.4,18.5,45.4,22.2,55.6,47,12.9,30.1,30.1,67.3,21.2,99.9-22.7,37.4-72.6,34.3-104.3,10.6-45.5-14.4-89.7,28.9-136.2,24.4-27.8-4.4-49.5-26.7-74.4-38.2-21.6-16.1-24.6-46.1-30.7-67.5Zm35.6,6.8c17,21.5,24.4,44,52.8,53.4,35.7,35.3,102.4-27.4,150.2-17.4,25,1.1,59.6,32.6,77.2,21.6,13.9-12.4-26.7-76.8-40.3-86.5-39.5-16.3-53.5-27.1-76-62.1-20.5-18.9-57.6-20.6-73.8,4-32.8,28.2-55.3,65.7-90.1,87.1Zm283.6-199.5c22.9-24.3,23.1-57.6,33-87.5,18.1-65.5,58-54.5,109.6-35.6,36.7,11.7,84.4-3.7,111,31.6,17.5,49,15,105.6,18.8,157.8,2.5,41.9-42.3,54.2-70.6,73.2-22,23-47,44.8-80.5,42.1-33-1.5-57.6-42.6-87.9-57.1-71.5-34.2-84.6-58.7-33.4-124.5Zm-8.7,68.6c3.2,17,57.1,12.3,73,27.5,31.3,10.8,58.1,68.2,93.4,43.4,26.2-27.9,63.1-40.5,94.3-61,17.3-26.5-4.2-55.3-15.3-79.8-8.6-20.5-10.6-43.3-21.9-63-32.9-29.3-82.6-1.1-120.8-21.2-10.4-4-17.8-7.7-27.9-10.5-8.9,17.7-7.6,38.6-13.6,57.4-10.9,39.1-41.3,72.9-61.1,107.1Zm-268.7-125.3c-32.2-85.8,47.4-156.5,118.5-188.3,50.9-6.8,124.1-3.3,149.5,50.1,38.3,76.3-14.2,177.2-93.8,199.2-60.3,14.4-141.8-3.7-174.2-61Zm40.8-42.5c-.8,49.4,59.2,43.2,92.9,55,69,11.4,137.9-41,113.8-114.6-17.6-58.7-78.8-39.9-124.3-49.8-13.3,1.3-19,18.4-31,24.4-32,16.7-60.2,46.2-51.4,85Zm260.8-127.5c-2.1-24.9,3.6-49.1,8.8-73.2,1.9-29.3,3.9-58.3,18.4-84.8,35.5-76.4,123.3-38,144.3,28.4,27.4,46.9,75.9,83,29.7,138.1-22.5,38.5-96.1,72.4-136.9,49.4-6.4-3-11.3-9.6-18.9-6-23.4-2.4-39.4-31.1-45.4-51.9Zm26.6-30.4c-.5,5.7,7.3,24.9,13.3,18.5.2-5.4,10.1-3.8,14.4-4.3,48.2,17.2,38.3,58.8,105.4,24.7,52.8-29.1,12.5-59.4.2-98.2.3-33.7-43.1-79.7-76.6-84.2-46.5-2.1-43.1,57.6-48.5,90.1-2.7,18-9.8,34.9-8.3,53.4Zm414.4,832c-5,44-71.7,50.5-108.2,54.7-13.9,1.8-27.4-.8-40.2-5.8-10.7-1.2-21.7.3-30.6-6.8-37.4-16.2-11.1-41.7-9.9-69.3,12.6-47.9,75.6-52.8,114.9-35.7,16.1,6.9,25.1,21.5,38.1,32.5,12.4,9.2,28.3,16.3,35.9,30.5Zm-29.1,9.6c-7.5-13.5-27.6-21.2-26.7-37.9-19.1-15.9-42.3-29.9-67.9-31.2-27.8-3.8-41.6,18.6-43.9,43-3.6,11.3-15.4,27.3.5,34.8,22-9.3,42.2,7.9,63.8,14.7,23.5.4,62.4-.4,74-23.4ZM13.2,145.2C31.6,113.9,47.1,9.4.7,1.1-.1,15.4.6,50.9,6.5,63.2,3.6,86.3-2,145.8.7,170.7c2.4-9.2,8.3-17,12.5-25.5ZM613.9,1.4c7.8,2.6,117.7-8.7,114.3,9.4,26.8,24.9,40.4,62.8,9.5,90.6-9.8,12.4-33.5,24.6-45.2,8.9.2-7.3-8.2-12.6-9.1-20.4-4.6-16.6-23.2-20.8-35.5-30.3-6-8.7-16.9-12.3-24.3-19.6-5.4-9.3-27-33-9.6-38.6Zm14.2,19.8c17.3,25.3,56.2,27.9,75.7,52.3,6.1,4.6,11,17.6,18.4,17.4,8.8-9.7,28.4-21,22.6-36.1-9-.4-8.6-13.7-16.3-18.2-9.4-7.9-9.7-24.2-21.6-30-17.6-5-34.9,5.9-52.8,7.6-7.5,2.4-22.9.6-26.1,7Zm432.3,648c-16.9-45.3-24.8-29.8-51.8-57.4-17-8.3-33.2-27.4-33-46.6,1.7-1.9,3.3-3.9,6.2-3.8,3.9-1.8,4.4-9.4,10.4-8.9,25.2-8.7,69-16.1,92.1,1.9,3.5,3.1,7.7,6,8.4,10.8,10.2,17.4,30.2,32,31.6,53.7,2.9,27.5-40,78.9-64,50.2Zm11.4-35.6c6.1,4.6,11.1,17.7,18.4,17.4,8.9-9.2,22.6-17.7,23.9-31.3.2-2-.8-6.5-3.5-5.5-7.1-.9-7.1-14.3-14.1-17.5-9.4-7.9-9.7-24.2-21.6-30-23.5-4-47.8,8.9-71.7,11-29.5,9.4,63.4,40.2,68.6,55.9Zm-345.4,318.7c1.2,17.9-9.8,32.5-19.8,47.1-11,19.5-23,40.5-47.4,44-36.8-2.9-90,7.1-111.4-32.6-13.1-22.2-26.4-75.7,11.3-78.1,2.9,3.7,7,3,11.2,3.2,13.9,1.9,27.6,10.7,41.8,4.9,13.9-5.2,27.2-11.8,42.1-10.9,19.6-9.3,40.9-7.9,61.2-.2,16,2.6,4.7,13.5,10.9,22.6Zm-30.3-9c-35.9-9.6-70.1,30.1-107.8,28-8.9,2.1-25.3-3.4-30.4,3.6,3.6,16.1,1.7,42.5,20.7,48.4,5.5-6.3,12.5-1.3,20.5-.7,11.5-.8,21.9-.3,33.3,2.7,25.1,9.9,36.2-16.1,42.2-36.3,5.7-16,15.7-29.9,21.5-45.7Zm-146,322.3c-48.5,7.3-26.3-14.3-46.7-42.8-29.6-36.1-72.3-88.2-28.8-130.8,23.5-16.5,55.1-5.2,81-16.4,100.3-18.2,112.3,4.9,116.6,99.2-7.1,8.4-21.5,7-29.8,13.4-16.8,16.9-41.4,22.7-55,43.2-11.1,12.5-19.5,31.4-37.3,34.3Zm-4.7-60.1c3.1,5.1,2,22.6,10.7,18.4,19.6-16.4,43.2-29.3,65.9-41.1,18-14.3-1.6-39.6-3.4-57.7-3.3-7.4,1.3-24.7-7.6-26.5-25.8,1-51.2.3-75.6,10.2-89.3-2.9-7.6,59.7,10,96.6ZM11.3,1136c35.1,48.9,79.2,29.5,128.5,46.8,52.1,16.2,59.4-47.6,48.7-84.3-1.1-4.1,4.7-4.3,3.6-8.7-3.1-11.6,3.5-27.2-3.7-36.7-57.7-22.9-74.2-55.7-103.8-108.5-13.8-18.5-46-68.9-70.6-60.3-22.2.7-10.8,32.9-13.4,46.3,48.9-49.3,81.1,58.6,104.8,89.5,14.8,23.6,38.9,41,59,56.1,2.7,14.9-10.2,28.7-11,44.2-3.7,8.3,6.8,31.6-4.7,31.1-64.6-22.6-103.4,4.3-148-60.8-.2,13.1-2.8,37,10.6,45.2Zm452.7-113.6c6.5,18-25.1,63.2-44.7,70.1-32.8,11.6-62.7-13.5-93.3-22-106.2-15.4-183.2-93.8-240.1-180-21.8-29.8-27.2-70.4,8.9-91.8,10.7-12.3,24.8-29.1,43.3-21.8,25.3,5.2,36.7,32.2,62.5,36.5,13.6,5.2,27.6-4.1,40.8,1.1,35.9,12.7,77.7-1.7,113.8-11.1,111.1-4.4,68.6,151.6,108.9,219.1Zm-35.6-5c-18.2-34.8-23.4-74.8-37.7-110.4-8.1-34-11.1-86.2-59.4-62.8-43.2,16.6-90.3,11.7-135.6,18.1-29.8,4.6-26.5-5.2-47.8-21.5-28.3-24.5-20.6-41.8-40.6,7.9,21.7,28.8,45.4,63.6,66,89.6,35.8,54.4,92.6,81.6,155.8,88.8,60.4,7.9,81.2,88.1,99.3-9.7ZM16.2,486.2c44.3,18.5,77.7,57.7,116.7,82.9,36.2,6.4,71.8-32.1,56.2-67.7-7.7-23.9-24.3-43.4-35-65.8-19.7-28.9,11.2-91.7-22-105.3-81.7,1-62.4-36.2-131.2-54.9.9,54-10.5,56,35.7,92.4,18,17.1,44,5.4,65.5,3.1,31.9-8.4,23,34.5,28.1,53.8,7.6,30.1,15.2,58.7,30.2,85.9,5.7,11.9,1.5,13.7-8.1,5.3-14.1-9.9-30.5-15.9-45.5-24.4-32.6-21.1-72-25.2-105.8-43.6,1.8,19.4-8,30.5,15.5,38.4Zm928.4,85.5c23.8,59.5,16.5,55.3-38.8,78.3-44.5,13.5-53.2,90.4-106.2,81.1-60.4-6.3-26.7-70.1-17.4-106.8,8.8-34.7,7.8-70.4,13.4-105.7,9.3-41.3,42-71.1,82.2-80.2,89.7-32,90.6,76.6,66.7,133.4Zm-25.3,44.1c-3.9-17.9-20.6-30.2-25.8-47.9-4.9-29.9,24.1-56.5,13.6-88.6-1.1-40.2-34.8-11.5-56.9-6.5-30.3,26.6-37.3,71-34.7,109.6,17,131-46.6,158.4,50,73.9,14-17.3,45.7-20.5,53.8-40.5ZM336.5,15.2c3.5-4.9,7.2-9.7,11.2-14.1,1.8,2.4,124.4-5.1,121.7,3.6,22.2,63.8,25.8,158.1-49.8,186.8-39.2,3.2-75.6-31.7-102.8-56.9-17.3-19.8,1.8-100.7,19.7-119.4Zm.8,71.1c33.7,15.9,63.6,51.9,102.4,51.1,29.8-12,29.2-50.8,23.3-77.2-4.5-12.9,3.5-29.9-10.1-36.3-15.9-23.7-53.8-26-77.2-11.4-21.6,17.2-39.7,45.2-38.4,73.7Zm405.4,133.7c-8.7-34.7,34.1-56.6,63.6-52.7,23.8.3,41.4,26.3,65.5,21.3,94.8-22.1,98.3-52.1,188,10.4,18.6,15.2,25.9,39.3,27.8,62.1,7.7,2.4-1.6,8.8,1.7,13.5,2.4,7.3-3.1,14.3-9.3,17.3-43.8,13.6-59.7,54.2-96,82.8-20.2,28.6-50.8,29.1-83,24.5-36.8-2.1-60.6-27.3-79.4-56.5-59.6-39.6-65.1-50.4-79-122.8Zm29.9-7.3c.3,18.1,27.3,63.7,42.5,75.9,18.6,11.2,41.9,14.7,55.2,33.6,18.4,32.7,44.1,51.2,80.4,39.2,36.4-33,65.4-75.8,104.3-101.8-17-21.5-24.4-44-52.8-53.4-17.2-16.7-37.7-12.9-57.9-4.2-20.6,10.2-43.6,13-65.2,20.3-29,18-113.6-49.8-106.4-9.7Zm213.3,756.9c-60.1,5.2-136.6,6.6-182.7-38.7-61.2-78.1,3.6-166.2,80-201.2,71.5-24.3,176.2-16.7,235,33.1,50.4,35.6,23.6,106.8-13.8,142-33.8,29.2-77.4,47.6-118.5,64.9Zm4-38.4c24.7-26,65-33.4,88-61.7,12.5-23.5,14-67.4-14.1-79.2-80.9-28.5-253-47.8-247.3,79,12.5,58.3,76.7,62.4,126.1,58.9,10.2,3.3,20.1,3.9,30.8,3.6,5.3,1.3,11.7,1.9,16.6-.8Zm40.6,298.2c-47.9-59-126.7-63.8-192.7-91.2-29.3-9-54,20.4-61.5,46.3-10.8,10-.6,20.2,2.6,32.1,4.8,16.4,9.7,32.7,13,49.5,17.3-3.3,44.8,11.4,28.3-18.4-2.7-18-22.3-39.9-12.5-56.4,6.2-8.2,1.8-19.8,9.8-26.8,19.5-5.8,45.4,31.3,73.3,32.2,136.1,17.7,87.1,78.7,174.8,69.4-11.2-12.7-23.1-24.9-35.2-36.7Zm58.1-886.1c36.5,0,55.6,50.3,68.7,78.7,1.1,48.8-69,115.4-120.7,99.2-25.8-8.7-49.9-36.6-38-64.5,3.6-51.3,33.3-109.1,90-113.4Zm-1.2,54c-27.1-42.4-64.3-2.5-68.1,32.9-7,19.9-10.9,29.6,3.1,47.7,29.3,35.6,84.3,14.5,101.7-22.9-5.9-19.6-26.5-38.1-36.7-57.7Zm-722.8,770c4.7,21.4-22,39.2-33,55.7-37.6,31.6-113.8,26.6-123.8-29.2,0-53.3,38.4-116.4,99.5-103.1,29.3,12.9,45.1,48.7,57.2,76.7Zm-31.6,22.4c-19.5-23.3-30.7-58.9-58.9-72.8-23.9-4.7-39.1,19.4-43.3,39.5-1.3,10.1-12.6,18.3-4.7,26.9,12.3,47.3,86.3,48.2,106.9,6.4ZM1.9,848.6c36-26.3,25.1-80.6,64.1-104.8,12.4-3.9,28.2-5.9,35.6-19,18.7-24,11.9-54.8,14.4-82.7,14.5-73.1-76.1-93.1-115.2-136.9,0,0,0,50.1,0,50.1,26.6,17,67,20.9,80.6,52.3,2.9,12.7-6.6,23.7-2.7,36.9,4.4,23.1,2,44.8-6.6,66.1-7.3,19.3-36.1,20.6-46.1,40.1-21.4,26.4-27.9,66.8-25.2,99.9.4-.6.7-1.3,1.2-1.9ZM538.2,10c4.7-.9,7.1-6.4,11-8.9h-28.4c4.4,5.2,11.4,10,17.5,8.9Zm255.9,13.6c1.7,45.2,16.1,110.7,74.1,103.6,20-3.7,38.9-14.2,59.7-12.9,15.2.6,31-3.2,44.5,4.6,10.4.3,20.5-4.1,30.8-.6,57.2,25.2,51.8,61.2,108-1.9,26.1-40.9-22.4-84.1-45.4-115.4,0,0-45.3,0-45.3,0,2.2,2.7,4.4,5.4,6.5,8.2,10.1,21.3,67.1,69.1,52.5,92-14.2,32.1-13.3-1.3-44.3-18-9.5-19.5-59.5-1.1-78.8-2.9-31.3-2.8-59.8,10.3-89.4,16.2-23.3-4.5-24.7-41.3-29.9-60.5-3-11.8-11.4-22.6-11-35.1-30.8,3.4-35.9-12.6-32.1,22.5Z"/></svg>