<?xml version="1.0" encoding="UTF-8"?><svg id="Layer_1" xmlns="http://www.w3.org/2000/svg" viewBox="0 0 1080.5 1080.5"><defs><style>.cls-1{fill:#ffb450;stroke-width:0px;}</style></defs><path class="cls-1" d="m1063.5,697.4c0,2.5-.7,4.7-1.5,7.2-4.3,1.1-8.6,2.2-13.1,2.2-160.7,0-321.4,0-482.1,0-3.3,0-6.5-.8-9.8-1.1-2-.2-3.5-1.3-3.9-3.7-.3-2.1-.8-4.1-.8-6.2,0-4.6-.2-9.3,0-13.9.4-9.2.9-9.6,10.1-10.1,1,0,2.1,0,3.2,0h484.8c3.1,0,6.3,0,9.3.9,1.5.4,2.4,1.1,2.8,2.5.5,1.6.9,3.2.8,4.8,0,5.8,0,11.7,0,17.5Z"/><path class="cls-1" d="m1064.4,246.7c0-8.5.6-5.8-6.1-11.2-7-3.6-12.7-8.9-18.7-13.8-.6-.5-1.1-1-1.6-1.6-2.4-3.5-5.2-6.5-7.7-9.9-2.7-3.8-4.7-8-6.9-12-2.1-4.1-3.3-8.6-4.5-13.1-1.9-6.5-3-13.1-3.9-19.8-.8-5.8-1.4-11.6-1.1-17.4.1-1.9,0-3.9-.5-5.8-.6-2.3-.6-4.8-.1-7.1.7-3,.8-6,.6-8.9-.4-7.2,1-14.3,1-21.5,0-.5,0-.9.1-1.3,1.2-4.8.7-9.8,1.5-14.7.7-3.8.5-7.8,1.3-11.5.8-3.8.8-7.7,1.4-11.5.5-3.1.8-6.2,1.4-9.3.9-4.8.4-9.5.5-14.3,0-1.2-.6-2-1.7-2.4-3.2-1.1-6.2-2.9-9.6-3.8-5.8-1.6-11.5-3.4-17.2-5.2-8.4-2.6-16.9-5.2-25.3-7.8-2.4-.8-4.8-1.6-7.2-2.3-3.8-1-7.5-2.1-11.2-3.3-6.8-2.2-13.7-4.4-20.5-6.5-5.1-1.6-10.3-3-15.5-4.6-4.7-1.5-9.4-2.9-14.2-4.1-5.2-1.3-5.2-1.4-9.4,1.7-.7.5-1.4,1.2-2,1.8-2.8,2.2-5.7,4.5-9,5.8-3.5,1.4-7.1,2.4-10.8,3-4.3.7-8.5,1.5-12.8,2.2-3.5.5-7.1,1.2-10.6,1.3-4.7,0-9.2,1.5-13.8,1.1-3.7,1.2-7.4.8-11.2.8-9,0-18,0-27,0-4.8,0-9.5-1.2-14.3-1-.3,0-.6,0-.9-.2-1.7-.7-3.5-.5-5.3-.6-1.2,0-2.4.1-3.6-.1-5.1-1.1-10.3-1.4-15.5-2.3-6-1.1-11.5-3-17.1-5.1-1.4-.6-2.6-1.5-3.7-2.6-1.9-2-3.9-4.1-5.8-6-2-.2-3.8-.3-5.5.2-2.4.8-4.9,1.2-7.4,1.9-6.3,1.7-12.6,3.8-18.9,5.7-4.1,1.2-8.3,2.5-12.4,3.8-6.3,1.8-12.6,3.7-18.9,5.5-4.3,1.2-8.6,2.5-12.9,3.7-3.7,1.1-7.5,2.1-11.2,3.2-4,1.2-8,2.6-12,3.8-8,2.4-16.1,4.6-24.1,7-2.7.8-5.1,2.3-7.8,3.7.1,4.5-.5,9,.5,13.5.7,2.9,1,5.9,1.1,8.9.2,4.9,1.4,9.8,1.1,14.8,0,.4.2.9.2,1.3.7,4.9,1.4,9.7,1.5,14.7,0,2.5-.1,5.1.3,7.6.3,1.9.6,3.8.6,5.8,0,8.8.1,17.7,0,26.5-.1,8.8.5,17.7-.8,26.5-.5,3.4-.3,6.8-.9,10.2-1.3,8-2.6,15.9-4.7,23.7-1.8,6.5-4.2,12.8-7.3,18.8-2.8,5.4-6.5,10-10.9,14.2-3.8,3.6-7.9,6.3-12.8,8.2-2.8,1.1-5.5,2.4-8.1,3.9-1.9,4.6-1.5,9-1.5,13.3,0,133.5,0,267,0,400.5,0,4.4.5,8.6,1.4,13,3.9,1.6,8,2.2,12.2,2.2,161,0,322,0,483.1,0,3.5,0,6.8-.9,10.2-1.2,1,0,1.9-.7,2.9-1,.7-3.4,1.4-6.6,1.4-9.9,0-136.2,0-272.4,0-408.6Z"/><path class="cls-1" d="m536.7,251.5c0-4.5-.3-8.9-1.4-13.5-1.1-.6-2.2-1.2-3.4-1.8-3.8-1.9-7.5-3.7-11.3-5.6-3.9-2-7.4-4.6-10.6-7.5-6.3-5.8-10.7-12.9-14.2-20.5-2.4-5.2-4.3-10.5-5.8-16-1.7-6.4-2.9-12.8-3.8-19.3-.4-3.3-.4-6.6-1-9.8-.7-3.9-.7-7.8-.7-11.6,0-8.4.1-16.8,0-25.2-.1-6,1.4-11.9,1-17.9,0-.3,0-.6.1-.9,1.2-4.2.7-8.6,1.5-12.9.4-2.3.9-4.7,1-7.1.4-5.4,1-10.7,2.2-16,.1-.6.4-1.2.4-1.7,0-4.8,1.6-9.4,2.3-14.1.5-3.6.6-7.1.2-10.6-2.1-1.6-4.3-2.5-6.5-3.5-1.2-.6-2.5-1-3.8-1.4-8.5-2.5-16.9-5-25.4-7.6-9.2-2.8-18.3-5.7-27.4-8.5-9.4-2.9-18.9-5.7-28.3-8.5-8.3-2.5-16.5-5.2-24.9-7.7-3-.9-6.1-1.5-9.2-2-3.2-.5-4.7.3-5.4,3.3-.7,3-2.6,5.8-2.2,9.1-2,8.3-3.6,16.6-6.9,24.6-3.9,9.6-8.1,18.9-14.9,27-5.1,6.1-10.5,11.9-17.3,16.1-1.4.9-2.8,1.7-4.2,2.5-6.6,4-13.8,6.5-21.2,8.2-4.1,1-8.2,1.5-12.3,2.2-3.9.6-7.8.7-11.6.3-4.3-.5-8.5-1.3-12.7-2.6-6.8-2.1-13.3-4.5-19.2-8.6-4.6-3.2-8.7-6.8-12.7-10.7-5.6-5.5-9.9-12-13.6-18.9-4-7.4-6.5-15.4-8.8-23.5-1.5-5.3-2.3-10.8-2.7-16.3-.3-4.4-1.7-8.4-3.3-12.6-1,0-1.9-.3-2.8-.2-4.3.6-8.6.9-12.7,2.6-1.1.4-2.3.8-3.4,1.1-8.6,2.5-17.2,5-25.8,7.6-7.3,2.2-14.6,4.4-21.9,6.5-10.6,3-21.2,6.3-31.8,9.3-6.3,1.8-12.7,3.5-19,5.5-4.8,1.5-9.9,2.6-14.4,6.1,0,2.8-.3,5.5,0,8.2.5,3.8,1.3,7.6,2.1,11.4,1.8,8.6,2.9,17.3,4.2,26,.5,3,.5,6,1,8.9,1,5.9,1.8,11.8,1.7,17.8,0,.8,0,1.5.2,2.2.9,2.5.7,5,.7,7.6,0,4.6,0,9.3,0,13.9,0,11.4,0,22.7-1.7,34-1.1,7.4-2.3,14.8-4.3,22-2.8,10.3-7,20-13.3,28.8-6.1,8.6-14.2,14-24.8,15.4-1.5.2-2.9.6-4.4,1-1.6.4-2.7,1.5-2.8,3.1-.1,3.7-1.1,7.4-1,11.2,0,132.4,0,264.9,0,397.3,0,4.3.1,8.7.9,12.9.5,2.9,1.4,4,4.2,4.5,3.4.6,6.8,1,10.2,1,158,0,316.1,0,474.1,0s6,0,9,0c3.2,0,6.2-.9,9.3-1.5,1.9-.3,2.9-1.5,3.2-3.3.5-3.2,1.1-6.5,1.1-9.8,0-133.4,0-266.7,0-400Z"/><path class="cls-1" d="m384.8,805.2c-1.8-.7-3.6-1.5-5.5-2-3.3-.9-6.6-1.7-10-2.5-6.4-1.6-12.5-4-18.7-6.3-4.5-1.7-8.8-3.7-13-6.1-6.5-3.7-12.7-7.8-18.8-12.2-4.2-3.1-8.4-6.2-12.3-9.7-5.6-5-11.3-9.7-17.1-14.4-1.9-1.5-3.8-3-5.5-4.6-6.3-5.8-13.4-10.5-20.6-15.1-6.7-4.2-14-7.5-21.1-10.9-3.5-1.7-7.1-3.3-10.8-4.4-6.7-1.9-13.3-4.4-20.4-5.1-4.7-.5-9.4-1.5-14.2-1.5-5.8,0-11.7-.6-17.4.8-3.5-.3-7,.4-10.2,1.2-6.6,1.7-13.3,3.3-19.8,5.8-9.8,3.8-19.6,7.3-28.7,12.7-5.4,3.2-10.7,6.5-15.9,10.1-8.1,5.6-15.8,11.8-23.6,17.9-8.5,6.7-17.2,12.9-26.1,19-4.2,2.9-8.7,5.3-13.1,7.8-8.7,4.9-17.8,9.3-26.9,13.5-3.9,1.8-7.8,3.7-11.7,5.7-1.3.7-2.6,1.5-3.6,2.9-.2,4.2-.1,8.5.8,12.8,1.3,6.1,2.1,12.3,3.2,18.5.7,3.7,1.7,7.3,2.1,11,.5,4.8,1.9,9.3,2.4,14.1.4,4,1.7,7.9,2,11.9.2,3.1,1.1,5.9,2,8.7.8,2.5.9,2.6,3.5,4.4-.8.5-1.8.3-2.7,1.5,0,4.6-.6,9.7.8,14.7.5,1.9.9,3.8,1.1,5.7.3,3,1.2,5.9,2.4,8.6.7,1.6,1.7,2.9,3.6,3,3.7.3,7.4,1,11.1,1,110.8,0,221.5,0,332.3,0s1.8,0,2.7,0c3.1,0,4.1-.6,4.7-3.7.7-3.2,2-6.2,2.3-9.6.1-2,.3-4.2.8-6.2,1-3.7.6-7.4.7-11.2,0-2.1-.6-3.5-3.1-4,1.9-.7,2.7-1.8,3.3-3.5,1.2-3.4,1.9-6.9,2.4-10.5.5-2.9.8-5.9,1.3-8.8,1.3-7.6,2.9-15.2,4-22.9.9-6.2,2.3-12.3,3.2-18.5.7-4.6,1.6-9.1,1.5-13.8,0-5.2-.5-4.6-3.9-5.9Z"/><path class="cls-1" d="m533.8,672.5c-3.6-.9-7.2-1.8-11-1.7-4.3.1-8.7,0-13,0h-26.1c-4.4,0-8.7,0-13.1,0s-9,0-13.5,0h-13c-4.4,0-8.7-.2-13,0-4.3.3-8.6,0-12.9,0-5.7,0-11.4,0-17.1,0-1.9,0-3.8.2-5.8.5-3.8.6-7.8.7-11.6,0-1.6-.3-3.2-.5-4.9-.5h-51.3c-1.6,0-3.2.2-4.9.5-3.7.7-7.5.7-11.2.1-2.5-.4-5-.6-7.6-.6-5.7,0-11.4,0-17.1,0s-11.4,0-17.1,0h-17.1c-5.7,0-11.4,0-17.1,0-5.7,0-11.3.1-17,0-22.3-.2-44.7,0-67,0-2.2,0-4.4,0-6.7.6-2.3.6-4.6-.7-7.1-.7-6.3.2-12.6,0-18.9,0-1.2,0-2.4,0-3.6.2-4.3,1-8.6,1-12.9,0-1.1-.3-2.4-.2-3.6-.2-17.2,0-34.5,0-51.7,0s-2.5-.2-3.6.2c-2.5.8-5,.7-7.6.7-2.9,0-5.7.3-8.3,1.4-2,3.2-2.6,6.6-2.5,10.3.2,4,.1,8.1,0,12.1,0,2.3.4,4.4.8,6.6.4,2,1.5,2.9,3.2,3.4,2.9.8,5.8,1.3,8.8,1.3,44.5,0,89.1,0,133.6,0,1.9,0,3.9.2,5.8-.4.4-.1.9-.2,1.3,0,2.8.9,5.7.5,8.5.5,11.8,0,23.7,0,35.5,0,99.2,0,198.5,0,297.7,0,3.9,0,7.7-.6,11.6-1,1.9-.2,3.3-1.3,3.9-3.2.6-2,1.2-4,1.2-6.1,0-3.9-.2-7.8,0-11.7.2-3.3-.5-6.5-1-9.8-.2-1.4-1-2.1-2.3-2.4Z"/><path class="cls-1" d="m947.9,817c-3-1.7-5.9-3.5-9-5-3.2-1.6-6.6-2.9-9.8-4.5-7.1-3.5-14.2-7-21.2-10.6-4.5-2.3-9-4.8-13.3-7.4-7.3-4.4-14.3-9.3-21.2-14.3-3.7-2.7-7.5-5.4-11.2-8.2-3.8-2.9-7.6-5.8-11.2-8.9-4-3.4-8.3-6.3-12.5-9.4-8.4-6.3-17.1-12.1-26.3-17.1-11.9-6.4-24.4-11.4-37.2-15.5-9.9-3.1-19.9-5.1-30.3-5.6-.9,0-1.8-.3-2.6-.5-4.8-.6-9.6-.8-14.3,0-3.4.5-6.8.8-10.2,1.3-6.2.8-12.3,2.2-18.4,3.9-4.2,1.1-8.3,2.6-12.3,4.2-5.6,2.2-11.2,4.3-16.5,7.1-8.9,4.6-17.5,9.7-25.6,15.8-4.8,3.6-9.7,7-14.2,11-2.3,2.1-4.7,4.1-7.1,6.2-3.1,2.6-6.5,4.9-9.3,7.8-4.1,4.2-8.9,7.5-13.5,11.2-7.9,6.3-16.3,12-25.2,17.1-7.9,4.4-16,8-24.5,11.1-7.7,2.8-15.8,4.3-23.7,6.7-3.4,1-6.9,2-9.7,4.1-1.2,5.5-.2,10.7.8,15.7,1.4,7.6,2.1,15.4,4,22.9.5,2,.7,4.1,1,6.2.7,4.9,1.4,9.7,2.2,14.6.8,4.9,1.7,9.7,2.4,14.6.7,4.9,1.7,9.7,3.6,14.3.5,1.3,1.2,2,2.6,2.1.6,0,1.4-.3,1.8.6-1.4.6-3,.6-4.1,1.9-.3,1.5-.8,3.1-1,4.7-.3,1.6-.2,3.3,0,4.9.9,5,1.7,10,2.4,15,.5,3.8,1.7,7.2,3.3,10.3,6.2,1.6,12.2,1.4,18.2,1.4,120.1,0,240.1,0,360.2,0,4,0,8-.1,12.2-1.5.7-1.4,1.6-2.9,2.3-4.6.6-1.4.9-2.8,1.2-4.3,1-5.1,2.2-10.2,2.9-15.4.5-3.5.5-7.1-.2-10.6-1.5-.6-2.9-1.2-4.4-1.8.5-.2.7-.4,1-.4,2.4.1,3.3-1.1,4.1-3.2,1.5-4.3,2.6-8.6,3.1-13.1.7-6.7,2.5-13.2,3.4-19.8.5-4,1.4-7.9,2.1-11.9,1.1-6.6,2.2-13.2,3.3-19.8.8-4.7,2.1-9.3,2.2-14.1,0-2.5-.2-5.1.7-7.4-.5-.5-.7-1-1.1-1.1Z"/><path class="cls-1" d="m151.1,971.8c-2.1,0-4.2-.2-6.3,0-8.5.9-8.4.7-9.2,9.2-.3,2.8,0,5.7,0,8.5-.2,3.1.7,5.9,1.1,8.9.2,1.2.9,1.9,2.1,2,3.6.3,7,1.1,10.7,1.1,148.9,0,297.7,0,446.6,0,3.1,0,6.2-.1,9.4-.8,2.4-.5,3.4-1.4,3.6-3.7,0-1,.6-2,.7-3.1,0-5.2.2-10.5,0-15.7-.2-4.4-2-6-6.5-6.4-2.2-.2-4.5-.1-6.7-.1-74.4,0-148.7,0-223.1,0-74.1,0-148.1,0-222.2,0Z"/></svg>