<?xml version="1.0" encoding="UTF-8"?>
<svg id="Layer_1" data-name="Layer 1" xmlns="http://www.w3.org/2000/svg" viewBox="0 0 1064.48 1001.63">
  <defs>
    <style>
      .cls-1 {
        fill: #ffb450;
        stroke-width: 0px;
      }
    </style>
  </defs>
  <path class="cls-1" d="m1063.46,697.44c.02,2.45-.66,4.7-1.47,7.16-4.28,1.09-8.56,2.18-13.1,2.18-160.69-.03-321.38-.03-482.07.02-3.34,0-6.52-.8-9.78-1.14-1.97-.21-3.52-1.27-3.87-3.71-.3-2.06-.83-4.07-.8-6.2.06-4.64-.16-9.3.06-13.94.43-9.23.86-9.58,10.14-10.13,1.05-.06,2.1-.01,3.15-.01h484.77c3.14,0,6.26-.08,9.34.85,1.46.44,2.35,1.07,2.78,2.54.47,1.59.85,3.16.84,4.84-.04,5.85-.06,11.69.01,17.54Zm.97-450.71c0-8.51.58-5.81-6.05-11.19-7.01-3.56-12.73-8.87-18.74-13.78-.58-.47-1.14-1.02-1.56-1.62-2.37-3.45-5.24-6.5-7.67-9.93-2.71-3.82-4.74-7.98-6.89-12.05-2.14-4.06-3.28-8.63-4.55-13.08-1.85-6.48-3.03-13.1-3.91-19.75-.76-5.77-1.4-11.58-1.07-17.44.11-1.94-.02-3.86-.53-5.79-.61-2.33-.62-4.84-.1-7.14.68-2.99.77-5.96.62-8.93-.38-7.21,1.02-14.32,1-21.51,0-.45.03-.91.13-1.34,1.22-4.81.67-9.81,1.54-14.68.69-3.8.49-7.77,1.26-11.55.78-3.83.77-7.71,1.36-11.55.48-3.08.78-6.24,1.37-9.29.94-4.79.43-9.55.55-14.33.03-1.15-.59-2.01-1.69-2.4-3.25-1.13-6.23-2.89-9.58-3.83-5.75-1.62-11.46-3.42-17.17-5.16-8.44-2.58-16.87-5.18-25.3-7.78-2.42-.75-4.8-1.65-7.25-2.27-3.78-.95-7.49-2.08-11.18-3.29-6.82-2.23-13.66-4.38-20.51-6.5-5.14-1.59-10.33-3-15.46-4.63-4.7-1.49-9.41-2.94-14.21-4.13-5.25-1.29-5.24-1.35-9.44,1.69-.73.53-1.35,1.19-2.05,1.75-2.82,2.23-5.67,4.5-9.01,5.83-3.47,1.37-7.08,2.39-10.79,2.98-4.27.68-8.51,1.51-12.78,2.17-3.54.53-7.09,1.24-10.64,1.27-4.66.03-9.18,1.45-13.84,1.08-3.65,1.19-7.43.79-11.15.81-9,.05-18,.08-26.99-.04-4.77-.07-9.49-1.15-14.29-.98-.29,0-.61-.07-.88-.18-1.72-.7-3.54-.54-5.33-.58-1.2-.04-2.43.11-3.59-.14-5.1-1.1-10.32-1.4-15.47-2.31-5.96-1.07-11.54-2.99-17.13-5.1-1.43-.55-2.6-1.46-3.66-2.55-1.95-2.05-3.93-4.07-5.82-6.02-1.97-.15-3.8-.33-5.53.2-2.43.76-4.93,1.22-7.37,1.89-6.34,1.73-12.6,3.76-18.9,5.67-4.15,1.25-8.29,2.53-12.45,3.75-6.31,1.84-12.63,3.65-18.94,5.48-4.31,1.24-8.61,2.5-12.92,3.74-3.73,1.07-7.49,2.07-11.2,3.19-4,1.22-7.95,2.62-11.96,3.81-8.02,2.37-16.08,4.6-24.11,6.98-2.71.8-5.12,2.27-7.75,3.72.12,4.55-.49,8.99.55,13.46.67,2.89,1.02,5.9,1.11,8.87.16,4.94,1.44,9.79,1.07,14.75-.03.44.15.88.21,1.33.67,4.87,1.38,9.74,1.49,14.68.06,2.54-.1,5.13.33,7.62.34,1.93.55,3.84.55,5.78.03,8.85.15,17.7.05,26.55-.1,8.82.48,17.66-.83,26.46-.5,3.37-.31,6.82-.86,10.25-1.29,7.96-2.57,15.91-4.67,23.71-1.76,6.51-4.22,12.78-7.31,18.76-2.76,5.35-6.48,10-10.88,14.18-3.77,3.58-7.93,6.34-12.75,8.16-2.81,1.07-5.46,2.44-8.06,3.93-1.94,4.59-1.46,8.98-1.46,13.3-.01,133.49,0,266.97-.05,400.46,0,4.36.48,8.61,1.43,13,3.88,1.65,7.95,2.24,12.18,2.24,161.02-.01,322.04-.01,483.06.04,3.49,0,6.79-.93,10.21-1.23.99-.09,1.94-.67,2.91-1.02.69-3.4,1.35-6.56,1.35-9.89-.05-136.19-.04-272.38-.05-408.56Zm-527.73,4.77c.01-4.51-.31-8.94-1.4-13.53-1.06-.57-2.22-1.23-3.42-1.84-3.75-1.88-7.51-3.74-11.27-5.62-3.91-1.95-7.39-4.56-10.59-7.49-6.28-5.75-10.67-12.91-14.21-20.55-2.38-5.15-4.34-10.48-5.8-16.01-1.68-6.37-2.9-12.79-3.77-19.32-.44-3.26-.45-6.59-1.02-9.78-.71-3.89-.68-7.75-.7-11.63-.07-8.4.11-16.8-.04-25.19-.11-6.01,1.44-11.9,1.02-17.91-.02-.29.03-.6.12-.89,1.21-4.2.7-8.6,1.46-12.89.41-2.31.87-4.68,1.05-7.07.41-5.36,1.05-10.69,2.22-15.95.12-.58.37-1.16.39-1.74.08-4.82,1.57-9.42,2.28-14.14.54-3.6.56-7.1.23-10.56-2.07-1.64-4.34-2.47-6.49-3.51-1.21-.59-2.5-1-3.79-1.39-8.45-2.53-16.92-4.99-25.35-7.56-9.16-2.8-18.27-5.73-27.42-8.54-9.43-2.89-18.9-5.67-28.34-8.55-8.29-2.53-16.55-5.2-24.86-7.67-3-.89-6.1-1.49-9.18-2.01-3.2-.54-4.71.27-5.37,3.29-.67,3.05-2.63,5.78-2.25,9.08-1.98,8.28-3.63,16.61-6.89,24.57-3.92,9.61-8.13,18.95-14.9,26.99-5.13,6.1-10.45,11.92-17.31,16.14-1.4.86-2.83,1.67-4.24,2.53-6.58,4.03-13.77,6.47-21.24,8.22-4.07.95-8.21,1.49-12.33,2.18-3.9.65-7.79.69-11.63.28-4.28-.46-8.54-1.3-12.69-2.57-6.76-2.06-13.3-4.53-19.19-8.58-4.58-3.15-8.69-6.8-12.65-10.7-5.62-5.53-9.9-11.98-13.56-18.87-3.96-7.44-6.48-15.44-8.75-23.51-1.49-5.32-2.32-10.81-2.74-16.31-.33-4.4-1.68-8.44-3.27-12.6-1.01-.08-1.91-.31-2.76-.19-4.28.62-8.62.94-12.68,2.55-1.12.45-2.26.76-3.41,1.09-8.62,2.48-17.23,5-25.8,7.63-7.28,2.23-14.6,4.39-21.91,6.48-10.64,3.02-21.19,6.33-31.84,9.32-6.33,1.77-12.67,3.53-18.95,5.46-4.83,1.49-9.87,2.57-14.35,6.1,0,2.79-.27,5.52.06,8.17.47,3.84,1.32,7.64,2.09,11.44,1.75,8.63,2.9,17.35,4.23,26.04.45,2.97.49,5.97.96,8.9.95,5.91,1.8,11.81,1.66,17.81,0,.75-.07,1.55.16,2.24.86,2.48.66,5.03.68,7.57.04,4.65.05,9.3.06,13.95.01,11.37-.02,22.71-1.71,34.02-1.11,7.39-2.33,14.77-4.28,21.95-2.8,10.29-6.99,20.04-13.26,28.8-6.14,8.57-14.19,13.98-24.78,15.38-1.47.19-2.92.59-4.37.97-1.59.42-2.73,1.48-2.79,3.13-.14,3.74-1.06,7.36-1.05,11.15.06,132.44.05,264.89.03,397.34,0,4.34.13,8.66.9,12.95.53,2.89,1.4,3.99,4.17,4.52,3.38.64,6.76,1.01,10.23,1.01,158.03-.04,316.07-.03,474.11-.03,3,0,6-.07,8.99.01,3.19.09,6.19-.86,9.26-1.45,1.86-.35,2.9-1.5,3.19-3.28.54-3.24,1.07-6.45,1.07-9.79-.05-133.35-.05-266.69-.02-400.04Zm-151.86,553.7c-1.82-.67-3.61-1.48-5.47-2-3.3-.92-6.65-1.67-9.98-2.51-6.38-1.61-12.51-3.99-18.67-6.27-4.5-1.67-8.83-3.73-13-6.11-6.48-3.71-12.73-7.82-18.76-12.24-4.21-3.09-8.44-6.21-12.3-9.7-5.55-5.01-11.32-9.74-17.14-14.41-1.86-1.5-3.75-2.97-5.51-4.59-6.31-5.78-13.37-10.53-20.59-15.06-6.74-4.22-13.96-7.5-21.1-10.94-3.5-1.68-7.09-3.31-10.81-4.36-6.74-1.9-13.33-4.39-20.39-5.13-4.74-.49-9.45-1.45-14.22-1.47-5.81-.02-11.68-.58-17.43.83-3.49-.34-6.95.4-10.2,1.22-6.64,1.67-13.31,3.29-19.75,5.79-9.76,3.79-19.6,7.31-28.68,12.67-5.41,3.19-10.73,6.53-15.86,10.11-8.08,5.64-15.81,11.76-23.56,17.86-8.45,6.65-17.21,12.9-26.08,18.99-4.2,2.88-8.65,5.34-13.08,7.84-8.74,4.95-17.78,9.32-26.88,13.55-3.93,1.83-7.84,3.72-11.71,5.67-1.33.67-2.59,1.5-3.58,2.85-.2,4.25-.14,8.53.76,12.84,1.27,6.13,2.14,12.34,3.25,18.5.66,3.67,1.74,7.29,2.1,10.98.45,4.78,1.93,9.34,2.42,14.11.41,3.99,1.73,7.89,2.05,11.88.24,3.07,1.12,5.87,2.04,8.7.83,2.54.94,2.57,3.55,4.41-.79.45-1.81.26-2.7,1.45.07,4.62-.64,9.67.76,14.7.52,1.85.88,3.76,1.11,5.71.35,2.95,1.18,5.86,2.39,8.61.7,1.58,1.7,2.88,3.57,3.04,3.71.34,7.36,1,11.14,1,110.77-.07,221.54-.06,332.32-.06.9,0,1.8.02,2.69,0,3.14-.08,4.06-.6,4.74-3.65.7-3.2,2.01-6.22,2.26-9.58.15-2.04.28-4.21.83-6.19,1.04-3.71.61-7.44.73-11.16.06-2.06-.62-3.52-3.05-3.98,1.88-.65,2.73-1.8,3.31-3.52,1.15-3.43,1.86-6.92,2.42-10.46.46-2.94.8-5.91,1.31-8.85,1.31-7.64,2.89-15.24,3.98-22.91.88-6.2,2.3-12.3,3.19-18.5.65-4.57,1.58-9.1,1.49-13.78-.1-5.16-.51-4.63-3.91-5.88Zm148.97-132.66c-3.62-.91-7.22-1.8-11.02-1.7-4.34.11-8.69.03-13.04.03h-26.08c-4.35-.01-8.7-.01-13.05-.01s-8.99,0-13.49.01h-13.04c-4.35,0-8.71-.23-13.04.06-4.32.28-8.61-.08-12.91-.07-5.7.02-11.4,0-17.09.01-1.95,0-3.85.23-5.79.52-3.84.59-7.77.69-11.61-.04-1.64-.31-3.25-.48-4.89-.48h-51.27c-1.65,0-3.25.18-4.89.49-3.7.69-7.51.72-11.18.11-2.54-.42-5.04-.59-7.57-.6-5.7-.02-11.4,0-17.09,0s-11.4-.01-17.09,0h-17.09c-5.7,0-11.4.05-17.09-.02-5.66-.07-11.3.14-16.96.09-22.34-.19-44.67-.08-67.01-.07-2.24,0-4.44.06-6.68.6-2.33.57-4.64-.73-7.07-.66-6.3.17-12.6.05-18.89.06-1.2,0-2.44-.09-3.58.17-4.31.99-8.57,1.02-12.88,0-1.14-.27-2.39-.16-3.58-.16-17.24-.01-34.48-.01-51.72-.01-1.2,0-2.47-.18-3.58.16-2.5.76-5.03.71-7.57.67-2.87-.05-5.65.27-8.31,1.38-1.96,3.16-2.64,6.56-2.46,10.27.19,4.04.12,8.1.05,12.15-.04,2.27.37,4.43.81,6.64.38,1.95,1.51,2.91,3.16,3.37,2.88.8,5.79,1.28,8.83,1.28,44.53-.06,89.05-.05,133.57-.07,1.94,0,3.9.22,5.8-.44.4-.14.91-.17,1.31-.04,2.79.88,5.66.48,8.49.49,11.84.05,23.68.02,35.53.02,99.23,0,198.47-.01,297.71.06,3.92,0,7.72-.62,11.57-1.04,1.94-.21,3.32-1.28,3.94-3.2.63-2,1.22-3.98,1.16-6.13-.1-3.9-.18-7.81.01-11.7.16-3.34-.53-6.54-1.03-9.78-.21-1.37-1-2.09-2.3-2.42Zm414.06,144.43c-2.99-1.72-5.94-3.49-9.01-5.04-3.21-1.62-6.56-2.92-9.79-4.51-7.1-3.48-14.2-6.99-21.23-10.63-4.51-2.33-8.97-4.76-13.3-7.4-7.27-4.44-14.26-9.31-21.16-14.32-3.74-2.72-7.52-5.41-11.2-8.21-3.8-2.89-7.58-5.82-11.24-8.89-4.01-3.37-8.33-6.31-12.52-9.44-8.4-6.27-17.08-12.12-26.3-17.11-11.87-6.43-24.36-11.41-37.23-15.48-9.88-3.12-19.92-5.15-30.27-5.62-.89-.04-1.76-.35-2.64-.46-4.78-.6-9.61-.77-14.33-.02-3.38.53-6.81.84-10.19,1.28-6.25.81-12.32,2.25-18.35,3.91-4.16,1.15-8.27,2.59-12.29,4.18-5.56,2.2-11.18,4.34-16.47,7.09-8.88,4.62-17.52,9.72-25.56,15.75-4.78,3.58-9.67,7-14.15,10.98-2.34,2.08-4.73,4.13-7.1,6.19-3.05,2.64-6.45,4.9-9.26,7.76-4.12,4.2-8.92,7.54-13.45,11.17-7.92,6.33-16.32,12.04-25.21,17.06-7.86,4.44-16.05,8.03-24.48,11.11-7.73,2.82-15.85,4.32-23.73,6.65-3.41,1.01-6.85,2.04-9.68,4.14-1.24,5.45-.15,10.68.8,15.74,1.44,7.62,2.13,15.36,3.99,22.91.49,1.98.74,4.1,1.05,6.17.71,4.86,1.41,9.73,2.17,14.59.77,4.86,1.67,9.7,2.39,14.56.72,4.88,1.73,9.67,3.58,14.26.5,1.26,1.22,1.98,2.58,2.12.62.07,1.42-.27,1.84.59-1.37.6-2.99.55-4.09,1.88-.33,1.5-.75,3.09-1.02,4.7-.28,1.62-.24,3.27.04,4.91.85,5,1.72,9.99,2.41,15.01.51,3.75,1.66,7.22,3.27,10.25,6.21,1.63,12.2,1.41,18.17,1.41,120.07,0,240.14-.01,360.22.02,4.05,0,8.05-.14,12.23-1.5.7-1.4,1.61-2.95,2.28-4.6.56-1.38.94-2.85,1.22-4.3,1.02-5.13,2.17-10.24,2.85-15.4.45-3.52.48-7.14-.23-10.65-1.5-.62-2.86-1.18-4.35-1.8.47-.22.74-.45.99-.44,2.36.14,3.34-1.08,4.09-3.25,1.47-4.26,2.63-8.63,3.1-13.05.72-6.7,2.54-13.18,3.38-19.84.5-3.99,1.44-7.92,2.12-11.89,1.14-6.61,2.24-13.22,3.31-19.84.76-4.71,2.06-9.33,2.16-14.14.06-2.53-.19-5.07.66-7.41-.47-.52-.71-.95-1.07-1.15Zm-796.76,154.88c-2.1,0-4.21-.16-6.29.05-8.54.86-8.41.69-9.23,9.23-.27,2.82.08,5.7-.09,8.54-.18,3.05.72,5.92,1.11,8.88.15,1.16.93,1.9,2.1,2,3.56.31,7.05,1.08,10.68,1.08,148.87-.06,297.73-.05,446.6-.06,3.14,0,6.23-.13,9.36-.76,2.36-.48,3.45-1.37,3.62-3.69.08-1.03.64-2.03.65-3.05.06-5.25.2-10.51-.05-15.74-.22-4.42-1.99-5.99-6.47-6.36-2.24-.18-4.49-.12-6.74-.12-74.36,0-148.72,0-223.07,0-74.06,0-148.12,0-222.17,0Z"/>
</svg>