<?xml version="1.0" encoding="UTF-8"?><svg id="Layer_1" xmlns="http://www.w3.org/2000/svg" viewBox="0 0 400 400"><defs><style>.cls-1{fill:#ff8500;stroke-width:0px;}</style></defs><path class="cls-1" d="m400.4,401.9H1.4V1.9h399v400Zm-266.7-.6c.5-.1,1.3,0,1.2-.6h0c.7-.3,1.8.2,2.3-.4v-.2c.1,0,.2,0,.3-.1.5,0,.8.1,1.2-.2v-.2c.7,0,1-.5,1.3-.9.6-.4,1.7-.1,2-.8.1,0,.3-.1.4-.2.7-.6,1.6-.4,2.4-.9.1,0,.3,0,.4-.1h0c.2-.1.8-.3.9-.6.4,0,.4-.3.6-.6.2,0,.4-.2.3-.5-.2-.2-.4-.1-.5,0-.1,0-.3,0-.4.1-.3,0-.4.2-.5.4-.3,0-.3.1-.5.4-.8.5-2.2.7-2.9,1.4-.7,0-.6-.6-1.1-.9-.4,0-.8.2-1.3.3-.1,0-.3,0-.4.1-1,.2-2.1.3-2.7.8-.6-.1-1.6-.2-1.6-.9.4,0,2.9-.9,1.5-1.1-1.2.7-1.6-.9-2.9-.6-.9.6-2.2-.1-3,.4-.6-.2-1.1-.2-1.5.1-.6,0-1,0-1.5.3-.7-.2-1.3-.2-1.6.3-3.5.6-7.6.1-10.6,1.7-.6-.2-1.1-.2-1.5.1-.6,0-1,0-1.5.3-.4,0-.7,0-.8.3-1.7-.2-3.1.3-4.6.5-1.1.6-2.8-.4-4,.4-1.4.3-4,0-4.7,1.3,0,0-.6-.1-.7-.2-.5,0-.8.2-.9.5-.4,0-.4.2,0,.5h0c3.1,0,6.2-.1,9.3.1.7-.3,1.8-.1,2.5-.4.3,0,.6.1.7,0,.2,0,.3,0,.4-.1,0,0,.3,0,.4-.1h0c.6-.1,1.3,0,1.8-.2.7.2,1-.2,1.6-.3.3-.1.9.2,1.1,0,.6.6.3,1.4-.6,1.4h6.6s.2,0,.3-.2c0,0,.7-.2.8-.3q.5.2.3.4c.4-.1,10.6.2,10.9-.1.5,0,.8-.2.9-.5h0q0,.1,0,.1ZM395.8,44.5c-21.4,1.1-43.3,1.3-64.6,3.2-.7,0-1.4-.2-1.9.2-.6,0-1.4-.2-1.9.2-.8,0-1.7-.3-2.4.2-.6,0-1.5,0-1.9.2-.6,0-1.3,0-1.8.2-.6,0-1.5,0-1.9.2-.6,0-1.5,0-1.9.2-.6,0-1.5,0-1.8.2-.5,0-1.1,0-1.4.2-.4,0-1.1,0-1.4.2-.4,0-1.1,0-1.4.2-.6,0-1.5,0-1.9.2-.4,0-.7,0-1,.2-.6,0-1.5-.2-1.9.2-.4,0-1.1,0-1.4.2-.4,0-1.2,0-1.4.2-.7,0-1.4-.2-1.9.2-1.2.2-2.3,0-3.3.4-.5,0-1.1,0-1.4.2-.6,0-1.5,0-1.9.2-.4,0-.7,0-1,.2-.6,0-1.5,0-1.9.2-.4,0-1.2,0-1.4.2-.5,0-1.1,0-1.4.2-.4,0-.7,0-.9.2-.4,0-1.2,0-1.5.2-.6,0-1.5-.2-1.9.2-.4,0-.8,0-.9.2-.4,0-.7,0-.9.2-.4,0-1.1,0-1.4.2-.4,0-.7,0-1,.2-.4,0-.7,0-.9.2-1.9.2-4,.3-5.7.8.5,0,1.1,0,1.4.3,3.2-.2,6.3-.5,9.4-.3v-.3h0c.4,0,.8,0,1-.2,12.9.6,26-.6,38.8-.7v-.2c7.3,0,14.4,0,21.6.2.3-.2.6-.2.9,0,2.9,0,5.8.5,8.9.2v-.2c8.9.3,21.2,0,30.3-1.3,2.2,0,5-.2,7.1-.8v-.2.2c1.8-.5,4,.3,5.7-.6.2,0,.4.2.6.2v-7.4h-4.6v.5Zm1.4,0h3.2v-.2c-1,.1-2.3-.2-3.2.2Zm1.3-20.4c-.7.2-1.1.7-2,.6h0c.4-.4.6-.5-.5-.6-.1,0-1.1-.4-1.3-.4-2,.8-4.2-.4-6.4,0h0c-.3-.2-.8-.1-1.3-.1-.4-.3-1.2.1-1.7-.2-1.2,0-8.7-1-3.9,0,.3,0,.6-.1.8.1.3,0,.6-.1.8.1.7,0,1,.5,1.7.1,2.3.2,4.7.6,7.1,1.1.7,2,4.7.2,6.3,1.3.5.1,1.2.5,1.8.6v-2.4c-.8.1-1-.2-1.9-.2h.5Zm-33,98.3c.5,0,.8,0,1.1.5v.2c.3.4.6.2,1,.2,0,0,.2.2.3.3,0,.2.2.2.4,0,.8,0,1.3.2,2,.2.6.5,1.2.8,1.8.2,1.1,0,1-.8.3-1.4v-.2c2.6-.2,2-.8-.2-1.1v-.4s.3,0,.4-.2h.6c-.8-1.3-2.8,0-4.1-.7-.8.5-1.9,0-2.6.6-.6.3.7.5,1,.4,0,.2.2.4.2.5-.4,0-.4.2-.6.4-.4.4-1.1-.6-1.4,0h-.7c-.6.5.1.5.5.5Zm-1.6-3.3s.2,0,.3,0c.1,0,.3,0,.4-.2h.5c0-.4-1.9-.3-1.2,0h0Zm35.1,1.5c.3.5.8.5,1.3.6v-.7c-.4,0-1,0-1.4,0h.1Zm-.9,1.1c-.1,0-.3,0-.4.2-.1,0-.3,0-.4,0-.8.2-.8-1.1-1.6-.6-.7.3-1.6-.3-2.2,0-1.6-.3-3.3-.3-4.9-.4-.6-.5-.7-.5-1.4,0-.4,0-.8,0-1.1.2h-.3c-.7-.8-1.7,0-2.6-.3-.3,0-2,0-1.3.2,0,.2.2.4.2.5-.1,0-.3,0-.4.2-.4,0-1.1-.2-1.4,0-1.6,0-.9.7.2,1,.5,1,1.2,1.3,1.5,0,.1,0,.7-.3.8-.3v-.2c1.4.4,3,0,4.2.8.2,1,2.2.4,3,.9v.4c-.8.2-1.8-.4-2.5,0-.3,0-1.2-.3-1.6-.2-.1.2.2.3.5.4,0,.3-.3.7.1,1h.3c.1,1,1.7.5,2.4,0,.1,0,.3,0,.4-.2.4,0,.8.4,1.1,0,.4,0,.8.2,1.1,0,.3,0,.4-.2.5-.4.5.4,1.7.8,2.1.3.9-.4,1.6,1,2.7.2-.2-.5-1.1-.5-1.6-.6v-.2c.3,0,.6,0,.8-.3,0,0-.2-.2-.3-.3-.1-.5,2.1-.8,1.4,0-.2,0-.7,0-.7.3.5.5,1.7,0,2.2.8-2.1-.2-.3,1.4.7.7h1.1v-4.4c-.9-.2-2-.4-2.6.3Zm-18.9-.3c.3,0,.8-.5.3-.6-.6-.3-1.1.5-.3.4v.2Zm-20-1.8c.4,0,1.5.3,1.3-.4-.3-.2-.7,0-1,0-1.2-.6-1.3.3-.3.4h0Zm16.1,2.4c-.1.3,1.2.4.5,0,.2-.5-.8-.6-.6,0h.1Zm0-1.3s-.2,0-.3,0l-.2.2s.2,0,.3,0,.1,0,.2-.2Zm22.8-.1s-.2,0-.2-.2h-.3c.2,0,.3,0,.5.2h0Zm-16.2,3.8h.3v-.2c0,0-.5-.1-.3.2Zm-26.6-4.8c.3,0,.9,0,1.2-.2.5,0,1.2.2,1.2-.3,0,0-.3,0-.4-.2h-.3c.2-.9-3.6-1-3,0q.2.8,1.3.6Zm42.1,133.6h-.4.4c-5.3-.5-10.8-.5-16.2-.7,0-.3-.3-.5-.7-.5-.2-.2-.5-.2-.7,0-.1,0-.2.1-.3.2-.4,0-.8,0-1.1.3-.4.1-.6-.4-1.1-.3.2-.8-1.3-1.1-1.4,0h-.7c.1-.7-1-1.1-1.1,0-5.7-.1-11.3.3-17,.2-.2-.3-.5-.3-.7,0-4.9-.4-9.8-.8-14.7-.8-.4-.4-2-.1-2.5-.2-.6-.5-1.4.3-.3.5.3-.1.5.1.8.2.5-.3,1,0,1.4,0,.4.5,1.1.3,1.7.3.4.4.9.2,1.4.2.6.4,1.3.5,2.1.5-.4,2,3.2,1.5,4.5,1.7h-.5c1,.6,2.3.6,3.5.7.5.4,1.2.2,1.8.2.3.3.7.2,1.1.2.6.4,1.4.1,2.1.2.5.3,1.1.5,1.7.4,3.9.8,8.1,1.3,12.1,2,6.9,1.2,14,1.6,21,2.6.6.4,1.4.1,2.1.2,1.5.4,3.2.3,4.7.6v-9.3h-3v.6Zm-281.1-25.5h0c.5.4,1.4.1,2.1.1,7,.4,14.8.1,21.8.6.4.4,2,0,2.1,0,3.1.6,6.6.1,9.8.6.5.4,1.3-.2,1.8.3,4.6,0,8.9.6,13.6,0,.7.6,1.7-.3,2.5.2,3.9-.2,12.4-.8,16.6-1.7,3.3.1,6.6-.6,9.9-.7.2.2.5.2.7,0,6.5-.4,13-.7,19.5-1.6,1.1.5,4.6-.3,4.9-.2,0,0,0-.9-.1-1-.8.1-1.7.1-2.5.1-.2-.2-.5-.2-.8,0h-.2c-.4-.4-.9-.1-1.4-.1-.4-.3-.9,0-1.4,0-.3-.3-.7-.1-1.1-.1-.4-.3-.9,0-1.4-.1-.2-.2-.5-.2-.8,0h-.3c-.4-.4-1,.1-1.5,0-.4-.4-1,0-1.5,0-1-.2-2.1,0-3.2,0-.3-.3-.7-.1-1.1-.1-.6-.2-1.5-.2-2.2-.2h0c-.3-.3-.7-.2-1.1-.1-.3-.3-.7-.2-1.1-.1-.4-.4-.9-.1-1.4-.1-.3-.3-.7-.1-1.1-.1-.2-.2-.4-.2-.7-.1-.4-.4-.9,0-1.4,0-.4-.4-.9-.1-1.4-.1-.2-.2-.4-.2-.7-.1-.7-.4-1.4.1-2.1,0-.2-.2-.4-.2-.7-.1-.4-.3-.9-.1-1.4-.1h0c-.4-.4-.9,0-1.4,0-.2-.3-.7-.1-1-.1-.3-.3-.7-.2-1.1-.1-.4-.3-.9-.1-1.4-.1h0c-.3-.3-.7-.1-1-.1-.2-.2-.5-.2-.8,0-.5-.5-1.2,0-1.8-.1-.3-.2-.7-.2-1.1-.1h0c-.2-.2-.4-.2-.7-.1-.3-.3-.7-.2-1.1-.1-.4-.4-.9-.1-1.4-.1-.2-.2-.4-.2-.7-.1-.5-.5-1,.1-1.5-.3-.7.1-1.4-.3-2.1-.1-.3-.3-.7-.1-1.1-.1-.2-.3-.6-.1-1,0h0c-.3-.3-.7-.2-1.1-.1-1.3-.4-2.8-.1-4.2-.1-.5-.4-1.2,0-1.8,0-.6-.4-1.1,0-1.8,0-.5-.4-1.2,0-1.8,0-.5-.4-1.2.1-1.8,0-.5-.4-.9,0-1.4,0-.5-.4-1.2,0-1.8,0-.5-.4-1.2.1-1.8,0-.4-.2-2.2-.1-2.9-.1h0c-.7-.4-1.4.1-2.2,0-.2-.2-.5-.2-.8,0,0,0,0,.1.1.2-.5,0-.9.1-1.4.2.5,0,.9-.1,1.4-.2,0,0-.1-.1-.1-.2-6.2-.1-12.4-.2-18.7.1-.8-.5-2,.4-2.9-.2-1.8.2-3.5.5-5.3.5.3,0,.5.1,0-.2-5.2.5-10.5.5-15.8,1.2,0-.3-.3-.4-.8-.4-.3-.2-.5-.2-.7,0,0,0-.2.2-.3.3-.4,0-.8,0-1,.4-.2,0-.5,0-.7-.2h-.4c.2-.8-1.5-.9-1.4.2h-.7c.2-.7-1.1-.9-1,.1-5.7.4-11.1,1.7-16.8,2.1-.3-.2-.5-.2-.7,0-5.6-.1-11.4.3-17.2.5-.4-.4-1.3.1-.6.4.3,0,.7-.1,1.1.2.4-.3,1,0,1.4-.2.4.4,1.2.2,1.7.1.4.3,1,.1,1.5,0,.6.3,1.4.4,2.2.3-.3,1.9,2.5,1,3.4,1.5.5,0,.7.1,1.2-.1-.2,0-.3,0-.5.1,1.1.5,2.3.4,3.6.3.5.3,1.2,0,1.8,0,.3.2.7.2,1.1.1.6.3,1.5.1,2.2,0,.5.3,1.2.5,1.8.2,4.1.3,8.3.5,12.3,1,6.9.3,14.1.3,21.1.3l-1-2ZM399.2,91.7h1.2v5.6c-4.8-.2-9.5,0-14.2-.9-17.3-1.9-35.5,1.4-52.5,0-1,.2-1.1-.8,0-.6.5-.4,1.2,0,1.8-.2.2-.2.4-.2.7-.2.5-.4,1.2-.2,1.8-.2q.2-.7,1.4-.7c.3-.3.7-.2,1.1-.2.3-.3.6-.2,1-.2.1-.2.4-.3.8-.3.2-.2.4-.2.7-.2-.1,0-.2.2-.3.3v.2-.2c.5-.8,1.5-.5,2.4-.5.6-.4,1.4,0,2.1-.4.5,0,.3.3.3.7h.7c-.4-1.7,1.6.3,2.1-.7.1-.3.4-.6.8-.5-.6.8.9.4,1.3.5.7-.5,1.7,0,2.5-.2,1.8-.7,4-.6,6-.7.2-.2.5-.2.7,0,3,0,6.6-1,9.5-.2.9-1.2,3.6-.2,5-.5,2.5,1,10.5,0,11.1.4,3.9-.3,7.9,0,11.8.3l.2-.4Zm-61.1,3.1h0Zm50.6,2.1h0Zm-59.4,298.9c-.6-.4-5.1-.5-2.8.6-.6.1-1,.4-1.5.1,0-.5.3-1.1-.6-1-1,.2-5.7-1.1-3.7.8h-2.9c0-.2,0-.4-.4-.5,0-.4,0-.7-.4-1,.8-.1,2.1.2,2.8-.2,1,.2,2.2.5,3.2,0-.1,0-.6-.4-.7-.5-2-.1-7.1.3-9.3-.3v.2h-.7c-.2-.2-.5-.2-.7,0,.3,1.1,2.4.2,3.1.7v.5c-.3,0-.6,0-.7.2.2.2.4.2.7.2v.2c-.7,0-1.4.2-2.1,0,0-.2,0-.3.2-.5,0-.7-1.8-.6-2,0-1.3.4-.9-.2-1.4-1,0-1-5.5-.7-3.3,0,.2.2.5.2.7,0,.6,0,1.3-.1,1.8.2-.2.3-.4.6-.4,1-.4.1-.8-.2-1.1-.5-.2-.5-2.3-.2-1.4.2.2,0,.6.1.7.3-.2.3-1.2.2-1.5.2-.2-.2-.5-.2-.7,0-.4,0-.8,0-1.1-.2,0-.2,0-.4-.4-.5-.1-.2-.2-.2-.4,0-1-.2-2.1.7-2.9-.3-.5,0-.9.2-1.1.5.1,0,.2.2.4.2,0,.8,1.3.2,1.8.3.1.2.2.2.4,0,1.1-.3,2.3.9,3.3.2h.4c3.7.6,8,0,11.7.6.4.3-.1.4-.4.5-.4.2-.5.6-1.1.7-1-.4-2.2-.2-3.2-.7-.6,0-.8.4-.5.9.2.7,1.6.4,2.2.7.4.4,1.2-.1,1.4-.5.6,0,1.3-.5,1.8,0,0,.2,0,.4.4.5.1.2.2.2.4,0v-.2c.5,0,1.2,0,1.4-.5.5-.5,2.3.3,2.2-.9.4,0,.8,0,1.1.2v.2c-.3.1-.3.3-.4.5-.1,0-.2.2-.4.2-.4,1.8,3.1,1.3,4.2,1,1.1-.2,2-.9,1-1.7.1-.2.2-.3.3-.5.4-.2.4-.5.4-.7.2-.5,1.8.2,1.4-.6l.8.2Zm-130.8-114.7c.3,0,.6,0,.7-.2h.7c.1.2.2.2.4,0,.3,0,.6,0,.7-.2,1,.1,1.4-.4,0-.3v-.2c-.2-.2-.5-.2-.7,0-.3,0-.3.3-.4.5-.6-.2-1.2-.8-1.8-.3-.3.2-.6.2-.9.1-.8-.2-.7.5-1.5.4-.9-.2-1.9.1-2.9-.2q-.5-.3-1.1,0c-.4.2.1.2.4.2.1.5-.8.5-.8,1-1,0-.5-1.4-1.7-1.2-2.2-.2-.4.4-1.6,1.2-1,.6-.6-.9-1.6-.6-2.3-.4-4.1.3-6.2,1-.5-.1-1.9.3-.8.5,0,.3-.5.9,0,1.1.8-.5,1.9-.4,2.9-.4.4-.3,1.4-.1,1.4-.9h1v.2h.4c.6.5,1.7.1,2.2-.2.5.2.9.3,1.3,0,.1,0,.3-.1.4-.2h1.8c.2.2.5.2.7,0h.4v-.2c.3,0,.6,0,.7.2.3,0,.6-.2.7-.5,1.8,0,3.4-.7,5.3-.5v-.3Zm184.4-37.6c.9,0,1.7,0,2.5-.2.4.3,1,.2,1.4.2v.5c1.9,1.1,4.9.2,7.1.5,1.9,0,.4,0,.5,0,.5,0,.5-.3.2-.7.5-.7,1-.8,1.7-.4.2.2.4.3,0,.4-.4,0-.4.4.1.4.9.5,4.7,0,2-.7,1.7-2.4-8.6-.3-10.2-.9.6-.5,1.8-.4,2.5-.7.6-.7.5-.9-.7-1-.8-.2-.6.9-1.5.6-1-.4-1.6.2-2.5.1-.5-.5-.6-.5-1.1,0-.1,0-.2.2-.4.2v.2c.2.2.5.3.7,0h.7v.7c-.9.1-2-.2-2.8.2-.6-.1-.7.5,0,.4l-.2.2Zm17,33.9c.2,0,.3.1.5.1v5.2h-1.7v-.2c-.7-.1-1.8.2-2.4-.2h-4.6v-.3h-.8s0-.1.1-.2c0,0,0,.1-.1.2-5.2-.5-10.8.3-15.8-.3-.3,0-.6,0-.7-.2-.8.1-1.2.4-2.1.2-.1.2-.2.2-.4,0-6.9-.1-11.7-.2-20.3-.2-.1-.2-.4-.2-.7-.2v.2c-1.1-.3-2.6,0-3.6-.4h-5c-.3.2-.5.2-.7,0h-9.9v-.2h-9.5v.2c-.3,0-.6,0-.7-.2-4-.1-6.8.3-10.6.2v.2c-2.3-.1-4.6.5-6.7,0v-.2c-.4.1-.6.2-.8.2.2,0,.4,0,.8-.2v.2c-1.5.5-3.4.2-5,.2-.2.2-.5.2-.7,0h-.3v-.2c-.4,0-.8,0-1.1-.2-.5.1-.3.6-.7.7-.2.2-.5.2-.7,0-1.8.1-4,.4-6.1.4.2-.4.7-.4,1.2-.7-1.6-.1-2.2.4-3.8.3-.1.2-.2.3-.4.5h1.1c.1.6-1,.5-1.4.5v-.2c-.4.1-.8-.2-1.1-.5h-1.8c-1,.7-1.3-.5,0-.3.1-.1.5-.3.8-.2v-.2c.7-.5,1.8.4,2.6-.2.2-.2.8-.2,1.1-.2.2-.3,1.5-.2,1.8-.2v-.2h.7c.1.2.2.3.4.5.5,0,.7-.2.7-.5.4-.4.7,0,1.1,0,.4-.4.9-.1,1.4,0,0-.2.1-.4.4-.5,0,0,0,.1-.1.2,0,0,0-.1.1-.2h1v.2h.7c0-.4-.1-.7-.4-.9h-.7v.2c-1.4-.2-2.9.4-4.2,0-1.1.3-2.3.5-3.6.4-.3.5-1.3.2-1.7,0-.4.3-.9.2-1.4.2-.6.5-1.4.2-2.1.3-.1.2-.4.2-.7.2v-.2h-.4v.2c-1.3-.1-2.4.3-3.6.2v.2c-1.1-.1-2.9.3-3.9.2v.2h-1c-.4.4-.9.1-1.5.2-.3.3-.7.2-1.1.2-.1-.2-.2-.3-.4-.5.4-.3,1-.2,1.5-.2.4-.4.9-.1,1.5-.2,2.5-.1,5.2-.9,8-.8.2-.3.7-.2,1.1-.2.3-.3.7-.2,1.1-.2,3.2-.8,6.7-.1,9.8-.8.2-1,.9-.7,1.8-.3.1-.1.2-.3.4-.4,5.6-.7,12.7-1.9,18.6-1.1.4.2,1.1.2,1.4-.2.8-.8,2.4-.4,3.5-.5.5-.4.6-.4,1.2,0,1.6-.5,3.6-.3,5.3-.3.1-.1.2-.1.3,0,10.7-.6,18.7-.2,28.7-.2h5.8c1-1.1,2.5,0,3.6-.3.3,0,.6-.3.9,0,10.1.3,20.2.7,30,1.8,1.1-.1,2.1.2,3.2.2-.8.1-1.7-.2-2.5-.2q.7-.6,1.4,0c.5.1,1.4-.2,1.7.2h.4c.3-.6,1.2-.6,1.8-.3Zm-4.8,1.8c0-.3-.6-.3-.8-.3-.2.3.7.5.9.1v.2Zm-137.8,122.6h-4.2c-.1-.1-.2-.2-.3-.3-.2.1-4.9-.2-4.9.2-3.7-.4-9.7.1-13,.1h24.4c-.6-.2-1.2-.1-2,0h0Zm-10.7-329c-.1,0-.2,0-.3,0-1-.2-1.2,1,.1.9.2,0,.5,0,.5,0-.1.3-.5,0-.8.3-1.4,1.3,4.4-.2,4.9-.3h0c.4,0,.3-.8.7-.4.5.3.5.4.8,0,.3-.6,1.1-.5,1.5-.9-1.2-.8-3,.3-4.3,0-1.2-.9-1.8.6-3.1.3h0Zm112.4,171.7c.4,0,1.1.1,1.5-.2.5,0,1-.1,1.4.2v.5c-1,0-1.8.4-2.8.2q-.7-.2-1.1.2h-.4q-.4.4.4.7c0,.7,1.5.4,1.9.4,1.3-.7,3,.2,4.1-.4.3,0,.9,0,1.1.2,3.5-1,7.4-.3,10.9-1,2.8,0,5.5-.1,8.2-.6,0,0,0-.1.1-.2-2.6-.3-5.4.5-8.1.5.3-.5.4-1.1,1.2-.9,1.4.3,2.6-.3,3.9-.4,0,0,.1-.1.2-.2-1-.9-3.6.7-4.4-.6,3.2.1.8-1.6,0-.2h-.7c-.2-.2-.4-.2-.7-.2-.7-1.5-1.4.7-2.7.2-.5-1.1-1.9-1-2.8-.5-1.5.2-3.2,0-4.6.4-.3,0-.7,0-1,.2-1-.2-1.6.4-2.5.4-.2-.2-.5-.2-.7,0-.2,0-.2.2,0,.2-.2,1.3-3.3-1.6-5.5,1.2.8-.1,2.7.2,3.3-.2h-.2Zm41.5,153h-1.5c-1.4-.4-3.2-.4-4.7-.4-.3-.7-1.5,0-2.1-.1-.1-.2-.2-.2-.4,0h-1.7c-.4-.3-.7-.3-1.1,0-2.7.1-4-.3-6.4-.2-2.1-.6-5.1-.6-7.4-.6-.6.2-1-.2-1.3-.2h-2.5c-.3-.5-.5-.6-1-.3-.2,0-.3.2-.4.3-.4,0-.8,0-1.1-.2h-1.4c-.3-.2-.7-.2-1.1,0v.5c-.3,0-.9.1-1.1-.2-.9-.8-3.1-.9-4-.1s0,0-.1,0h-5c-1-.4-1.4-.3-1.8.2.5.4,1.2.1,1.8.2.2.2.8.2,1.1.2v.2c-.9.1-1.8-.2-2.5.2h-.7c-.5-.4-1.2-.2-1.8-.3-.3-.2-1,.3-.4.5-.1,1.1-2.2.8-2.8.5v-.7c1.6,0,.5-.7-.5-.5h0c-.6-.4-1.6-.5-2,.1,0,.6.9.2,1.3.3.2.8-1,.7-1.5.7-.2-.3-.4-.3-.7,0h-1c-.6-.4-1.4-.1-2.1-.2v-.7c.2-.1.4-.2.8-.2.1.2.4.2.7.2.2.3.4.3.7,0,2.4-.5-3.9-.7-4.6-.6.3-.2-6.8-.5-4.5.2v.5c-1,.6-2.3-.4-3.4.2-.6.2-1,0-1.3-.4-.4-.4-1.7-.2-1.8.3-.6.3,1.1.4,1.1.6-.2.7-1.7.2-1.7.8s.1.4,1,.5c.2.2.4.2.7.2,1.2.9,3.2-.5.7-.5,1-1.9,2.1.9,3.6.7.1,0,.6.4.7.5h.4c-.1.5,1.2,1,1.5.5h.4c.4.3,1.5.3,1.8,0,.3,0,.5,0,.7-.2h1c.5.3.9,0,1.5,0s1,.1,1.1-.2c.4,0,.7,0,1.1.2v.2c.7.1.7,1.3,1.5.8.5-.2,1.9-.3,2.5-.2,1.3,1.5,1.3-.3,2.9,0,.2.2.4.2.7.2-.2.7.6,1.2.7.3,1-.5,1.9-.1,2.9.3v.2s.1,0,.2.1c.4.1.6,0,.5-.5.7,0,1.4-.4,2.1,0v.2s-.1.1-.1.2h0c.2.1,1,.2,1.2,0,.6.3,1.2-.4,1.9-.2v.3s3,.1,2.9-.1v-.7c.7,0,.8.4,1.1.7h0c0,.1,35.5.1,35.5.1v-4.4h-.8Zm-267.7-76.7c-.3,0-1-.1-1.1.2-.5,0-1-.1-1.4.2-.2,0-.5.2-.7.2-.2-.2-.5-.2-.7,0-.5,0-1-.2-1.5.1-.3.3-2.2-.1-1.4.6,2.4-.3,5.1-.4,7.4-.9v-.4c-.2-.3-.4-.3-.6,0h0Zm257.9-30.4h.7v.2c.2.1.4.3.7.1,1.2-.8,1.8.5,3,.7,1.2-2-4.3-1.4-5.1-1.5.1.2.2.3.3.5h.4Zm-194.5,61.2c-1.9.6-4.2.7-6,1.2-.3,0-1-.1-1.1.2-1.2.2-2.9.2-3.8.9-.3.6.1,1.5.9,1.2.7-.1,13.7-3.4,10-3.5h0Zm46.7-222.1c.8-.3,1.6-.2,2.5-.2.5,1,1.6.5,2.5.5,4.8-.5,9.8.8,14.4-.8,12.6-.6,24.5.9,37.5.3v.2c.9.4,3.5.8,4.2,0,.6,0,7.6.7,4.8-.2-.4-.4-1.7,0-2.2-.2.7-.4,1.8-.2,2.6-.5-.3,0-.5-.3-.8-.4.9.2,3.2-.3,1-.4-.6-.5-1.7,0-2.5-.2-1.4-.2-2.9-.5-4.2-.2-12.3-.4-24.8,0-37.1.7-7-.2-13.9.3-20.6,1-1.3,0-3.1-.2-4,.8.6.3,1.4,0,1.9-.4Zm-41.8,58.2c.1,0,.3-.1.4-.2.4.1.7-.1,1.1-.1.3-.3.9.1,1.2-.2.9-.1,1.8-.3,2.9-.3.1-.2.5-.2.7-.2v.4-.4c.3-.3.9,0,1.2-.4h.4c.4-.4.8.1,1.1-.3.7-.4,1.6.2,2.3-.4,1.7.4,2.8-.7,4.4-.5.2-.2.4-.2.7-.1,1.1-.6,2.9,0,4.1-.8.4,0,.8.1,1.1-.2.2,0,.6,0,.8-.2.4,0,.8.1,1.1-.2.7-.1,1.6.1,2.3-.4h.4c.7-.4,1.5.3,2.2-.3.2,0,.6,0,.8-.2.2,0,.5,0,.7-.2.2,0,.5,0,.7.1.4-.3,1,0,1.5-.3h0c.7-.4,1.6-.1,2.3-.5.7-.3,1.6.2,2.2-.3.6,0,1.3.1,1.9-.3.2,0,.5,0,.7-.2.2,0,.5.1.7-.1.4,0,.8.1,1.1-.2.4,0,.8.1,1.1-.2.3.1.8-.1,1.1-.1.1.1,0,.2-.1.3-.2,0-.5,0-.7.2h-.3c.2.3.5.4.9.3.9-.3,1.8.4,2.6.1.1-.8-1.2-.2-1.5-.7,0-.6,1-.1,1.3-.5.2,0,.5,0,.7-.2,3.6-.4,7.6-1,11.2-1.1.2-.2.4-.2.7-.1.7-.3,1.9-.2,2.7-.4.6-.4,1.2-.1,1.8-.3.4-.3,1,.1,1.5-.2.4.1,1-.2,1.4,0,.8-.5,2.3,0,3.2-.6-.1-1.2,1.6-.1,2.1-.1.2-.6.9-.2,1.5-.3,0-.5.8-.4,1.2-.4,1.2.4,1.7-.6,2.8-.3.3-.3.7.1,1.1,0,.2-.2.5-.1.7,0,.3-.3.7-.1,1.1,0,.3-.3.7-.1,1.1,0,.3-.3.7-.1,1.1,0,.3-.3.7-.1,1.1,0,.4-.4.9,0,1.4,0,.2-.2.5-.2.7,0,.4-.4.9,0,1.4,0,.5-.4,1.5.1,2.2.2,0-.1.2-.2.4-.2.4-.4.9,0,1.4,0,.3-.2.7-.1,1.1,0,.2-.2.5-.2.8,0,.2-.3.7-.2,1.1-.1.4-.4.9.1,1.4,0,.2-.3.7,0,1,0,.3-.2.7-.1,1.1,0,.3-.3.7-.1,1.1,0,.4-.3.9,0,1.4,0,.4-.4.9.1,1.4,0,1.3-.1,3-.1,4.4,0,.2-.2.5-.2.8,0h.6c.2-.3.7,0,1,0,.2-.2.5-.2.8,0h.6c.8-.2,1.7-.1,2.5,0,.4-.4.9,0,1.4,0,.2-.3.7,0,1.1,0-.2-.4-.9-.3-1.1-.6,1.4.2,2.9-.2,4.4,0,1.1-.3,2.4.1,3.6,0,.5-.5,1.6-.3,2.3-.1.8-.2,1.6,0,2.5,0,.4-.3,1,0,1.4,0,5.3-.4,10.9.3,16.3.5,10.3.1,20.9,1.6,31.3,2.5,1.2-.5,2.8.6,3.9,0s6,.9,2.4.6c-.3.2-.7.1-1.1,0-.4.3-1-.1-1.5,0-.4.4-.8-.1-1.1.3-1.7,0-3.6.5-5.3-.1-9.1,1.1-18.7.4-28,.4-.8.2-1.7.1-2.5,0-.4.3-.9,0-1.4,0-.3.2-.7.1-1.1,0-.3.3-.7.1-1.1,0-.3.2-.7.1-1.1,0-.3.3-.7.1-1.1,0-.8.4-1.8-.1-2.7.1-.2.2-.4.2-.7.1-.6.3-1.2,0-1.8,0-.6.3-1.4.2-2.2.1-.2.2-.4.2-.7.1-.4.3-.9,0-1.4,0-.4.4-.9-.1-1.4,0-.6.4-1.4.3-2.2.1-.9.3-1.9.2-2.9,0-.2.2-.5.2-.7.1-5.3.5-10.9,1-16.3,1h0c-.2.2-.4.2-.7.1-1.4.4-2.9.2-4.4.2-.2.2-.4.2-.7.1-.3.2-.7.1-1.1,0-.3.2-.7.1-1.1,0-.2.2-.4.2-.7.1-.2.2-.4.2-.7.1-.4.3-1,0-1.4,0-2.6.3-5.7.7-8.4.7-.2.2-.5.2-.7.1-2.9.5-5.8.5-8.7.8-.2.2-.4.2-.7.1-.4.3-1,0-1.4,0-.5.3-.9.4-1.5.2-.2.2-.5.2-.7.1-.2.2-.5.2-.7.1-.6.3-1.4.2-2.2.1-.5.3-1.2.3-1.8.2-.2.2-.5.2-.7.1-.4.3-1.1-.2-1.5.2-1,0-1.8.6-3,.3h0c-.2.2-.4.2-.7.1-.3.2-.7.1-1.1,0-.2.2-.5.2-.7.1-.2.2-.5.2-.7.1-.5.4-1.3-.3-1.8.2h-.4c-.2.2-.4.2-.7.1-.3.3-.7.1-1,.1-.2.2-.5.2-.7.1-.5.4-1.2.3-1.9.3-.3.2-.7.1-1.1,0-.2.2-.4.2-.7.1-1.2.3-2.4.4-3.6.4-.2.2-.4.2-.7.1-.4.4-.8-.1-1.1.3h-.3c-.3.2-.7.1-1.1,0-.3.2-.7.1-1.1,0-.2.2-.4.2-.7.1-.6.5-1.5,0-2.2.4-.2,0-.5,0-.7.2-.2,0-.5,0-.7.2-.2,0-.5,0-.7.2-.2,0-.6,0-.8.2-.4.1-.8-.3-1.1.1-.2,0-.5,0-.7.2-.2,0-.9-.1-1-.2-.1,0-.3.1-.4.2-1.1,0-2.2.3-3.2.5-.4.4-1-.2-1.4.3h-.3c-.4.3-1.1-.2-1.5.2-1.3,0-2.6.6-3.9.4-.5.2-.9.5-1.5.2-.5.2-1.2.2-1.8.2-1,.7-2.6-.1-3.7.6-.2,0-.6,0-.8.2h-.3c-.7.3-3.7.7-4-.1-.2,0-.5,0-.7-.1.3.8.2.9-1.2.8-1.1.4-2.4.5-3.6.4-.7.3-1.7.6-2.6.4-.3.4-.8-.1-1.1.3h-.3c-.3.2-.7.1-1.1,0-.1.1-.3.1-.3,0-.4,0-.7-.1-1.1-.2-.2.3-.6.4-1.1.3-.3.2-.7.1-1.1,0-.7,1.2-7.2,1.2-8.8.9-1.2.5-2.6.6-4,.9-.9.1-1.9.6-2.9.3-.5.5-1.3,0-1.9.4-.2,0-.5,0-.7.2-.2,0-.5,0-.7.2-.4.3-1.1-.2-1.5.2-.6,0-1.1.5-1.7.3-.4.4-1-.2-1.4.3-.2,0-.5,0-.7.2h-.3c-1.2.7-1.1-.1-1.7-.9,1-.4,2.4-.7,3.6-.7-.3.4-3.4.6-2.1,1.2.1,0,.3-.1.4-.2.2,0,.6,0,.8-.2.2,0,.6,0,.8-.2.7,0,1.5-.6,2.3-.6.2-.2.4-.2.7-.1.5-.3,1.2.2,1.8-.1.5-.4,1.2-.4,1.8-.2v-.2c.1,0,.3-.1.4-.2.2,0,.5,0,.7-.2.2,0,.6,0,.8-.2.2,0,.5,0,.7-.2.2,0,.5,0,.7-.2l-.3-.3h-.4c-.2.2-.4.2-.7.1-.9.1-7,1.7-6.8.6,2-.5,4-.6,6-1.1.3-.3.7-.1,1.1-.1.2-.1.4-.3.8-.2.1,0,.4-.2.4-.2.3-.4.8.1,1.1-.3.7-.1,1.3,0,2.2-.4-.2-.3-.6-.3-1-.4-.4.5-1.2.3-1.8.2-.5.2-.9.5-1.5.2-.4.1-.6.6-1.1.3-.5.2-.9.5-1.5.2-1.5.7-3.4.1-4.9.9h-.4c-.3.4-.8-.1-1.1.3h-.3c-.3.2-.5.1-.7-.1v-.2c.1,0,.3-.1.4-.2.2,0,.5,0,.7.1,1.3-.7,2.9-.9,4.4-1.2.2-.2.4-.2.7-.1.2-.5-1.3-.6-.7-1.1,0-.1.3-.1.5,0,1.2.7,1-.7,2-.5.2-.2.4-.2.7-.1,1.4-.3,3.6-1.1,5.1-.4,1-1,1.4-.9,3-.5.2-.2.4-.2.7-.1.2-.2.4-.2.7-.1.2-.2.5-.2.7-.1.2-.2.4-.2.7-.1.3-.4.1-.8.9-.8s1.3-.4,2.1.3h0c.2-.2.5-.2.7-.1.4-.4,1,.1,1.5-.2-1-.6-.5-1.5.6-1.3.3-.3.6-.1,1-.1,1.8.4,2.8-1,4.5-.7l-1.5,2.1Zm6.8-.1c.3.3.8.5,1.1.9-.3-.3-.8-.6-1.1-.9-.3,0-.6-.2-.6-.4.3,0,.7.1,1,.2-.3,0-.7-.1-1-.2,0,.3.3.3.6.4Zm191.8-77.2c-1.2-.3-2.9-.2-3.8-.2-.1-.2-.4-.2-.7-.2-2.5-.5-5.4-.7-8.1-.7h0l-.2-.2c-1.5-.3-3.1-.4-4.7-.3-2.1-.6-4.5-.4-6.7-.5-.1-.2-.2-.2-.3,0h-.4c-1.9-.5-4-.3-6.1-.4-.2-.2-.5-.2-.7,0-1.5-.3-3.1-.2-4.7-.2-.1,0-.2,0-.3,0-2.7-.2-5.5-.4-8.2-.4-2.2-.6-4.9-.4-7.2-.3-.3-.3-.7-.2-1.1-.2q-.5-.3-1,0h-2.5q-.5-.3-1,0c-.2,0-.3,0-.4.2-14-.4-29.3-.2-42.7,0-.2-.3-.4-.3-.7,0-.3,0-.9,0-1.1.2-3.3,0-6.7,0-10,.4-.5-.3-1-.3-1.4,0-.1,0-.2,0-.3,0-.7.2-1.2,0-1.9,0h0c-.2-.3-.4-.3-.7,0-7.4.6-14.8.6-21.9,1.7-3,.3-6,.3-8.9.8-1.2,0-2.5,0-3.6.4-.5,0-1,0-1.4.2-.5,0-1.3,0-1.8.2-.7,0-1.5-.2-2.2.2-1.5,0-3.2,0-4.6.4-.3,0-.8,0-1,.2-1.2.2-2.5,0-3.5.4-.7,0-1.5-.2-2.1.2-.5,0-1.3,0-1.8.2-.5,0-1,0-1.4.2-.7,0-1.6,0-2.2.2-1.3-.3-2.7-.9-3.9,0-1.2,0-2.1.3-2.8,1-.6.2-4.6,0-3.4,1.1.2.2.5.3.7,0,.9,0,1.7,0,2.4-.5.1,0,.2-.2.3-.3,3.5.8,7.3-.7,10.5-.7,2.9-.2,6.4,0,9.3-.8,1.2,0,3.4.9,4.6,0,.7,1.1,1.7.7,2.7.2.5-.5,1.7.3,2-.5,1.5.6,3.6-.6,5,.2.1.4-.2.7.3.9,4.5-1.7,10-.4,14.8-1,1,1.1,2.2,1,3.7.5,1.7-.8,3.8,1.2,5.2,0,.9-1.1,1.7.4,2.8.3v-.2c-1.5-.4.1-1.4.7-.4,1.5,2,7.6.2,9.9,1,.3.3,1,.2,1.4.2.2.2.5.2.7,0,.8-.2,1.6.6,2.4,0,3-1.3,5.7,0,8.6-1.5.5.5.6.5,1.1,0h1.1c.4.2.6.8,1.3.3,2,0,4.4,1.9,6.2.7.7-.2,1.1.5,1.7-.2,26.9-4.4,56.5-3.5,84.8-3.4v-.9c-.1,0-.3,0-.4.2h-.4v1Zm-302.8,9.7c1.2-2.1,5.1-2,7-3.4.5,0,.9-.2,1.1-.5,2,0,3.5-1.5,5.3-2h0c.3,0,.6,0,.7-.2.7,0,1.2-.4,1.8-.6.3,0,.5,0,.7-.2,4.1-1.1,8.4-2.9,12.1-5.1,1.1.2,2-1.9,2.9-.8-.3.2-.5.3-.7.5v.2c.3,0,.8-.2.7-.6h0c1.4-.6,3.2-.9,4.3-1.9.3,0,.5,0,.7-.2.5,0,.3-.6.7-.7.3.2.8-.3,1.1-.4.6-1.1,4.4-.8,3.6-2.4.3,0,.3-.3.4-.5.4-.2.8-.2,1.1-.5.1,0,1.7-1.1,1.8-1.2.1,0,.2-.2.3-.3,1.8-.4,3.1-1.6,4.7-2.3.1,0,.2-.2.3-.3v-.2c6.4-1.3,1.5-2.4-1.2.3-.3,0-.6,0-.7.3-.1,0-.7.5-.7.5-.1,0-.2,0-.3.2-.7,0-.9,0-1.4.5v.5c-.8,0-1.8,0-2.1.7-.8.3-1.1.8-1.8,1.1,0,0-.3-.2-.2-.3.4-.4-.2-.9,0-1.4-.9-.7-1.6.5-2.4.9-.1,0-1,.6-1.1.7-.3.3-1,.2-1,.7h0c-.1,0-.2.2-.3.3v.2c-.3,0-.3.3-.3.5.3,0,.6,0,.7.2-.4.6-1.2.8-1.5,1.4.1.3,0,.4-.3.5-.3-.3-.6-.2-1.1-.2-.2-.2-.5-.2-.7,0-.1,0-.3.2-.4.2v.2c.5,0,.9,0,1.3,0h-1.3v-.2c-.3,0-.5.3-.7.5-1.1.2-.9.3-.9-.6h-.3c-.2.2-.4.5-.9.4v-.7c.4-.2,1.1-.7,1.1-1.2h-.3c0,.2,0,.4-.2.6,0-.2,0-.4.2-.6.4,0,1.5,0,1.4-.4,1-.4,2-.7,2.1-1.6q.7,0,.7-.7c-1-.2-1.9-.2-2.7.4h-.2c.6-1.4,1.4-1,2-2.1.2-.3.3-.6.9-.5.4,0,.1-.6,0-.9.3-.2.8-.3,1.1-.7v-.2c.2,0,.4-.2.5-.3v-.2c-.3,0-.8,0-1,.3-.3,0-.6,0-.7.2-.3,0-.4.3-.4.5-.7.6-2.5.3-2.6,1.3-1.2.3-2.7.3-3.5,1.4-.3,0-.5,0-.7.3-.3,0-.3.3-.4.5-.7,0-1.4,0-1.7.5-.2,0-.6,0-.7.2-.2,0-.3,0-.4.2-.9,0-1.3.5-1.8.9-.7.3-1.8.3-1.8,1.2,0,0-.6.4-.7.5-1.1.2-2.2.9-2.8,1.8-1.7.3-3.8,1.7-5.4,2.5-.3,0-.5,0-.7.3-.8.3-1.7.5-2.5.9-.5,0-1.2.5-1.8.7-.3,0-.5,0-.7.3-.3.2-.9,0-1.1.5-.5,0-1.2.5-1.8.7-.3,0-.5,0-.7.2-.3,0-.5,0-.7.3-.7,0-1.6.4-2.2.9-1.2.3-6,1.6-6,2.7-.7-.3-1.3,0-1.8.3-.8.3-3.7.3-3.3,1.7,0,.4.2.6.7.6,1.8,0,3.4-1.4,5.1-1.2,0,.7-.3,1.1-1.4.9-.6-.2-1.4.7-.4.9.3,0,0,.3,0,.4-1,0-1.9-.8-2.1.6-.3,0-.5,0-.7.2-.4,0-.8,0-1,.3-.3,0-.5,0-.7.2-.3,0-.9,0-1.1.2-1.8.3-3.5.5-5.5.8,1.3,0,2.3.2,3.5.4,1.5-1.7,3.9,1.3,5.6-.3.3,0,.5,0,.7-.2.9.2.9,0,.5.6,0,0,0,.2,0,.3,2.6.5,4.5-2.2,7.4-1.6l-.2-.3Zm102.1,162.5c.3,0,.6,0,.7.2h.7c.5-1.1,1.7.3,2.5-.4h.3c.1-.2.2-.2.4,0h.7v-.2h2.8v-.2c.7.2,3-.3,1.5-.9-2,.3-3.6.7-5.8.5v.2h-1.1c-.2.2-.5.2-.7,0h-1.1v.2h-1.1v.2h-.4c-.4.3-.3.4.4.5h.2Zm-58.1,8.2h-1.7v-.4c3.7-1.5-5.2-.1-5.6.8-.5.5.8.3,1.1.1.1.2.2.3.4.5-.3.1-.3.3-.4.4,0,.2-.4.2-.6.3q-.5-.2-.8.2c-.4-.2-1.3.7-.5.8.4.1.9-.2,1.2.2v.2c.2.2.5.2.7,0,.3-.1.5.1.8.2.1.2.2.2.4,0,.3,0,1,.1,1.1-.2,1-.2,1.8.6,2.5.1.1,0,.2-.2.3-.3,1-.2.8-1.1,0-1.5v-.2c.4-.2,2.7-1,1.1-1.2Zm-7.2-191c-.3-.9,1.9-1.4,1.4-2.2-.3-.2-.6,0-.8,0v.5c-.7.4-1.6.7-1.8,1.4.4-.1,1.2.7,1.2.2h0Zm146.1,183.1c.1,0,.2.2.4.2.2.2.5.2.7,0v-.5c.4.1.7-.1.8-.5h-.4v-.5c-.7,0-1.8,0-2.2.7.1.2.2.3.4.5h.3Zm106.9,6.9c-.1,0-.2.2-.4.2h.4v.2c.4,0,1.2,0,1.5-.2.6.3,1.3.6,2.1.5-.4-1.3-1.9-.5-2.8-1h-.7v.3h-.1ZM230.8,45.5c1,0,1.6-.6,2.5-.7-.6-.4-1.8,0-2.5-.2-.2.3-.6.6,0,.9h0Zm149.8,197c.5-.1,1.4.2,1.7-.2.5-.3-1.2-.8-1.5-.6-.4-.4-1.3.1-1.5.5.2.3.6.5,1.1.5l.2-.2ZM236.1,44.6c.2,0,.4-.2.6,0,.8.4,1.6-.3,2.3-.3,1.2-.7,3,.4,4.1-.6.7,0,1.9.3,2.4-.3.3,0,.6,0,.7-.2h0c6-1.7-10.1.9-11.2,1,.3.7.5.6,1.1.4Zm164.3,92.2v7.8c-.3,0-.9.1-1.1-.2-.3,0-.6,0-.7-.2-.2-.1-2.1.2-2.4-.2-.5,0-1,0-1.4-.2-1-.5-2.3.7-2.8-.6h-.7c-.2.9-2.1.2-2.2-.5-.7-.2-1.6.2-2.2.2-.5-.6-1.4-.3-2-.7-2.9,1.7-7.3-.4-10.5-.6,0,0-.1-.1-.1-.2.5-.2,1.1,0,1.9-.1-4.6-1.5-10-.9-14.5-1.8-.6,0-1.3.2-1.8-.2-.7-.1-1.6.3-2.2-.2-2-.2-4.3-.1-6.2-.5,0,0,.2,0,.3-.1,6,.2,12,.4,17.8,1,.4-.3.7-.3,1,0,.9.1,1.9-.3,2.7.2,1,0,2.1,0,3.2.2v-.7c-.4,0-.8,0-1-.2-.4,0-1.2.1-1.5-.2.1-.5-.8-.4-.9-.7-2-.2-4.2-.2-6-.7-.2,0-.3-.1-.4-.2-1.7.1-3.1-.4-4.6-.5-.6.6-1.3-.1-2.1,0q-.5.3-1,0c-.5,0-1.1.1-1.4-.2-.8-.1-1.9.3-2.4-.3-.8-.1-2,.3-2.5-.3-1.8-.2-3.7.2-5.3-.5-1.1.1-2.3,0-3.4.2-2-1.4-5.2-.3-7.3-1.2h-1.8c-.2.2-.5.2-.7,0-5.8-.1-11.4-.3-17.1-.6.3.2-3.5-.5-2.8.5,12.9.2-24.9,1.4-25.6.2-3.2.3-6.5.1-9.5-.2-.9-.1-1.3.5-2.1,0-.8,0-1.8.5-2.4,0h-1.5c0,.2-.2.2-.3,0-.3,0-.6,0-.7-.2-1.3-.2-3.1.4-4.2-.3-1.1,0-2.6.8-3.6,0-1.4-.1-3,.3-4.3-.3q-.5.3-1,0c-.6.1-.8-.5-1.4-.4v.2c.5.7-.9.6-1.1.3-.8,0-.9,0-1.1-.5h-7.1c-.2.2-.5.2-.7,0-.6-.1-4,.8-2.8-.5.8.2,1.6.2,2.2-.3,22.1-.7,43.6-.4,65.9.7.5.2,1,0,1.5,0,.3-.3.7-.3,1,0,4,.1,7.6,0,11.4.4.4-.3.7-.3,1,0,.9.2,3.4-.4,3.9.3,2.3.1,5.7-.1,7.8.6,1.1-.3,2.1-.1,3.2,0,.3-.3.7-.3,1,0,.1,0,.7,0,.7.2.3,0,.5-.2.8-.2,0-.2.2-.2.3,0,1.2,0,2.4-.1,3.5.2q.5-.3,1.1,0c.8.1,1.9-.3,2.5.3,2.8.4,5.9.1,8.6.6.8-.1,1.9.3,2.5-.3-.7-.5-1.5.3-2.2-.2-.8-.1-2.5.3-3.1-.2h2.1c-1.5-.2-2.4.3-3.3-.2,7.4-.6,15.2.8,22.7,1.1,0,0,0,.1.1.2h.3-.3s0-.1-.1-.2c.6,0,1.3-.2,1.8.2.5.1,1.6-.2,2.1.2,3.6.2,7.6.1,11,.9.1,0,.3.1.4.2h0c.6.1,1.6-.2,2.1.2.4.1.7-.3.3-.5-.6-.6,1.4-.5,1.7-.2h1.5l-.5.2Zm-27.3.8s.2-.1.3-.2c0,0-.2.1-.3.2Zm-94.7-66.7h1.5c.1,1.1,1.3.6,2,.7,4.3.7,9.1.6,13.3.6s2.9.6,4.2,0c1.5.9,2.5,0,4.2.4.2.3.5.2.7,0,4.8-.2,10.6-.4,15.2.2.3,0,.8,0,1.1-.4.5,0,.7.3.5.6-1,1,3.6.4,4.2.4.6-.5.9-.5,1.1,0,.9.5,2.5,0,3.5.2.9.6,1.5-.3,2.4-.3.7,1.7,4.5,0,6.1.3.1.2.2.2.4,0,1.5-.2,2.5.8,3.9.8s1.7,0,2.4.4c5.8-.2,11.7-.6,17.5-.4.2.3.4.3.7,0,9.1,1,18.9,1.9,27.9,1.1,1,.2,2.4.6,3.2,0,.5-.6.8.3,1.3.2,1.1-.7-.1-1.5-1-1.2-1-.4-2.3-.4-3.4-.4-.2-.2-.5-.2-.7,0-1.1,0-1.9-.9-3.2-.2-.3,0-.6,0-.8-.2-.9,0-2.1-.3-3.1-.5v.2c.2,0,.3.3.3.4,0,0-.1-.3-.3-.4v-.2h-1.4c-3.1-.4-6.9-.8-10-.4,0,.3-.8.2-1.1.2h0c0-.3-.1-.4-.4-.5-.3-.4-1.4,0-1.9-.2-4.2-.7-8.9-.8-13.2-1-3.1-.3-6.7-.9-9.8-.2-1-1.4-7-.8-8.5-.7-.8-1.3-3.3,0-4.6-.6-.7-.5-2.2,0-3.1-.2-1.5-.5-3.4,0-5-.2-.5,0-2.1-.7-1.8.2-.5,0-1.3.2-1.7-.2-.2-.4-.7-.6-1.2-.2-1.5.7-1-.3-2.2-.4-3.6.5-8.5-1.1-11.6.7-.4,0-.7.2-1.1,0-.2-.3-.1-.8-.7-.4-.2,0-.2.2-.2.4-.5,0-1,0-1.4.2-.6,0-1.2,0-1.7-.3-1.5-1.1-3,.2-4.5,0-.2-.3-.4-.3-.7,0-.8.2-1.5-.4-2.2,0h-2.5c-.2-.3-.4-.3-.7,0-1.4,0-2.9,0-4.3.2-1.6,0-5.6,0-7.2.5.1,0,.3-.2.5-.3-2.1.2-5.7.5-.9.9Zm120.4,288.1h1.6v8.2c-1.5.4-3.1.2-4.6,0h0c-.2.3-.4.3-.7,0-.7-.1-1.5.5-2.2,0-2.7-.3-5.7.5-8.2-.4.6-.5,1.8-.1,2.7-.2.5.1,3-.2,3.6.2.9-.2,5.8.3,7.3-.2v-.7c-7.9-.1-15.5-.6-23.4-.2v.2s.1.1.1.2h-.1c.1,1.4-1.8.6-2.4,1.1-4.8-.6-9.7.3-14.4-.2h0c-.9.4-1.9.1-2.8.2-.2.2-.5.2-.7,0-1.5.1-3,.3-4.6.2-.7.7-1.8-.3-2.4.2h-6c-.5.4-1.1-.5-1.8-.2-12.5,1.6-26.1.8-38.7,2-3.3.4-6.7.8-10.1.8-.5.4-1.2.2-1.8.2-.6.5-1.5.1-2.2.2h.4c.5,1.2-.9.8-1.8.9-1.8-.1-4.6,1.2-6-.1-2.6-.3-5,.8-7.4,1.2-.8.6-2-.2-2.8.4-6.1.3-12.5,1.2-18.5.8-16,.3-32.1-3.8-48-1.4-4.9-.1-10.9,1.1-15.6.1-.7.6-1.9.2-2.8.3-.5.7-3.2-.1-1.4-.4.4-.4.9-.2,1.4-.2.3-.3.7-.2,1.1-.2-.2,0-.5.2-.7.3.4,0,.6-.4,1.1-.3.2-.2.4-.2.7-.2.2-.3.7-.2,1.1-.2.3-.3.6-.2,1-.2.2-.2.4-.2.7-.2.3-.3.7-.2,1.1-.2.1-.2.4-.2.7-.2.3-.3.7-.2,1.1-.2.2-.2.4-.2.7-.2.2-.2.4-.2.7-.2.1-.2.4-.2.7-.2.2-.3.7-.2,1-.2.2-.2.4-.2.7-.2.3-.3.7-.2,1.1-.2.3-.3.6-.2,1-.2.1-.2.5-.2.7-.2.3-.3.7-.2,1.1-.2.3-.3.7-.2,1.1-.2.3-.3.7-.2,1.1-.2.4-.4.9-.2,1.4-.2.3-.3.7-.2,1.1-.2.4-.4.9-.2,1.4-.2.2-.5.9-.1,1-.4.3-.3.9-.2,1.4-.2.4-.3.9-.2,1.4-.2.5-.4,1.1-.2,1.7-.2,11.9-1.8,24.5-.7,36.6-1.4-.2,0-.3.1-.5.2,1.9-.6,4-.4,6-.4,2.5-.6,5.2-.4,7.9-.6.8-.6,1.8.1,2.7-.2,2.1-.2,4.2-1.2,6.2-.5,1.3-.5,4.5-.7,5.9-.4.6-.2.8-.7,1.4-.2h3.2c.3-.3.7-.2,1.1-.2,1.4-.6,3.7-.4,5.3-.5,1.4-.1,2.7-1.6,4-.7,1.5.2,3.1-.3,4.6-.1,2.1-.6,4.5-.4,6.8-.6.6-.6,1.7-.2,2.4-.3,1-1.3,3-.5,4.3-.8,1.7-.8,3.9-.6,5.7-.6.3-.4,1.3-.1,1.8-.3,1.5.4.7,1-.4.8h0c.7.4,1.8.1,2.6.2-.6.2-1.2.2-1.8.2.9.1,1.9-.3,2.8-.2.2-.2.4-.2.7-.2.8-1,2.6-.3,3.8-.5.6-.4,1.2-.4,1.8,0,22.8-1.5,47-.5,69.6-.3.4,0,.7,0,1.1.2.6.1,1.8-.3,2.2.3h.3l-1-.7Zm-66.5-.5l67.3-127.9c-17.7-1.4-36.6-2.2-54.4-.7h-.8c-.1-.2-.2-.2-.4,0-2,.1-4.5-.2-6.3.5-1.6,0-3.4-.1-4.9.4-1.1.1-2.7-.2-3.7.3s-2.1-.3-2.3.3c-.3,0-.6,0-.7.2-.5,0-1.4-.4-1.8,0-.2,0-.4,0-.5.2-.5,0-1.1-.2-1.4.3-.6,0-1.3-.2-1.8.2-.7.1-1.8-.3-2.2.3-1.8-.1-3.7.3-5.3.7-.6,0-1.3-.2-1.8.2-.6.1-1.3-.3-1.8.2-.6,0-2.5-.2-3.1.5-.7.1-1.7-.3-2.1.3-.5,0-1.1-.1-1.5.2-.6,0-1.3-.1-1.8.2-.5,0-1.3-.2-1.7.2-.5,0-1-.1-1.5.2-.1.1-1.5-.2-1.7.2-.7-.1-2.2,0-2.1,1-.6-.5-2.1-.9-2.8-.2-.5,0-1-.1-1.4.2-.6,0-1.2-.1-1.7.2h-.3c-.4.3-1,.2-1.5.2.5,0,1.1,0,1.5-.2-.5,0-1.1-.2-1.5.2-.5,0-1-.1-1.4.2-.5,0-1.2-.1-1.5.3-.5,0-1.2-.2-1.6.2-1.4.1-3.2.2-4.5.6-.5,0-1-.1-1.4.2-1.5.1-3.3.1-4.5.7-.1.4-.5.2-.8.2q-.4-.4-1,0c-.5,0-1-.1-1.4.2-1.6-.1-3.2.3-4.6.7-1.8,0-3.6.3-5.3.7-1.6.2-4.5.1-5.5,1.2-1.8-1-2.6.3-4.3.1-.8-.2-1.5.3-2.3.4-.2-.2-.4-.3-.7,0-4.3.3-8.5,1-12.6,1.6,0,0-.1.1-.1.2.6.3,1.4-.2,2,.3-.1.1-.3.2-.4.4-1.8,0-3.6.6-5.3.9-.7.1-1.5-.3-2.1.2-.5,0-1.3-.1-1.8.2-.6.1-1.7-.3-2.1.3-.5,0-1.1-.2-1.4.2-.5.1-1.4-.2-1.7.3-.6,0-1.3-.2-1.8.2-1.4.1-2.7,0-4,.4h-.6s0,.1-.1.2c0,0,0-.1.1-.2-1.2.3-2.6,0-3.7.4-2.7.3-5.5.2-8.1.8h-.4v-.5h0c22.3-2.5,5.7-1.5-5.4.2-.5,0-1-.1-1.4.2-.9.1-1.8-.2-2.5.2-.6.1-2.7-.3-2.3.6.6.3-.2.4-.2.7-.3,0-.6-.1-.8-.4,0-.1-.2-.2-.4-.4-.3,0-.6,0-.7.2-1.1-.4-1.1,1.4-2.1.5,1.2-.1.3-.7-.4-.5-.1.1-.4.3-.7.2-1.1,0-1.1.1-1.1.9-1,.1-.3-.5-.8-.8-3.7.8-7.9.9-11.5,1.6-.6,0-1.3-.1-1.8.2-1.6.5-4.4,0-4.7,1.9-.5,0-.8.2-1,.5-.6,0-1.1,0-1.4.4h-1.1q-.4-.3-.6,0c-.7,0-1.4-.1-1.8.4-.3,0-.7-.1-1,.2-.3,0-1-.1-1.1.2h-.4c-.6-.5-.7-.5-1.4-.2-.6,0-1.3-.2-1.8.3-1.7.6-1.8-.9-2.5.9-.9.1-1.9.4-2.8-.1v.5c-1.2-.1-2.2.3-3.2.7.3,0,.4.1.4.2,0,0-.1,0-.4-.2h-1.1c-.3-1-1.7.5-2.5.4-1.9.8,3.4.4,3.6,0,3.2-.4,6.5-.8,9.4-1.6.7-.3,1.4.3.5.8-.3,0-.9-.1-1.1.2-.3,0-.5,0-.7.3-.5,0-1,0-1.4.2-.3,0-.9-.1-1.1.2-1.2.5-3-.1-4.2.6-.5,0-1-.1-1.4.2-.5,0-1,0-1.4.2-.5,0-1-.1-1.4.2h-.3v.2c-.1,0-.3.1-.4.2.1,0,.3-.1.4-.2v-.2c-1.8-.2-3.2.7-4.6,1.4-.1,0-.2-.2-.4-.2-.4-.4-1,0-1.1.5h-1c-.7.7.9.3,1.4.4v-.2c1.6,0,3.1-.5,4.7-.4v-.2c.3,0,.8.1,1-.2.5,0,1.3.1,1.8-.2.5,0,1.1.1,1.4-.2h.7v-.2c.5,0,1,.1,1.4-.3.8-.1,2.5-.1,3.1-.4.4,0,.8,0,1.1-.3h1.8v-.2c.5,0,1.3,0,1.7-.2.5,0,1.1.1,1.4-.3.4,0,.8,0,1.1-.2h1.8c.6-.4,1.5-.1,2.2-.2v-.2c5.9-.2,11.5-1.5,17.4-1.5.1.2.2.2.3,0,.4-.3,1-.3,1.4-.5.1.1.2.1.3,0,1.1-.2,1.9.8,2.9.1.8.4,1.5.8,2.1-.2h1.4c.3.4.5-.3,1-.2.8-.1,1.6.4,2.3-.1.4-.3.9-.2,1.4-.2.1.1.2.1.3,0,.1,0,.6-.4.7-.5.9,0,1.4.8,2.2.1,0,0,.2,0,.3-.1,2.2.3,4.5,0,6.7-.1.9-.7,2.3.5,3.2-.2,1.3.1,2.6-.3,3.9-.2.5-.5,1.7.1,2.2-.4,1.8-.2,4.2,0,5.7-1,.9.7,2.1,0,3.3.2,0,.5.9.4.7-.2.5,0,1,.1,1.4-.2,3.3.1,7.3-1.6,10.2.2.5.4.7.4,1.6.1,1.7,0,2.5.2,3.3-1.4.3,0,.6-.3.7-.5.9-.2,1.7.9,2.5.2.5,0,.9-.2,1.1-.5.8-1.2,2.6-.2,3.8-.1,4.6-1,9.3-.4,13.6-1.3,5.8-.5,12-1.2,17.7-2.3,6.2-.1,12.7-.7,18.5-2.2,8.5-1,17.3-2.5,25.7-3.9,3.5-.3,7.3-.6,10.6-1.6.6,0,1.3.1,1.8-.2.6,0,1.3.1,1.7-.2.7-.1,1.6.2,2.2-.2,21.1-2.2,42.5-2.4,63.8-2.7v-5.8h-.8l-67.7,128.6Zm-102.9,163.6c-.6-.6-5.8,0-1.5.3.5,0,1.4.2,1.5-.3h0ZM116.5,212.1c-.8.2-1.5.3-2.3.5,0,0,0,.1,0,.2,0,0,0,.1.2.2.8,0,1.7-.4,2.5-.6,0,0-.2-.2-.3-.3h0Zm58.5-10.2c0-1.7-2.8.3-.5.3s.6,0,.5-.3h0Zm110.7,171c2.9.4,1.7-1.7-.2-.4v.2s.2,0,.2.2h0Zm-91-94.3c2,.7,4.2,0,6.1.6-1,.1-5.1-.1-6.4.2-.4.1-.4.3,0,.5,0,.3.2.5.3.7,1.1,0,2.5.9,3.1-.5h.4c-.2,1.8,3.8.9,5,.8q.7.3,1.4,0c1,.6,2-.3,3,0,.4,0,.4-.2.5-.4-.4-.2-.8-.4-1.2-.5.6-.1,1,.9,1.5.3,1.6-.3,1.7,1.2,3.2.3.3,1.4,2.5-.3,3.4-.1,1,0,2.1-.3,2.8.4.2.2.6.2,1,.1.9-.4,2.7.1,3.3-.9.7,0,.6.4.9.6.7,1,1.5-.2,2.3,0,2.7,1,5.1-.5,7.6.4v-.5c6.7,1.6,14.5.8,21.3,1.5,3.5.5,7.3.4,10.8.3.6.4,1.2-.7,1.9-.1.2.2,1.1.3,1.4,0,.2,0,.5-.1.7-.2.2,1.3,3.2.5,4.3.7.3.3.8.3,1.1.2,1.6-.6,3.1.7,4.9.3,10.4-.4,21.2,2.8,31.8,2.2h.7c.1.2.2.2.3,0,1.5-.5-1.4-.5-1.8-.4h0c-4.4-.7-9-1.6-13.8-1.8-5.1-.7-10.7-1.2-16-1.3-4.5-.6-9.1-.9-13.8-1-11.3-1.2-22.8-1.3-34.3-1.8-.2-.2-.5-.2-.7,0-3.1-.1-8.9-.8-12.4.2,0,0,.2,0,.3-.1h.2c-4.6-.8-9.6-.4-14.2-.2q-.5-.4-1.1,0h-.4c-.3-.3-.7-.3-1,0-1.4-.3-2.8,0-4.2,0-.4-.3-.7-.2-1,0-.8.4-2-.4-2.8.2-.7-.2-1.4-.5-2.1,0,.3,0,.6.3.7.5.3.4.7-.2,1,0v-1.2Zm31.9,244.5c-1.3-.2-1,.6.1.7,1.4,0,1-.9-.1-.7Zm14.3-477.2c-.7,0-1.4,0-2,.3-.1.7,3.4.2,2-.3Zm91.5,350.5c.4.3,2.4.3,1.7-.4-.2-.4-2.6-.4-1.7.3h0ZM250.2,42.3c2.5.2,2.6-1.3.1-.4v.2h0v.2Zm2.9,43.7c-.5,0-1.1,0-1.5.2-.5,0-1.3,0-1.7.2-.5,0-1.4-.3-1.8.2-.4,0-1.2,0-1.4.2-.6,0-1.3-.2-1.8.2-.4,0-1.1,0-1.5.2-.6,0-1.2,0-1.7.2h-.4c-.6-.5-2.1-.2-2.4.5-1,0-7,.6-6.6,1.6-1.5,0-1.7-.7-3,.5,0,0-.2,0-.2.2h-.7c-.5-1-2.3-.4-3.2-.3q-.5-.3-1.1,0c-1.1.5-2.9,0-3.9.8-1.7.3-3.8-.7-4.9.8-1.3,1.2-4.2.9-5.7,1.9-.5,0-1,0-1.4.3-.3,0-.5,0-.7.2-.5,0-1,0-1.4.2-.3,0-.6,0-.7.2-.4,0-.8,0-1,.3-.6,0-1,0-1.4.4-1,0-4,.5-3.7,1.8,1.2,0,2.6-1.3,3.7-.6-.1,0-.3,0-.4.2-.3,0-.9,0-1,.2-.5,0-.9,0-1.1.4-.4,0-1.1,0-1.4.2-.3,0-.6,0-.7.3-.4.3-1,0-1.4.4-.3,0-1,0-1.1.2-.3,0-.5,0-.7.2-.2,0-.5,0-.7.2-.3,0-.9,0-1,.2-.2,0-.5,0-.7.2-1.9,0,0-1.1.8-1.4.5,0,1.3.3,1.4-.3,0-.2.3-.3.4-.5.3-.6-2.5-.6-2.7,0-3.4,0-6.5,2.7-9.8,2-1.2.5-3.6.5-4.2,1.7-.7,0-1.3,0-1.8.5-.2,0-.6,0-.7.2-.5.2-1.5,0-1.7.7-.4,0-.8,0-1.1.2-.3,0-.6,0-.7.3-1.4,0-2.1.7-3.2,1.1-.2,0-.5,0-.7.2-.2,0-.6,0-.7.2-.3,0-.6,0-.7.3-.3,0-.6,0-.7.3-.3,0-.6,0-.7.2-.2,0-.3,0-.4.2-.3,0-.6,0-.7.2-.3,0-.6,0-.7.2-.4.4-1.2,0-1.5.4-.9-.4-.9-.2-1.5.4-.3.2-.8.2-1.1.4-.8,0-1.8,0-2.3.6-.9,0-1.8.2-2.2.7-.6.8-2.9.3-3,1.5-.3,0-.5,0-.7.2-.8,0-1.4.2-1.8.7-1.5,0-1.5-.2-2.2.9,0,0-.2.2-.3.3-.7,0-1.1.4-1.4.7h.7c.2-.2.5-.4.7-.7-.2.2-.5.4-.7.7h-1c-.1-.2.2-.5-.1-.8-.3.6-3.6.7-2.6,1.3.9.4-.5.6-.8,1-.1,0-.2,0-.3,0-.2,0-.3,0-.4.2-.1,0-.4.2-.4.2-.1,0-.2,0-.3.2-.2,0-.5,0-.7.2-1.3.5-2.6,1-3.9,1.6.1.7,4.2-1.1,4.7-1.4.3,0,.6,0,.7-.2,1.4-.2,2.4-1,3.5-1.5.5-.4,1.6,0,1.8-.7.3,0,.6,0,.7-.2.3,0,.6,0,.7-.2h0c.7,0,1.1-.3,1.4-.7,1.4,0,2.4-.4,3.2-1.2.3,0,.5,0,.7-.3.3,0,.6,0,.7-.2.1,0,.6-.4.7-.5,4.9.4,5.5-3,10.3-3.2.9.2,1.4-.3,1.9-.7.3-.6,1,.5,1.4-.2,2.6-.9,5.6-1.5,8.2-2.8h0c.8,0,1.2.4,1.2,1.1-.6.8-1.7.9-2.5,1.5,1.5.2,2.8-1.2,4-1.4,1.3,0,2.5-.3,3.8-.3s.6,0,.5-.4c0-.3.4-.4.4-.6h0c1.2.2,2.4.2,3-.8,0,0,0,0,.1-.2.7,0,.3-.8,0-1.2h0c.1,0,.3,0,.4-.2h0c.9,0,.4.7.9,1.1,2.1-.6,3.8-.8,5.9-1.3.4,0,.8,0,1-.3.8,0,1.6,0,2.1-.5.6,0,1.1,0,1.4-.5.6,0,1.3,0,1.8-.2.7,0,1.3,0,1.8-.5.4,0,.8,0,1.1-.2.3,0,.5,0,.7-.2.4,0,.8,0,1.1-.2,6.1-1.1,12.1-3.2,18.3-3.5.7,0,.9-.5,1.5-.7.6.3,1.1.2,1.6,0,.5-.2,1.8.3,2.2-.3,2,.3,4-.9,6-.8,1.5.3,2.7-.6,4.1-.7.4,0,.9,0,.9-.6,1.3.2,2.3,0,3.6-.3.4,1,2.6,0,3.6,0,0,0,.1,0,.2-.2h0c3.3,0,6.7-.5,9.8-.8,0,0-.2.3-.3.4-.7,0-1.6,0-2.2.2-.8,0-1.7.3-2.5.2-.4.5-1.1-.2-1.5.2-.4,0-.9,0-1.2.3v.2c.3.3,1-.2,1.2,0v.2c.6.4,1.9,0,2.6.2,1.3.7,2.3-.4,3.6-.2.3.2,1.4.4.8-.2-.9-.7-1.7.3-2.5-.2v-.5c.5,0,1,0,1.4-.2h1.4c.4.6.6.6,1.4.2h2.5c.2.2.4.3.7,0h.7c.2.2.5.2.7,0,2.5-.2,6.4-.2,8.9-.4.1,0,.2,0,.3,0,.6,0,1.3,0,1.8-.3.9,0,1.7-.5,2.4,0,1.1-.4,3.4.7,3.9-.8,1,0,2,.4,2.8,0v-.8c1.3.3,2.9,1.2,4.2.2.4,0,1.2,0,1.4-.2.1-.3.3-.3.8-.2,1,.4,1.2.3,1.8-.5h.7c1.2-.7,2.8.3,4-.9,2.5-.7,5.8,0,7.9-1.2,0,0-.1-.2-.3-.2-1.7,0,.1-.7.8-.8.2.3.5.5.9.2,1.9-.4,4,0,5.8-.6.3,0,.7.3,1,0,2.7,0,5.6,0,8.2-.7,4.7-.7,9.9-.9,14.4-1.7.3,0,.6,0,.7-.2,1.3.6,3,0,4.3-.2.2.2.4.2.6,0,2.7.6,5.2-1.1,7.8-1.1.3-.7-1.4-.3-1.8-.4-5.9-.3-12.1-.8-18-.4-.5-.3-.9-.3-1.4,0h-.7c-.2-.2-.5-.2-.7,0-.3,0-.8,0-1,.2-6.2-.4-14.2,0-20.2.2-1.4-.4-2.4-.2-3.9,0-.2-.2-.5-.2-.7,0-.4,0-.7,0-.7.4,0,0-.2,0-.3,0h-.8c-.4,0-4.7-.2-6,.2-1.4,0-2.9-.5-3.9.8-1.3,0-2.8,0-4,.4.2,0,.3,0,.5-.2-2,0-4.2,0-6.2.4-.1,0-.2,0-.3,0-1.6,0-3.1,0-4.5.4-6.6.3-13.2.7-19.7,1.6-.6,0-1.3,0-1.8.2h-.3v3Zm-9.5-11.1c.2.5,1.3.3,1.5,0,.2-.8-1.7-.6-1.5,0Zm-76.6,201.5c-.3-.3-.7-.2-1.1-.2.6-.3,1.4-.5,2.1-.5.3-.3.6-.2,1.1-.2.3-.2.7-.2,1-.2.2-.2.4-.2.7-.2.2-.2.4-.2.7-.2.2-.2.7-.2,1.1-.2.2-.2.4-.2.7-.2.1-.2.4-.2.7-.2.4-.4.9-.2,1.4-.2.3-.3.7-.2,1.1-.2.2-.2.4-.2.7-.2.2-.3.7-.2,1.1-.2.3-.3.6-.2,1-.2.3-.4,1-.2,1.5-.2.2-.2.4-.2.7-.2.3-.3.9-.2,1.4-.2.2-.3.7-.2,1-.2.4-.4.9-.2,1.4-.2.3-.3.7-.2,1.1-.2.4-.4.9-.2,1.4-.2.2-.2.7-.2,1-.2.2-.2.7-.2,1-.2.4-.4.9-.2,1.4-.2.2-.2.4-.2.7-.2.3-.4.9-.3,1.4-.3.3-.3.7-.2,1.1-.2.2-.2.7-.2,1-.2.3-.3.7-.2,1.1-.2.4-.4.9-.2,1.4-.2.4-.3.9-.2,1.4-.2.3-.4,1-.2,1.5-.2.4-.4.9-.2,1.5-.2.4-.3.9-.2,1.4-.2.5-.5,1.2-.1,1.8-.2.4-.4.9-.2,1.4-.2.4-.3.9-.2,1.4-.2.5-.4,1.1-.2,1.7-.2.5-.4,1.2-.2,1.8-.2.6-.5,1.4-.1,2.1-.2.5-.3,1.2-.2,1.8-.2.5-.3,1.2-.2,1.8-.2.6-.5,1.4-.1,2.1-.2.6-.5,1.4-.1,2.1-.2,1.4-.4,3-.3,4.5-.4.5-.3,1.2-.2,1.8-.2.7-.5,1.7-.1,2.5-.2.6-.5,1.4-.1,2.1-.2.5-.4,1.5-.1,2.2-.2,8.3-.9,16.6-1.6,25.2-1.6h-2.6c5-.5,10-.8,14.9-.5.8-.5,2-.1,2.9-.2h2.2c.2-.2.5-.2.7,0,12.9,0,26.1.6,38.6,2,.6,0,1.2-.1,1.7.2,2.5.2,5,.3,7.3.8.2,0,.5,0,.7.2,1.4.1,3-.1,4.3.4.5,0,1.3-.1,1.8.2.5,0,1-.1,1.4.2.8-.1,1.3,0,2,.3,1.3.5,2.8,0,4,.6h0c1.2,0,2.5,0,3.6.4,1,.1,2.3,0,3.2.4.4.1,1.6-.2,1.8.2.4,0,.8,0,1.2.2.3,0,1.4,0,1.2.3-.3.3-.9,0-1.3-.1-.7-.1-1.6.3-2.2-.2-3.4.1-7.6-1-10.9-.8-1.9-.8-4-.3-6-.9-.7-.1-2,.2-2.4-.2-2.5,0-5-.3-7.3-.7-4.3.3-8.4-.5-12.5-.9-.7.4-1.9.3-2.6,0-1.7-.5-4,.5-5.6-.2-2,.3-4,.4-5.9.2-.7.5-1.2,1.2-2.1.7-.5.4-1.2.1-1.8.4-.4.3-1.3-.6-1.9-.7-.1,1.4-1.7,1.4-2.8,1-1,.2-2.3.4-3.2.2-.7,0-1.4-.1-1.8.5-.7.5-1.1-.7-2-.1-1.3.7-2,.7-3.4.4,0,.3.2.5.4.7-.2.3-1.2.5-1.1,0-.6-.4-2.5-.1-3.2-.2v.7c-3.8.5-7.6.6-11.4,1-.2.2-.5.2-.7,0-1.3.9-2.9.2-4.3.7v-.2.2c-1.2.6-2.5.8-3.9,1-.2.2-.5.2-.7,0h-.7c-.5.4-1.2.2-1.7.2-.3.3-.7.2-1,.5-5.9.4-14.2,1.3-19.9,1.1v.2c-2.4.3-4.5-.1-6.8,0-.2-.2-.5-.2-.7,0-5.4,0-10.6.4-16,.2v.2c-9.6.1-19.3,1.9-29,1.5-.2.2-.4.2-.7.2h0v.3c-2.2.2-4.3-.1-6.2.4h-.7v-1Zm94.5-14.3h0ZM1.8,51.8c0,0-.3,0-.4,0v-7.4h.2-.2v-.2c7.9-.3,15.8,0,23.8-.2,17.8.6,39.4,1.3,57.4,3.8.5,0,1.1,0,1.4.3,2.2,0,4.6,0,6.5.7,1,0,2.5,0,3.3.4.8,0,1.7,0,2.3.3.8,0,1.7-.2,2.4.3.6,0,1.4,0,1.9.3,2.2.2,4.5.3,6.6.8.4,0,1.1,0,1.4.2h0c.9,0,2.1-.2,2.8.3.6,0,1.5,0,1.9.3.7,0,1.8-.2,2.3.3.6,0,1.5-.2,1.9.3.7,0,1.8-.3,2.3.3.6,0,1.1,0,1.5.3.4,0,2,0,1.6.3-9-.8-18.3-1.7-27.3-2.8-1.1,0-2.4.3-3.3-.3-15.3-.7-30.2-2.6-45.5-2.3-1,.4-1.6,1.3-2.9.6-.6.4-1.6,0-2.4.4-.7.3-1.6-.6-2.4-.7-.4,1.6-2.5,1.3-3.8.9-1.3.3-3,.3-4.3.2-1.5-.4-2.2.8-3.4.4-2-.8-4.1,1-6.2.2,0,.3.3.5.5.7-.1.2-1.9.4-1.5,0-.9-.6-3.4-.2-4.3-.3v.7c-5.1.4-10,.2-15.1.5l1,.3Zm1.6-7.3h0Zm97.3,6.6h0Zm140.5,234.4h0c-.2-.4-.9-.2-1.3,0-.4,0-1.2-.1-1.4.2.8.5,1.8,0,2.6-.1h0Zm0-243.6c.6,0,1.2,0,1.7-.4h0c-.4,0-2.7,0-1.7.5h0Zm-124.8,252.4c.3,0,.6,0,.7-.2.8-.4,2.4-.5,2.9-1.2-.3-.7-1.6-.1-1.9.3-.8,0-1.7.3-2.5.5-1.5-1.2,0,1.2.6.4l.2.2Zm-28.3-172.5c0,0,0,.2,0,.3.6,0,1.4.6,1.3-.5-.5-.2-1,0-1.3.2h0Zm299.6,123.6c-6.4.4-12.8.4-19,.8.3.1.3.3.3.4,0-.6-1-.4-1.4-.2-2.2.1-3.8-.1-5.8.4,3.7.6,7.4-.4,11-.4.7.2,2.2.1,2.8-.3h2.1c.2.2.5.2.7,0,.6-.1,1.6.2,2.1-.2h1.8c.2.2.5.2.7,0,.6,0,1.3.1,1.8-.2h1.1c.2.2.5.2.7,0h1.3c.9-.1,0-.9-.5-.4h.3Zm-191.6,138.9h1.1c.1.2.2.2.4,0,.6-.2-.6-.2-.7-.2-.1-.7.9-.3,1.3-.7-.1-.4-1.1-.2-1.2,0h-.7c-.2.3-.6.6,0,1h-.2Zm17.8-61.4c-.9.6,1.1.6,1.4,0h-1.4Zm138.1,73.3c.7,0,1.2.1,1.8-.2-.2-.4-2.4-.5-1.7.2h0Zm38.3-111.8h1.7c-.1-.2-.2-.3-.4-.5-.5,0-2.2-.2-1.3.5Zm-157,13.7c-.7,0-1.6,0-2.2-.2-.5.1-.6.5-1,.8-.2.2-.7.2-.6.5,0,.2,1.4.1,1.6-.3.4-.1.8-.2,1.1-.5.4,0,.8,0,1.1-.3h0Zm-102.4-2.1c.8.5,1.2-.1,1.7-.5,0-.2-.2-.1-.3,0-.5.1-1.5-.1-1.5.5h.1Zm113.1-222.6c-.3,0-.7,0-.6.4.7.5,1.9-.6.5-.4h.1Zm-79.8,181c-.9-.1-.9.6-.2.6.6,0,.9-.6.2-.6Zm33.2,27.9c-.1-.2-.7-.2-1,0-.1,0-.1.2-.2.3.2.3,1.5.3,1.2-.3Zm151.5,6.6c.2.2.8.2,1.1.2v.2c.5,0,1,.1,1.4-.2-.2-.3-1-.1-1.1-.4,0,0-2.1-.1-1.4.2Zm23.7-6c1.8.4,6.8.5,7.9.4.7.4,1.6.1,2.5.2.2.2,1.7.5,1.1-.3-.8-.4-1.9-.1-2.8-.2-.6-.6-3.5.2-3.2-.4-1.9-.2-3.6.4-5.3-.2-.5,0-1.2-.2-.7.5h.7-.2Zm-22.2-38.1c-.4-.4-1.2-.1-1.8.2.7,0,1.6.3,1.8-.2ZM228.3,45.8c.5-.3.9,0,1.4,0v-1c-.6,0-1.3,0-1.8.2h-.7c-.2.3-.3.6,0,1,.4,0,.8,0,1.1-.2Zm59.1-8.3v.2c.4,0,.9,0,1.2,0v-.2c-.3,0-.9-.3-1.2,0Zm-156.1,252.3c-1.9.1-1.6.9.1.2,0,0-.1-.2-.2-.2h0ZM236.2,46.6h0c.4,0,1.1,0,1.3-.2h0c-.5,0-1,0-1.4.2h0Zm-51.6,239.3c.5,0,1,.1,1.4-.2.3,0,2.1,0,1.1-.5v-.5c.9-.1,2.3-.3,3.2-.2.2-.2.8-.2,1.1-.2v-.2h.4v.5h-.4v.2c.2.2.5.2.7,0,.5,0,1,.1,1.4-.2.4,0,.8,0,1.1-.2-.5-.5-1.2.2-1.8,0v-.2h-.4v-.2h.4v-.2h.4v-.2c-.1,0-.2-.2-.3-.2q-.2-.5-.7-.2c-.4,0-.7,0-1.1.2-1-.7-2.1,1-3.3.7v.2h-1.1v-.2c-.7,0-1,.6-1.8.4-.5-.7-1.5-.2-2.2-.7h-.7c-.3.7-2,.6-1.8,1.7-.1,0-.2.1-.3.2-.3,0-.9-.1-1.1.2-.7.1-1.6-.2-2.2.2-.7,0-1.4.3-2.1.2-.5-.1-.3-.6-.7-.7-.6,0-1.2.2-1.8.2-.7-1-1.2.5-2.2.2v-.5c.3-.1.3-.3.4-.5,1-.1,2-.5,3.1-.4.4-.2.4-.3,0-.5-.7-1,.3-.4.5-1-.3-.4-2.3.1-1.9.8h0c-.1.2-.3.2-.5.2-1.9-1.7-4.9-.4-6.9.1.9,1,2.6-.5,3.3.5-.4,0-.8,0-1,.3-1.8-.4-2.9.9-4.3.9-.4-.4-.5-.5-1-.2-.6.5-1.6.1-2.2.5-1.7,0-3.4.5-5,.7-1-.6-1.8.7-2.9.6-.4-.3-.9-.3-1.2,0-.5.5-1.5.2-2,.6-.3,0-.6,0-.7.2-.2,0-.2.2,0,.2.1.2.2.3.4.5-.1,0-.3.2-.4.3-.4,0-1.1,0-1.4.2-1.7.5-.8.8.4,1,.4.4,1,1,1.5.2v-.7c.1,0,.6-.4.7-.5v-.2c1.5,0,2.8-.9,4.3-.3.6,1,2.1-.1,3.2.2v.5c-.5.2-5.7.3-3.6.9-.1.4,0,1.1.8,1,.4.6.6.6,1.4.2.5.1,1.1-.3,1.5-.7.4,0,.8,0,1.1-.2.6,0,1.4-.1,1.5-.7.6.2,1.8.4,2.2-.3.9-.4,1.9.4,2.9-.2-.2-.4-1.4-.1-1.8-.2v-.2c.3,0,.6-.3.7-.5-.1,0-.2-.2-.4-.2,0-.4.5-.5.7-.7.2,0,1-.2.7.3-.2.1-.8.1-.6.5.5.4,1.8-.3,2.4.3-.6-.2-1.6.6-.5.7.5-.1,5.4-.9,4-1.4.1-.2.2-.3.4-.5.3.1.5-.1.8-.2v-.5h.4c.9,1,3.6-.5,5-.2.8.3-.7.6-.1.9.5.1,1.1-.3,1.6-.3.2.2.4.3.7,0,1.1.1,2-.3,2.9-.7.6,0,1.5,0,1.8-.5-.1,0-.2-.2-.4-.2v-.2c.6-.4,1.5-.1,2.2-.2v.2c.1,0,.2.2.4.2.1.2.2.2.4,0l-.7-.2Zm-49.9-189.6c-.1.5,1,.2,1,0s-.9-.3-1,0Zm120.2-23.8c0,.3,1,.3,1,0s-1-.3-1,0Zm145,3.1c-.6-.4-1.8,0-2.5-.2-.1-.2-.2-.2-.3,0-1.6.7,1.1,1,1.8.5.6,0,1,0,1.5.4v-.7c-.1,0-.3,0-.5,0Zm-180.2-28.7c.4.2.5.4.7.7.6,0,.4-.3.4-.7,1.2-.3,5,0,5.1-1.4-2.1,0-4,.6-6,.7v.2c-.4.2-.4.3,0,.5h-.2Zm64.2,220.5c-.3,0-1,0-.4.4.2,0,.8.1.7-.3,0,0-.2-.1-.3-.1h0Zm103,16.5v-.5h-1.8v.5h1.8Zm-241,4.8c-.1-.3-.6-.2-.8,0-.3.7.9.4.8-.1h0Zm-19.6,2.4c0,0-.3.1-.4.2-1.6-.1-.8.7,0,.5,1,.2,1.5-1.1.3-.7Zm-20.3-140.5c3-.5,5.9-1,8.8-1,.8.7,1.7-.2,2.6,0,1.7-.2,4.3.3,5.7-.8.9.1,1.9-.1,2.6.5h.3s0-.1,0-.2c0-.2,0-.4-.2-.6,2,.5,3.3-1.4,5.2-.6.4.1.7.3,1.1,0,.3-.2.9,0,1.1-.4.4-.9,1.4.6,1.7-.3,0-.7,1.2.3,1.8,0,.8-.3,1.6.3,2.4.1,1.1-.4-.5-1.6.9-1.3,1.2.6,1.8.8,2.4-.3,0,.2,0,.4.4.5.4.6,1.2-.3,1.1-.7,1.6-.4,4.2-.5,5.8-1.4.8,0,1.9-.4,2.1-1.1.3,0,.6,0,.7-.2h.1c0-.6,1.9-.1,1.3-1v-.2c.7-.2,1.5-.1,1.9-.7,0-.1.3-.1.5,0,1.1.4,2.1-.6,2.8-.8,1.5,0,1.9-1.3,3.5-1.2.3,0,.3-.3.4-.5,1.1-.6,2.8-.7,4-1.4,1-.8,2.6-.5,3.3-1.4.6,0,1-.2,1.1-.6.9,0,1.3-.4,1.8-.9,1.4-.3,4.3-1.5,4.7-2.8.3,0,.4-.3.4-.5,1.4-1.1-.4-1.7-1.3-1-.3,0-.6,0-.7.2-.1,0-.3.1-.4.2-.2,0-.8.1-.9-.2-.2-.8-1.5,0-2.1.1-.6-.1-1.6.2-2.1-.2.1-.4.9-.4,1.2-.7-.2,0-.4,0-.5,0,.2,0,.7.2.9,0,.3,0,1,0,.9-.3-.4-.4-1.6,0-2.1.3-.7,0-1.4,0-1.7.6-.2,0-.3,0-.4.2-.3,0-.6,0-.7.2-.4,0-1.1-.2-1.4.2-.2,0-.3,0-.4.2-.3.3-1.1.1-1.5.4-.3,0-.6,0-.7.2-.6.1-1.3-.1-1.7.3h-.3s0,.1-.1.2c0,0,0-.1.1-.2-.7.1-1.4,0-1.9.3-.3,0-.6,0-.7.2-.3,0-.6,0-.7.2-.4,0-.8,0-1.1.2-.3,0-.5,0-.7.2-.1,0-.2.1-.3.2-.4,0-1.1-.2-1.4.1-1.2.1-2.5.3-3.6.7,0-.2-.2-.2-.3,0-.3,0-.9-.1-1.1.2-.3,0-.6,0-.7.2-.3,0-.6,0-.7.2-.3,0-.5,0-.7.2-.3,0-.5,0-.7.2-.9,0-2.1.3-2.6,1.1-1.9-.1-3.6.6-5.1,1.3-.3,0-.5,0-.7.2-.3,0-.5,0-.7.2-.4,0-.8,0-1.1.2-.4.1-1.2-.2-1.4.2h0c-1,.6.6.9.9.5.3,0,.6,0,.7-.2.5,0,1,.2,1.5-.1.4,0,.8,0,1.1-.2h0c.3,0,.5,0,.7-.2.3,0,.6,0,.7-.2.6.1,1.7-.1,1.7.6-.7.1-1.5-.2-2.1.2-.3,0-.5,0-.7.2-.1,0-.3.1-.4.2-.6,0-1.3-.2-1.8.1-.7,0-.7.3-.8.7-2.8-.1-5.6-.7-8.2.2-.9-.1-1.1.6-.2.8.4.1,1.2.1,1.4.4-.5.5-1.6-.2-1.6.7-.6,0-.6-.4-1-.5,0-.2,0-.4-.3-.5-.2-.3-.4-.3-.7,0-.5-.1-2,.1-1,.7.4.1.5.3.5.5-.3,0-.4.3-.4.4-.8,0-1.6-.2-2.1.3-.5-.4-.4-.6,0-.9.4,0,.8.1,1.1-.2,0-.5-.8-.6-1.1-.3,0,0-.2.1-.3.2-1.1.3-3,.4-3.7.7-.3,0-.8,0-1,.2-.3.2-1-.1-1.2.3-.3,0-.9-.1-1.1.2-.5.1-1.1-.1-1.5.3h0c0,.2.2.3.4.4-.2-.2-.9-.5-1.2-.2-.2,0-.5,0-.7.2,0,0-.5-.1-.7.1-.3,0-1-.1-1.1.2-.7-.1-1,.3-1.7.4,0,0,0,.1,0,.2,0,0,0-.1,0-.2-.2,0-.4,0-.5.2-.3,0-.5,0-.7.2-.4,0-1.1-.1-1.4.1-.3,0-.5,0-.7.2-.2,0-.6-.1-.7.2,0,0-.2.1-.3.2-.4,0-.8,0-1,.2-.6.5-1.6.2-2.2.8-.9.1-2.1-.3-2.8.2-.3,0-.6,0-.7.2-.2,0-.3,0-.4.2-.2.1-.8.4-1.1.6-.3,0-.9-.1-1,.2-.3,0-.6,0-.7.2-.2,0-.6-.1-.7.2-3.2.7-.3,1.9.6.5.5,0,1.1.2,1.4-.2.3,0,.6,0,.7-.2.3,0,.6,0,.7-.2.3,0,.6,0,.7-.2.3,0,.6,0,.7-.2.3,0,.6,0,.7-.2.8,0,1.3-.3,1.8-.6.6,0,1.4-.3,1.8.2-.6.4-2.6.3-2.2,1.3-.2.1-.9.3-.8.7-1.8-.4-2.7.8-3.8,2,.5.1,2.5-1.1,2.4,0-3.5,1.9,4.5,1.9,5.6,1.1l.3-1.1Zm290.5,140.5q.6.7,1.4.4c.5,0,1.4-.3,1-.8-.7.1-1.5-.2-2.2-.2v.2h-.7c0,.2,0,.4.4.5h.1Zm-261.8,4c1.5.1.8-1-.1-.3,0,0,0,.2.1.3h0Zm190.2,45.3c-11.2-.6-24.5-.1-35.6,1-.4,0-.8-.1-1.1.2.2,0,.3-.1.5-.2-.5,0-1.1-.2-1.5.2-1.7,0-3.4,0-5,.4-3,.3-6.2.4-9.2,1-.5,0-1.4-.1-1.7.2-.4,0-.8,0-1.1.2-.4,0-1.1,0-1.4.2-.6,0-1.3-.1-1.8.2-.5,0-1,0-1.4.2-1.3.1-2.6.3-3.8.6-.4,0-1.1,0-1.4.2-.3,0-.8,0-1,.2-.4,0-1.2,0-1.4.2-.4,0-.8,0-1.1.2-.3,0-.8,0-1,.2-.3,0-.9-.1-1,.2-.5,0-1,0-1.4.2-.3,0-.8,0-1,.2-.3,0-.9-.1-1.1.2-.3,0-.9-.1-1.1.2-.3,0-.9-.1-1.1.2-.3,0-.8,0-1,.2-.4,0-1.1,0-1.5.2-.4,0-.8,0-1.1.2-.3,0-.6,0-.7.2-.3,0-.9-.1-1.1.2-.3,0-.9-.1-1.1.2-.3,0-.9-.1-1,.2-.3,0-.9-.1-1.1.2-.3,0-.6,0-.7.2-.4,0-.8,0-1.1.3-.3,0-.6,0-.7.2-.6,0-1.3.1-1.7.4-.2,0-.6-.1-.7.2-.3,0-.9-.1-1,.2-.9,0-1.7.4-2.5.6-.2,0-.6-.1-.7.2-.3,0-.5,0-.7.2-.4,0-.8,0-1,.2-.2,0-.5,0-.7.2-.3,0-.9-.1-1.1.2-.2.2-.9.1-1,.5-.3,0-.5,0-.7.2-.3,0-.9-.1-1.1.2-.3,0-.5,0-.7.2-.2,0-.5,0-.7.2-.3,0-.9-.1-1.1.2-.3,0-.6,0-.7.2-.4,0-.8,0-1,.3-.3.3-.7,0-1,.4-.2,0-1.4.2-1.5.4-.6.2-1.4.1-1.8.4-2,.6-.2.7.7.4,1.5.5,3.4-.4,5-.6.6,0,1.2-.3,1.9-.2.5.3.6.3,1.1-.2,1-.5,2.4.1,3.2-.9v-.2c-.4.1-.8.2-1.2.3.4-.1.8-.2,1.2-.3v.2c.2-.1.4-.2.8-.2.5.5.8-.3,1.4-.2.6.5,1.7,0,2.4-.3,4.2-.7,8.4-1.4,12.6-2.2.3,0,.5,0,.7-.2,6.6-.9,13.2-2.4,19.7-2.7,1.2-.1,3.1-.7,4.7-.6,6.9-.5,14.8-1.1,21.7-2.1,5.3-.2,10.5-.5,15.6-1.1,1.1-.3,2.6,0,3.6-.4,1.6,0,3.2,0,4.6-.4h1.4c.2.2.5.2.7,0,5.8-.7,11.6-.6,17.3-1.2.7-.5,2.4.2,2.5-1,.2-.2.4-.3.7,0,.5-.1,2.7.3,2.6-.3-1.6-.6-4.8-.5-6.6-.6-.6-.5-1.5-.2-2.1,0-1.8-.4-3.4-.6-5.4-.2-.5-.4-1.2-.2-1.7-.3l-.9,1.2Zm-121.9-196.7c.2,0,.6.1.7-.2.3,0,.9.1,1-.3.3,0,.9.1,1.1-.3.1,0,.2-.2.3-.3.4,0,.8,0,1.1-.3.2,0,.6,0,.7-.2h0c.3,0,.5-.1.7-.3.4,0,.8,0,1-.3.5-.2,1.3,0,1.8-.5.2-.3.8-.2.9-.5h0c.3,0,.5,0,.7-.3.3,0,.9.1,1.1-.3h0c.3,0,.5-.1.6-.3.2,0,.5,0,.7-.2.3,0,.9.1,1-.3.3,0,.6,0,.7-.3.4,0,.8,0,1-.3.1,0,.2-.2.3-.3.2,0,.5,0,.7-.2.2,0,.5,0,.7-.3.3,0,.6,0,.7-.3.3,0,.4,0,.6-.3.4,0,.9,0,1.1-.3,1.8-.7.1-.8-.8-.4-.4-.3-1.4-.4-1.7.1-.6.2-1.3.2-1.7.7-.5,0-1,0-1.4.4-.2,0-.5,0-.7.3-.7.2-1.7-.5-2.1.3-.1,0-.2.2-.3.3-.7,0-1.5,0-2.1.4-.1,0-.6.4-.7.5v.2c.4-.2.8-.3,1.2-.5-.4.2-.8.3-1.2.5v-.2c-.1,0-.2.2-.3.3h-.3c-.6-.5-.7.4-1.4.3-1.1-.5-3.2.6-4.2,1-.9.3-2,.2-2.7.7-.4,0-1.2-.1-1.4.3-1.9.8-4.3,1-6.1,1.8-.3,0-.5,0-.7.3-1,.2-2,.2-2.7.8-1.6.4-3.1.8-4.5,1.4-2.5.5-5.1,1.2-7.5,1.7-1.7-.2-2.8,1.5-4.2.8-.1-.2-.2-.1-.4,0-.4.6-1.3.1-1.7.7-.9,0-1.6.4-2.5.5-.2-.2-.5.1-.7.3-1.5-.2-3.8-.1-4.9.9-1.8-.1-4.1.1-5.6.9-3.3.5-7,.8-10.1,1.8-5.2.5-10.5,1.3-15.4,2.5-.4,0-.8,0-1,.3-.7.1-1.9-.1-2.5.4-.8.1-1.9-.1-2.4.5-.6.1-1.6-.1-2.1.4-.5,0-.9,0-1.4.1-.3-.2-.5-.2-.7,0-.5,0-1.1,0-1.4.4-.6.1-1.3,0-1.7.4-3.4.4-6.9.8-10.1,1.7-1.2.2-2.9,0-3.9.6-.5.5-2.5.1-2.4,1.2,0,0-.2.2-.3.3-.5-.3-2.8-.2-3,.3.3.5,1.2-.1,1.6.4,1.8-.4,3.3.2,4.9-.2.6.4,1.5.1,2.1-.2,1.8.4,3.5.2,5.4-.1,1.3.1,3.1.6,4.2-.2,9.1-.3,18.6-1.5,27.4-3,.9-.1,2.1.2,2.7-.4.8,0,1.7.1,2.4-.4.4,0,.7,0,1.1-.2-.2,0-.3.2-.5.2,1.3-.3,3-.2,4.2-.8.7,0,1.5.1,2.1-.3.4,0,1.1.1,1.4-.3.9-.1,2.1.2,2.7-.4.6-.1,1.4.3,1.7-.3.4,0,1.1.1,1.4-.3.6,0,1.2.1,1.7-.3.5,0,1.4.1,1.7-.4.4,0,.8,0,1-.3.4,0,1.1.1,1.4-.3.5-.1,1.4,0,1.7-.4.4,0,1.1,0,1.3-.3.5-.1,1,.2,1.3-.3.4,0,.8,0,1-.3.4,0,1.1.1,1.4-.3.4,0,1.1,0,1.4-.3.3,0,.8.1,1-.3.4,0,1.2.1,1.4-.3.4,0,.8,0,1-.3.3,0,.8,0,1-.2.3,0,.9.1,1-.3.4,0,1.1.1,1.4-.3.3,0,.8.1,1-.3.3,0,.9.1,1.1-.3.3,0,.9.1,1-.3.3,0,.9.1,1.1-.3.3,0,.8.1,1-.3.4,0,1.1,0,1.3-.3.4,0,.8,0,1-.3.3,0,.6,0,.7-.3.3,0,.8.1,1-.3.3,0,.9.1,1-.2h0c.4,0,.9.1,1-.3.3,0,.9.1,1.1-.3.3,0,.6,0,.7-.3.4,0,.8,0,1-.3.3,0,.5,0,.7-.3.6,0,1.3-.2,1.7-.6l.6-2.9Zm101.3,250.8c.6.1.7-.5.1-.5-.7-.1-.8.6-.1.5h0Zm3.6,3.2h-.4c-.2-.2-.5-.2-.7,0v.2c-.7.5,1.6.7,1.5-.1,0,0-.3,0-.4-.1ZM226.2,74.5c-.1.5.9.3.8,0,0-.3-.9-.5-.8,0Zm-112,222.6c-.4-.4-1.3,0-1.6-.6-1-.6-2.8.4-2.3,1.3,0,.3.4.2.6,0,.3-.3.7-.1,1.1,0-.2,1.1.8.4,1.4.3.4,0,1.5.1,1.1-.6,0-.1-.3-.2-.4-.3h.1Zm283.9,86.4c-2.5-.4-5.4-.5-7.7-.5-6.1.2-12.2-1.2-18.1.1,1.2-1.2-3.4-1.2-3.5-.5,0,.2-.3.1-.4,0-.5-.1-1-.8-1.4-.5-.4.4-.7,0-1.1,0-.4-.4-1.2.1-1.7-.1-.8-.3-1.3,0-1.8.3-.6.1-.7,1.4-1.4.7-.6-.2-6.7-1-4.9.6,3.7,0,7.2.6,10.9.7.4.3.9.2,1.4.2.2.2.5.2.7,0h1.1c.7.6,1.8-.2,2.4.4,1.3-.2,2.5,1.2,3.6.3,2.8.7,5.8.6,8.5.8.1.2.2.2.4,0,1.1.4,2.5,0,3.5.2.2.2.5.2.7,0,.9.1,1.6.1,2.5,0,2.4,1.2,5.9.1,8.6.7v-3.6h-2.3v.2ZM254.7,41.6c.6,0,1.1.2,1.6,0,.1,0,.5,0,.6-.2-.5-.5-1.8,0-2.3,0,0,0,0,.2,0,.2h0Zm-123.3,61.3c0,.4.8,0,.8,0,0-.3-.8-.3-.8,0Zm249.8,186.4h-.2v-.2c-1.5-.3-6.9.1-8.2-.4-.7.3,0,.6.4.5v.2h1.8v-.2c.5.2,3.4.2,4,.2.2.3,1.5.2,1.8.2v.2h1.4c-.1.4.3.6.7.5.8-.5,2-.1,2.9-.2v-.2c.1,0,.2-.2.4-.2-1.7.1-3.2-.3-4.9-.2v-.2Zm-122.6-248.5v-.2c-.2,0-.9,0-.9.2,0,0,.1,0,.2.2.3,0,.6,0,.7-.2h0Zm43,356.7c-.2-.4-1.8-.3-1.1.3.1,0,.3.1.4.2.4,0,.8,0,1.1.2.5-.5.4-.5-.4-.7Zm-59.8-110.4c.6.2,1.2.5,1.8,0,.9.1,2-.1,2.9-.2.8,1.5,1.9.3,1.9-.9-.7-.4-1.8,0-2.5.3-.7.1-1.5-.2-2.1.2-1.3.1-2.4.5-3.5.8-.4,0-.7,0-1.1.2-.2,0-.9,0-.5.4.1,0,.7.1.9-.2.9.1,1.7,0,2.5-.4v-.2h-.3Zm92.8,108.2c.5.1.9.4,1.4,0,1.1.1,7.2,1,7.2,0-.7-.2-1.4-.4-2.2-.3-.2-.2-.4-.3-.7,0h-1.8c-1.4-.5-3.5-.2-4.8-.1-.3,0-.7-.3-.8.2.6.3,1.2.2,1.9.2h-.2Zm-60.9-357c.5,0,1.3,0,1.8-.2h0c.3,0,.5,0,.7-.3,1.9-.3,3.8-.7,5.6-1,.5,0,1.1.2,1.4-.2h0c.3,0,.6,0,.7-.2.7,0,2,.2,2.4-.2,1,.3,2.8-1.4.9-.7-.5,0-1.1,0-1.4.2-.6,0-1.3,0-1.8.2-.1,0-.2,0-.3.2-3.5,0-7.2.9-10.4,1.8,0,0,.4.3.4.4h0Zm-92.6,302.1c3.1-.4,6.3-.6,9.2-.9,7.4.6,15,2.5,22.4.5,1.8-.3,3.6-.1,5.2-.6.3,0,.7.1,1-.2.8-.1,1.7-.1,2.4-.5,3,0,5.6-1.4,8.5-1.6v-.2.2c.1,0,.6-.4.7-.5.9-.1,1.7-.4,2.1-1,.8-.1,1.7-.7,2.5-1.2.5,0,.8-.2,1.1-.5.4-.3,1.2-.2,1.4-.7.2,0,.4,0,.6-.2,1.2-.4,2.5-1.2,3.6-1.9.5,0,.8-.2,1.1-.5.5,0,.8-.2,1.1-.5.5,0,.8-.2,1.1-.5.3,0,.5,0,.7-.2.8-.1,1.5-.3,2.1-.7.3,0,.6,0,.7-.3.5,0,.9-.2,1.1-.5.4,0,.8,0,1.1-.2.3,0,.5,0,.7-.2.3,0,.5,0,.7-.2,3-.3,6-1.1,8.8-2,3-.5,6.3-.8,9.2-1.5,5.9-.8,12-1.1,17.6-2.3,7.2-.7,14.6-.8,21.4-2.7.4,0,.8,0,1.1-.3.3,0,.6,0,.7-.2.4,0,.8,0,1.1-.2.4,0,.8,0,1.1-.2.3,0,.6,0,.7-.2.6,0,1.2,0,1.4-.5.7-.1,1.5-.1,2.1-.4.7,0,1.4.1,1.8-.5,2.2-.3,4.2-.4,6.3-.8-18.2-1-39.2-.3-58,1.4-.3,0-.6,0-.7.2-.4,0-1.1-.1-1.4.2h-.7c-3-.4-6.9-.2-9.7.4.2.5,1,.2,1.4.5h.2v.2c-1.5,0-3.1-.1-4.5.4-2.5,0-5.2.1-7.5.6-.9.1-1.8-.2-2.5.2-.8-.1-2.1-.9-2.6.1-.3.7-1.5.2-2,.6-.2,0-.5,0-.7.2-.4.1-1.1-.5-1.4,0-2.9.2-6.1.3-8.9.8-.6,0-1.2-.2-1.7.2-.5,0-1-.1-1.4.2-.3,0-.9-.1-1.1.2-1.7.2-3.4.2-5,.6-2.8-.1-.5,1,.6.3,1.8-.4,4,.2,5.6-.7h0c.7-.1,1.7.3,2.1-.3.8-.1,2,.3,2.5-.3h.4c1.2.7,2.6-.6,3.8.2-1.1.1-2.7-.1-3.6.5-.5,0-1-.1-1.4.2-.5,0-1.3-.1-1.8.2-1.2.1-2.5,0-3.6.4-.4,0-1.1,0-1.4.2-.6,0-1-.1-1.4.2-.4,0-.8,0-1,.3-1.3.4-3.2-.2-4.2.7-.3,0-.4.2-.4.4-.3,0-.5,0-.7.3-.6,0-1.3-.1-1.8.2-.7,0-1,.2-1,.7-.4,0-1.2-.1-1.4.2-1.7.4-3.8-.1-5.4.7-2.1.2-6.8-.5-8.4.2h-.4c-.2-.2-.5-.3-.7,0-.4,0-.8,0-1,.3-.4,0-.8,0-1.1.2-.4,0-.8,0-1.1.2-.5,0-1-.1-1.4.2h-.4c-.4-.3-.9-.2-1.4-.2v-.5h.4c.5-.5,1.7.2,2.1-.5h0c.3,0,.6,0,.7-.2h0c.3,0,.5,0,.7-.2h0c.7,0,1.6.2,2-.4v-.2c-.8-.2-1.8-.1-2.6.2-.4,0-.8-.1-1.1.2-.3,0-.9-.1-1.1.2-1.9.3-3.8.9-5.6,1.3-.3,0-.5,0-.6.3-.3,0-.5,0-.7.2-.3,0-.9-.1-1,.2-.3,0-.9-.1-1,.2-.3.1-1-.2-1,.3-.3,0-.5,0-.7.3-.4,0-.8,0-1.1.2-.2,0-.9-.1-1.1.2-.5-.1-.9-.4-1.4,0-.2,0-.6-.1-.7.2-.4,0-.8,0-1.1.2-.3,0-.5,0-.7.2-.3,0-.5,0-.7.3-.1,0-.6.4-.7.5-.4,0-.8,0-1,.2-.3,0-.9-.1-1,.2-.4,0-1.1,0-1.4.2-.3,0-.5-.1-.7.2-.3,0-.6,0-.7.3-.3,0-.6,0-.7.2-.3,0-.5,0-.7.2-.6,0-1.2-.1-1.4.5-.3,0-.5,0-.7.2-.3,0-.9-.1-1,.2-.3,0-.5,0-.7.2-.2,0-.6-.1-.7.2-.3,0-.5,0-.6.3-.3,0-.6,0-.7.2-.3,0-.6,0-.7.3-.2,0-.3,0-.4.2-.4,0-.8,0-1,.3-1,.2,0-1.6-1.8-.3-.2,0-.3,0-.4.2-.2,0-.6-.1-.7.2-.3,0-.5,0-.6.3-.2.2-.9.1-1.1.4-.3,0-.9-.1-1.1.2-.3,0-.6,0-.7.2-.3,0-.6,0-.7.2-.3,0-.6,0-.7.3-.2,0-.3,0-.4.2-.3,0-.6,0-.7.3-.7,0-1.1.3-1.4.7-1,.1-3.1.5-3.5,1.2-.4,0-.8-.1-1.1.2-.2,0-.3,0-.4.2-.2,0-.3.1-.3.3-.2,0-.3,0-.4.2-.2,0-.3.1-.3.2-.6.4-1.3.3-1.9.6-.6,0-1,.2-1.4.5-.3,0-.5,0-.7.3-.8.8-2.8.7-3.2,1.7-3,.7.2,1.5,1.4.9.5.3,1,.3,1.4,0,.4,0,.8,0,1-.2,2.1-.5,4.5.9,6.4-.5,2,.6,4.4.4,6.4-.3,2.5-.4,4.9-.9,7.5-1.2,1.2.8,2.4-.4,3.7-.3.9-.1,1.9-.2,2.5-.7,5.9-.9,11.7-2.4,17.7-2.2.1.1.3.2.6.2l-.2,1.3Zm.3-260.4c.3,0,.6-.2.9-.3-.4-.2-1.1,0-1.2.2h.3Zm37-31.1h.7c.2-.6-1.4-.5-.6,0h0Zm180.2,159c-29.4-1.7-56.2-.7-83.8,1.8-1.5,0-3.2,0-4.6.4-.6,0-1.5-.2-2,.2-.5,0-1.3-.1-1.8.2-.8.1-1.7-.3-2.5.2-.4,0-1.1,0-1.4.2-.7.1-1.5-.3-2.1.2-1.3.2-2.7,0-3.9.4-.7.1-1.6-.3-2.2.2-.5,0-1-.1-1.4.2-.6.1-1.3-.3-1.8.2-.6,0-1.2-.2-1.7.2-.5,0-1.3-.2-1.7.2-.6,0-1.3-.2-1.7.2-.5,0-1.1-.1-1.4.3-.5,0-1-.1-1.4.2-.4,0-1.1,0-1.4.2-.6,0-1.3-.2-1.7.2-.5,0-1-.1-1.4.3-1.2,0-2.8,0-3.9.4-.6,0-1.3-.1-1.7.2-.7.1-1.5-.2-2.2.2-.4,0-1.2,0-1.4.2-.3,0-.9-.1-1,.2-1.1,0-2.5.1-3.6.4-.6,0-1.3-.1-1.8.2-.4,0-1.1,0-1.4.2-.4,0-.8,0-1.1.2-.4,0-.8,0-1.1.2-.4,0-1.1,0-1.4.2-.3,0-.6,0-.7.2-.4,0-1.1,0-1.4.2-.3,0-.8,0-1,.2-.3,0-.8,0-1,.2-.4,0-1.2,0-1.4.2-.3,0-.5,0-.7.2-.4.1-.9-.2-1.1.2-.4,0-1.1,0-1.4.2-.3,0-.8,0-1,.2-.4,0-.8-.1-1.1.2-.3,0-.9-.1-1,.2-.2,0-.5,0-.7.2-.4,0-.7-.1-1,.2-1,.2-3.2.4-3.9,1.1.6.5,3.2-1.1,2.7.3-.8.1-1-.4-1.8.2-.3,0-.3.2-.3.5-.5-.2-.9-.4-1.4-.7-.2,0-.3-.2-.6,0,0,.2,0,.6.1.8-.1,0-.2.1-.3.2-.6,0-1.3-.1-1.8.2-.3,0-.5,0-.7.2-.3,0-.9-.1-1,.2-.3,0-.9-.1-1.1.2-.3,0-.9-.1-1.1.2-.3,0-.9-.1-1.1.2-.3,0-.6,0-.7.2-.8.1-1.8.1-2.5.4-4.1.6.7,1.1,1.6.2.3,0,.6,0,.7-.2.6-.1,1.6.2,2.1-.2.4,0,.8,0,1.1-.3.3,0,.6,0,.7-.2.4,0,.8,0,1.1-.2.3,0,.6,0,.7-.2.3,0,.5,0,.7-.2.3,0,.9.1,1.1-.2h.3c.1.1.2.1.3,0,.2,0,.5,0,.7-.2.8-.2,1.5.1,2.1-.5.6,0,1.3.2,1.8-.2.4,0,.8,0,1.1-.3.4,0,.8,0,1.1-.2.8,0,1.6,0,2.1-.5,1,.1,1.4.5,2.2-.2,10-1,19.7.4,29.4-2.2h0c.4,0,.8,0,1-.3.1,0,.2-.1.3-.2,1.3.3,2.6.1,3.9-.2.2.2.5.2.7,0,1.1.1,1.5-.5,2.4-.8,0,.1,0,.2.1.3h.1s0-.1-.1-.2h-.1c.6-.4,1.3-.5,1.9-.1,1.2.7,3.4.1,4.7-.1h0c10.9-.8,22.5-.8,33.7-.9.4.3.9.1,1.4,0,.2.2.5.2.7,0,1.9-.1,3.9.1,5.6-.5h0c.4,0,.8,0,1.1-.2,21-.5,42.4-2.5,63.6-2.4v-5.5h-1.8l-.6,1.5Zm-101.3,189.7c-.3-.2-.4-.2-.8,0,.2.3,1,.7,1.5.3-.1-.1-.5-.3-.7-.3h0Zm-85.4-74.4s.1,0,.2.2c.3,0,.6,0,.7-.3-.2-.2-.8-.1-.9.2h0Zm182.4-44.3c.1.9,1.9-.2.1-.2v.2Zm-251.7,11.6c.1-.5-.8-.4-.5.1.2.2,1.2.3.5-.1Zm207.4,105.4c.2,0,.4.2.6,0,0-.4-.6-.1-.9-.2,0,.1.2.2.3.2Zm-76.5-128.1c-.3,0-.6.2-.2.4.3.1.8-.3.2-.4h0Zm-97.8,16.2c.3,0,.7,0,.9-.2.3,0,.5,0,.8-.2.2,0,.5-.1.4-.3,0-.3-1-.1-.9-.5.3,0,.6,0,.7-.2.2,0,.2-.2,0-.2-.2-.1-1,0-1.1.2-.7.1-1.3-.4-1.9,0,.1,0,.6.4.7.5,0,.2-.1.4-.2.5,0,.3.2.4.6.4Zm115-247.3c-.1,0-.1,0,0,.2.4,0,.7,0,1-.3-.3,0-.8,0-1.1.2h.1Zm-77.4,346.4c1.1-.1-.9-.7-1-.2.2.3.7.3,1,.2Zm29.9-97.9c.7-.2,1.5-.1,2.1-.5h.7c-.1-.2-.2-.3-.4-.5-.9.2-2.1,0-2.9.4-1.1.1-.3.7.4.5h0Zm-5.1-210c-.2-.3-.8,0-.4.3.2,0,.4-.1.4-.3Zm-64.8,6.3c0-.3-.5-.2-.6,0,0,.3.5.2.6,0Zm17.9-3.4c-.4,0-.8,0-1.1.3-2.3,0-4.5.4-6.8,1,2.2,0,4.2,0,6.3-.5.3,0,.6,0,.7.3-.1,0-.3,0-.4.2-.3,0-.9,0-1.1.2-1.7.2-3.5.2-5,.6-1,0-2.5-.2-3.2.5-.5,0-1,0-1.4.2-1.4-.2-2,.6-3.2.7-.5,0-.7.2-.7.5.2.3.5.3.7,0,.9,0,1.5-.5,2.3,0,.2,0,.4,0,.5-.2h0c.5,0,1.5.3,1.8-.3.5,0,1,0,1.1.5-1.1,0-2.2.3-3.2.6-.8.2-1.8,0-2.5.4-.7,0-1.2.3-1.8.4-.4,0-1.6,0-1.2.6.1,0,.7,0,.9-.2.5,0,1.4-.2,1.8-.5.4,0,.8,0,1.1-.2h0c2-.2,3.4-.9,5.4-.5,0-.4-.5-.6-.4-.9.4,0,1.1.2,1.4,0-1.4-.6.9-.8,1.4-.5-1.2,1.1.7,1.4,1.8,1.3-.4.2-1.1.2-1,.7.2.2.5.2.7,0,.3,0,.9,0,1.1-.2.8-.2,1.1.5,2,.5,1.8,0,3.1-1.1,4.8-.6.5-.6,1.6-.5,2.1-1,.9,0,1.6,1.3,2.4.5.6,0,0-.5.4-.7.3,0,.4,0,.5.2,1.2.7,2.4-.9,3.8-.7,4-.6,8.2-.7,12.1-1.6,1-.3,3.1.4,3.4-1.2.4-.4,3.2-.2,1.7.3-.3,0-.7,0-.7.4,2.3,0,4.9-.7,7.1-1.3.5,0,2,.3,1.4-.6.6-.5.9.2,1.6.3,1-.7,6.1,0,5.7-1.3l.3-.3c.1,0,.2.2.3.2.2.2.5.2.7,0v-.2c-.1,0-.2-.2-.3-.2-.1-.9.9-1.4,1.8-1.4,1.5,1.3,2.4-1.5.6-.5-.3.2-.7,0-1.2,0-.2-.2-.5-.2-.7,0-.8,0-1.5,0-2.2.4v.2c-.8-.3-1.6-.5-2.5-.2-.2-.2-.5-.3-.7,0-.2.4-2.8,1.4-2.4.4.5-.6-1.1-.2-1.4,0,0,0,0,0,.1.2v.5c-.5,0-1.3,0-1.7.2h-1.4c-.4-.7-1.4-.9-1.7,0,0,0-.2,0-.3,0-.6-1-2.5-.4-3.6-.5-.9.7-3.1-.3-2.9,1.2-.5.4-.6-.6-1.2-.4-1.2.5-2.6-.4-3.6.4-.6,0-1.2,0-1.4.4-.2,0-.7,0-.7.3,0,.4-.4.2-.7.2-.6-1.1-2.2,0-3.1-.2-1.2,0-2.7-.3-3.6.5-1.3.6-2.7-.3-3.9.2h0c-.8-.7-2.1.5-3.1.2-.6.5-2.8,0-3.6.4h-.4.2Zm138.2,204.8h.4v.2c.3,0,.6,0,.7-.2,0-.2.3,0,0,0-.3-.2-.9-.2-1.2,0-.2.1.1,0,0,0h.1Zm-2,112h3c1.5.6,1.4-1-.4-.6-.3-.3-.7-.2-1.1,0-.4.1-2.5-.3-1.5.4v.2Zm-32.6-129.4c0,.2.7.1.7-.1s-.8-.2-.7.1Zm56.8-20.7c.5-.1-.1-.4-.4-.3-.1.1.2.3.4.3h0ZM228.3,44.1c.1,0,.2-.2.4-.2v-.2c-.6-.2-1.4.5-.4.4h0Zm8.5,244.5c1.1-.4,1.2-.7-.1-.7-.3.4-1.1,0-1.4.4.4.2.9.3,1.5.3h0Zm-13.5,2.2c0,.3.5.2.6,0,0-.3-.5-.2-.6,0Zm-115,7.5c-.2,0-.4,0-.4.2,0,0,0,0,.2.1.3,0,.6-.2.2-.3Zm252.4,84.2c.2,0,.3-.1.3-.3-.3-.4-.9.4-.3.3h0Zm-132.6-92.8c1.3.7,4.2-.8,5.9-.9.6,0,1.1,0,1.4-.5-.5,0-1-.1-1.4.2-.5,0-1-.1-1.4.2-1.4.3-3.5,0-4.5,1Zm125-198.1h.1m-178.4,184.7c0-.3-.2-.5-.7-.5v.5h.7Zm177.8,13.2c.1,0,.2-.2.4-.2-.2-.2-.8-.2-1.1-.2.1.2.2.3.4.5h.3ZM236.7,42.8c3.2-1-.8-1.2-.5,0,0,0,.3,0,.5,0h0Zm-104.8,251.2c-.4.2-.4.3,0,.5.1.2.2.2.4,0,0-.3,0-1-.4-.5Zm218-156.2h-.3s0,.1-.1.2h.3s0,0,.1-.2Zm-2.7,258v-.2c-.2,0-.5-.1-.8.1.2.2.4.2.7,0h0ZM240.6,75.2c-.3,0-1.2,0-.6.4.8.5,1.1,0,1.9-.3-.4,0-.9,0-1.3,0Zm58.8,319.4c.8-.6,1.9.3,2.7-.2.4-.1,1,.2,1.2-.2,0-.4-.9-.1-1.2-.2-.7.1-2.3-.2-2.9.2-.4,0-.7-.4-1.1,0-.4.5,1.2,0,1.5.4h-.2Zm-124.8-32.2c-1,.3-2.3-.4-3.2.2-1.4,0-3.2-.4-4.4.1-1,.4,1.8.8,2.2.4,1.9.1,3.9.4,5.7-.1.1-.1-.1-.5-.3-.5h0Zm-5,5.1c-.8-.7-1.7-.8-2.6-.4-.7,0-1.6-.4-2.1.2-.8.2-1.5-.3-2.2-.4-.5.3-1,.4-1.7.2,3.5-2.7-5.1-.5-2.9-3.2.9,0,1.7-.4,2.6-.1.5-.2,1-.4,1.6-.2.8-.8,2.9.5,3.1-.8-.2-.6-1.4-.6-1.9-.3-2.1,0-4.5-.8-6.4-.1-1.3-.3-2.5.1-3.8,0-.8-1-1.7.8-2.7-.1-.9-.4-1.6.3-2.3.6-.6,0-1.2-.2-1.6.2-1.2-.2-2.3-.3-3.3.3-.9,0-1.9-.5-2.7,0-.9,0-1.8.3-2.7,0-.6-1-1.2.2-1.8.6-.4,0-.8,0-1.1.2-2.4.5-5-.3-7.1.6v.4c-.8.4-2,0-2.8.4-3.7-1.1-7.1,1.8-10.8.8-.5.4-1.2.2-1.7.5-.6,0-1.2-.2-1.7.2-.4,0-.8,0-1.1.2-.6,0-1.2-.2-1.7.2-.4,0-.8,0-1.1.3-1.2-.1-2.8-.3-3.8.2-1-.1-1.9,0-2.8.5-5.5,0-11.1.8-16.4,1.8-.9,0-1.9-.5-2.7,0-.9-.2-1.8.1-2.7,0-2.5.5-5.6.5-8.3.9-1.9-.5-3.4.5-5.2.5-1.2-.2-.6,1.1,0,1.5.1,1.6,5,.5,6,.4.4,0,.9.1,1.1-.3h0c1.2.2,2.2,0,3.4.7-4.2,1.5-10.1-.4-13.5,2.3-3.2-1.5-5.6,1-8.8-.3-.8-.3-1.5.3-2.1.7-.6,0-1.2-.3-1.6.2-.6-.1-1.2-.3-1.6.2-.6-.1-1.2-.3-1.7,0-.6,0-1.2-.2-1.6.2-.4,0-.8,0-1.1.3-1.1-.2-4,.2-4,1.4,3.7-.7,7.5,0,10.9-.8,1.4,0,3,.3,4.3,0,4,0,8,.4,11.9,0,1.2-.1,2.6.9,3.7.2.6,0,1.2.3,1.6-.1,5.5.1,11.8,1,16.8-.8.9,1.6,5.1.6,6.4.3,1.6.1,1.1-.4,1.2-1.4.6,0,.8.4,1,.8,1.4,1.8,2.6-.4,4.1-.5.9,0,1.8-.4,2.5-.8,1.4.3,3,.4,4.4-.2h0c0-.1,0,0,0,0,.6,0,1.2.2,1.6-.2.7,0,1.5.4,2.2,0,.7,0,1.6.4,2.1-.2.4.1.9.1,1.1-.2h0c2.2.6,4.2-.4,6.1-.7,0,0,.3-.1.4,0,1.1.2,2.1.2,2.8-.4h0c.7.1,1.5.4,2,0,1.3-.9,3.2-.3,4.5-1.1.5,0,1.2.1,1.6-.2.4,0,.9,0,1.1-.3h0c1.1-.1,2.3.2,3.2-.4.7,0,1.5.5,2.1-.1.3,0,.5-.1.6-.3,1.1.1,6.4,2,4.8-.5h0c2.3.7,5.9,1.1,7.4-1,1.8,1.2,3.9-.1,5.8.1,1.4,0,1-.9,1.3-1.8h1c1,1,2.8,1.3,4.2.9.6-.1-.7-1,.4-1.5.9-.5.5.8,1,1.1.5.1.7-.4.8-.7.7.3,1.3.9,2.1.3,0-.4.2-.9-.4-1.3l1.2.3Zm2.7,0c-.4-.1-.7-.4-1.1-.4v.3c.2.2.4.3.6.4,0,.4.5.4.8.6.2-.4.3-.7-.2-1h-.1Zm2.1-285.1c-.2,0-.3,0-.5,0v.2s.7,0,.5-.3Zm56.7-35.2c-.2,0-.2.2,0,.2.4.4.9.2,1.4.2v-.2c.1,0,.2-.2.4-.2v-.2c-.6,0-1.3,0-1.8.2h0Zm-46.6,337.9h.3s0-.1.1-.2h-.3s0,.1-.1.2Zm204.1-192.6h11.9v5c-1.6-.2-3.5.4-5-.3-7.3.4-14.6.1-22,.2-.4.3-1.3.2-1.7,0-1.9.4-3.9.1-5.7,0-.6.5-1.4.1-2.1.2-.1.1-.2.1-.3,0-2,.2-4.1.3-6.1.2-.8.6-1.9.1-2.8.2-.5.4-4.3.1-4.9.2-.5-.1-1.7.7-1.7-.3-2.7-1.1-6.6.4-9.7-.3-1.3.5-3.2.5-4.6.3h0c-2.2.5-5,.3-7.4.5-.4.3-.9.2-1.4.2v-.2.2c-1.6.2-3,.3-4.7-.1h0c-.1.2-.2.2-.3,0-4.4,0,2.6-1.1,3.6-.9.7-.4,1.7-.4,2.5-.4,1.1-.4,2.3-.4,3.6-.4.3-.3.7-.2,1.1-.2.5-.4,1.2-.1,1.8-.2,1.1-.4,2.4-.3,3.6-.4,17.2-2,35.1-2.2,52.7-3l-.4-.5Zm-57.1,4.8h-.1v-.2.2h.1Zm57.8,137.9c-11.1.6-21.9.7-33,1.1h0c-1-.9-2.4,1.2.5.5.6.5,1.4.3,2.1.1,1.2.8,2.7.1,4.1.2.6.4,1.3.1,2,.1,3.1.5,6.3.5,9.6.6.9.6,2-.1,3.1,0,.9.6,2.1,0,3.1.1.8.5,1.7,0,2.6.1,1.7.4,4.2.2,6.1.2.8.5,1.7,0,2.6.1.9.6,2-.1,3.1,0,1.1.6,2.3-.2,3.6,0,.4.3.9.3,1.4.2v-4.5c-3.7.2-7.5.8-11.2.8l.3.4Zm-192,16.9h.3s0-.1.1-.2h-.3s0,.1-.1.2Zm38.9-66h-.3c0,.2.2.2.4.2,0,0,0-.2,0-.2Zm-23.5-5.1v-.2c-.7-.5-.8.4,0,.2h0Zm81.1,102.5c2.4-.1,4.5-.9,6.9-.9s.9-.2.9-.6h.4c2.6-2.5-7.5-1.8-8.8-2.1-2-.6-4.8-.3-6.7-.4-1.6-.3-7.2-.6-7.4.3-.3,0-.6,0-.7.2-.9.1-5.9-.4-3.1.9-.5,0-1-.1-1.4.2h-1.9v-.3c.4-.2.4-.3,0-.5h0c0-.1-.2-.2-.3,0-.6.2-2.7-.5-2.9.5-.2,0-.5-.2-.7-.2-.5-.4-1.8.1-1.8.7h-1.1v-.2c-.4-.4-1.4-.3-1.5.3-1.6.5-3.7,0-5.3.4-.2-.2-.5-.2-.7,0-5.6,0-11.2.2-16.8.4-.5-.3-.8,0-1.1.2h-1.1c-.3-.2-.5-.2-.7,0-.9.1-3.6,0-4.1,0,0,0,0,.1-.2.2,0,0,.1-.1.2-.2-1.6.1-5-.2-6.2.2,0,0,0,.1.1.2h1.1c.3.2.7.2,1.1.2v.2h-5.3c.2-.2.5-.3.7-.5h1.1c2.3-.6-2.8-.5-4.2-.5s-.5,0-.5.2.3.2.5.2v.2c-.1,0-.3.1-.4.2h-2.8c-.3-.3-.7-.3-1,0h-1.8c-.3-.2-.5-.2-.7,0-1.4.4,1.8.4,2.1.4v.2c-6,.1-11.6-.3-17.2-.4-.1-.1-.3-.3-.5,0,0,.4,1.1.5,1.6.5v.5c.1,0,.2.2.4.2.3.4.4.8.4,1.2-.5.5-1.3-.2-1.9.3-.4.2-1,0-1.4-.3-.5-.8-2.1-.2-2.2.5-1.9-.2-6.2-.3-7.7-.2-.5-.3-2.3-.3-2.8,0,.9.6,5.4.4,6.5.4,17.2.8,35.9,1.7,53.1.8.2,0,.4,0,.6.2,2.5,0,5.1.2,7.4-.4,6.6.1,13.3-.2,19.6-1,4.4-.3,9.1-.7,13.4-1.3,1.8-.2,4.1-.1,5.6-.9.6,0,1.3.1,1.8-.2h-.6Zm95.1-99.2s0-.1.1-.2h-.3s-.1.1-.1.2h.3Zm5.8.5h-.3s0,.1-.1.2h.3s0-.1.1-.2Zm-220.9,2.9c-.7-.1-.6.6,0,.5.7.1.6-.6,0-.5Zm225.3-2.6c-.9-.3-2.5-.3-3.3-.2v.2c.6.5,1.4.1,2.2.2.2.2.4.2.7.2.5.6,1.2-.1,1.7.4v-.7c-.3-.3-.9-.2-1.4-.2h0ZM2.3,175.2c.4,0,.7,0,1.1.2-.1,1.1,1.3.7,2,.8,8.3,1.6,17.3,2.3,25.5,2.6h.4c.2.3.4.3.7,0,4.3.5,8.6.8,12.8.6,1.5,0,3.3.6,4.6.1,1.6,0,3.8,1.1,5.3.3.6-.2.9.6,1.4.2,1.3.1,2.7.4,3.9.6.5,0,1.1.3,1.5,0,.6,0,1.1,0,1.5-.3,4,.4,8.3,1.2,12.2.8,1.1-.1,4.1,1.4,4.1-.2h0c4.1,0,8.9.7,12.7-.1.9.1,1.8.3,2.6.1.5.6,1.8,1.3,2.4.6,0-.4-1-.3-1.2-.7.6-.6,1.8,0,2.6-.2.5.6.7.1,1.4.1.7.5,1.7.2,2.5.2.8-.1,2,.6,2.6,0-1.5-.7-3.6-1-5.2-1.7v-.3c1.5,0,3.1.2,4.6,0,.2,0,.3,0,.4-.1h0c2.5-.2,5,.4,7.5.1.4,0,.8.2,1.1-.1.4,0,.8.2,1.1,0,.5,0,1,.3,1.4,0,.8,0,1.7.1,2.5,0h0c.5,0,1,.3,1.4,0h0c.4,0,.8.2,1.1,0,1.6,0,3.7.3,5.2-.2.4,0,.8.2,1.1,0,1.2,0,2.9.1,3.7-.8.1,0,.3-.1.4-.2.1,0,.3,0,.4-.1.6.1.8-.2.8-.6h.3c.5,1,2.1.3,2.9.1.8-.1.8.5,1.5.6.8-.2,2.8.4,1.7-.9.2-.1.6-.2.8-.4.3,0,.5,0,.7-.2.1,0,.3-.1.4-.2.1,0,.3-.1.4-.2.2-.1.6-.2.8-.3.1,0,.5.1.7-.1.2,0,.7,0,.8-.1.3,0,.6,0,.7-.1h0c2.2-.4-1.7-.9-2.1-.2-.1,0-.3,0-.4.1-.3,0-.5,0-.7.2-.9.1-1.7.1-2.5.3-.4,0-.8,0-1-.4.5-.1,1,0,1.4-.3.3,0,.6,0,.7-.1.3,0,.6,0,.7-.1h0c.5,0,1,0,1.4-.2.3,0,.5,0,.7-.2.3,0,.6,0,.7-.1.3,0,.6,0,.7-.2.3,0,.6,0,.7-.2.1,0,.3,0,.4-.1h0c.3,0,.5,0,.7-.2.5,0,.9,0,1.1-.3h0c.3,0,.5,0,.7-.2.3,0,.6,0,.7-.2.2,0,.3,0,.4-.1h0c.3,0,.6,0,.7-.2.2,0,.3,0,.4-.1h0c.4,0,.8.1,1-.1.2,0,.3,0,.4-.2.1,0,.3-.1.4-.2h0c.3,0,.5,0,.7-.2.1,0,.4-.2.4-.2.3,0,.6,0,.7-.2.1,0,.3,0,.4-.1h0c.5,0,.7,0,1.1-.3.3,0,.5,0,.7-.2.1,0,.3-.1.4-.2.5,0,.9,0,1.1-.3.1,0,.3-.1.4-.2.3,0,.6,0,.7-.2.1,0,.3-.1.4-.2.1,0,.3-.1.4-.2.3,0,.5,0,.7-.2.1,0,.3-.1.4-.2.3,0,.5,0,.7-.2.1,0,.3-.1.4-.2.6-.1,1.3-.4,1.8-.6.3-.3,1.2-.2,1.5-.5.3,0,.6,0,.7-.2.2,0,.3,0,.4-.2.1,0,.3-.1.4-.2h0c.3,0,.5,0,.7-.2.3,0,.6,0,.7-.2.2,0,.3,0,.4-.1.3,0,.6,0,.7-.2.2,0,.3,0,.4-.1h0c.3,0,.5,0,.7-.2.3,0,.6,0,.7-.1.2,0,.3,0,.4-.1h0c.3,0,.5,0,.7-.2.1,0,.3,0,.4-.1.2,0,.6,0,.7-.1.5,0,.8,0,1.2-.3.3,0,.5,0,.7-.2.1,0,.3-.1.4-.2.3,0,.5,0,.7-.2.1,0,.3-.1.4-.2.1,0,.3-.1.4-.2.1,0,.2-.1.3-.2h0c.5,0,.9,0,1.1-.4.2,0,.3,0,.4-.2.2,0,.6,0,.8-.2.3-.2.9-.4,1.1-.6.1,0,.3,0,.4-.1h0c.3,0,.5,0,.7-.2.5,0,.7,0,.8-.4.2,0,.3,0,.4-.2.5.1.7,0,.8-.3.7-.2,2.8-.4,1.5-1.5.6-.6,1.4-.7,2-1.2.1,0,.3-.1.4-.2,1.2.1,2.2-.6,3.3-.8.3-1.2,1.1-.6,2-1.1.6,0,1-.1,1.2-.6.5-.2.9-.6,1.6-.4.2,0,1.2.1.6-.4,0-.1-.2-.2-.3-.3,0,0,.3-.1.4-.2,1.7.1,3.4.5,4.9-.7-1.5-.7-3.3-.2-4.7.2-.5.1-1,0-1.4.3-.2,0-.5,0-.7.2-.3,0-.6,0-.7.1-.5,0-.9,0-1.1.3-.3,0-.6,0-.7.1-.6,0-1.1,0-1.5.3-.3,0-.6,0-.7.1-.5.1-1.1.1-1.5.5-.6.4-2,0-2,1-.4,0-.8,0-1.1.3-.5,0-1.1-.5-1.4,0-.6,0-1.3,0-1.5.5-.8,0-1.6-.2-1.9.5-3.3.1-6.9,1.1-9.9,2.1-.6,0-1.1,0-1.5.3-.3,0-.5,0-.7.1-.6-.1-1.1-.1-1.5.3-2.3-.2-4.7,1.2-7,.6-1.9-.4-3.5.4-5.4.8-1.1,0-2.3.4-3.1.8.2.5,1.1-.1,1.4.6-.5,0-.7,0-1.1.3-.3,0-.6,0-.7.1-.4,0-1.1,0-1.1.5-.3,0-.5,0-.7.2-.4,0-.9.2-1.3,0-1.1-.7-3.6,1.2-3.7-.4.2-.7,0,0,0-.1-1.2-.4-2.3.2-3.3.5-1.1.2.4.8-.2,1.2-.1,0-.3.1-.4.2-.9,0-1.6,0-2.2.4-.7-.4-2.8.7-2.1-.5,1.7.3.8-1.1,0-.5-.8.4-1.9.3-2.6.6-.3,0-.6,0-.7.1-.6,0-1.3-.2-1.8.2-.4-.1-1.4.2-.7.5.4.2,1,0,1.3.5-.4.2-.8.3-1.2.3,1.8,0,.6-.9-.3-.1-.6,0-1.1,0-1.5.3-1.7.1-10.5,1.6-4.5-.1.7-.1,1.5,0,2.1-.2.7-.6,2.5.4,2.5-.8-.9-.1-2.6.2-3.5.6-.6,0-1.1,0-1.5.3-3.5.1-7,.4-10.4,1.6-.5,0-1-.2-1.4,0-.3,0-.5,0-.7.2-1.1.2-2.7-.5-3.6.2-3.4-.4-6.8.9-10.3.1-.3.2-.4.4,0,.7h0c-2-.1-4.9-1.4-7-.2-.6-.1-1.3.2-1.6.6-.9,1-2.7-.5-3.7-.1-.8.6-2.4-1-3.4-.2-.9,2-4.6-.2-5.9,1.4-1.3,0-2.3-1.1-3.2.1v.2h-.7c-.5-.4-1.9-.5-2.6-.3-5.2.2-10.7-.7-15.8,0h-.4c-.2-.3-.4-.3-.7,0,0,0-.3.1-.4.2-2.6-.1-5.5-.7-7.9-.4,0,0,0,.1,0,.2-.7.2-1.7-.5-2.5-.2-.7.6-2.8.6-3.3,1.5-1.1.1-2.1.5-2.8,1-.6.1-2-.2-2.2.5-8.1-1.7-17-.6-25.3-1.6-2.1-.2-4.2-.6-6.3-.3v.7c.6.3.6.2.9-.1l.9,1.6Zm311.4,110.9c.1,0,.2-.2.4-.2-.3-.3-.7-.2-1.1-.2.1.2.4.4.7.4h0Zm-172.4,3.4h.3s0-.1.1-.2h-.3s0,.1-.1.2Zm213.1,93.4c.1,0,.2,0,.2-.1-.1-.1-.6-.2-.2.1h.1-.1Zm-172.5,2.6c-.5.1-1.2-.2-1.6.1-.1.4,2.2.3,2.3,0-.1-.1-.5-.3-.8-.2h.1Zm142.7,9.6c.4-.2.4-.3,0-.5-.3-.4-1.2.5,0,.5Zm-14.5,3.4c-1.4-.1-.2,1,.3.3.7-.1-.1-.5-.3-.2h0Zm-146.1-114.1s-.2,0-.3-.1c0,0-.2,0-.3.1h.6Zm177.4-1.8h1.4c.3-.3.7-.2,1.1-.2-.3-.3-.7-.2-1.1-.2-.2-.2-1-.3-1.1.1h-2.8c-.1.1-.3.2-.4.2.2,0,.3,0,.4-.2h-1.1v.2h-3.6v.5c2.3-.3,5.1.6,7.2-.4Zm-192.5,8.8v.2h.3v-.2h-.3Zm-22.6,5.7c.4,0,.8,0,1.1-.2,1.1.1,1.6.5,2.3-.3,1-.6,0-1-.5-.5-1.6.2-3.5.4-5,.8-.5-.1-1,.3-1.5.2v-.7c.5-.5,1.7.1,2.2-.4.4-.3,1.1-.1,1.5-.4.6-.1,1.1-.7,1.8-.2.2.2.5.2.7,0,.4-.2,0-1.1,1.2-.8.7-.1.9-1.1.9-1.7-.6-.6-1.2.6-1.9.1v-.7c.8-.2,1.7-.4,2.3-.7-.3-.4-1.6-.1-1.9.2-2,.5-7.9,1-8.7,2.5.4,0,.8,0,1.1.2-.4.8-.9.9-1.8.7-.2-.9-.9-1-1.7-.7,0,0-.9,0-.4.2,0,.2.2.2.4,0,.8-.1.7.7,1.4,1v.5h-1c-.4-.8-1.3-.4-1.9-.1-.7-.1-1.7,0-.7.7-2.1,1.5,1,2.3,0,1.5.2-.3.4-.6.4-1,.3,0,.6-.3.7-.5.8.1,2.2-.1,2.9-.2v1c-.3-.1-.5.1-.8.2.2.2.5.2.7,0,.7,0,1.5-.3,2.2-.2.5.5.8-.4,1.5-.2.2.3.5.3.7,0,.7.1,1.3-.1,1.9-.4h0Zm197.7,1c-.2-.2-.9-.3-.6.2.3,0,.5,0,.6-.2Zm-50.2,5.4h-.6.6Zm124.1-9.3c.8,0,1.7.2,2.5.3v4.1c-.7.2-1.7.5-2.2-.3-.4,0-.7.1-1.1.2-.1.2-.2.2-.4,0-.9,0-2,.6-2.7-.2-.3-.3-.7-.4-1.2-.3.1,2.1-5.8.3-7.1,1-.3,0-.6,0-.7-.2-1.4.1-2.5-.6-4-.4-.2.2-.5.2-.7,0-.5,0-.8-.3-1.5-.2-.2.2-.5.2-.7,0-.1,0-.2-.2-.3-.2v-.2c-.2-.2-.8-.3-1.1-.4-.2.3-1,.9-1.4.5-.3.1-.5-.1-.8-.2v-.2c-.6-.3-1.5-.1-2.1-.4-.3.3-.9.2-1.3.1-1-.8-2.7.4-3.6-.7h-.4c-.2.6-1.5.3-1.4-.3-.2-.2-.8-.2-1.1-.2-.7.5-1.5.6-2.4.3-1.4-.5,0,0-.1,0-.7,0-1.3.5-1.7-.3-4.5,1.6-11.1.7-15.7-.2h-6.4c-.5.4-2-.2-2.5,0-.4.4-1.6.1-2.1.2-.6.5-1.9-.2-2.5.4h-2.8c-.6.5-1.4.2-2.1.3-.2.2-.5.2-.7,0-1.7.4-3.3.3-4.8.7-.5,0-1,.1-1.4-.2-2.7.4-5.4.6-8.2.6.5,1.5-2.4,1.2-1.3,0-.4,0-.7,0-1.1.2v.2c.1,0,.2.2.4.2-.5.3-.7.1-.7-.4h-.7v.7c-1.4,0-3.8.7-5-.1v-.2h-1.1c0,.2.1,1.2-.4.7-.7,0-.8-.4-1.1-.7-.7,0-1.3.4-2.2.2-1.2.5-2.8,0-4-.2v-.2h-1.4c-.2.5-.3.9-.5,1.4-.2.4-1.1.2-.9-.4,0-.8-1.3-.3-1.7-.8-.5,0-1,0-1.4.2-.1.2-.2.2-.4,0h-.7c-.4.3-.9.2-1.4.2-.7.3-1.4.7-2.2.6-.5.4-1.3,0-1.8.7.1.4-.4,1.3-.8.9-1-.6-2.3.2-3.4.4v.5c.1,0,.9,0,.4.2-.5.6-1.1-.4-1.6.3v.2c-.2.3-2.3.5-2.5.2-.5-.5-1.1-.7-1.9-.2-.9.5-2-.6-2.8.1v.5c-.9.6-1.6.1-2.5,0-.5.5-1.5-.1-2.1.2-.5.2-.9-.1-1.1-.4-2.2-.7-4,1.6-6.1.7-1.2-.1-2.1,1-3.2.4.2-.2.8-.3,1.1-.4-.3-.3-.7-.2-1-.2-.6.5-1.6,0-2.2.4-.1.2-.4.2-.7.2-.2.2-.5.2-.7,0,.2-.2.4-.2.7-.2.8-.3,1.5-.7,2.5-.9.2-.2.4-.2.7-.2.2-.2.4-.2.7-.2.4-.3.9-.4,1.4-.5.2-.2.4-.2.7-.2.2-.2.4-.2.7-.2v-.5h-.4c-.4.2-1,.4-1.5.4-.3.3-1,.2-1.4.2-.1.3-.7.6-1.1.5-.2.2-.5.2-.7,0-.7-.3-1.2.2-1.8.6-1.3.4-1.3-1.2,0-1.1.2-.2.4-.2.7-.2.4-1.5,2.9-1.3,4-2.1,0-.5.4-.7,1.1-.7.4-.3,1-.5,1.5-.4.4-.9,1.4-.8,2.2-1.1.3-.3.7-.2,1.1-.2.5-.5,1,.1,1.3-.5-.2-.8,1.5-1,2.2-.9.2-.3.7-.3,1-.3.1-.2.4-.2.7-.2.2-.3.7-.3,1.1-.2.4-.4.9-.2,1.4-.2.4-.4.9-.2,1.4-.2.3-.3.7,0,1-.4.1,0,.2-.2.4-.2.3-.3.7-.2,1.1-.2.1-.2.4-.4.4-.7-.3-.8,1.6-.3,2.1-.4.7-.4,1.7-.1,2.5-.2.6-.5,1.4-.1,2.1-.2.5-.5,1,.1,1.3-.5,1-.8,2.4-.6,3.6-.8.1-.9,1.5-.4,2.1-.5.4-.4,1,0,1.3-.4h.4c.7-.4,1.8-.1,2.5-.6,1,.2,1.9-.4,3-.4.3-.3.6-.2,1.1-.2.5-.4,1.3.1,1.8-.4h.4c.3-.3.6-.2,1.1-.2.3-.3.7-.2,1.1-.2.3-.3.6-.2,1-.2.7-.3,1.6-.4,2.5-.5.4-.2.9-.2,1.4-.2.5-.4,1.1-.1,1.7-.2.4-.3,1.1,0,1.4-.4h1.1c.3-.3.9-.2,1.4-.2,1.2-.5,2.7-.1,4-.6.7.1,1.2-.3,2.1-.2,4.8-1.1,3.8.4-.5.5-.5.4-1.2.2-1.8.2-.3.2-.7.2-1.1.2-.3.3-.7.2-1.1.2v.2h-1.7c-.4.4-.9.2-1.4.2.1.8-1,.5-1.4.9-.5.4-1.2.2-1.8.2-.1.1-.6.3-.8.2h0v.3h-.4v.2h.4c.7.7-.9.3-1.4.4-.8.5-1.9.5-2.9.6v.4h2.1c.6-.4,1.7-.1,2.5-.2,1.5-.8,3.9.5,5.5-.6v.2h1.4c1.4-.5,3.1-.4,4.6-.7v-.2h4.3c0-1.1,2.5-.6,3.2-.7v.2h.7v-.2h.4v-.2c.3,0,.6,0,.7.2h2.1v-.2h.7c.8.4,2.1,0,3-.2,2.2.8,5.5-1.2,7.4.5h2.1v.2h.4v-.3c1.2,0,2.4.3,3.6.2v.2h.4v.5c.4-.2,1.8.4.9.7-.3,0-.7,0-.9.3-.1,0-.2.2-.4.2h.4v.2c.8-.1,1.1.8,1.9.2h2.8v.2c3.5,0,6.6.7,9.9,1.1v.2c.6.1,1.2-.2,1.8-.2v-1h.4c-.1,0-.2-.2-.4-.2v-.2c.5-.5.8.1,1.5,0,.7.5,1.8-.2,2.5.4.5,0,1.3-.1,1.8.2.6,0,1.3-.2,1.8.2h1.8v.2c2-.2,3.8.4,5.7.7v-.2h.4v.2c.3,0,1-.1,1.1.2.7.1,1.8-.3,2.1.3.7.1,1-.2,1.4-.5.3.3.4.6.3,1,2.9,0,5.9.7,8.8.7,0-.3-.2-.5-.4-.7-1.5-.2,2.4-1.1.8.7,2,.4,4.1.6,6,.9v-.6Zm-138.3,6.8c-.3,0-.5,0-.8.2.2-.2.5-.2.8-.2ZM2.3,26.8h-.9v-2.4c.5,0,1.3-.4,1.9-.1.5-.1,1.6-.5,2.1-.2.9,0,1.8-.1,2.1.3,1,.5,2.9-.3,3.8.2.1,0,.3.2.4.3.3,0,.6,0,.8-.2.1,0,.3-.1.4-.2.4.1,1.7-.2,1.7.2.1,0,.3,0,.4.1.9,0,2.2-.1,3,.3,1.1,0,2,.1,3,.2,0-.2-.5-.3-.9-.4-1-.6,2.5-.9,3-.5.1-.1.3-.1.4,0,.6.1.4.4.4.6h0c.4.2.9-.1,1.2-.2.7-.2,1.2.6,2.1.6.2-.2.5-.3.2-.6,1.8-.1,1.4.4,2.4.8.5,0,.8-.4,1.2-.1h.8v-.5c.1,0,.3-.1.4-.2.5.1,2-.3,2.1.3.3,0,.6,0,.8.1v.2c0,0-.3.1-.4.2.8.2,2.5,0,3.3.1,0-.1.3-.1.4,0,.6-.1,1.3.4,1.7-.2,0-.1-.7-.3,0-.4v-.6c-.4-.1-4.8,0-2.5-.4.4,0,.9.1,1.2-.2.5.1,1.9-.2,2.1.4-.2.4.5.7.2,1.1.9.8,2.4.1,3.6.2.3-.2.6-.2.8,0,0,0,.3,0,.4.1,1.6-.5-.3-.8,0-1.5-.4,0-.8-.1-1.3-.1-.3.2-.6.3-.8.5,0,.3-.5.7-.8.4,0-.2-.3-.3-.4-.4,0,0-.7-.2-.9-.3,1.1.2,6.3-1.2,5.5.8.6.1.3.5.4.9,1.4-.1,3.2-.9,4.3,0,.4.2,2-.3,2.2.2h.8c0-.9,2.2-.1,2.5-.8,0,0-.3,0-.4-.1-1.8-.2-5.1.6-6.6-.5,0-.1.6-.3.8-.1.4-.1.8-.2,1.3-.3v-.3c-2.5-1,11.2.2,11.8.3,9.9-.9,20.9.2,30.9,1.1,0,0,.3,0,.4.1,2.5.2,5.3.6,7.6,1.2,1.2,0,2.6,0,3.6.6-.5,0-3.6-.2-2.7.4,1.8-.4,3.4,1.2,5.2.5.6,0,1.4-.1,1.7.3.5,0,.9-.1,1.3-.2,0-.1.3-.1.4,0,1,0,2.4-.4,3.3,0,.2.1,1.1.4,1.4.1,4.1-1.2,9.7-.2,14-.3.3-.2.6-.2.8,0,.3,0,.6-.1.8.1h.8c.3-.2.6-.2.9,0,.1,0,.3,0,.4.1h0c.1.1.3.1.4.2.3,0,.6,0,.8.1.3-.1,1.2-.7,1.6-.3.3,0,.6-.1.8.1h0c1,.1,2,.5,2.9.1,2,.2,4-.2,6,.3.2-.3,1.8-.2,1.7.1.1,0,.3,0,.4.1,1.7-.1,4-.7,5.8-.1.2,0,.4,0,.4-.2,13.2-1.1,27.2.3,40-1.1.3-.2.6-.2.8,0,5.8-.4,11.4-.6,17.2-.9-.5-.9,2.7-.9,1.6-.1.5,0,.8.1,1.2-.2h0c-.1-.1-.3-.1-.4-.2.6-.2.7-.1.8.1h0c.3.1.6.1.8.1v-.4c1.7.2,4.6-.8,5.9.1h1.3v-.4c.1-.1.3-.1.4,0,.8,0,1,.2,1.3.4,2.2-.1,5.2-.8,7.2-.1h1.7c.5-.5.4-1,1.3-.9.3,0,.3.1.3.4,2.5.8,5.9.3,8.3-.6.9,0,2-.1,2.9-.5-.1-.3.5-.9.8-.6.1,0,.3,0,.4.1,1.1,0,2.3-.2,3.4-.6v-.3c-.2,0-1,.1-.4-.2.7-.4,1.2.2,1.9-.2h0c1.7-.8,3.5.3,5.2-.3,1-.4,2.4.4,3.4-.2v-.3c3.3-.7,7,.8,10.1-.3,2-.6,4.1,0,5.9-.7.8-.2.9-.2,1.7,0-.1,0-.3.1-.4.2-.3,0-.6.1-.8.2,1.7.5,3.8-.7,5.4-.5-1.7.6-3.4.9-5.3,1.3-1,.4-2.2.3-3.3.7v.3c1.8-.2,3.9-1.1,5.6-.9,1.2.3,1.8-.5,3-.4,1.3.4-1.1,1-1.6,1,0,.8-1.5.5-2.1,1-1,0-1.7.3-2.5.5-.1.5-2.3.8-2.9.8-.3.3-.8.4-1.2.7-.4,0-.9,0-1.3.1-.2.3-.8.2-1.2.2-.4.3-1.2,0-1.6.4.2.6-1.9.6-2.5.7-1,.3-2.1.5-3.3.6-1.5.5-3.4.1-4.9.9-.4.4-1.6-.1-1.7.7-1.8.8-5.6.3-8.1.7-.4.3-1.2,0-1.6.4-1.2.7-2.8.6-4.2.7-.4.7-2.1,0-2.8.4-.6-.1-1.2.1-1.8.1-1.6.5-3.6.2-5.3.6-10.1.9-20.2,1.9-30.4,2.7.5-.4,1.7,0,2.2-.4.4,0,.9,0,1.2-.2,1.5,0,2.8-.3,4.2-.4.3-.2.8-.2,1.3-.2v-.2h2.1c.4-.3,1.1-.2,1.7-.2-.1-.4.8-.6,1.2-.5.8-.6,2-.1,2.9-.6h.4v-.2c.1,0,.4.1.4-.1-2.1-.3,1.3-.2,1.6-.5.8-.2,2.2-.2,2.9-.5h0c-3.8.2-7.8,0-11.6.6h0c-2.1-.1-4.8.4-7.1.4h0c-.3.1-4.5.1-5.1.2-.1.8-3.5.4-3.8.5h0c-.3-.1-.6-.1-.8-.1h0c-.1.1-.3.1-.4.1h0c-.3.1-.7.1-.8,0h-2.5c-.8.2-1.6-.3-2.4.2-.6,0-1.3-.1-1.7.2-2.8-.5-6.4,1-8.9-.1h-2.5c-.1-.1-.3-.1-.4-.1v.2c-1.5-.1-2.7,0-4.2,0h0c-.1-.1-.3-.1-.4-.1h0v-.2c-2.6-.1-.6-.3.4-.8h-.4c-1.4-.4-4.1-.1-5.5-.2h0c-4,0-7.7-.3-11.8-.5h0c-.7-.1-1.4,0-2.1.1v.4h0c-.1.1-.3.1-.4.1.1,0,.3,0,.4.1h0c-3.5.1-7.3-.2-10.9-.1h0c-2.3,0-4.4-.2-6.6-.5h0c-.1.1-.3.1-.4.1h0c-1.9,0-4-.6-5.6-.1-.2-.1-.5-.3-.4-.5h-.1c-3.6,0-6.9-.2-10.6-.3,0,.4.8.4,1,.4-.4.3-2.6.2-1.3-.5-11.9-.7-24-.7-35.9-1,0,.4,1.3.3,1.2.7h0c-.5.1-1.6,0-1.7.4.9.3,2.9.1,3.7.6-.4.1-.8,0-1.2,0-.3.3-2.1,0-2.1.5h0c4.6.5,10.2.3,14.5,1-.6.2-1.6,0-2.2.1h0c0-.1-1.4-.1-1.7-.1h0c-2.9-.1-6.5-.5-9.3-.4h0c-1.8,0-3.4-.1-5.1-.1v.3c1.4.1,3.6.2,4.7.7,1.4,0,2.5.1,3.7.3h0c-1.2.2-2.2.1-3.4.1h0c0-.1-.3-.1-.4-.1v.3h0c4.7.6,9.3.7,13.9,1.2h0c-1.2,0-2.9,0-4.2-.1h0c-3.8-.2-7.8-.5-11.5-.8-.7.2-1.3.3-2.1.2h0c-.3,0-.5,0-.8,0h0v.2h-.4c-.7,0-1.6,0-2.1-.4,0,0,0-.2-.4-.3v.3c-.4,0-.7,0-.8,0-7-.5-14.2-.8-21.1-1.6-2.8-.4-5.7-.1-8.3-.7-4.4-.5-8.9-.2-13.1-1-.2,0-.7.1-.9-.2-2.7,0-5.4-.2-8-.7-3.3-.4-6.8-.1-9.8-1-.9-.1-1.9,0-2.5-.3-1.3-.1-2.7.2-3.9-.2-.2,0-.9.1-.8-.2-1.9-.1-3.9-.4-5.9-.7l.9-.5Zm275.3-3.4c.3,0,.6,0,.9-.1-.3,0-.6.1-.9.1Zm-117.8,232.1s-.2,0-.3.1c0,.2.2,0,.3-.1h0ZM246.1,45.4c-.1,0-.4,0-.6,0,0,0,.2,0,.2,0h.4Zm-16.5-2h-.6c.1.2.4.2.7.2.2-.2,0-.2,0-.2Zm1.9-.2h-.2v.2c.1,0,.5,0,.3-.2h-.1Zm128.7,204.1c.2,0,.1,0-.1,0s0,0,.1,0c0,0,0,0,0,0ZM171.2,84.8h0c0,0,.2,0,0,0h0Zm229.2,159.3v-.3s-.1.1-.2.2c0,0,.1.1.2.1Zm-2.9,1.1c-1-.4-9.3-.3-8,.5,1.5.5,3,0,4.4-.3.1.2.4.2.7.2.2.2.5.2.7,0h-.3c-.2-.2-.5-.2-.8-.2.3,0,.6,0,.8.2,1.7-.1,3.6,0,5.4,0v-.7c-1,0-2,0-2.9.2h0Zm-288.6,52.9c.2.2.5.2.7,0-.2-.2-.5-.2-.7,0ZM285.5,37.9h.2q0,0-.2,0Zm61.8,207.2h-.1.1Zm-207.7,74.7c-.5-.2-1.5-.3-1.6.4h-.7c-.8-.8-4.3.6-1.8.9.4-.3,1.1-.1,1.5-.4.9-.3,2.1,0,3-.4,0-.1-.3-.4-.4-.5Zm180.6-21.3h-.2c-.1,0,0,0,0,0h.2Zm-136.6,87.4h.1-.1Zm11.1-103.4c-1.1-.7-1.1,1.5,0,.7.6,0,1.5.2,1.8-.5h-1.1v-.2h-.7Zm-70.8,9.6c.2,0,.5-.1.4-.4,0,0-.3,0-.4-.1h-.4c0-.9-3.8-.2-2.9.8.3,1.1,1.7.2,2.6,0,.3,0,.7,0,.7-.3ZM36.9,124.7c-.2,0-.4,0-.6-.2v-.2c-.3-.5-1.1-.2-1.2.2-.9-1-1.5-.5-2.6-.6-.7-.5-.7.6-1.5,0-.8-.4-1.9-.4-2.7-.9-.4-.4-.5-.4-1-.2-.5,0,0,.3.3.2,0,.4-.9.3-1,.8-.8-.2-.4-.7-.8-1.2,0,0-.2-.2-.3-.3-2.7-.5-.5.2-2.1.8-.4,0-.7,0-.8-.4-.8-1.1-3.3-.9-4.8-1.1-.9.6-2.4,0-3.4.3-.4,0,0,.2.2.4-.1.3-.5.7-.2,1,.1,0,.3,0,.4-.2.8-.2,1.7,0,2.5.3.5-.2,1.2,0,1.6-.4v-.2c.3,0,.7.2,1,.2v.2h.3c.3.3,1,.7,1.4.3h.7c1,.6,2.4,0,3.5.6.3.4.6.2,1,.2v-.2c.3,0,.5.2.6.4.3,0,.6,0,.8-.3,2.1.4,4.6.3,6.7.9,0,.2.2.2.4,0h1.6c0,0,0-.2-.2-.3h.2Zm-33.7,1.3c.4,0,.5-.2.2-.5.3-.4.8-.3,1.2-.6,0-.2,0-.3,0-.5h.3q.2.6,1,.5c.5,0,1,.3,1.4,0,.5,0,1,.3,1.4,0,.3,0,1.7.2,1,.7-.2,0-.4,0-.2.3.4,0,1.1-.2,1.5-.2.2.3.4.4.7.2,1.1.2,2,0,3-.2.5,0,1.5.4,1.8,0,0,0-.2-.2-.3-.3v-.2c.1,0,.3,0,.4,0,.6,0,1.1.2,1.7.4-.1.2.1.3.3.5,0,.2.2.2.3,0,.5,0,1,.3,1.4,0,.4,0,1.8.5,1.1-.3,0,0,0-.4.1-.5.4,0,.8.4,1.1,0,.7-.2,2,.7,2.5.2.2,0,.5,0,.7.2v-.2h.3c0,.2,0,.3-.1.5h-.3v.2c.2.3.4.3.7.2.5,0,1,.3,1.4,0,.4,0,.8.4,1.1,0-.2-.3-.7-.6-1-.2h-.6v-.2h-.3v-.2h.3v-.2h.3c.1-.2-.1-.3-.3-.5,0-.5-.1-.5-.6-.4-.4,0-.8-.4-1.1,0,0,0-.2-.2-.3-.3-.3,0-1.2.3-1.5.5h-1.4v.2c-.3,0-.7-.2-1-.2v-.2c-.6,0-.7,0-1.1.2-.2,0-.5,0-.7-.2-.1-.6-1.1-.6-1.6-.9,0,0-.2-.2-.3-.3-.2,0-.5,0-.7-.2-.5.6-2.1.3-2.1,1.3-.4.2-1.2,0-1.5.3-1.4-.5-2.8,0-4.2-.5-.5-1.4-1.1-.8-2.3-1.1q-.4-.6-1-.2c0,0-.3,0-.4.2-.2,0-.5,0-.7-.2,0-.2,0-.3,0-.5.3,0,.4-.2.5-.4.6-.3,4.1.7,3.2-.3-.4-1,.4-.4.7-.9-.3-.5-2.2-.4-2.1.4h0c0,0-.4.2-.6,0-1-1.8-3.7-1.3-5.4-1.5v.7c.6,0,1.8-.3,1.6.6-.4,0-.8-.2-1.1,0-.2,0-.4,0-.6,0v4.4h1.8l.2.6Zm9.6-4c.3,0,.3,0,0-.2,0-.2-.2-.2-.3,0-.9,0-1.4,0-2-.5-.1,0-.3,0-.4.2,0,0,.5.5.6.6-1.3,1.4,1.7,1.2,2.2.8-.1-.4-1-.2-.8-.7h.7v-.2Zm-5.4,3.9c0,.4.9.4,1.1.4,0-.4-.9-.4-1.1-.4Zm218.3,164.5h.3c-.2,0-.7,0-.3.1h0Zm.4-.2c.4,0,.8,0,1.1-.2-.3,0-1,0-1.1.2Zm-10.9-10h-.1.1Zm19.2,6.2h.2-.2Zm-25.1,37.1h.2-.2Zm68.2-40.6v-.2h.4q-.5-.3-1.1,0c.1.1.5.3.7.2h0Zm11.4-.8c0-.1-.3-.1-.4-.1v.2c.2,0,.4,0,.4-.1Zm-93.1,101.1h.1-.1ZM288.8,35.4c.2.6,1.5-.3.7-.5-.2,0-1.2.3-.7.5h0Zm83.2,37.6c-.1,0-.2.2-.4.2.2,0,.3,0,.4-.2Zm-74.4,322.3c-.3,0-.7.3-1.1.2.1-.6-.9-.5-.7.2.1,0,.2.2.4.2.2.2.5.2.7,0,.4,0,.7.4,1.1,0,.1,0,.2-.2.4-.2,0-.5-.2-.8-.7-.4h0Zm54.9-126.2c.2,0,.2-.2,0-.2s-.2.2,0,.2Zm-61.6-233.9c.9-.2,2.1,0,2.8-.5.5,0,1.1,0,1.4-.2.4,0,1-.2,1.3.3.3.3.5-.3.4-.6,1,0,3.3.7,3.5-.7h0c2.3-.3,1.9,2,2.8,1.5,1-.8,2,.2,3,0,.3-.3.7-.4,1.1,0,1.1.3,2.6,0,3.7-.3.6,0,1.3.2,1.8-.2.1,0,.2-.2.4-.2-.7-.5-1.5.2-2.4,0-.2-.6,1.6-.9.5-1.2-.2,0-.5,0-.5-.2.2-.1.6-.1.7-.4h0c.3,0,.6,0,.7-.2,1.1-1,1.2,1.6,2,.6,0-.8,1.3-.3,1.7-.8.1,0,.2-.1.4-.2.5.3,1.4,0,1.9.4,0,.6,1.4.1.9-.4v-.4h.4c.3.4,1.8.1.5.5,0,0-.2.2-.1.3.4.8-.8.4-1.2.8-.1-.1-1,.1-.4.2.2.2.5.2.7,0,5-.3,9.6-.9,14.5-1.5q.5.3,1.1,0c1.4-.1,3,0,4.3-.4.1,0,.2-.1.3-.2h.8c.6.5.8,0,1.5,0,.6-.1,1.8.2,2.1-.2.4-.1-.2-.3-.3-.4h0c-.2-.2-.5-.2-.7,0-.6,0-1.3-.2-1.8.2-.9-.1-2.2.2-2.9-.1.6-.4,1.6-.2,2.2-.6.1,0,.2-.2.3-.3,2.4.5,5.1.1,7.5-.2,3.4-.4,7.1.2,10.3-.7.1,0,.2.2.4.2.2.2.5.2.7,0,.9-.1,2,.2,2.8-.2,4.3-.6-8.3-.6-9.2-.2-7.6.4-15.1.2-23,1q-.5-.3-1,0c-.6.1-1.3-.2-1.8.2-.1.1-2-.2-2.2.2h-.4c-.5-.3-.9,0-1.5,0-.2-.2-.5-.2-.7,0-1.6.1-3.5-.4-4.3,1-.2-.6-1.5-.6-2-.3h-.4c-.2-.3-.5-.3-.7,0-1.6,0-3.2.4-4.7.5-.5-.3-1.3-.2-1.8.2-1.8,0-4.2-.4-5.7.7-.7.1-1.8-.2-2.4.2-.8.1-2.1-.4-2.2.7-.9.1-2.3-.4-2.8.5-1.6-.3-2.8.7-4.3.7s-.6,0-1,.5c-.1.4.4.4.7.3l.3.2Zm-157.7,66.6h0q-.2,0,0,0Zm94.1,188.1h.1-.1Zm49.9-6.4c.1.2.2.2.4,0v-.2h-.4v.2Zm-126.8-108.9c.4.5.5.5,1.1.1.1,0,.3-.1.4-.2.1,0,.3-.1.4-.2.6-.1,1.3,0,1.8-.2.8.3,1.4.3,1.8-.2.9.1,1.6-.1,2.4-.1.2.2.5.3.8,0,.1,0,1-.5,1.1-.6.2,0,.6.1.7-.2.1,0,.3,0,.4-.1.2,0,.6.1.7-.2.3,0,.6,0,.7-.2.2,0,.3,0,.4-.2.1,0,.3,0,.4-.1h0c.3,0,.5,0,.7-.2.3,0,.6,0,.7-.1.2,0,.3,0,.4-.2,1-.1,1.6-.6,2.6-.6,1.4,1.3-1.1,1.4-1.4,2.2-.1,0-.3.1-.4.2-.3,0-.5,0-.7.2-1-.2-1.6.6-2.5,1h0c2.1.3,4.5-.4,6.4-.9.1,0,.3-.1.4-.2.1,0,.3-.1.4-.2.8,0,2.3-1,3-1.3.5,0,.9,0,1.1-.3.1,0,.7-.3.8-.4.3.1.4.2.2.5-.6.3-1.5.5-2,1-.1,0-.3.1-.4.2-.1,0-1,.5-1.1.6-.3,0-.6,0-.7.1-.1,0-2.2,1-2.3,1.1-.3,0-.5,0-.7.2-.4.1-.8.4-1.2.6-.2,0-.5,0-.7.2-.1,0-.3.1-.4.2-.6.1-1.1.4-1.5.7.7,0,1.4,0,1.9-.5.2,0,.5,0,.7-.2.1,0,.3-.1.4-.2h0c.1,0,.2-.1.3-.2.2,0,.6,0,.8-.2.3,0,.6,0,.7-.2.1,0,.3-.1.4-.2.1,0,.3-.1.4-.2.1,0,.3-.1.4-.2,1-.7,2.3-1,3.4-1.3.1,0,.3-.1.4-.2h0c.3-.2,1.2-.3,1.2-.8.7,0,.9.4,1.2.8,1.3-.8,3.1-1,4.3-1.9.2,0,.9.1,1.1.1.3.2.5.8,1,.4.8,0,1.2-.4,1.9-.7.3,0,.5,0,.7-.2.3,0,.4-.2.4-.4.4-.2,1.2-.3,1.2-.8.4-.2,1.3-.3,1.2-.8.6-.4,1.8,0,2.3-.6v-.2c.3-.2.8,0,1.1-.3.1,0,.2-.1.4-.2v-.2c.7-.1,1-.6,1.2-1,.5-.4,1.7-.2,2-.9.1,0,.3-.1.4-.2.1,0,.3-.1.4-.2v-.2c.6-.3,1.4-.3,1.8-.7.1,0,.3-.1.4-.2h0c.2-.2.7-.2.7-.6.6-.1.2-.6.8-.8v-.3c-.4-.1-1.2.1-1.3.6-.2,0-.3.1-.4.2v.2c-.1,0-.2.1-.3.2-.7.5-1.8.8-2.4,1.4-.7,0-.6-.6-1.2-.8-.4.1-.8.3-1.3.4-.1,0-.3.1-.4.2-1.3.2-3.5,2-4.3.4.5-.2,1.1-.5,1.5-.7.4-.1.5-1-.1-.6-1,.6-1.8-.6-2.9-.3-.9.7-2.2.2-3,.8-.6-.1-1.1-.1-1.5.3-.3,0-.6,0-.7.1-.1,0-.6.3-.8.4-.8-.1-1.4,0-1.5.5-.6,0-1.1,0-1.5.3-.5,0-.9,0-1.1.3-2.5.8-5.9.6-7.9,2.2-.6-.1-1.1,0-1.5.3-.3,0-.5,0-.7.2-.4.3-1.5.3-1.6.8-1.3-.2-2.2.6-3.3.7-1.3-.1-1.8,1.1-3.2.6-.9.2-2.3.5-3,.9-1,.3-3.1.2-3.4,1.4-.6,0-1.4,0-1.5.6-.4.1-.4.3,0,.5v.2ZM103,1.9h-.3.3Zm-1,0h-1.5c.6.3,1.1.3,1.5,0Zm-1.9,0h-.4.4Zm-1.2,0h-.3.3Zm6.4.2c0,0,.5-.2.5-.2h-1.4,0c.2.4.5.2.8.2Zm8,0c-.3,0-.4.2-.5.4,0,0-.3,0-.4.1-1.3-.2-2,.4-3.3.8.4.7,1.9.1,2.7.1,1.7.5,3.1-.2,4.6-.4,1.3.1,2.7-1,4-.8,0,.1-7.4,0-7.1.1,0,0,0-.3,0-.3Zm8,0c0,0-.3.1-.4.2-.5,0-.9.2-1.2.4-1.4.4-3.4.7-4.7,1.4-1,0-2,.4-3,.6-.7,0-1.2.3-1.6.6.7,0,1.4,0,1.9-.3.6,0,1,0,1.5-.3.2,0,.6,0,.8,0,.6,0,1,0,1.5-.2,0,0,.3,0,.4,0,0,0,.3,0,.4-.2,0,0,1.5-.5,1.6-.6.7,0,1.2.1,1.8-.2h0c0,0,.3,0,.4-.1,0,0,.3-.1.4-.2.3,0,.4-.2.5-.4.7,0,.9.5,1.1.9,1.4-.7,3.2-.6,4.5-1.5.2,0,.9.2,1,.2.2.2.6.8,1,.5.6,0,1.1,0,1.6-.2.1,0,.3,0,.4-.1.5,0,1,.1,1.2-.4h-10.6c-.1,0-.3,0-.5,0h0Zm-23.7,0c0,0,.3,0,.4-.1,0,0,.2,0,.3-.1h-1.8q.4.6,1.1.2h0Zm50.1,255.9h.2-.2Zm-59.6-179.4c1,0,2.6.9,3.7.2,1,0,2.2.6,3,0h0c8.5-1,18.5,0,26.6-2-1.1-1.9-4.4.5-6-.6-.2-.9,2.8-.3,3.2-.9.6,0,1.1,0,1.5-.2,1.3.2,2.4.3,3.1-.3.8,0,1.7.2,2.1.8-.4.2-1.3.4-1.7.3-.5,1.5,7.8.6,7.4-.4-.5-.7-2.3,0-2.5-1.1,1.8.3,3.4.2,4.6-.5.7,0,2.4.5,1.6,1,0,0-.7.4-.4.6,2.9,1.1,4.4-1.5,7.5-.4,3.1-.5,7.6.2,10.2-1.3-1.4-1.2-12.8,1.7-11.4-.3.6,0,1.2,0,1.5-.2,1.5.2,2.8-.2,3.8-.7.8,0,1.7.4,2.2,0,.6,0,1.2,0,1.5-.2.6,0,1.2,0,1.5-.2,1.7,0,3.5-1.1,5.1-.4.4,0,.7,0,.9-.2,2.7,0,5.4-.3,7.7-.8.8,0,1.7.4,2.3,0,.6,0,1.2,0,1.5-.2.5,0,.9-.2.8-.6,1.3.3,2.9,1.2,3.7.3,1,.2,1.5,0,2.3-.4.8,0,1.7.4,2.3,0,2.4-.2,4.6-.7,6.9-1.5v-.4c1.8.6,4.4,1.3,5.4-.4,1.9-.2-1.4-2-2.1-1.1-1.3-.2-2,.5-3.1.8-.4-.5-.9-.6-1.5-.3-.7,0-1.8-.4-2.2,0-.6,0-1.2,0-1.5.2-4.8.6-10,1.3-14.7,1.8-.6,0-1.2,0-1.5.2-.8,0-1.7-.4-2.3,0-1.9-.4-3.2-.2-4.6.5-1.3-.2-3.5-.9-4.5,0-1,0-2.2-.5-3,0-1.1.5-3.6-.2-4,1-1.2,0-2.6-.5-3.7,0q-2.4-.3-3.1.7c-2.1.8-3.9-1.7-6-.2-3.6-.3-7.1,0-10,.9-.3,0-.6.2-.8.3-.8,0-1.7-.4-2.2,0-.8-.2-1.7-.4-2.3,0-.6,0-1.2,0-1.5.2-.6,0-1.2,0-1.5,0-1.5-.2-2.4.2-3.1.8-.5,0-1.2,0-1.5.2-1,0-2.2-.6-3,0-.9-.2-1.6,0-2.3.4-.9,0-2.4-.5-3,0-.8-.2-1.7-.4-2.3,0-.6,0-1.2,0-1.5.2-.8,0-1.7-.4-2.3,0-1,.2-2.2,1.2-3.3.6-.5-.4-.9-.4-1.3,0-.3,0-.6,0-.8.2-1.4-.2-2.9-.6-3.8.2-2.6,0-5.2-.2-7.5.4-.6,0-1.1,0-1.5.2-1.4-.2-2.9-.6-3.9,0-1,0-1.5,0-2.3.5-1.2,0-2.6-.7-3.7-.2-2.5.9-5.6-.2-7.6.8-1.6,0-3.5-.5-4.6.5-3.2-.3-6.1.5-9,.7-1.6-.2-3.2,0-4.6.4-2.7-.8-2.2,2-5.6.7-.3,0-1.4-.4-1.2.2,0,.3.7.5.5,1,.7.5,1.3,1.4,2.2.7.7-.5,2.6,0,3.7.2,2.4-1.5,5.8,1.3,8.4-.6q1,.7,2.2.4c.7,0,1.7.4,2.3,0,3.3.3,6.8.3,9.9-.5.6,0,1.2,0,1.5-.2.8,0,1.7.4,2.3,0,6.8.6,13.9,0,20.6-1.1l.3-.8Zm66.7-5.9c-.3,0-.7,0-.7.3.1.7,1.7,0,.7-.3Zm3,.7c-.7-.6-2-.5-2.5,0,.8,0,2.1.5,2.5,0h0Zm-88,.7c1.6,0,3,.5,4.5-.3.8,0,1.7.4,2.3,0h0c3.3-.6,6.8-.4,10-1,2.2,0,4.6-.3,6.7-.7.6,0,1.2,0,1.5,0h0c1.3,0,2.7.2,3.7-.2.6,0,1.2,0,1.5-.2,1-.5,2.3.4,3-.3h0c4.5-.4,9.3-.5,13.7-1.1.6,0,1.2.2,1.5,0h0c.6,0,1.2,0,1.5-.2,4.5-.2,8.6-.7,12.9-1.1,1.1,0,.2-.9-.5-.9s-1.1.3-1.6.2c-1.4.6-3.3-.4-4.6.5-1.9.2-4.3.5-6,.8-11.7.8-23.3,2.3-34.9,3.4-3.3-.4-6.6.8-9.9.5-1,.4-2.1.7-3.1.4-.6.4-4.1,0-2.3,1.2v-.8Zm75.6-6.4c.7,0,1.8.3,2.3,0,.8.3,1.4-.4,2.2,0,1.5-.2.1-.9-.6-.9-.5,0-1,.4-1.6.3-1.5.6-3.5-.3-4.7.9.7.3,1.8.4,2.3,0v-.2Zm6.9-.5c.2.3.5.4.7,0,3.3-.9,7.3,0,10.2-1.6-.9-.2-2.3-.2-3.2.2-1.2.3-8.4.3-7.7,1.3Zm-16,1.1c.7.9,2.1.3,3,0h0c1.4,0-.2-1.1-.7-.5-.6-.2-3.3-.3-2.3.5Zm20.4,3.7h-.4c-.3,0-.9,0-.8.5.2.3.4.3.6,0,.4,0,.8-.2.6-.5h0Zm-1.4,1.6h-.3.1c0,0,.2,0,.2,0h0Zm66.5-25c.2,0,.2-.2,0-.2v.2Zm13.1-1.4c.1,0,.2-.2.4-.3,0-.2-.1-.6-.3-.2-.5,0-.8.3-1.4.2v.5c.5,0,1,0,1.3-.2h0Zm164.4,243.1v.2h.4c0,.4,0,.8.7.9v-1.2c-.2,0-.4,0-.6-.1,0,0-.3.1-.4.2h-.1ZM225.4,48.1h.4v.2c.6-.2,4.8-.2,4.3-1,0,0-.2,0-.3,0-.6.4-1.5.3-2.2.2-.5.6-2.1-.3-2.2.7ZM3.1,262.4c5,1.3,10.9.9,15.6,2.4h1.7c15.3,2.8,32,4.7,47.7,3.7,2,.3,3.8.2,6,.2.2.2.5.2.7,0,6.5.3,13,.4,19.6.4.5.6,4.2.2,4.9.3v-1h-1.5c-.3-.3-.6-.2-1-.2-.2-.2-.7-.2-1-.2-.4-.4-.9-.2-1.4-.2-.4-.4-.9-.2-1.4-.2-.3-.3-.7-.2-1.1-.2-.4-.3-.9-.2-1.4-.2-.3-.3-.7-.2-1.1-.2-.4-.4-.9-.2-1.5-.2-.4-.4-.9-.2-1.4-.2-.5-.4-1.1-.2-1.7-.2-.4-.4-.9-.2-1.4-.2-.3-.3-.7-.2-1.1-.2-.3-.3-.7-.2-1.1-.2-.3-.3-.7-.2-1.1-.2h0c-.2-.3-.7-.2-1.1-.2-.2-.3-.7-.2-1.1-.2-.3-.3-.9-.2-1.4-.2-.3-.3-.7-.2-1.1-.2-.2-.2-.4-.2-.7-.2-.4-.3-.9-.2-1.4-.2-.4-.4-.9-.2-1.4-.2-.2-.2-.4-.2-.7-.2h0c-.6-.5-1.4-.1-2.1-.2-.2-.2-.4-.2-.7-.2-.3-.4-.9-.2-1.4-.2h0c-.4-.4-.9-.2-1.4-.2-.2-.2-.7-.2-1-.2-.3-.3-.7-.2-1.1-.2-.3-.4-.9-.2-1.3-.3h0c-.3-.3-.6-.2-1-.2-.2-.2-.5-.2-.7-.2-.4-.4-1.2-.2-1.8-.3-.3-.3-.7-.2-1-.2h0c-.2-.2-.4-.2-.7-.2-.2-.3-.7-.3-1.1-.2-.4-.4-.9-.2-1.4-.2-.2-.2-.4-.2-.7-.2-.3-.5-1.1.1-1.4-.5-.4,0-.8.1-1-.3h-1c-.3-.3-.7-.2-1.1-.2-.2-.2-.6-.2-.9-.2h0c-.2-.3-.7-.3-1-.3-1.3-.4-2.8-.5-4.2-.5-.5-.3-1.2-.2-1.8-.2-.5-.5-1.2-.1-1.8-.2-.5-.5-1.2-.1-1.8-.2-.5-.4-1.2-.1-1.8-.2-.4-.3-.9-.2-1.4-.2-.5-.5-1.2-.1-1.8-.2-1.1-.4-2.3-.3-3.5-.4-.3-.3-.7-.2-1.1-.2h0c-.6-.5-1.4-.1-2.2-.2-.2-.2-.5-.2-.8-.2,0,0,0,.1.1.2h-1.4,1.4s0-.1-.1-.2h-.9c-2.6-.5-5.4-.5-8.1-.6-.6-.5-1.4-.1-2.1-.2-1.6-.5-3.6-.3-5.3-.4-2.2-.5-4.7-.5-7.1-.6v9.3h1.7l-.3-1.7ZM1.7,97h.4c.8.7,2.7.7,3.6.3,1-.7,2.4.2,3.5-.4q.5.3,1.1,0c1.4.4,2.8.2,4.2,0,4,0,8.3.7,12.6.5.6.9,2-.9,2.6,0,.5,1.1,1.7-.5,2.7,0-.4,1.1,2.3,1.2,3.2,1.1q.5.3,1,0c1.1.3,1.7-.8,2.6,0,.8.4,1.7-.6,2.7-.3.2.2.5.2.7,0,1.6.3,3.4,0,4.9-.2,0,.2,0,.5.5.4,1.2-.3,2.1.2,3.2.2.6-.5,1.4,0,2-.4,1.3,0,2.5,1.2,3.9.5-1.8-.5-3.6-1-5.4-1.1-.3-.2-.7-.2-1-.2-.2-.2-.4-.2-.7-.2.2-1,1.2,0,1.5-.6.2-1.8-3.3-.4-4.2-1.5-.5,0-1.1.3-1.6,0-1.2-1-3-.5-4.5-.6-1,.2-1.4-.5-2.2-.5-.5.3-2.3-.2-1.8.8-.7,0-1.7-.3-1.8.4h-2.1c-.6-.5-1.4,0-2.2-.2-.2-.2-.4-.2-.7-.2-.2-.4-.8-.2-1-.6-.2-.9,1-.4,1.1-1-.6-.4-1.6,0-2.3-.2,0,.2.2.3.5.3-.4.4-.8.7-1.5,1,0,0-.2-.2-.3-.2-.2-.4-.4-.7-.7-1.3-.5.7-1.2.6-1.9.6-.6-.6-1.4,0-2.1-.2-1.5-.8-3.4.5-5,.2-2.7-.8-5.8-.4-8.8-.5-.5-.4-1.1,0-1.7-.2-.2-.2-.4-.2-.7,0h-.4c-.8-.5-1.7,0-2.6-.2-.5-.5-1-.3-1.7-.3v5.6c.2,0,.2-.2.3-.3v-.5Zm-.3,185.8c.2.3.4.3.7,0h.7c.3.3.9.3,1.3.3v.2c.4,0,.8,0,1.1-.2h1.4v.2h.7c.6.5,2.7.2,3.1.3v.2c9.6-.3,19.4.8,28.8.4.8-.8-.5-.7-1.1-.7-.9-.3-1.8-.5-2.8-.5-.4-.4-2.1-.1-2.2-.2h1.5c-.5-.8-1.5-.3-2.2-.7-1-.4-2.2-.3-3.3-.4,0,0,0,.1-.1.2,0,0,0-.1.1-.2h.4v-.2c-2.1-.8-4.9-.6-7.2-.8-.4-.5-1.1.1-1.4-.5h-.4c-4.1-.7-8.8-1.3-13-1.6-2-.5-4.2-.4-6.4-.5v5.2h0l.3-.5Zm26.6,119h-.2c-.3-.3-.7-.2-1.1-.2-.3-.3-.8,0-1-.5-.4,0-.8.1-1-.3-.4,0-.8.1-1-.3h-1.1c-.3-.3-.8,0-1-.5h-1.1c-.2-.2-.7-.2-1-.2-.4-.4-.9-.2-1.4-.2-.2-.2-.7-.2-1-.2-.4-.3-.9-.2-1.4-.2-.3-.3-.9-.2-1.4-.2-.5-.5-1.3.1-1.7-.5-1.7,0-3.3-.3-5-.2-1.2-.6-2.6-.1-3.9-.2,0-.2-.2-.2-.4,0h-.4c-.2-.4-.8-.5-1.3-.5v4.4h27.4-.7l-.3-.2ZM5.5,111c0,0,.3-.2.2-.4-1.3-.3-2.9-.6-4.2-.4v.9c.6,0,3.3,0,4,0h0Zm-2.7,33.6c.2.2.9.3,1.1,0,10.8,2.4,22.9,4.9,33.8,2.7h3.2c5.1.6,10.9-.2,16.2-.3,4-.1,9.2.3,12.7-.4-1.7-.7-3.4-.6-5.2-1-.3-.3-.6-.2-1-.2-.4-.3-.9-.2-1.4-.2-.3-.3-.9-.2-1.4-.2-.3-.3-.6-.2-1.1-.2h0c0-.1-.3-.2-.4-.3h-.7c-.3-.3-.6-.2-1-.2-.3-.3-.7-.2-1.1-.2-.5-.3-.8-.1-1.4-.2-.4-.4-1-.5-1.6-.4-.5-.4-1.1-.5-1.8-.5-.4-.4-1.1,0-1.5-.4-.3,0-.7.1-1-.2h-.4c-.3-.2-.5-.2-.7,0-.9.5.8.6,1.1.9,0,.2.4.2.7.2,1.2,1.2,3-.4,3.2.5-.4.2.7.6,1.1.5,0,.2.4.2.7.2,0,.2.2.3.3.5h-.8c.8.3,1.6.3,2.3.6-.9-.3-1.9-.6-2.9-.6-.4-.4-1.2-.1-1.8-.2-.4-.3-.9-.2-1.4-.2-.4-.4-.9-.2-1.4-.2-.3-.3-.7-.2-1.1-.2-.4-.4-.9-.2-1.4-.2-.2-.3-.7-.2-1.1-.2-.2-.2-.7-.2-1-.2-.3-.3-.7-.2-1.1-.2-.5-.4-1.2-.2-1.8-.2-.2-.3-.6-.2-1-.2,0-.2-.4-.2-.7-.2h0c-.4-.4-.9-.2-1.4-.2h0c-.4-.3-1.2-.5-1.8-.5-.2-.2-.4-.2-.7-.2-.7-.5-2,.1-2.9-.4,0-.1-.2-.2-.4-.2-.1-.2-.4-.3-.7-.2-.5-.4-1.1-.1-1.7-.2,0-.1-.2-.2-.4-.2-.3-.4-.9-.2-1.4-.3-.1-.2-.4-.3-.7-.3,0-.1-.2-.2-.4-.2-.3-.4-.9-.3-1.4-.3-.4-.3-.9-.2-1.4-.2-1.8-.8-3.8.1-5.7.2-.2-.2-.4-.2-.7-.2h0c-.1-.2-.5-.2-.7-.2,0-.1-.2-.1-.3,0-1,0-2.5-.8-3.5-.2h-1.8c-.2-.3-.5-.3-.7,0-.8,0-1.3-.7-2.2-.5-.6-.7-2.3,0-3.2-.2-1.2-.5-2.7-.3-4-.8v7.8h1.3l-.4-.9Zm4.6,222.7c2.7,0,5.8.1,8.6,0,.3.3.7.3,1,0,1.4.3,2.8.1,4.2,0,.2.2.5.2.7,0,2.2-.2,4.6.4,6.7-.3.3-.2,7.4.6,6.5-.5,0,0-.3-.1-.4-.2h-2.1v-.2c2.9-.7,5.9-.4,8.8-.7.3.3.5-.5,1-.3.3.4,2.1.2,1.1-.3-.2-.7,3.3-.3,3.6-.4.7.4,2.5-.2,3.5,0,.6-.4-.4-.4-.7-.4-.4-.4-1-.1-1.5-.2v.5-.5h-1.3c-.5-.3-1-.3-1.4,0h-.3c-6.6-1.2-13.8,0-20.6-.9-.1-.5.9-.6,1.1-1,3,.1,23.3.2,9.1-.5-2.6-.7-5.7-.6-8.4-.4v-.2c.3,0,.6,0,.6-.3-.4-1.3-2.8-.3-3.9-.6-.4-.5-1.1-.3-1.7-.3-1.3-.4-1.4-.4-2.1.2-2-.2-3.7.3-5.7.2-.2-.2-.4-.2-.7,0h-1.1c-.2-.7-2.4-1.1-2.5-.2-1.8-.1-3-.3-5.6-.2-.2-.6-.7-.4-1.1,0-.2,0-.5.1-.7-.2h-.6v8.2c1.9.5,4,.1,5.9.2v-.5Zm-3.7-131c8.1-.2,16.5.6,24.1-1.5.4,0,.8,0,1.1-.2,1.3.3,4.5-.5,1.1-.7-3-.6-6.1-.6-9.2-.8-1.4-.4-3-.4-4.5-.4-4.8-.8-9.9-.8-14.8-1.4v5.8h2.3v-.8Zm-.3-160c.2,0,.3,0,.2-.3-.7-.2-1.4-.2-2.2-.4v.7c.6.2,1.3.3,2,0Zm-.3,311.1c.9-.3,2.1-.2,3,0,0,.1.2.1.3,0,.3,0,.7-.1,1,.2,3.1,0,5,.3,8.5.2.6.4,1.5.2,2.1,0,.1.1,2.8-.3,3.5.2,4.8.1,9.3.5,14,.6.6.4,4.9.1,5.7.2.2.3,1.2.2.8-.2-.7-.2-1.4-.4-2.3-.3-.3-.4-.9-.3-1.4-.3-.3-.3-.7-.2-1-.2-.4-.3-.9-.2-1.4-.2-.3-.3-.7-.2-1.1-.2-.5-.4-1.2-.1-1.8-.2-.4-.4-.9-.2-1.4-.2-.4-.3-.9-.2-1.4-.2-.4-.4-.9-.2-1.4-.2-.4-.4-.9-.2-1.4-.2-.5-.4-1.5-.1-2.2-.2-.4-.3-.9-.2-1.4-.2-.4-.4-.9-.2-1.5-.2-.5-.4-1.1-.2-1.7-.2-.6-.5-1.4-.2-2.2-.2-.4-.4-1.1-.2-1.7-.2h0c-1.7-.5-3.7-.3-5.6-.4h0l-.2-.2c-1.6-.2-3.1-.4-4.7-.3-.6-.5-1.5-.2-2.2-.3h-.5c-.4-.4-1.6-.1-2.1-.2v3.6c.5,0,1.1.3,1.7.2,0,0,0-.2,0-.2Zm9.5-173.7c4.8-.1,10.2.6,14.8-.4.5-.1,1.4.2,1.7-.3.9-.2,2.2.4,2.8-.3.7.3,7.3-.7,4.2-.9-.7-.4-1.7-.1-2.5-.2-1.1-.4-2.3-.4-3.6-.4-.5-.3-1.2-.2-1.8-.2-.6-.5-1.7-.1-2.5-.2-1.1-.4-2.6-.4-3.8-.4h0c-1.3-.4-2.8-.3-4.3-.4-.6-.5-1.4-.1-2.1-.2-4.6-.8-9.5-.7-14.2-1.2v5.5c3.7.1,7.5-.3,11.2.2v-.6Zm-9.5-16.3c24.4,1.8,50-.5,74.3,1.3.6.7,1.7-.8-.3-.5h0c-1.3-.5-2.8-.5-4.2-.5-.4-.3-.9-.2-1.4-.2h0c-.5-.5-1.1-.1-1.8-.2-.5-.4-1.1-.2-1.8-.2-.4-.3-.9-.2-1.4-.2-.5-.4-1.2-.1-1.8-.2-.6-.5-1.4-.1-2.1-.2-.9-.4-2.8-.3-3.9-.4-1.3-.4-2.8-.3-4.2-.4-.5-.4-1.1-.2-1.7-.2-2-.5-4.2-.4-6.4-.6-.6-.5-1.4-.1-2.1-.2-.6-.5-1.7-.1-2.5-.2-1.5-.4-3-.4-4.6-.4-11.3-1.4-23.5-1.4-35.7-1v5h1.7v-.7Zm-1,141.2h-.7v-4.5c14.3-.4,28.7-4.7,42.9-3.6,6.5-.4,13.5-1.4,19.8-.9,6.1-.4,12-1.2,17.9-1.2,7.7-1.1,15.5-1.6,23.3-2.3,3.2-.7,7.2-1,10.7-.7.9-.6,2-.5,3-.6,0-.2.3-.2.5,0,2.8-.5,5.7-.9,8.6-1,1.1-.9,2.8-.2,4.1-.7,1.4-1,6.2-.7,7.1-1,.8,0,2.4-1.1,2.5.2,4.1.6,9.4-1.1,13.8-1,1.8-.8,4.5-1,6.5-.9,3.1-.8,7-1.2,10.5-1.5.5-.5,1.3-.4,2-.5v.3-.3c2.2-.5,4.3-.8,6.6-.6.1-.3.3-.3.5,0,3.6-.8,2.2.6-.5.8-.6.7-2,.1-2.5.9-4.1.5-8,2.4-12.1,2.7-.6.7-1.8.2-2.5.6-.6.6-1.8.2-2.5.5-.7.6-1.7.4-2.5.4-.9.7-2,.4-3,.5-3.2,1-6.6,1.6-10.1,1.8-47.1,7.1-96.3,13.4-143.9,12.1v.5Zm163.5-16.9h.2v.3-.3h-.2ZM3.9,285.9c.3.3.6.2,1,.2,1.7.4,3.5.5,5.4.6v-.5c-1.1.1-2-.2-2.9-.2-.4-.4-.9-.1-1.5-.2-.4-.4-1.3-.1-1.8-.2v-.2h-1.4v-.2h-1.4.1v.7c.8,0,1.7,0,2.5,0Zm-2.1,12.9c1.1-.1,1.4.8,2.4,1,.6,0,1.8,0,.8.7h-2v.2c.8.8,1.9,1,3,.9,1.9,1,4.6,1.6,6.7,2.2,4.5,1.4,10.1,2.3,15,2.1,2.4.2,5,1.8,7.4,1.1.9.3,3.6.4,3.9-.5h.7c.3.8,2.1.7,2.9.5.8.3,1.6.5,2.5.5.6.5,1.5,0,2.1.5.4-.2,2.8.4,2.1-.5,0,0-.2-.2-.4-.2v-.5c.6-.2.9-.7,1.5-.3,1.2-2.2-4.7-.7-5.7-1.5,0-1.2,2.3.2,2.1-1.2h.7c0,.7,1.3.2,1.7.5.2.6,2,.9,2.6.5.3,0,.7-.3,1.1-.2,0,.5-.3,1.1.3,1.4-.7,2,2.2,1.8,3.4,1.3.4,0,.9.4,1.3,0-.2-.1-.5-.3-.8-.4,0-.2-.4-.4-.4-.7-1.1-.7-.8,2-2.6,1,0-.4.2-.9-.4-1.2-.5-.5,0-1.5.8-1,.2.2.5.2.7,0,1,.1,2.7-.7,3.2.6-.3.6.3,1.2,0,1.9,0,.7,1.2.5,1.7.8.2-.2.8-.2,1.1-.2,0,.2.2.2.4,0,.6-.9-2,0-2.4-.6v-1c.8-.3-.5-.6.4-1.2.4-.1.8.1,1.1.2,0,.2.2.2.4,0,.5.1,2.5-.2,2.8.2,0,0-.2.2-.3.2v.2c.2,0,.5.2.7.2,0,.8,1.7.6,2.2.3v-.7c.6-.1,1.2.3,1.8,0,.8.7.4,1.3,2,1.4-.3-.4,0-.7,0-.9,1.3.4,1.2,1.8,2.5.5h.4c0,.4-.3.8.4,1.2,0,.2.2.2.4,0,.7.6,3.3.3,2.5-.7-.3-.2-.7-.3-.7-.6.9.3,2,.3,2.9.7.3,1,1.8-.2,2.5.5,0,.8,1.7.2,2.1-.3h.4c.7,1.8,2.4.1,3.6,1,.2.8,1,.5,1.8.5.5.5,1.2-.1,1.8-.3.3.3,1.3.3,1.5,0h1.1c0,.3,1.2.7,1.1,0,0,0,.2-.2.4-.2.2-.3.6-.2,1-.2-.2.6-.7.8.4,1,.5.2,1,.8,1.6.4.8-.7,1.5.3,2.5.3.2.2.5.2.7,0,.6,0,1.2.1,1.8.2.2.3.6.3,1,.3.2.3.7.2,1.1.2.2.2.3.2.7.2.3.2.7.2,1,0,1.1.6,2.1.9,3.3.9.4-.3.3-.4-.3-.5,0-.2-.5-.2-.8-.2-.2-.1-.4-.2-.8-.2-.2-.2-.3-.2-.7-.2,0-.1-.4-.3-.7-.2-.6-.9-1,.2-1.8-.4-1.1-.4-2.6-1-4-1.1,0-.1-.2-.2-.4-.2,0-.3-.6-.5-1-.5,0-.3.2-.7-.4-1,0-.3-.5-.4-1.1-.5-1.5-.4-3.3.3-4.6-1.2-3.2-1.3-6.9-2.5-10.4-2.6h0c-.2-.4-.9-.6-1.4-.5-.3-.3-.8,0-1-.5-.4-.3-1,0-1.4-.4s-.9-.1-1.5-.2c-.3-.3-.8-.1-1.1-.4-.3,0-.8.1-1.1-.2h-.3c-.5-.3-1.1-.4-1.8-.4-.2-.2-.4-.2-.7-.2h0s-.2-.2-.3-.3h-1c-.3-.3-1.1-.1-1.4-.7h-.7c-.5-.4-1.5-.6-2.2-.5-.2-.2-.7-.2-1-.2-.3-.4-.8-.1-1.1-.6h-.4c-.2-.3-.7-.3-1.1-.3-.2-.3-.7-.3-1.1-.2-.2-.3-.6-.2-1-.2-1-.3-2.1-.6-3.2-.6-.2-.2-.4-.2-.7-.2,0-.2-.4-.3-.7-.2-.3-.4-.9-.2-1.4-.3-.3-.3-.8,0-1-.5h-.7c-.2-.3-.7-.2-1-.3h0c-.3-.3-.7-.2-1.1-.2-.2-.2-.7-.2-1-.2-.3-.3-.7-.2-1.1-.2-.2-.3-.6-.2-1-.3h0c-.3-.3-.8,0-1-.5h-1.2c-.3-.4-.7-.3-1.1-.3-.3-.3-.7-.2-1.1-.2-.2-.3-.7-.2-1.1-.2-.2-.3-.7-.2-1.1-.2-1-.6-2.6-.6-3.9-.7-.4-.4-.9-.2-1.4-.2-.3-.4-.9-.3-1.4-.3-.2-.2-.4-.2-.7-.2-.4-.7-1.7-.5-2.5-.8-.6-.5-1.4-.2-2.1-.3-.1-.2-.4-.2-.7-.2v.4c-.3,0-.3-.3-.3-.4-.5-.3-1.1-.5-1.7-.5v-.2h-.4v.2h-.7v-.2c-.6,0-1.2,0-1.8.2-3-.8-6.4-1.5-9.7-1.6v-.2c-.3.1-.5-.1-.8-.2-1,.1-2-.3-3-.2v.2c.1,0,.2.2.4.2.3.4,1.7.1,2.1.2.2.2.8.2,1.1.2.7.5,1.9-.1,2.6.4,1.3.2,2.7.5,4,.8.4.3,1.2.6,1.8.5v.7h-.3v-.2h-1.1c-.5-.4-1.2-.2-1.8-.2v.2c.6,0,1,.6,1.7.5.3.4.9.2,1.4.3v.2c1.1.7,2.6.7,3.9,1.1v.5c-1,.1-1.3-.2-2.2-.2-.6-.3-1.4-.2-2-.2v-.2c-2.6.1-5.2-.7-7.9-.9v-.2h-1.4v-.2c-.5.1-1.3-.2-1.8.1,0,.4,1.9.2,2.3.5,3.4.4,6.6,1,10,1.6.1.9-1.4.3-1.8.7-.3,0-.7,0-1,.1.6.9,2.3.5,3.1,1.1,0,.6-.9.5-1.5.5-.3.7,1.1.8,1,1.4-5-.2-10-.9-15-1.4,0-.1-.3-.2-.4-.1-2.1.1-4.2-.2-6.3-.5v4.1h0c.1,0,.2.2.4.2l-.6-.8Zm1.6-53.2h0c1.2-.3,4.2.9,3.9-1.1.4-.3.9-.2,1.4-.2v.5c-.4.2-.3.5-.4.7.2.4.8-.3.8-.5h.7c.3.4.8.5,1.4.5.2.2.5.2.7,0,7,.5,13.9,0,21,0v.2c3.7.7,7.6-.2,11.4.3.5.7,6.6,0,3.9-1-.3-.3-.7-.2-1-.2,0-1-2.1-.3-2.2-1.4,2.6.3,5.5,1,8.3.7.5.4,1.2.2,1.8.2.4.4,2,.1,2.2.2.6.4,1.8.5,2.5.3,1.9.8,3.7.4,5.6.7.2.2.5.2.7,0,.8-.5-4.8-.8-4.6-.9-.4-.3-.9-.2-1.4-.2-.4-.3-.9-.2-1.4-.2h0c-.6-.5-1.4-.1-2.1-.2-1.5-.4-3.2-.8-4.9-.5,0,0-.3-.2-.4-.2h0c-.4-.4-.9-.2-1.4-.2-.6-.6-1.4,0-2.1,0-.2-.2-.5-.2-.7,0-.4,0-.6-.5-1.1-.4-.3-.3-.6-.2-1-.2-.4-.4-1.8-.4-1.8.3,0,0-.2.2-.3.2,0,0,.6.4.7.5,0,0,.2.2.4.2,0,.1-.2.3-.2.4.4.5-1.3,1.2-1.7.7-.6,0-1.1-.6-1.8-.4-.8-.8-1.7.8-2.6,0-.5-.3-1.7-.4-1.4.5-1,0-2.1.1-2.7-.6-.9-.2-1.8-.5-2.3-1.1-.3,0-1.2-.1-1.6-.1.1-.4-.2-.9-.5-.4,0,.3-.5.4-.9.4-1.9-.4-4.8-.2-6.8-.4-.2-.2-.5-.2-.7,0h-12.2c-.5-1-3.7-.6-2.8.6.5,0,1,0,1.4-.2,3.2.5,6.6,0,9.9.2-.4.7-1.2.2-1.7.6-.8,0-1.1-.5-1.8,0-1.6.3,1,.4.8,1-.3.2-.6.2-1.1.2-.3-.4-.9-.3-1.4-.3.1-1.8-2.3-1-3.5-1-.5-.3-.9-.3-1.4,0-1.5,0-2.3.2-3.2-.7,2.6-.4-2.8-1.5-1.5,0v.2c-.2.2-.4.3-.6.5v.3c1.5.3,3.1,0,4.6.1h-1.5c0,.2.4.4.3.7h-1.8c-.3-.3-.7-.3-1,0h-.6v.7c.6-.1,1.6.5,2,0h-.3Zm-1.4,46.2c.5,0,.6.3.7.6.6.4,1-.6,1.1-1,.2,0,.4,0,.6.2,0,.8,1.6.2,1.4,1.1,0,.2,0,.4.4.5,1.5-1.2,3.6-.8,5.5-.4-1.2-1.3-3-2-4.8-1.4,0-.5-1-.7-1.5-.7-.4-.4-1.4,0-1.8-.4H1.4v1.2h0c.1.2.3.4.6.4h0ZM232.8,2c-.3,0-.6,0-.7.2.1.2.2.3.4.5h-.7c-.2-.6-1.5-.3-1.4.3-.4.1-.3.4-.3.7-.4.4-1.2.2-1.8.2.3-1-1.2-1.1-1.8-.7-.2,0-.2.2,0,.2.3.3.7.2,1.1.2v.2c-.5,0-1-.1-1.4.3h-1.8c0-.5.1-1.1-.7-1-.4.4-1.5,0-1.8.4-.2,0-.5.2-.7.2-.5-.3-.8-.1-.7.4h-.8c.2-.8-1.2-.9-1.7-.5h-1.8c0-.3.2-.5.4-.7-.9-.6-1.3,1.2-2.8.5-.1.2-.2.3-.4.5h-2.5v-.5c-1.2-.6-2.6.3-4,0-.6-.4-1.2.4-1.9.2-.2-.2-.5-.2-.7,0-.8.1-2.2-.2-2.8.2-1.1,0-2.2.3-3.3.4-.6-.4-1.5,0-2.1.2v.5h-1v-.2c-.7-.5-2.8-.3-2.8.7-.5,0-1.2.2-1.5-.2q-.5-.4-.9.2c-1.3.6-3,0-4.3.6-.1,0-.3,0-.4.2h-.3c-.1-.2-.4-.2-.7-.2,0,0,0-.2-.2-.3,0,0-.1.2-.2.3v.2c-1,0-2.1-.3-2.8.5h-.8c0-.2-.2-.2-.3,0-.4,0-1.8-.2-1.8.4h-.4c-.7-.8-1.6-.2-2.5,0-.3,0-1,0-1.1.2-.2,0-.5.2-.7.2,0-1-2.2,0-.8.5.7.5,1.5,0,2.2,0,.3,0,1,0,1.1-.2h.7c.2.2.5.2.7,0,.1-.3,3.3-.2,3.6-.2.7,0,1.4-.4,2.1,0,.1.5-.3,2.1.6,1.4h.7c.5.4,1.2,0,1.8.2.8,0,.5-.8,1.4-.7.1,1.6,2.3.7,3.2.3.9,0,1.6,1.3,2.5.5,5.2-.4,10.1-.2,15.1-.7.9.8,3.4.8,4.3,0,6.2-.7,13.2,0,19.3-1.5.9,0,2.4.5,3.1,0,19.6-.9,39.4,1.5,58.8.5.3-.6,1.1-.4,1.8-.5.2.5,1.4,0,1.7-.2,5.6,0-.5-.9-2.2-.7h0c0,0-.2-.2-.4-.2-.4-.4-1.2,0-1.8-.2-.4-.4-.9-.2-1.4-.2-.6-.5-1.4,0-2.1-.2-.4-.4-.9-.2-1.4-.2-.5-.5-1.2,0-1.8-.2-.4-.4-.9-.2-1.4-.2-.4-.4-.9-.2-1.4-.2-.4-.3-.9-.2-1.4-.2-.4-.4-.9-.2-1.4-.2-.5-.5-1.2,0-1.8-.2-.4-.3-.9-.2-1.4-.2h0c-.5-.5-1.1-.1-1.7-.2-10.7-1.6-32.5-1.4-43.3-1.2l.4-.4Zm123.1-.1h-.4s.1,0,.2.1c0,0,.2,0,.2-.1h0Zm2.6.1c.1,0,.3,0,.4-.1h-.9v.2h.5Zm-6.2-.1h-.1.1Zm12.7.4c.4.5,1.1-.4,1.5.3.6.7,2,0,2.9.2.5.3.5,0,.7-.2,1.1.1,2.7-.3,3.9.2-.3,1.5,1.1,0,2,.4.2,0,.4,0,.6-.2.1,0,.2.2.4.2.2.2.4.2.7.2-.1.5.7.5,1.1.5.5.2.6.2.7-.2.2-.2.4-.2.7-.2.7.6,1.6-.1,2.4,0v.2c-.2,0-.2.2,0,.2v.2c.2.2.5.2.7,0,.6-.5,1.2,0,1.9,0v.2c.9.6,1.6,0,2.5-.3.6.2.9.8,1.7.5.5-.2,1.1.2,1.6-.2.3-.3.6-.2,1-.2.4.6,1.1.5,1.8.5.2.2.5.2.7,0,.4-.4.7,0,1.1,0,.4.6,1.5.7,2.1.3,1,.2,2.1.3,3.2.2V1.9h-35.5v.4h-.4Zm-3.5,0c.1,0,.2.2.4.2.3.3,1.2.3,1.4,0,.3-.1.3-.3.4-.5,0,0,.1,0,.2-.1h-2.7c.1.1.2.3.4.3h0Zm-1.6-.4h-.4.4ZM3.5,5.4c.2.2.5.2.7,0,.6,0,.9.4,1.4.5.2.2.5.2.7,0,.3,0,1,0,1.1-.2h.7v.2c0,0,.2.2.4.2,0,.2.2.2.4,0,.8-.6,1.7.4,2.6.3.3,0,.5,0,.8.2,4.4-.2,8.6,1,12.8.9,11,2,22.4,2.7,33.4,3.6,1,.5,4.3.1,5.3,0,.2.2.5.2.7,0,.2,0,.5-.1.4-.4-.8-.5-2.1.1-2.9-.5-.6-.3-1.4-.4-2.2-.4-.3-.2-.4-.2-.8,0-.9,0-1-1-2.1-.7-.3-.3-.7-.2-1.1-.2-.3-.3-.7-.2-1.1-.2-.2-.3-.6-.2-1-.2-.3-.3-.8,0-1-.5-.4,0-.8,0-1-.3h-.7c-.3-.3-.7-.2-1.1-.2-.4-.4-1.1,0-1.5-.4h-.3c-.3-.3-.7-.2-1.1-.2,0-.2-.5-.2-.7-.2-.3-.3-.7-.2-1.1-.2-.2-.2-.4-.2-.7-.2h0c-.3-.3-.8,0-1-.5h-.7c-.2-.2-.4-.2-.7-.2-.2-.3-.7-.2-1-.2-.2-.2-.4-.2-.7-.2h0c0-.2-.4-.2-.7-.2-.2-.3-.6-.3-1-.3.2.2.5.3.9.3-.3,0-.6,0-.9-.3h0c-.2-.2-.4-.2-.7-.2h0c0-.4-.7-.3-1-.3-.2-.2-.4-.2-.8-.2,0-.4-.7-.3-1-.3-.2-.2-.7-.2-1-.2-.3-.3-.7-.2-1.1-.2-.2-.2-.4-.2-.7-.2h0c-.2-.2-.7-.2-1-.2-.3-.3-.7-.2-1.1-.2-.2-.2-.4-.2-.7-.2h0c-.1-.3-28,0-28.2-.1v3.5c.7,0,1.3.3,2,0v-.5Z"/></svg>